<svg id="Layer_1" data-name="Layer 1" xmlns="http://www.w3.org/2000/svg" viewBox="0 0 625 625"><defs><style>.cls-1{fill:#c3dae2;}.cls-1,.cls-2,.cls-3,.cls-4{fill-rule:evenodd;}.cls-2{fill:#5b7781;}.cls-3{fill:#95c6d1;}.cls-4,.cls-5{fill:#374a4f;}</style></defs><path class="cls-1" d="M152.05,458.13c-19.3-4.51-43.31-6.33-62.61-10.84,13.91,27.15,22.78,58.34,36.69,85.49,2.2,30.45,14.73,62.37,19.15,93.14H171c5.87-36.17,7.6-82,3.41-103.24C167.47,501.61,159,479.2,152.05,458.13Z"/><polygon class="cls-1" points="117 301.59 141.06 251.65 172.23 299.37 234.57 295.04 201.13 451.95 84.94 375.03 127.89 324.55 117 301.59"/><path class="cls-1" d="M73,206.55c22.3-10.22,50.63,3.86,63.26,31.43s7.36,55.94-21,67.54-38.45-10-56.14-38.31S50.71,216.77,73,206.55Z"/><path class="cls-1" d="M134.68,228.4c6.82-3.12,11.18,3,14.3,9.82s-2.14,13.43-6.19,16.08c-6.81,3.13-11.67-1.11-14.79-7.92A13.56,13.56,0,0,1,134.68,228.4Z"/><path class="cls-2" d="M257.57,555.38l-72,7.4c-7.73,19.74-15.45,41.22-23.18,63.14H350.11c6.67-24.95,9.09-55.51,1.84-95.39l-104.3,38.3,7.9-2.9Q256.56,560.65,257.57,555.38Z"/><path class="cls-3" d="M151.54,461.45,136.4,427.87,83.2,374.4C74.69,402,80.32,437.72,87,460.29,109.83,470.1,133.38,469.14,151.54,461.45Z"/><path class="cls-3" d="M83.2,374.4,119.55,332c20.79,19.81,66.55-10.1,63.52-35.07l51.71-3.74,1,.21c-.14,4.43,119.82,174.27,119.82,244-27.19,35.78-112.6,58.35-175.69,29.28C185.26,469.85,111.07,416.51,83.2,374.4Z"/><path class="cls-1" d="M297.79,362l-17.5-61.59c46.54-9.76,103.06,5.74,107.27,9.54,24.84,22.39-53.23,131.58-52.41,132.41,7.86,7.95,23.44,27.18,22.44,34.05-1.44,9.8-3.17,13.62-9.07,24.56v0c-7.34-22.77-19.69-49.15-33.6-75.32,2-14.82,10.92-58.38,12.16-66.32Z"/><path class="cls-3" d="M234.78,293.18l43.37,73.37,31.62-.83c13.9-11.76,11.88-61.38,5.05-71.69Z"/><path class="cls-4" d="M358.88,429c15.41,4,23.44,21.85,25.25,36.29,1.78,14.22-1.43,31.14-14,39.7a3.05,3.05,0,1,1-3.43-5,22.7,22.7,0,0,0,3.86-3.33c7.28-7.9,8.82-20.3,7.54-30.56-1.47-11.74-8-27.86-20.71-31.14a3.05,3.05,0,1,1,1.52-5.91Z"/><path class="cls-4" d="M367.13,410.88c21.79,5.61,33.09,31.18,35.64,51.55,2.53,20.11-1.93,44.23-19.77,56.35a3.05,3.05,0,1,1-3.43-5,33.85,33.85,0,0,0,5.84-5.05c10.87-11.78,13.23-30.16,11.31-45.49-2.22-17.68-12-41.47-31.11-46.4a3.05,3.05,0,1,1,1.52-5.91Z"/><ellipse class="cls-5" cx="329.01" cy="472.2" rx="37.86" ry="35.17"/><path class="cls-1" d="M78.9,288.71c0,2.84-4.56,3.65-7.54,4.23-5.76,1.12-7.43-1.93-7.43-4.77s1.28-6.39.94-16.82C64.67,265.48,78.9,285.87,78.9,288.71Z"/><polygon class="cls-4" points="250.22 602.73 244.46 625.92 253.02 625.92 250.22 602.73"/><polygon class="cls-4" points="119.72 418.94 147.76 462.97 151.54 461.45 119.72 418.94"/><polygon class="cls-4" points="253.47 322.52 281.11 366.47 284.91 366.37 253.47 322.52"/><path class="cls-4" d="M128,246.38c-.09,3.34-2.08-.85-3.26-2.51-5.15-7.24-18.93-4.52-26.89-2.41-21.85,5.78-33.42,5.35-42.11,21.07-1.09,2-21.49-13.66-21.49-38,0-15.18,11.12-32.31,22.82-40.21,7-4.75,24.09-11.46,33.05-13.1,10.24-1.87,36.95-2.1,58.09,19.64,19,19.52,15.23,58.23,3.33,76.8l-8.75-13.4c5-2.65,3.53-8.5,2.13-11.41C138.18,228.82,128.64,222.94,128,246.38Z"/></svg>