<svg id="Layer_1" data-name="Layer 1" xmlns="http://www.w3.org/2000/svg" viewBox="0 0 625 625"><defs><style>.cls-1{fill:#d2ebf3;}.cls-2{fill:#212f33;}.cls-3{fill:#010101;opacity:0.3;}.cls-4{fill:#5b7781;}.cls-5{fill:#a7a9ab;}.cls-6{fill:#f0c7b5;}.cls-7{fill:#95c6d1;}.cls-8{fill:#384b51;}.cls-9{fill:#184766;}.cls-10{fill:#3677ac;}.cls-11{fill:#939599;}.cls-12{fill:#53545a;}.cls-13{fill:#c3dae2;}.cls-14{fill:none;stroke:#384b51;stroke-linecap:round;stroke-linejoin:round;}.cls-15{fill:#14a9a0;}.cls-16{fill:#313134;}.cls-17{fill:#374a4f;}</style></defs><path class="cls-1" d="M136.32,68.19l-.54,0a2.23,2.23,0,0,1,0-4.44l.52,0a2.19,2.19,0,0,1,0,4.37Zm-8.83,0-.53,0a2,2,0,1,1,0-4l.54-.24a2.09,2.09,0,0,1,0,4.18Zm-8.82-.56-.54.26a2.1,2.1,0,0,1,0-4.2h.53a2,2,0,1,1,0,3.94Zm-8.83,0-.53.23a2.09,2.09,0,0,1,0-4.17l.54,0a2,2,0,1,1,0,4Zm-8.82,0-.54.19a2.08,2.08,0,0,1-2.06-2.16,2.13,2.13,0,0,1,2.1-2.17l.52,0a2.06,2.06,0,1,1,0,4.11Zm-8.82,0-.54.16a2.18,2.18,0,0,1,0-4.36l.52,0a2.09,2.09,0,0,1,0,4.18Zm-8.83,0-.53.12a2,2,0,1,1,0-4.06l.54-.14a2,2,0,1,1,0,4.08Zm-8.82,0-.54.09a2,2,0,1,1,0-4l.53-.18a2.06,2.06,0,1,1,0,4.12Zm-8.83,0-.53.05a2,2,0,1,1,0-4l.54-.21a2.08,2.08,0,0,1,0,4.15Zm-8.82,0-.54,0a2,2,0,1,1,0-4l.53-.24a2.09,2.09,0,0,1,0,4.18Zm-8.83-.56-.53.26a2,2,0,0,1-2.06-2.12,2.11,2.11,0,0,1,2.09-2.16l.52,0a2,2,0,1,1,0,4Zm-8.82,0-.54.23a2.09,2.09,0,0,1,0-4.17l.54,0a2,2,0,1,1,0,4Zm-8.82,0-.54.19a2.07,2.07,0,1,1,0-4.13l.53-.07a2,2,0,1,1,0,4Zm-8.83,0-.53.16a2.05,2.05,0,1,1,0-4.1l.54-.11a2,2,0,1,1,0,4Zm-8.82,0-.54.12a2,2,0,1,1,0-4.06l.53-.14a2,2,0,1,1,0,4.08ZM4,67.07l-.53.09a2,2,0,1,1,0-4L4,63a2.06,2.06,0,1,1,0,4.12Zm-8.82,0-.54.05a2,2,0,0,1-2.06-2,2,2,0,0,1,2.08-2l.54-.21A2,2,0,0,1-2.79,65,2,2,0,0,1-4.87,67.07Zm-8.82,0-.54,0a2,2,0,0,1-2.06-2,1.94,1.94,0,0,1,2.08-2l.53-.25A2,2,0,0,1-11.62,65,2,2,0,0,1-13.69,67.07Zm-8.83-.57s-.53.27-.53.27a2,2,0,0,1-2.06-2.12A2,2,0,0,1-23,62.57h.54a1.94,1.94,0,0,1,2.06,2A1.93,1.93,0,0,1-22.52,66.5Zm-8.82,0-.54.24a2,2,0,0,1-2.06-2.1,2,2,0,0,1,2.08-2.07l.53,0a2,2,0,0,1,2.06,2A1.93,1.93,0,0,1-31.34,66.5Zm-8.83,0-.53.2a2,2,0,0,1-2.06-2.08,2,2,0,0,1,2.07-2.05l.54-.07a2,2,0,0,1,2.06,2A2,2,0,0,1-40.17,66.5Z"/><path class="cls-1" d="M136.26,76.06l-.53.08a2.3,2.3,0,0,1,0-4.58l.54.09a2.21,2.21,0,0,1,0,4.41Zm-8.82,0-.54,0a2.28,2.28,0,0,1,0-4.54l.53.06a2.23,2.23,0,0,1,0,4.44Zm-8.83,0h-.53a2.26,2.26,0,0,1,0-4.51l.54,0a2.25,2.25,0,0,1,0,4.48Zm-8.82-.56-.53.25a2.4,2.4,0,0,1,0-4.75l.53.27a2.12,2.12,0,0,1,0,4.23Zm-8.82,0-.54.22a2.38,2.38,0,0,1,0-4.72l.53.23a2.14,2.14,0,0,1,0,4.27Zm-8.83,0-.53.18a2.36,2.36,0,0,1,0-4.68l.54.2a2.15,2.15,0,0,1,0,4.3Zm-8.82,0-.54.15a2.34,2.34,0,0,1,0-4.65l.53.16a2.17,2.17,0,0,1,0,4.34Zm-8.83,0-.53.11a2.2,2.2,0,0,1,0-4.39l.52,0a2.13,2.13,0,0,1,0,4.26Zm-8.82,0-.54.08a2.21,2.21,0,0,1,0-4.42h.51a2.17,2.17,0,0,1,0,4.33Zm-8.82,0-.54,0a2.28,2.28,0,0,1,0-4.54l.53.06a2.23,2.23,0,0,1,0,4.44ZM48,75.5h-.53a2.26,2.26,0,0,1,0-4.51L48,71a2.25,2.25,0,0,1,0,4.48Zm-8.82-.56-.54.25a2.4,2.4,0,0,1,0-4.75l.53.27a2.12,2.12,0,0,1,0,4.23Zm-8.83,0-.53.22a2.38,2.38,0,0,1,0-4.72l.54.23a2.14,2.14,0,0,1,0,4.27Zm-8.82,0-.54.18a2.36,2.36,0,0,1,0-4.68l.53.2a2.15,2.15,0,0,1,0,4.3Zm-8.83,0-.53.15a2.34,2.34,0,0,1,0-4.65l.54.16a2.17,2.17,0,0,1,0,4.34Zm-8.82,0-.53.11a2.32,2.32,0,0,1,0-4.61l.53.13a2.19,2.19,0,0,1,0,4.37Zm-8.82,0-.54.08a2.21,2.21,0,0,1-2.06-2.31,2.21,2.21,0,0,1,2.08-2.27l.53.09a2.13,2.13,0,0,1,2.06,2.22A2.12,2.12,0,0,1-4.92,74.94Zm-8.83,0-.53,0a2.19,2.19,0,0,1-2.06-2.28,2.18,2.18,0,0,1,2.07-2.26l.54.06a2.15,2.15,0,0,1,2.06,2.23A2.15,2.15,0,0,1-13.75,74.94Zm-8.82,0h-.54a2.19,2.19,0,0,1-2.06-2.27,2.17,2.17,0,0,1,2.08-2.24l.53,0a2.16,2.16,0,0,1,2.06,2.26A2.16,2.16,0,0,1-22.57,74.94Zm-8.83-.56-.53.25A2.29,2.29,0,0,1-34,72.24a2.29,2.29,0,0,1,2.07-2.36s.54.27.54.27a2.06,2.06,0,0,1,2.06,2.13A2.06,2.06,0,0,1-31.4,74.38Zm-8.82,0-.54.22a2.28,2.28,0,0,1-2.06-2.38,2.28,2.28,0,0,1,2.08-2.34l.54.23a2.08,2.08,0,0,1,2.06,2.15A2.07,2.07,0,0,1-40.22,74.38Z"/><path class="cls-1" d="M136.21,83.94l-.54.09a2.2,2.2,0,0,1,0-4.4h.52a2.15,2.15,0,0,1,0,4.3Zm-8.83,0-.53.06a2.29,2.29,0,0,1,0-4.56l.54.07a2.22,2.22,0,0,1,0,4.43Zm-8.82,0L118,84a2.27,2.27,0,0,1,0-4.52l.54,0a2.24,2.24,0,0,1,0,4.46Zm-8.82,0h-.54a2.25,2.25,0,0,1,0-4.49h.53a2.26,2.26,0,0,1,0,4.5Zm-8.83-.57-.53.24a2.39,2.39,0,0,1,0-4.73l.54.25a2.12,2.12,0,0,1,0,4.24Zm-8.82,0-.54.21a2.37,2.37,0,0,1,0-4.7l.53.21a2.14,2.14,0,0,1,0,4.28Zm-8.83,0-.53.17a2.35,2.35,0,0,1,0-4.66l.54.18a2.16,2.16,0,0,1,0,4.31Zm-8.82,0-.53.14a2.33,2.33,0,0,1,0-4.63l.53.14a2.18,2.18,0,0,1,0,4.35Zm-8.82,0-.54.1a2.31,2.31,0,0,1,0-4.59l.53.11a2.19,2.19,0,0,1,0,4.38Zm-8.83,0-.53.07a2.29,2.29,0,0,1,0-4.56l.54.07a2.21,2.21,0,0,1,0,4.42Zm-8.82,0-.54,0a2.24,2.24,0,0,1,0-4.46H48a2.22,2.22,0,0,1,0,4.42Zm-8.83,0h-.53a2.25,2.25,0,0,1,0-4.49h.54a2.25,2.25,0,0,1,0,4.49Zm-8.82-.56-.53.24a2.39,2.39,0,0,1,0-4.74l.53.26a2.12,2.12,0,0,1,0,4.24Zm-8.83,0L21,83a2.38,2.38,0,0,1,0-4.71l.54.22a2.14,2.14,0,0,1,0,4.28Zm-8.82,0-.53.17a2.35,2.35,0,0,1,0-4.67l.53.19a2.16,2.16,0,0,1,0,4.31Zm-8.82,0L3.31,83a2.34,2.34,0,0,1,0-4.64l.53.15a2.18,2.18,0,0,1,0,4.35Zm-8.83,0-.53.1A2.22,2.22,0,0,1-7.57,80.6,2.21,2.21,0,0,1-5.5,78.31l.54.12A2.13,2.13,0,0,1-2.9,80.64,2.12,2.12,0,0,1-5,82.81Zm-8.82,0-.54.07a2.21,2.21,0,0,1-2.06-2.3,2.21,2.21,0,0,1,2.08-2.27l.53.08a2.14,2.14,0,0,1,2.06,2.23A2.12,2.12,0,0,1-13.8,82.81Zm-8.83,0-.53,0a2.18,2.18,0,0,1-2.06-2.28,2.19,2.19,0,0,1,2.07-2.25l.54,0a2.15,2.15,0,0,1,2.06,2.24A2.15,2.15,0,0,1-22.63,82.81Zm-8.82,0H-32A2.18,2.18,0,0,1-34,80.55,2.15,2.15,0,0,1-32,78.32h.52a2.18,2.18,0,0,1,2.07,2.26A2.16,2.16,0,0,1-31.45,82.81Zm-8.82-.56-.54.24a2.29,2.29,0,0,1-2.06-2.39,2.29,2.29,0,0,1,2.08-2.35l.53.26a2.06,2.06,0,0,1,2.06,2.14A2.06,2.06,0,0,1-40.27,82.25Z"/><path class="cls-1" d="M136.15,91.81l-.53.12a2.32,2.32,0,0,1,0-4.62l.54.13a2.19,2.19,0,0,1,0,4.37Zm-8.82,0-.53.08a2.3,2.3,0,0,1,0-4.58l.54.1a2.2,2.2,0,0,1,0,4.4Zm-8.82,0-.54,0a2.29,2.29,0,0,1,0-4.55l.53.06a2.23,2.23,0,0,1,0,4.44Zm-8.83,0h-.53a2.26,2.26,0,0,1,0-4.51l.54,0a2.24,2.24,0,0,1,0,4.47Zm-8.82,0-.54,0a2.25,2.25,0,0,1,0-4.48h.53a2.26,2.26,0,0,1,0,4.51ZM92,91.25l-.53.22a2.06,2.06,0,0,1-2.06-2.14,2.13,2.13,0,0,1,2.09-2.17l.52,0a2,2,0,1,1,0,4.06Zm-8.82,0-.54.19a2.36,2.36,0,0,1,0-4.69l.54.2a2.15,2.15,0,0,1,0,4.3Zm-8.82,0-.54.15a2.34,2.34,0,0,1,0-4.65l.53.17a2.17,2.17,0,0,1,0,4.33Zm-8.83,0-.53.12a2.32,2.32,0,0,1,0-4.62l.54.13a2.19,2.19,0,0,1,0,4.37Zm-8.82,0-.54.08a2.3,2.3,0,0,1,0-4.58l.53.1a2.2,2.2,0,0,1,0,4.4Zm-8.83,0-.53,0a2.29,2.29,0,0,1,0-4.55l.54.06a2.23,2.23,0,0,1,0,4.44Zm-8.82,0h-.54a2.26,2.26,0,0,1,0-4.51l.53,0a2.24,2.24,0,0,1,0,4.47Zm-8.82,0-.54,0a2.25,2.25,0,0,1,0-4.48h.53a2.26,2.26,0,0,1,0,4.51Zm-8.83-.56-.53.22a2.38,2.38,0,0,1,0-4.72l.54.24a2.13,2.13,0,0,1,0,4.26Zm-8.82,0-.54.19a2.36,2.36,0,0,1,0-4.69l.53.2a2.15,2.15,0,0,1,0,4.3Zm-8.83,0-.53.15a2.34,2.34,0,0,1,0-4.65l.54.17a2.17,2.17,0,0,1,0,4.33Zm-8.82,0-.54.12a2.24,2.24,0,0,1-2.06-2.33,2.23,2.23,0,0,1,2.08-2.29l.53.13A2.11,2.11,0,0,1-3,88.52,2.1,2.1,0,0,1-5,90.69Zm-8.83,0-.53.08a2.12,2.12,0,0,1-2.06-2.21,2.12,2.12,0,0,1,2.09-2.2h.52a2.1,2.1,0,0,1,2.06,2.17A2.09,2.09,0,0,1-13.86,90.69Zm-8.82,0-.54,0a2.21,2.21,0,0,1-2.06-2.3,2.19,2.19,0,0,1,2.08-2.25l.54.06a2.16,2.16,0,0,1,2.06,2.24A2.15,2.15,0,0,1-22.68,90.69Zm-8.82,0H-32a2.16,2.16,0,0,1-2.06-2.24A2.16,2.16,0,0,1-32,86.23h.52a2.15,2.15,0,0,1,2.06,2.24A2.15,2.15,0,0,1-31.5,90.69Zm-8.83,0-.53,0a2.16,2.16,0,0,1-2.06-2.26,2.15,2.15,0,0,1,2.07-2.22h.54a2.18,2.18,0,0,1,2.06,2.27A2.18,2.18,0,0,1-40.33,90.69Z"/><path class="cls-1" d="M136.1,99.68l-.53.14a2.19,2.19,0,0,1,0-4.37l.51,0a2.11,2.11,0,0,1,0,4.21Zm-8.82,0-.54.11a2.32,2.32,0,0,1,0-4.61l.53.12a2.19,2.19,0,0,1,0,4.38Zm-8.83,0-.53.07a2.3,2.3,0,0,1,0-4.57l.54.09a2.21,2.21,0,0,1,0,4.41Zm-8.82,0-.53,0a2.28,2.28,0,0,1,0-4.54l.53,0a2.23,2.23,0,0,1,0,4.45Zm-8.83,0h-.53a2.26,2.26,0,0,1,0-4.5l.54,0a2.25,2.25,0,0,1,0,4.48Zm-8.82,0-.53,0a2.24,2.24,0,0,1,0-4.47l.53,0a2.27,2.27,0,0,1,0,4.52Zm-8.82-.56-.54.21a2.37,2.37,0,0,1,0-4.71l.53.23a2.14,2.14,0,0,1,0,4.27Zm-8.83,0-.53.18a2.36,2.36,0,0,1,0-4.68l.54.19a2.16,2.16,0,0,1,0,4.31Zm-8.82,0-.54.14a2.34,2.34,0,0,1,0-4.64l.53.16a2.17,2.17,0,0,1,0,4.34Zm-8.83,0-.53.11a2.32,2.32,0,0,1,0-4.61l.54.12a2.19,2.19,0,0,1,0,4.38Zm-8.82,0-.53.07a2.21,2.21,0,0,1,0-4.42h.52a2.17,2.17,0,0,1,0,4.34Zm-8.82,0-.54,0a2.28,2.28,0,0,1,0-4.54l.53,0a2.23,2.23,0,0,1,0,4.45Zm-8.83,0h-.53a2.26,2.26,0,0,1,0-4.5l.54,0a2.25,2.25,0,0,1,0,4.48Zm-8.82,0-.54,0a2.24,2.24,0,0,1,0-4.47l.53,0a2.27,2.27,0,0,1,0,4.52Zm-8.83-.56-.53.21a2.38,2.38,0,0,1,0-4.71l.54.23a2.14,2.14,0,0,1,0,4.27Zm-8.82,0-.53.18a2.36,2.36,0,0,1,0-4.68l.53.19a2.16,2.16,0,0,1,0,4.31Zm-8.83,0-.53.14a2.24,2.24,0,0,1-2.06-2.34,2.24,2.24,0,0,1,2.07-2.3l.54.16A2.1,2.1,0,0,1-3,96.41,2.1,2.1,0,0,1-5.09,98.56Zm-8.82,0-.53.11a2.13,2.13,0,0,1-2.07-2.2,2.14,2.14,0,0,1,2.1-2.2l.51,0a2.07,2.07,0,0,1,2.07,2.15A2.07,2.07,0,0,1-13.91,98.56Zm-8.82,0-.54.07a2.2,2.2,0,0,1-2.06-2.3,2.21,2.21,0,0,1,2.08-2.27l.53.09a2.13,2.13,0,0,1,2.06,2.22A2.13,2.13,0,0,1-22.73,98.56Zm-8.83,0-.53,0a2.19,2.19,0,0,1-2.06-2.29,2.18,2.18,0,0,1,2.07-2.25l.54,0a2.15,2.15,0,0,1,2.06,2.24A2.15,2.15,0,0,1-31.56,98.56Zm-8.82,0h-.54A2.18,2.18,0,0,1-43,96.29a2.17,2.17,0,0,1,2.08-2.23l.53,0a2.16,2.16,0,0,1,2.06,2.26A2.15,2.15,0,0,1-40.38,98.56Z"/><path class="cls-1" d="M136.05,107.56l-.54.16a2.35,2.35,0,0,1,0-4.66l.53.17a2.17,2.17,0,0,1,0,4.33Zm-8.83,0-.53.12a2.32,2.32,0,0,1,0-4.62l.54.14a2.18,2.18,0,0,1,0,4.36Zm-8.82,0-.54.09a2.31,2.31,0,0,1,0-4.59l.53.1a2.2,2.2,0,0,1,0,4.4Zm-8.82,0-.54,0a2.29,2.29,0,0,1,0-4.55l.53.07a2.22,2.22,0,0,1,0,4.43Zm-8.83,0-.53,0a2.27,2.27,0,0,1,0-4.52l.54,0a2.24,2.24,0,0,1,0,4.47Zm-8.82,0-.54,0a2.17,2.17,0,0,1-2.06-2.26,2.15,2.15,0,0,1,2.09-2.23h.52a2.26,2.26,0,0,1,0,4.51Zm-8.83,0-.53,0a2.23,2.23,0,0,1,0-4.45l.54,0a2.28,2.28,0,0,1,0,4.54ZM74.28,107l-.54.2a2.36,2.36,0,0,1,0-4.69l.53.21a2.14,2.14,0,0,1,0,4.28Zm-8.83,0-.53.17a2.35,2.35,0,0,1,0-4.66l.54.17a2.16,2.16,0,0,1,0,4.32Zm-8.82,0-.54.13a2.32,2.32,0,0,1,0-4.62l.54.14a2.18,2.18,0,0,1,0,4.35Zm-8.82,0-.54.1a2.31,2.31,0,0,1,0-4.59l.53.1a2.2,2.2,0,0,1,0,4.39ZM39,107l-.53.06a2.29,2.29,0,0,1,0-4.55l.54.07A2.21,2.21,0,0,1,39,107Zm-8.82,0-.54,0a2.27,2.27,0,0,1,0-4.52l.53,0a2.24,2.24,0,0,1,0,4.46Zm-8.83,0H20.8a2.25,2.25,0,0,1,0-4.48h.54a2.25,2.25,0,0,1,0,4.49Zm-8.82,0L12,107a2.23,2.23,0,0,1,0-4.45l.53,0a2.27,2.27,0,0,1,0,4.53Zm-8.82-.56-.54.2a2.37,2.37,0,0,1,0-4.7l.53.22a2.14,2.14,0,0,1,0,4.28Zm-8.83,0-.53.17a2.25,2.25,0,0,1-2.06-2.35,2.23,2.23,0,0,1,2.07-2.32l.54.18a2.1,2.1,0,0,1,2.06,2.18A2.09,2.09,0,0,1-5.14,106.43Zm-8.82,0-.54.13a2.24,2.24,0,0,1-2.06-2.33,2.24,2.24,0,0,1,2.08-2.3l.53.15a2.1,2.1,0,0,1,2.06,2.19A2.1,2.1,0,0,1-14,106.43Zm-8.83,0-.53.1a2.22,2.22,0,0,1-2.06-2.32,2.21,2.21,0,0,1,2.07-2.28l.54.11a2.12,2.12,0,0,1,2.06,2.21A2.12,2.12,0,0,1-22.79,106.43Zm-8.82,0-.54.06a2.2,2.2,0,0,1-2.06-2.29,2.2,2.2,0,0,1,2.08-2.27l.53.08a2.13,2.13,0,0,1,2.06,2.22A2.12,2.12,0,0,1-31.61,106.43Zm-8.83,0-.53,0A2.18,2.18,0,0,1-43,104.18,2.19,2.19,0,0,1-41,101.93l.54,0a2.15,2.15,0,0,1,2.06,2.25A2.15,2.15,0,0,1-40.44,106.43Z"/><path class="cls-1" d="M136,115.43l-.53.18a2.36,2.36,0,0,1,0-4.68l.54.2a2.15,2.15,0,0,1,0,4.3Zm-8.82,0-.54.15a2.34,2.34,0,0,1,0-4.65l.54.16a2.17,2.17,0,0,1,0,4.34Zm-8.82,0-.54.11a2.32,2.32,0,0,1,0-4.61l.53.13a2.19,2.19,0,0,1,0,4.37Zm-8.83,0-.53.08a2.3,2.3,0,0,1,0-4.58l.54.09a2.21,2.21,0,0,1,0,4.41Zm-8.82,0-.54,0a2.28,2.28,0,0,1,0-4.54l.53.06a2.23,2.23,0,0,1,0,4.44Zm-8.83,0h-.53a2.26,2.26,0,0,1,0-4.51l.54,0a2.25,2.25,0,0,1,0,4.48Zm-8.82,0-.54,0a2.24,2.24,0,0,1,0-4.47h.53a2.26,2.26,0,0,1,0,4.51Zm-8.83,0-.53-.06a2.23,2.23,0,0,1,0-4.44l.54-.05a2.29,2.29,0,0,1,0,4.55Zm-8.82-.56-.54.18a2.36,2.36,0,0,1,0-4.68l.54.2a2.15,2.15,0,0,1,0,4.3Zm-8.82,0L56,115a2.34,2.34,0,0,1,0-4.65l.53.16a2.17,2.17,0,0,1,0,4.34Zm-8.83,0-.53.11a2.32,2.32,0,0,1,0-4.61l.54.13a2.19,2.19,0,0,1,0,4.37Zm-8.82,0-.54.08a2.3,2.3,0,0,1,0-4.58l.53.09a2.21,2.21,0,0,1,0,4.41Zm-8.83,0-.53,0a2.28,2.28,0,0,1,0-4.54l.54.06a2.23,2.23,0,0,1,0,4.44Zm-8.82,0h-.54a2.26,2.26,0,0,1,0-4.51l.54,0a2.25,2.25,0,0,1,0,4.48Zm-8.82,0-.54,0a2.24,2.24,0,0,1,0-4.47h.53a2.26,2.26,0,0,1,0,4.51Zm-8.83,0-.53-.06a2.23,2.23,0,0,1,0-4.44l.54-.05a2.29,2.29,0,0,1,0,4.55Zm-8.82-.56-.54.18a2.26,2.26,0,0,1-2.06-2.36,2.26,2.26,0,0,1,2.08-2.32l.53.2a2.07,2.07,0,0,1,2.06,2.16A2.08,2.08,0,0,1-5.19,114.31Zm-8.83,0-.53.15a2.24,2.24,0,0,1-2.06-2.34,2.23,2.23,0,0,1,2.07-2.31l.54.16a2.1,2.1,0,0,1,2.06,2.18A2.1,2.1,0,0,1-14,114.31Zm-8.82,0-.54.11a2.23,2.23,0,0,1-2.06-2.32,2.22,2.22,0,0,1,2.08-2.29l.53.13a2.11,2.11,0,0,1,2.06,2.2A2.1,2.1,0,0,1-22.84,114.31Zm-8.83,0-.53.08a2.21,2.21,0,0,1-2.06-2.31,2.2,2.2,0,0,1,2.08-2.27l.53.09a2.13,2.13,0,0,1,2.06,2.22A2.14,2.14,0,0,1-31.67,114.31Zm-8.82,0-.54,0a2.2,2.2,0,0,1-2.06-2.29A2.19,2.19,0,0,1-41,109.81l.54.06a2.15,2.15,0,0,1,2.06,2.23A2.15,2.15,0,0,1-40.49,114.31Z"/><path class="cls-1" d="M135.94,123.87l-.53-.08a2.21,2.21,0,0,1,0-4.42l.53-.07a2.3,2.3,0,0,1,0,4.57Zm-8.82-.57-.54.17a2.35,2.35,0,0,1,0-4.67l.53.19a2.16,2.16,0,0,1,0,4.31Zm-8.83,0-.53.14a2.34,2.34,0,0,1,0-4.64l.54.15a2.18,2.18,0,0,1,0,4.35Zm-8.82,0-.54.1a2.31,2.31,0,0,1,0-4.6l.53.12a2.19,2.19,0,0,1,0,4.38Zm-8.83,0-.53.07a2.3,2.3,0,0,1,0-4.57l.54.08a2.21,2.21,0,0,1,0,4.42Zm-8.82,0-.53,0a2.27,2.27,0,0,1,0-4.53l.53,0a2.23,2.23,0,0,1,0,4.45Zm-8.82,0h-.54a2.26,2.26,0,0,1,0-4.5H83a2.25,2.25,0,0,1,0,4.49Zm-8.83,0-.53,0a2.24,2.24,0,0,1,0-4.46l.54,0a2.27,2.27,0,0,1,0,4.52Zm-8.82,0-.54-.07a2.22,2.22,0,0,1,0-4.43l.53-.06a2.29,2.29,0,0,1,0,4.56Zm-8.83-.56-.53.17a2.18,2.18,0,0,1,0-4.35l.52,0a2.08,2.08,0,0,1,0,4.16Zm-8.82,0-.54.14a2.34,2.34,0,0,1,0-4.64l.53.15a2.18,2.18,0,0,1,0,4.35Zm-8.83,0-.53.1a2.2,2.2,0,0,1,0-4.4h.52a2.15,2.15,0,0,1,0,4.29Zm-8.82,0-.54.07a2.22,2.22,0,0,1,0-4.44l.52,0a2.18,2.18,0,0,1,0,4.35Zm-8.82,0-.54,0a2.24,2.24,0,0,1,0-4.46h.52a2.22,2.22,0,0,1,0,4.42Zm-8.83,0h-.53a2.26,2.26,0,0,1,0-4.5h.54a2.25,2.25,0,0,1,0,4.49Zm-8.82,0-.54,0a2.24,2.24,0,0,1,0-4.46l.53,0a2.27,2.27,0,0,1,0,4.52Zm-8.83,0-.53-.07a2.14,2.14,0,0,1-2.06-2.23,2.14,2.14,0,0,1,2.07-2.2l.54-.06a2.21,2.21,0,0,1,2.06,2.3A2.2,2.2,0,0,1-5.25,122.74Zm-8.82-.56-.54.17A2.25,2.25,0,0,1-16.67,120a2.26,2.26,0,0,1,2.08-2.32l.54.19A2.1,2.1,0,0,1-12,120,2.09,2.09,0,0,1-14.07,122.18Zm-8.82,0-.54.14a2.11,2.11,0,0,1-2.06-2.19,2.13,2.13,0,0,1,2.09-2.19l.52,0a2,2,0,0,1,2.06,2.12A2,2,0,0,1-22.89,122.18Zm-8.83,0-.53.1A2.22,2.22,0,0,1-34.31,120a2.2,2.2,0,0,1,2.07-2.28l.53.12a2.12,2.12,0,0,1,2.07,2.2A2.13,2.13,0,0,1-31.72,122.18Zm-8.82,0-.54.07a2.21,2.21,0,0,1-2.06-2.31,2.2,2.2,0,0,1,2.08-2.26l.53.08A2.14,2.14,0,0,1-38.47,120,2.13,2.13,0,0,1-40.54,122.18Z"/><path class="cls-1" d="M135.89,131.74l-.54-.06a2.23,2.23,0,0,1,0-4.44l.53,0a2.28,2.28,0,0,1,0,4.54Zm-8.83,0-.53-.09a2.21,2.21,0,0,1,0-4.41l.54-.08a2.3,2.3,0,0,1,0,4.58Zm-8.82-.56-.54.15a2.34,2.34,0,0,1,0-4.65l.53.17a2.17,2.17,0,0,1,0,4.33Zm-8.83,0-.53.12a2.32,2.32,0,0,1,0-4.62l.54.13a2.19,2.19,0,0,1,0,4.37Zm-8.82,0-.54.08a2.3,2.3,0,0,1,0-4.58l.54.1a2.2,2.2,0,0,1,0,4.4Zm-8.82,0-.54,0a2.29,2.29,0,0,1,0-4.55l.53.06a2.23,2.23,0,0,1,0,4.44Zm-8.83,0h-.53a2.26,2.26,0,0,1,0-4.51l.54,0a2.24,2.24,0,0,1,0,4.47Zm-8.82,0-.54,0a2.25,2.25,0,0,1,0-4.48h.53a2.26,2.26,0,0,1,0,4.51Zm-8.83,0-.53-.06a2.23,2.23,0,0,1,0-4.44l.54,0a2.28,2.28,0,0,1,0,4.54Zm-8.82,0-.54-.09a2.21,2.21,0,0,1,0-4.41l.53-.08a2.3,2.3,0,0,1,0,4.58Zm-8.83-.57-.53.16a2.34,2.34,0,0,1,0-4.65l.54.17a2.16,2.16,0,0,1,0,4.32Zm-8.82,0-.54.13a2.32,2.32,0,0,1,0-4.62l.54.13a2.18,2.18,0,0,1,0,4.36Zm-8.82,0-.54.09a2.3,2.3,0,0,1,0-4.58l.53.1a2.2,2.2,0,0,1,0,4.39Zm-8.83,0-.53.06a2.29,2.29,0,0,1,0-4.55l.54.06a2.22,2.22,0,0,1,0,4.43Zm-8.82,0-.54,0a2.26,2.26,0,0,1,0-4.51l.53,0a2.24,2.24,0,0,1,0,4.46Zm-8.83,0H3a2.25,2.25,0,0,1,0-4.48h.54a2.26,2.26,0,0,1,0,4.5Zm-8.82,0-.54-.05a2.15,2.15,0,0,1-2.06-2.24,2.15,2.15,0,0,1,2.08-2.2l.54,0a2.2,2.2,0,0,1,2.06,2.28A2.19,2.19,0,0,1-5.3,130.61Zm-8.82,0-.54-.08a2.14,2.14,0,0,1-2.06-2.22,2.13,2.13,0,0,1,2.08-2.19l.53-.08a2.2,2.2,0,0,1,2.06,2.3A2.19,2.19,0,0,1-14.12,130.61Zm-8.83-.56-.53.16a2.25,2.25,0,0,1-2.06-2.35,2.23,2.23,0,0,1,2.07-2.31l.54.18a2.1,2.1,0,0,1,2.06,2.18A2.09,2.09,0,0,1-22.95,130.05Zm-8.82,0-.54.13a2.12,2.12,0,0,1-2.06-2.2,2.13,2.13,0,0,1,2.09-2.19l.52,0a2.06,2.06,0,0,1,2.06,2.13A2,2,0,0,1-31.77,130.05Zm-8.83,0-.53.09a2.21,2.21,0,0,1-2.06-2.31,2.21,2.21,0,0,1,2.07-2.28l.54.11a2.12,2.12,0,0,1,2.06,2.21A2.13,2.13,0,0,1-40.6,130.05Z"/><path class="cls-1" d="M135.83,139.61l-.53,0a2.24,2.24,0,0,1,0-4.47l.54,0a2.27,2.27,0,0,1,0,4.52Zm-8.82,0-.54-.07a2.22,2.22,0,0,1,0-4.43l.53-.05a2.29,2.29,0,0,1,0,4.55Zm-8.83,0-.53-.1a2.2,2.2,0,0,1,0-4.4l.54-.09a2.31,2.31,0,0,1,0,4.59Zm-8.82-.56-.53.14a2.33,2.33,0,0,1,0-4.64l.53.16a2.17,2.17,0,0,1,0,4.34Zm-8.82,0-.54.11a2.21,2.21,0,0,1,0-4.41l.52,0a2.14,2.14,0,0,1,0,4.28Zm-8.83,0-.53.07a2.3,2.3,0,0,1,0-4.57l.54.09a2.21,2.21,0,0,1,0,4.41Zm-8.82,0-.54,0a2.28,2.28,0,0,1,0-4.54l.53,0a2.23,2.23,0,0,1,0,4.45Zm-8.83,0h-.53a2.26,2.26,0,0,1,0-4.5l.54,0a2.25,2.25,0,0,1,0,4.48Zm-8.82,0-.54,0a2.24,2.24,0,0,1,0-4.47l.54,0a2.27,2.27,0,0,1,0,4.52Zm-8.82,0-.54-.07a2.19,2.19,0,0,1-2.06-2.29,2.16,2.16,0,0,1,2.09-2.24h.52a2.31,2.31,0,0,1,0,4.6Zm-8.83,0-.53-.1a2.2,2.2,0,0,1,0-4.4l.53-.09a2.31,2.31,0,0,1,0,4.59Zm-8.82-.56-.54.14a2.34,2.34,0,0,1,0-4.64l.53.16a2.17,2.17,0,0,1,0,4.34Zm-8.83,0-.53.11a2.32,2.32,0,0,1,0-4.61l.54.12a2.19,2.19,0,0,1,0,4.38Zm-8.82,0-.54.07a2.3,2.3,0,0,1,0-4.57l.53.09a2.21,2.21,0,0,1,0,4.41Zm-8.83,0-.53,0a2.28,2.28,0,0,1,0-4.54l.54,0a2.23,2.23,0,0,1,0,4.45Zm-8.82,0H2.94A2.25,2.25,0,0,1,3,134h.52a2.24,2.24,0,0,1,0,4.47Zm-8.82,0-.54,0a2.16,2.16,0,0,1-2.06-2.26A2.15,2.15,0,0,1-5.87,134l.53,0a2.18,2.18,0,0,1,2.06,2.28A2.18,2.18,0,0,1-5.35,138.49Zm-8.83,0-.53-.07a2.19,2.19,0,0,1-2.06-2.29,2.17,2.17,0,0,1,2.09-2.24h.52a2.22,2.22,0,0,1,2.06,2.31A2.23,2.23,0,0,1-14.18,138.49Zm-8.82,0-.54-.1a2.13,2.13,0,0,1-2.06-2.22A2.13,2.13,0,0,1-23.52,134l.53-.09a2.21,2.21,0,0,1,2.06,2.31A2.21,2.21,0,0,1-23,138.49Zm-8.83-.57-.53.15a2.09,2.09,0,0,1-2.06-2.18,2.13,2.13,0,0,1,2.09-2.19l.52,0a2,2,0,0,1,2.06,2.12A2,2,0,0,1-31.83,137.92Zm-8.82,0-.54.11a2.22,2.22,0,0,1-2.06-2.32,2.22,2.22,0,0,1,2.08-2.28l.54.12a2.13,2.13,0,0,1,2.06,2.21A2.11,2.11,0,0,1-40.65,137.92Z"/><path class="cls-1" d="M135.78,147.49l-.54,0a2.25,2.25,0,0,1,0-4.48h.53a2.26,2.26,0,0,1,0,4.5Zm-8.83,0-.53-.05a2.23,2.23,0,0,1,0-4.45l.54,0a2.28,2.28,0,0,1,0,4.54Zm-8.82,0-.54-.09a2.21,2.21,0,0,1,0-4.41l.54-.07a2.3,2.3,0,0,1,0,4.57Zm-8.82,0-.54-.12a2.19,2.19,0,0,1,0-4.38l.53-.11a2.32,2.32,0,0,1,0,4.61Zm-8.83-.57-.53.13a2.33,2.33,0,0,1,0-4.63l.54.15a2.18,2.18,0,0,1,0,4.35Zm-8.82,0-.54.1a2.31,2.31,0,0,1,0-4.6l.53.11a2.2,2.2,0,0,1,0,4.39Zm-8.83,0-.53.06a2.29,2.29,0,0,1,0-4.56l.54.08a2.21,2.21,0,0,1,0,4.42Zm-8.82,0-.53,0a2.27,2.27,0,0,1,0-4.53l.53,0a2.24,2.24,0,0,1,0,4.46Zm-8.82,0h-.54a2.25,2.25,0,0,1,0-4.49h.53a2.25,2.25,0,0,1,0,4.49Zm-8.83,0-.53,0a2.24,2.24,0,0,1,0-4.46l.54,0a2.27,2.27,0,0,1,0,4.53Zm-8.82,0-.54-.08a2.21,2.21,0,0,1,0-4.42l.53-.06a2.29,2.29,0,0,1,0,4.56Zm-8.83,0-.53-.11a2.22,2.22,0,0,1-2.06-2.32,2.17,2.17,0,0,1,2.09-2.25h.52a2.36,2.36,0,0,1,0,4.69Zm-8.82-.56-.54.13a2.33,2.33,0,0,1,0-4.63l.53.14a2.18,2.18,0,0,1,0,4.36Zm-8.83,0-.53.1a2.31,2.31,0,0,1,0-4.6l.54.11a2.2,2.2,0,0,1,0,4.39Zm-8.82,0-.53.06a2.29,2.29,0,0,1,0-4.56l.53.07a2.22,2.22,0,0,1,0,4.43Zm-8.82,0-.54,0a2.24,2.24,0,0,1,0-4.47h.52a2.22,2.22,0,0,1,0,4.43Zm-8.83,0h-.53A2.16,2.16,0,0,1-8,144.09a2.16,2.16,0,0,1,2.07-2.23h.54a2.17,2.17,0,0,1,2.06,2.26A2.17,2.17,0,0,1-5.41,146.36Zm-8.82,0-.54,0A2.19,2.19,0,0,1-16.83,144a2.18,2.18,0,0,1,2.09-2.24h.52a2.2,2.2,0,0,1,2.06,2.3A2.19,2.19,0,0,1-14.23,146.36Zm-8.83,0-.53-.08a2.14,2.14,0,0,1-2.06-2.23,2.13,2.13,0,0,1,2.07-2.19l.54-.06A2.2,2.2,0,0,1-21,144.1,2.2,2.2,0,0,1-23.06,146.36Zm-8.82,0-.53-.11a2.23,2.23,0,0,1-2.07-2.32,2.21,2.21,0,0,1,2.09-2.25h.52A2.27,2.27,0,0,1-29.8,144,2.27,2.27,0,0,1-31.88,146.36Zm-8.82-.56-.54.13a2.24,2.24,0,0,1-2.06-2.33,2.23,2.23,0,0,1,2.08-2.3l.53.14a2.11,2.11,0,0,1,2.06,2.2A2.11,2.11,0,0,1-40.7,145.8Z"/><path class="cls-1" d="M145.46,425.57l-.53.05a2.23,2.23,0,0,1,0-4.44h.52a2.19,2.19,0,0,1,0,4.38Zm-8.82,0-.54,0a2,2,0,1,1,0-4l.53-.25a2.1,2.1,0,0,1,0,4.19Zm-8.83-.56-.53.26a2.1,2.1,0,0,1,0-4.2h.54a2,2,0,1,1,0,3.94ZM119,425l-.53.23a2.09,2.09,0,0,1,0-4.17l.53,0a2,2,0,1,1,0,4Zm-8.82,0-.54.19a2.07,2.07,0,0,1-2.06-2.16,2.13,2.13,0,0,1,2.09-2.17l.52,0a2.06,2.06,0,1,1,0,4.11Zm-8.83,0-.53.16a2.18,2.18,0,0,1,0-4.36l.52,0a2.09,2.09,0,0,1,0,4.18Zm-8.82,0-.54.12a2,2,0,1,1,0-4.06l.53-.14a2,2,0,1,1,0,4.08Zm-8.83,0-.53.09a2,2,0,1,1,0-4l.54-.18a2.06,2.06,0,1,1,0,4.12Zm-8.82,0-.54.05a2,2,0,1,1,0-4l.54-.21a2.08,2.08,0,0,1,0,4.15Zm-8.82,0-.54,0a2,2,0,1,1,0-4l.53-.25a2.1,2.1,0,0,1,0,4.19Zm-8.83-.57-.53.27a2,2,0,0,1-2.06-2.12,2.11,2.11,0,0,1,2.09-2.16l.51,0a2,2,0,1,1,0,4Zm-8.82,0-.54.24a2.09,2.09,0,0,1,0-4.17l.53,0a2,2,0,1,1,0,4Zm-8.83,0-.53.2a2.07,2.07,0,1,1,0-4.13l.54-.07a2,2,0,1,1,0,4Zm-8.82,0-.54.17a2.05,2.05,0,1,1,0-4.1l.53-.11a2,2,0,1,1,0,4Zm-8.83,0-.53.13a2,2,0,1,1,0-4.06l.54-.14a2,2,0,1,1,0,4.07Zm-8.82,0-.53.1a2,2,0,1,1,0-4l.53-.18a2.06,2.06,0,1,1,0,4.11Zm-8.82,0-.54.06a2,2,0,1,1,0-4l.53-.21a2.07,2.07,0,0,1,0,4.14Zm-8.83,0-.53,0a1.94,1.94,0,0,1-2.06-2,1.93,1.93,0,0,1,2.07-2l.54-.25a2,2,0,0,1,2.06,2.11A2,2,0,0,1-4.55,424.44Zm-8.82-.56-.54.27A2,2,0,0,1-16,422,2,2,0,0,1-13.89,420h.53a1.93,1.93,0,0,1,2.06,2A1.93,1.93,0,0,1-13.37,423.88Zm-8.83,0-.53.24a2,2,0,0,1-2.06-2.1A2,2,0,0,1-22.72,420l.54,0a2,2,0,0,1,2.06,2A2,2,0,0,1-22.2,423.88Zm-8.82,0-.54.2A2,2,0,0,1-33.62,422,2,2,0,0,1-31.54,420l.54-.07a2,2,0,0,1,2.06,2A2,2,0,0,1-31,423.88Z"/><path class="cls-1" d="M145.41,433.44l-.53.08a2.3,2.3,0,0,1,0-4.58l.53.09a2.21,2.21,0,0,1,0,4.41Zm-8.83,0-.53,0a2.28,2.28,0,0,1,0-4.54l.54.06a2.23,2.23,0,0,1,0,4.44Zm-8.82,0h-.54a2.26,2.26,0,0,1,0-4.51l.54,0a2.25,2.25,0,0,1,0,4.48Zm-8.82-.56-.54.25a2.4,2.4,0,0,1,0-4.75l.53.27a2.12,2.12,0,0,1,0,4.23Zm-8.83,0-.53.22a2.38,2.38,0,0,1,0-4.72l.54.23a2.14,2.14,0,0,1,0,4.27Zm-8.82,0-.54.18a2.36,2.36,0,0,1,0-4.68l.53.2a2.15,2.15,0,0,1,0,4.3Zm-8.83,0-.53.15a2.34,2.34,0,0,1,0-4.65l.54.16a2.17,2.17,0,0,1,0,4.34Zm-8.82,0-.53.11a2.2,2.2,0,0,1,0-4.39h.52a2.14,2.14,0,0,1,0,4.27Zm-8.82,0-.54.08a2.13,2.13,0,0,1-2.06-2.22,2.15,2.15,0,0,1,2.09-2.21l.52,0a2.17,2.17,0,0,1,0,4.33Zm-8.83,0-.53,0a2.28,2.28,0,0,1,0-4.54l.54.06a2.23,2.23,0,0,1,0,4.44Zm-8.82,0h-.54a2.26,2.26,0,0,1,0-4.51l.53,0a2.25,2.25,0,0,1,0,4.48Zm-8.83-.56-.53.25a2.4,2.4,0,0,1,0-4.75l.54.27a2.12,2.12,0,0,1,0,4.23Zm-8.82,0-.53.22a2.38,2.38,0,0,1,0-4.72l.53.23a2.14,2.14,0,0,1,0,4.27Zm-8.83,0-.53.18a2.36,2.36,0,0,1,0-4.68l.54.2a2.15,2.15,0,0,1,0,4.3Zm-8.82,0-.53.15a2.34,2.34,0,0,1,0-4.65l.53.16a2.17,2.17,0,0,1,0,4.34Zm-8.82,0-.54.11a2.32,2.32,0,0,1,0-4.61l.53.13a2.19,2.19,0,0,1,0,4.37Zm-8.83,0-.53.08a2.3,2.3,0,0,1,0-4.58l.54.09a2.21,2.21,0,0,1,0,4.41Zm-8.82,0-.54,0a2.2,2.2,0,0,1-2.06-2.28,2.19,2.19,0,0,1,2.08-2.26l.53.06a2.14,2.14,0,0,1,2.06,2.23A2.13,2.13,0,0,1-4.6,432.32Zm-8.83,0H-14A2.18,2.18,0,0,1-16,430.06a2.17,2.17,0,0,1,2.07-2.24l.54,0a2.16,2.16,0,0,1,2.06,2.26A2.16,2.16,0,0,1-13.43,432.32Zm-8.82-.56-.53.25a2.3,2.3,0,0,1-2.07-2.39,2.29,2.29,0,0,1,2.08-2.36l.53.27a2.06,2.06,0,0,1,2.07,2.13A2.06,2.06,0,0,1-22.25,431.76Zm-8.82,0-.54.22a2.28,2.28,0,0,1-2.06-2.38,2.28,2.28,0,0,1,2.08-2.34l.53.23A2.07,2.07,0,0,1-29,429.64,2.07,2.07,0,0,1-31.07,431.76Z"/><path class="cls-1" d="M145.36,441.32l-.54.09a2.21,2.21,0,0,1,0-4.41l.52,0a2.15,2.15,0,0,1,0,4.3Zm-8.83,0-.53.06a2.29,2.29,0,0,1,0-4.56l.54.07a2.22,2.22,0,0,1,0,4.43Zm-8.82,0-.54,0a2.27,2.27,0,0,1,0-4.52l.53,0a2.24,2.24,0,0,1,0,4.46Zm-8.83,0h-.53a2.25,2.25,0,0,1,0-4.49h.54a2.26,2.26,0,0,1,0,4.5Zm-8.82-.57-.54.24a2.39,2.39,0,0,1,0-4.74l.53.26a2.12,2.12,0,0,1,0,4.24Zm-8.83,0-.53.21a2.37,2.37,0,0,1,0-4.71l.53.22a2.14,2.14,0,0,1,0,4.28Zm-8.82,0-.54.17a2.35,2.35,0,0,1,0-4.67l.54.19a2.16,2.16,0,0,1,0,4.31Zm-8.82,0-.54.14a2.34,2.34,0,0,1,0-4.64l.53.15a2.18,2.18,0,0,1,0,4.35Zm-8.83,0-.53.1a2.31,2.31,0,0,1,0-4.6l.54.12a2.19,2.19,0,0,1,0,4.38Zm-8.82,0-.54.07a2.3,2.3,0,0,1,0-4.57l.53.08a2.22,2.22,0,0,1,0,4.42Zm-8.83,0-.53,0a2.24,2.24,0,0,1,0-4.46h.52a2.21,2.21,0,0,1,0,4.42Zm-8.82,0h-.54a2.26,2.26,0,0,1,0-4.5h.54a2.19,2.19,0,0,1,2.06,2.27A2.16,2.16,0,0,1,48.29,440.75Zm-8.82-.56-.54.24a2.39,2.39,0,0,1,0-4.74l.53.26a2.12,2.12,0,0,1,0,4.24Zm-8.83,0-.53.21a2.38,2.38,0,0,1,0-4.71l.54.22a2.14,2.14,0,0,1,0,4.28Zm-8.82,0-.54.17a2.35,2.35,0,0,1,0-4.67l.53.19a2.16,2.16,0,0,1,0,4.31Zm-8.83,0-.53.14a2.34,2.34,0,0,1,0-4.64l.54.15a2.18,2.18,0,0,1,0,4.35Zm-8.82,0-.54.1a2.31,2.31,0,0,1,0-4.6l.53.12a2.19,2.19,0,0,1,0,4.38Zm-8.83,0-.53.07A2.2,2.2,0,0,1-7.25,438a2.2,2.2,0,0,1,2.08-2.27l.53.08A2.14,2.14,0,0,1-2.58,438,2.14,2.14,0,0,1-4.66,440.19Zm-8.82,0-.54,0a2.2,2.2,0,0,1-2.06-2.28A2.19,2.19,0,0,1-14,435.69l.54.05A2.15,2.15,0,0,1-11.4,438,2.15,2.15,0,0,1-13.48,440.19Zm-8.82,0h-.54a2.17,2.17,0,0,1-2.06-2.26,2.14,2.14,0,0,1,2.09-2.23h.52A2.16,2.16,0,0,1-20.23,438,2.16,2.16,0,0,1-22.3,440.19Zm-8.83-.56-.53.24a2.29,2.29,0,0,1-2.06-2.39,2.28,2.28,0,0,1,2.07-2.35l.54.26A2.06,2.06,0,0,1-29,437.52,2.06,2.06,0,0,1-31.13,439.63Z"/><path class="cls-1" d="M145.3,449.19l-.53.12a2.32,2.32,0,0,1,0-4.62l.54.13a2.19,2.19,0,0,1,0,4.37Zm-8.82,0-.54.08a2.3,2.3,0,0,1,0-4.58l.53.1a2.2,2.2,0,0,1,0,4.4Zm-8.83,0-.53.05a2.29,2.29,0,0,1,0-4.55l.54.06a2.23,2.23,0,0,1,0,4.44Zm-8.82,0h-.53a2.26,2.26,0,0,1,0-4.51l.53,0a2.24,2.24,0,0,1,0,4.47Zm-8.83,0-.53,0a2.25,2.25,0,0,1,0-4.48H110a2.26,2.26,0,0,1,0,4.51Zm-8.82-.56-.53.22a2.06,2.06,0,0,1-2.06-2.14,2.12,2.12,0,0,1,2.09-2.17l.51,0a2,2,0,1,1,0,4.06Zm-8.82,0-.54.19a2.36,2.36,0,0,1,0-4.69l.53.2a2.15,2.15,0,0,1,0,4.3Zm-8.83,0-.53.15a2.34,2.34,0,0,1,0-4.65l.54.17a2.17,2.17,0,0,1,0,4.33Zm-8.82,0-.54.12a2.32,2.32,0,0,1,0-4.62l.53.13a2.19,2.19,0,0,1,0,4.37Zm-8.83,0-.53.08a2.3,2.3,0,0,1,0-4.58l.54.1a2.2,2.2,0,0,1,0,4.4Zm-8.82,0-.53.05a2.28,2.28,0,0,1,0-4.55l.53.06a2.23,2.23,0,0,1,0,4.44Zm-8.82,0H47.7a2.26,2.26,0,0,1,0-4.51l.53,0a2.24,2.24,0,0,1,0,4.47Zm-8.83,0-.53,0a2.25,2.25,0,0,1,0-4.48h.54a2.26,2.26,0,0,1,0,4.51Zm-8.82-.57-.54.23a2.38,2.38,0,0,1,0-4.72l.53.24a2.13,2.13,0,0,1,0,4.25Zm-8.83,0-.53.2a2.36,2.36,0,0,1,0-4.69l.54.2a2.15,2.15,0,0,1,0,4.29Zm-8.82,0-.53.16a2.34,2.34,0,0,1,0-4.65l.53.17a2.16,2.16,0,0,1,0,4.32Zm-8.82,0-.54.13a2.32,2.32,0,0,1,0-4.62l.53.13a2.18,2.18,0,0,1,0,4.36Zm-8.83,0-.53.09a2.12,2.12,0,0,1-2.06-2.21,2.12,2.12,0,0,1,2.09-2.2h.51a2.1,2.1,0,0,1,2.07,2.17A2.09,2.09,0,0,1-4.71,448.06Zm-8.82,0-.54.06a2.2,2.2,0,0,1-2.06-2.3A2.19,2.19,0,0,1-14,443.57l.53.06a2.15,2.15,0,0,1,2.06,2.24A2.13,2.13,0,0,1-13.53,448.06Zm-8.83,0-.53,0a2.15,2.15,0,0,1-2.06-2.25,2.15,2.15,0,0,1,2.09-2.22h.52a2.15,2.15,0,0,1,2.06,2.24A2.15,2.15,0,0,1-22.36,448.06Zm-8.82,0h-.54a2.17,2.17,0,0,1-2.06-2.26,2.16,2.16,0,0,1,2.08-2.22h.53a2.17,2.17,0,0,1,2.06,2.27A2.16,2.16,0,0,1-31.18,448.06Z"/><path class="cls-1" d="M145.25,457.06l-.54.14a2.19,2.19,0,0,1,0-4.37l.52,0a2.11,2.11,0,0,1,0,4.21Zm-8.83,0-.53.11a2.32,2.32,0,0,1,0-4.61l.54.12a2.19,2.19,0,0,1,0,4.38Zm-8.82,0-.54.07a2.3,2.3,0,0,1,0-4.57l.54.09a2.21,2.21,0,0,1,0,4.41Zm-8.82,0-.54,0a2.28,2.28,0,0,1,0-4.54l.53.05a2.23,2.23,0,0,1,0,4.45Zm-8.83,0h-.53a2.26,2.26,0,0,1,0-4.5l.54,0a2.25,2.25,0,0,1,0,4.48Zm-8.82,0-.54,0a2.24,2.24,0,0,1,0-4.47l.53,0a2.27,2.27,0,0,1,0,4.52Zm-8.83-.56-.53.21a2.38,2.38,0,0,1,0-4.71l.54.23a2.14,2.14,0,0,1,0,4.27Zm-8.82,0-.53.18A2.36,2.36,0,0,1,83,452l.53.19a2.16,2.16,0,0,1,0,4.31Zm-8.83,0-.53.14a2.34,2.34,0,0,1,0-4.64l.54.16a2.17,2.17,0,0,1,0,4.34Zm-8.82,0-.54.11a2.32,2.32,0,0,1,0-4.61l.54.12a2.19,2.19,0,0,1,0,4.38Zm-8.82,0-.54.07a2.22,2.22,0,0,1,0-4.43l.52,0a2.17,2.17,0,0,1,0,4.34Zm-8.83,0-.53,0a2.28,2.28,0,0,1,0-4.54l.54.05a2.23,2.23,0,0,1,0,4.45Zm-8.82,0h-.54a2.26,2.26,0,0,1,0-4.5l.53,0a2.25,2.25,0,0,1,0,4.48Zm-8.83,0-.53,0A2.24,2.24,0,0,1,30,452l.54,0a2.27,2.27,0,0,1,0,4.52Zm-8.82-.56-.53.21a2.37,2.37,0,0,1,0-4.71l.53.23a2.14,2.14,0,0,1,0,4.27Zm-8.82,0-.54.18a2.36,2.36,0,0,1,0-4.68l.53.19a2.16,2.16,0,0,1,0,4.31Zm-8.83,0-.53.14a2.34,2.34,0,0,1,0-4.64l.54.16a2.17,2.17,0,0,1,0,4.34Zm-8.82,0-.54.11a2.13,2.13,0,0,1-2.06-2.21,2.13,2.13,0,0,1,2.09-2.19h.52a2.07,2.07,0,0,1,2.06,2.16A2.06,2.06,0,0,1-4.76,455.94Zm-8.83,0-.53.07a2.2,2.2,0,0,1-2.06-2.3,2.2,2.2,0,0,1,2.07-2.27l.54.09a2.13,2.13,0,0,1,2.06,2.22A2.14,2.14,0,0,1-13.59,455.94Zm-8.82,0-.53,0A2.21,2.21,0,0,1-25,453.69a2.19,2.19,0,0,1,2.08-2.25l.53.05a2.15,2.15,0,0,1,2.06,2.24A2.14,2.14,0,0,1-22.41,455.94Zm-8.83,0h-.53a2.17,2.17,0,0,1-2.06-2.27,2.17,2.17,0,0,1,2.07-2.23l.54,0a2.16,2.16,0,0,1,2.06,2.25A2.17,2.17,0,0,1-31.24,455.94Z"/><path class="cls-1" d="M145.19,464.94l-.53.16a2.35,2.35,0,0,1,0-4.66l.54.17a2.17,2.17,0,0,1,0,4.33Zm-8.82,0-.54.12a2.32,2.32,0,0,1,0-4.62l.54.14a2.18,2.18,0,0,1,0,4.36Zm-8.82,0L127,465a2.31,2.31,0,0,1,0-4.59l.53.1a2.2,2.2,0,0,1,0,4.4Zm-8.83,0-.53.05a2.29,2.29,0,0,1,0-4.55l.54.07a2.22,2.22,0,0,1,0,4.43Zm-8.82,0-.54,0a2.27,2.27,0,0,1,0-4.52l.53,0a2.24,2.24,0,0,1,0,4.47Zm-8.83,0-.53,0a2.25,2.25,0,0,1,0-4.49h.52a2.26,2.26,0,0,1,0,4.51Zm-8.82,0-.54-.05a2.23,2.23,0,0,1,0-4.45l.53,0a2.28,2.28,0,0,1,0,4.54Zm-8.82-.57-.54.2a2.37,2.37,0,0,1,0-4.7l.53.22a2.14,2.14,0,0,1,0,4.28Zm-8.83,0-.53.17a2.35,2.35,0,0,1,0-4.67l.54.18a2.16,2.16,0,0,1,0,4.32Zm-8.82,0-.54.13a2.33,2.33,0,0,1,0-4.63l.53.15a2.18,2.18,0,0,1,0,4.35Zm-8.83,0-.53.1a2.31,2.31,0,0,1,0-4.6L57,460a2.2,2.2,0,0,1,0,4.39Zm-8.82,0-.54.06a2.29,2.29,0,0,1,0-4.56l.53.08a2.22,2.22,0,0,1,0,4.42Zm-8.83,0-.53,0a2.27,2.27,0,0,1,0-4.53l.54,0a2.24,2.24,0,0,1,0,4.46Zm-8.82,0h-.54a2.25,2.25,0,0,1,0-4.49h.54a2.25,2.25,0,0,1,0,4.49Zm-8.82,0-.54,0a2.24,2.24,0,0,1,0-4.46l.53,0a2.27,2.27,0,0,1,0,4.53Zm-8.83-.56-.53.2a2.37,2.37,0,0,1,0-4.7l.54.21a2.15,2.15,0,0,1,0,4.29Zm-8.82,0-.54.16a2.35,2.35,0,0,1,0-4.66l.53.18a2.16,2.16,0,0,1,0,4.32Zm-8.83,0-.53.13a2.23,2.23,0,0,1-2.06-2.33,2.23,2.23,0,0,1,2.07-2.3l.54.14a2.12,2.12,0,0,1,2.06,2.2A2.11,2.11,0,0,1-4.82,463.81Zm-8.82,0-.54.1a2.23,2.23,0,0,1-2.06-2.32,2.22,2.22,0,0,1,2.08-2.28l.54.11a2.14,2.14,0,0,1,2.06,2.21A2.12,2.12,0,0,1-13.64,463.81Zm-8.83,0-.53.06a2.2,2.2,0,0,1-2.06-2.29A2.2,2.2,0,0,1-23,459.31l.53.08a2.13,2.13,0,0,1,2.06,2.22A2.14,2.14,0,0,1-22.47,463.81Zm-8.82,0-.53,0a2.19,2.19,0,0,1-2.06-2.28,2.17,2.17,0,0,1,2.07-2.25l.54,0a2.16,2.16,0,0,1,2.06,2.25A2.15,2.15,0,0,1-31.29,463.81Z"/><path class="cls-1" d="M145.14,472.81l-.53.18a2.36,2.36,0,0,1,0-4.68l.53.2a2.15,2.15,0,0,1,0,4.3Zm-8.82,0-.54.15a2.34,2.34,0,0,1,0-4.65l.53.16a2.17,2.17,0,0,1,0,4.34Zm-8.83,0-.53.11a2.32,2.32,0,0,1,0-4.61l.54.13a2.19,2.19,0,0,1,0,4.37Zm-8.82,0-.54.08a2.3,2.3,0,0,1,0-4.58l.53.09a2.21,2.21,0,0,1,0,4.41Zm-8.83,0-.53,0a2.28,2.28,0,0,1,0-4.54l.54.06a2.23,2.23,0,0,1,0,4.44Zm-8.82,0h-.53a2.26,2.26,0,0,1,0-4.51l.53,0a2.25,2.25,0,0,1,0,4.48Zm-8.82,0-.54,0a2.24,2.24,0,0,1,0-4.47h.53a2.26,2.26,0,0,1,0,4.51Zm-8.83,0-.53-.06a2.23,2.23,0,0,1,0-4.44l.54-.05a2.29,2.29,0,0,1,0,4.55Zm-8.82-.56-.54.18a2.36,2.36,0,0,1,0-4.68l.53.2a2.15,2.15,0,0,1,0,4.3Zm-8.83,0-.53.15a2.34,2.34,0,0,1,0-4.65l.54.16a2.17,2.17,0,0,1,0,4.34Zm-8.82,0-.53.11a2.32,2.32,0,0,1,0-4.61l.53.13a2.19,2.19,0,0,1,0,4.37Zm-8.83,0-.53.08a2.3,2.3,0,0,1,0-4.58l.54.09a2.21,2.21,0,0,1,0,4.41Zm-8.82,0-.53,0a2.28,2.28,0,0,1,0-4.54l.53.06a2.23,2.23,0,0,1,0,4.44Zm-8.82,0h-.54a2.26,2.26,0,0,1,0-4.51l.53,0a2.25,2.25,0,0,1,0,4.48Zm-8.83,0-.53,0a2.24,2.24,0,0,1,0-4.47h.54a2.26,2.26,0,0,1,0,4.51Zm-8.82,0-.54-.06a2.23,2.23,0,0,1,0-4.44l.53-.05a2.29,2.29,0,0,1,0,4.55ZM4,471.68l-.53.19a2.36,2.36,0,0,1,0-4.68l.54.19a2.15,2.15,0,0,1,0,4.3Zm-8.82,0-.53.16a2.26,2.26,0,0,1-2.07-2.35,2.24,2.24,0,0,1,2.08-2.3l.53.16a2.11,2.11,0,0,1,2.07,2.18A2.1,2.1,0,0,1-4.87,471.68Zm-8.82,0-.54.12a2.23,2.23,0,0,1-2.06-2.33,2.22,2.22,0,0,1,2.08-2.28l.53.13a2.1,2.1,0,0,1,2.06,2.2A2.11,2.11,0,0,1-13.69,471.68Zm-8.83,0-.53.09a2.21,2.21,0,0,1-2.06-2.31A2.19,2.19,0,0,1-23,467.19l.54.09a2.13,2.13,0,0,1,2.06,2.22A2.13,2.13,0,0,1-22.52,471.68Zm-8.82,0-.54.05a2.19,2.19,0,0,1-2.06-2.29,2.19,2.19,0,0,1,2.08-2.25l.53.06a2.14,2.14,0,0,1,2.06,2.23A2.14,2.14,0,0,1-31.34,471.68Z"/><path class="cls-1" d="M145.09,481.24l-.54-.07a2.21,2.21,0,0,1,0-4.42l.53-.07a2.29,2.29,0,0,1,0,4.56Zm-8.83-.56-.53.17a2.35,2.35,0,0,1,0-4.67l.54.19a2.16,2.16,0,0,1,0,4.31Zm-8.82,0-.54.14a2.34,2.34,0,0,1,0-4.64l.53.15a2.18,2.18,0,0,1,0,4.35Zm-8.83,0-.53.1a2.31,2.31,0,0,1,0-4.6l.54.12a2.19,2.19,0,0,1,0,4.38Zm-8.82,0-.54.07a2.3,2.3,0,0,1,0-4.57l.54.08a2.21,2.21,0,0,1,0,4.42Zm-8.82,0-.54,0a2.27,2.27,0,0,1,0-4.53l.53.05a2.23,2.23,0,0,1,0,4.45Zm-8.83,0h-.53a2.26,2.26,0,0,1,0-4.5h.54a2.25,2.25,0,0,1,0,4.49Zm-8.82,0-.54,0a2.24,2.24,0,0,1,0-4.46l.53,0a2.27,2.27,0,0,1,0,4.52Zm-8.83,0-.53-.07a2.22,2.22,0,0,1,0-4.43l.54-.06a2.29,2.29,0,0,1,0,4.56Zm-8.82-.56-.54.17a2.18,2.18,0,0,1,0-4.35l.52,0a2.08,2.08,0,0,1,0,4.16Zm-8.82,0-.54.13a2.33,2.33,0,0,1,0-4.63l.53.15a2.18,2.18,0,0,1,0,4.35Zm-8.83,0-.53.1a2.2,2.2,0,0,1,0-4.4H48a2.15,2.15,0,0,1,0,4.29Zm-8.82,0-.54.07a2.23,2.23,0,0,1,0-4.44l.52,0a2.18,2.18,0,0,1,0,4.35Zm-8.83,0-.53,0a2.24,2.24,0,0,1,0-4.46h.52a2.21,2.21,0,0,1,0,4.42Zm-8.82,0H21a2.26,2.26,0,0,1,0-4.5h.53a2.25,2.25,0,0,1,0,4.49Zm-8.83,0-.53,0a2.24,2.24,0,0,1,0-4.46l.54,0a2.27,2.27,0,0,1,0,4.52Zm-8.82,0-.53-.07a2.22,2.22,0,0,1,0-4.43l.53-.06a2.29,2.29,0,0,1,0,4.56Zm-8.82-.56-.54.17a2.25,2.25,0,0,1-2.06-2.35,2.25,2.25,0,0,1,2.08-2.32l.53.18a2.09,2.09,0,0,1,2.06,2.18A2.09,2.09,0,0,1-4.92,479.56Zm-8.83,0-.53.13a2.09,2.09,0,0,1-2.06-2.18,2.12,2.12,0,0,1,2.09-2.19l.52,0a2.05,2.05,0,0,1,2.06,2.12A2.05,2.05,0,0,1-13.75,479.56Zm-8.82,0-.54.1a2.23,2.23,0,0,1-2.06-2.32,2.22,2.22,0,0,1,2.08-2.28l.53.11a2.12,2.12,0,0,1,2.06,2.21A2.11,2.11,0,0,1-22.57,479.56Zm-8.83,0-.53.06a2.2,2.2,0,0,1-2.06-2.3,2.19,2.19,0,0,1,2.07-2.26l.54.08a2.14,2.14,0,0,1,2.06,2.23A2.14,2.14,0,0,1-31.4,479.56Z"/><path class="cls-1" d="M145,489.12l-.53-.06a2.23,2.23,0,0,1,0-4.44l.54,0a2.28,2.28,0,0,1,0,4.54Zm-8.82,0-.54-.09a2.21,2.21,0,0,1,0-4.41l.53-.08a2.3,2.3,0,0,1,0,4.58Zm-8.83-.56-.53.15a2.34,2.34,0,0,1,0-4.65l.54.17a2.17,2.17,0,0,1,0,4.33Zm-8.82,0-.53.12a2.32,2.32,0,0,1,0-4.62l.53.13a2.19,2.19,0,0,1,0,4.37Zm-8.82,0-.54.08a2.3,2.3,0,0,1,0-4.58l.53.1a2.2,2.2,0,0,1,0,4.4Zm-8.83,0-.53.05a2.29,2.29,0,0,1,0-4.55l.54.06a2.23,2.23,0,0,1,0,4.44Zm-8.82,0h-.54a2.26,2.26,0,0,1,0-4.51l.53,0a2.24,2.24,0,0,1,0,4.47Zm-8.83,0-.53,0a2.25,2.25,0,0,1,0-4.48h.54a2.26,2.26,0,0,1,0,4.51Zm-8.82,0-.54-.06a2.23,2.23,0,0,1,0-4.44l.54,0a2.28,2.28,0,0,1,0,4.54Zm-8.82,0-.54-.09a2.21,2.21,0,0,1,0-4.41l.53-.08a2.3,2.3,0,0,1,0,4.58ZM56.79,488l-.53.16a2.35,2.35,0,0,1,0-4.66l.54.17a2.17,2.17,0,0,1,0,4.33ZM48,488l-.54.12a2.32,2.32,0,0,1,0-4.62l.53.14A2.18,2.18,0,0,1,48,488Zm-8.83,0-.53.09a2.31,2.31,0,0,1,0-4.59l.54.1a2.2,2.2,0,0,1,0,4.4Zm-8.82,0-.54.05a2.29,2.29,0,0,1,0-4.55l.53.07a2.22,2.22,0,0,1,0,4.43Zm-8.83,0L21,488a2.27,2.27,0,0,1,0-4.52l.54,0a2.24,2.24,0,0,1,0,4.47Zm-8.82,0h-.53a2.25,2.25,0,0,1,0-4.49h.53a2.26,2.26,0,0,1,0,4.5Zm-8.82,0-.54-.05a2.23,2.23,0,0,1,0-4.45l.53,0a2.27,2.27,0,0,1,0,4.53ZM-5,488l-.53-.08a2.14,2.14,0,0,1-2.06-2.23,2.12,2.12,0,0,1,2.07-2.19l.54-.07a2.21,2.21,0,0,1,2.06,2.3A2.21,2.21,0,0,1-5,488Zm-8.82-.56-.54.16a2.25,2.25,0,0,1-2.06-2.35,2.25,2.25,0,0,1,2.08-2.31l.53.17a2.1,2.1,0,0,1,2.06,2.19A2.08,2.08,0,0,1-13.8,487.43Zm-8.83,0-.53.12a2.1,2.1,0,0,1-2.06-2.19,2.12,2.12,0,0,1,2.09-2.19l.52,0a2.06,2.06,0,0,1,2.06,2.13A2.06,2.06,0,0,1-22.63,487.43Zm-8.82,0-.54.09A2.22,2.22,0,0,1-34,485.21,2.22,2.22,0,0,1-32,482.93l.54.1a2.14,2.14,0,0,1,2.06,2.22A2.13,2.13,0,0,1-31.45,487.43Z"/><path class="cls-1" d="M145,497l-.53,0a2.24,2.24,0,0,1,0-4.47l.53,0a2.27,2.27,0,0,1,0,4.52Zm-8.83,0-.53-.07a2.22,2.22,0,0,1,0-4.43l.54-.05a2.29,2.29,0,0,1,0,4.55Zm-8.82,0-.54-.1a2.2,2.2,0,0,1,0-4.4l.54-.09a2.31,2.31,0,0,1,0,4.59Zm-8.82-.56-.54.14a2.34,2.34,0,0,1,0-4.64l.53.15a2.18,2.18,0,0,1,0,4.35Zm-8.83,0-.53.1a2.1,2.1,0,0,1-2.06-2.2,2.13,2.13,0,0,1,2.09-2.2l.52,0a2.14,2.14,0,0,1,0,4.28Zm-8.82,0-.54.07a2.3,2.3,0,0,1,0-4.57l.53.08a2.22,2.22,0,0,1,0,4.42Zm-8.83,0-.53,0a2.28,2.28,0,0,1,0-4.54l.54.05a2.23,2.23,0,0,1,0,4.45Zm-8.82,0h-.53a2.26,2.26,0,0,1,0-4.5l.53,0a2.25,2.25,0,0,1,0,4.48Zm-8.82,0-.54,0a2.24,2.24,0,0,1,0-4.47l.53,0a2.27,2.27,0,0,1,0,4.52Zm-8.83,0-.53-.07A2.19,2.19,0,0,1,63,494.07a2.16,2.16,0,0,1,2.09-2.24h.52a2.32,2.32,0,0,1,0,4.61Zm-8.82,0-.54-.1a2.2,2.2,0,0,1,0-4.4l.53-.09a2.31,2.31,0,0,1,0,4.59Zm-8.83-.56-.53.14a2.34,2.34,0,0,1,0-4.64l.54.15a2.18,2.18,0,0,1,0,4.35Zm-8.82,0-.53.1a2.31,2.31,0,0,1,0-4.6l.53.12a2.19,2.19,0,0,1,0,4.38Zm-8.82,0-.54.07a2.3,2.3,0,0,1,0-4.57l.54.08a2.22,2.22,0,0,1,0,4.42Zm-8.83,0-.53,0a2.28,2.28,0,0,1,0-4.54l.53.05a2.23,2.23,0,0,1,0,4.45Zm-8.82,0h-.54a2.25,2.25,0,0,1,0-4.48h.52a2.24,2.24,0,0,1,0,4.47Zm-8.83,0-.53,0a2.24,2.24,0,0,1,0-4.46l.54,0a2.27,2.27,0,0,1,0,4.52Zm-8.82,0-.54-.07a2.2,2.2,0,0,1-2.06-2.29,2.18,2.18,0,0,1,2.09-2.24H-5A2.2,2.2,0,0,1-3,493.58,2.21,2.21,0,0,1-5,495.87Zm-8.83,0-.53-.11a2.11,2.11,0,0,1-2.06-2.21,2.13,2.13,0,0,1,2.07-2.18l.54-.09a2.21,2.21,0,0,1,2.06,2.31A2.22,2.22,0,0,1-13.86,495.87Zm-8.82-.57-.53.15a2.11,2.11,0,0,1-2.07-2.18,2.13,2.13,0,0,1,2.09-2.19l.52,0a2.05,2.05,0,0,1,2.07,2.12A2,2,0,0,1-22.68,495.3Zm-8.82,0-.54.11a2.22,2.22,0,0,1-2.06-2.32A2.22,2.22,0,0,1-32,490.81l.53.12a2.12,2.12,0,0,1,2.06,2.2A2.11,2.11,0,0,1-31.5,495.3Z"/><path class="cls-1" d="M144.93,504.86h-.54a2.25,2.25,0,0,1,0-4.48h.53a2.25,2.25,0,0,1,0,4.49Zm-8.83,0-.53,0a2.17,2.17,0,0,1-2.07-2.25,2.15,2.15,0,0,1,2.08-2.2l.54,0a2.27,2.27,0,0,1,0,4.53Zm-8.82,0-.54-.08a2.21,2.21,0,0,1,0-4.41l.53-.07a2.29,2.29,0,0,1,0,4.56Zm-8.83,0-.53-.11a2.19,2.19,0,0,1,0-4.38l.54-.11a2.31,2.31,0,0,1,0,4.6Zm-8.82-.56-.54.13a2.33,2.33,0,0,1,0-4.63l.53.14a2.18,2.18,0,0,1,0,4.36Zm-8.83,0-.53.09a2.31,2.31,0,0,1,0-4.59l.54.11a2.2,2.2,0,0,1,0,4.39Zm-8.82,0-.54.06a2.29,2.29,0,0,1,0-4.56l.54.07a2.22,2.22,0,0,1,0,4.43Zm-8.82,0-.54,0a2.27,2.27,0,0,1,0-4.53l.53,0a2.24,2.24,0,0,1,0,4.46Zm-8.83,0H73.8a2.25,2.25,0,0,1,0-4.49h.54a2.25,2.25,0,0,1,0,4.49Zm-8.82,0-.54-.05a2.23,2.23,0,0,1,0-4.45l.53,0a2.27,2.27,0,0,1,0,4.53Zm-8.83,0-.53-.08a2.22,2.22,0,0,1,0-4.42l.54-.07a2.3,2.3,0,0,1,0,4.57Zm-8.82,0-.54-.11a2.23,2.23,0,0,1-2.06-2.32,2.17,2.17,0,0,1,2.1-2.25h.52a2.36,2.36,0,0,1,0,4.69ZM39,503.74l-.54.13a2.33,2.33,0,0,1,0-4.63l.53.14a2.18,2.18,0,0,1,0,4.36Zm-8.83,0-.53.09a2.31,2.31,0,0,1,0-4.59l.54.11a2.2,2.2,0,0,1,0,4.39Zm-8.82,0-.54.06a2.29,2.29,0,0,1,0-4.56l.53.07a2.22,2.22,0,0,1,0,4.43Zm-8.83,0-.53,0A2.14,2.14,0,0,1,10,501.52a2.17,2.17,0,0,1,2.09-2.22h.52a2.22,2.22,0,0,1,0,4.43Zm-8.82,0H3.2a2.25,2.25,0,0,1,0-4.49h.53a2.26,2.26,0,0,1,0,4.5Zm-8.83,0-.53-.05a2.17,2.17,0,0,1-2.06-2.27,2.18,2.18,0,0,1,2.09-2.24h.52A2.2,2.2,0,0,1-3,501.47,2.2,2.2,0,0,1-5.09,503.74Zm-8.82,0-.54-.08a2.15,2.15,0,0,1-2.06-2.23,2.14,2.14,0,0,1,2.08-2.19l.54-.07a2.21,2.21,0,0,1,2.06,2.3A2.2,2.2,0,0,1-13.91,503.74Zm-8.82,0-.54-.11a2.23,2.23,0,0,1-2.06-2.32,2.19,2.19,0,0,1,2.09-2.25h.52a2.26,2.26,0,0,1,2.06,2.36A2.26,2.26,0,0,1-22.73,503.74Zm-8.83-.56-.53.13A2.24,2.24,0,0,1-34.15,501a2.22,2.22,0,0,1,2.07-2.3l.54.14a2.12,2.12,0,0,1,2.06,2.2A2.11,2.11,0,0,1-31.56,503.18Z"/><polygon class="cls-2" points="625 625 295.54 625 432.89 0 625 0 625 625"/><path class="cls-1" d="M688.53,481.57l-.54.05a2.23,2.23,0,0,1,0-4.44h.52a2.19,2.19,0,0,1,0,4.38Zm-8.83,0-.53,0a2,2,0,1,1,0-4l.54-.25a2.1,2.1,0,0,1,0,4.19Zm-8.82-.57-.54.27a2.1,2.1,0,0,1,0-4.2h.54a2,2,0,1,1,0,3.93Zm-8.82,0-.54.23a2.08,2.08,0,0,1,0-4.16l.53,0a2,2,0,1,1,0,4Zm-8.83,0-.53.2a2.07,2.07,0,0,1-2.06-2.16,2.12,2.12,0,0,1,2.09-2.17l.52,0a2.06,2.06,0,1,1,0,4.11Zm-8.82,0-.54.16a2.08,2.08,0,0,1-2.06-2.17,2.12,2.12,0,0,1,2.09-2.19l.52,0a2.09,2.09,0,0,1,0,4.17Zm-8.83,0-.53.13a2,2,0,1,1,0-4.06l.54-.14a2,2,0,1,1,0,4.07Zm-8.82,0-.53.09a2,2,0,1,1,0-4l.53-.18a2.06,2.06,0,1,1,0,4.11Zm-8.83,0-.53.06a2,2,0,1,1,0-4l.54-.21a2.07,2.07,0,1,1,0,4.14Zm-8.82,0-.53,0a2,2,0,1,1,0-3.95l.54-.25a2.09,2.09,0,0,1,0,4.18Zm-8.82-.56-.54.27a2,2,0,0,1-2.06-2.12,2.11,2.11,0,0,1,2.09-2.16l.52,0a2,2,0,1,1,0,4Zm-8.83,0-.53.23a2.09,2.09,0,0,1,0-4.17l.54,0a2,2,0,1,1,0,4Zm-8.82,0-.54.2a2.07,2.07,0,1,1,0-4.14l.53-.07a2,2,0,1,1,0,4Zm-8.83,0-.53.16a2.05,2.05,0,1,1,0-4.1l.54-.1a2,2,0,1,1,0,4Zm-8.82,0-.53.13a2,2,0,1,1,0-4.07l.53-.14a2,2,0,1,1,0,4.08Zm-8.82,0-.54.09a2,2,0,1,1,0-4l.53-.17a2.06,2.06,0,1,1,0,4.11Zm-8.83,0-.53.06a2,2,0,1,1,0-4l.54-.2a2.07,2.07,0,1,1,0,4.14Zm-8.82,0-.54,0a2,2,0,1,1,0-4l.53-.24a2.09,2.09,0,0,1,0,4.18Zm-8.83-.56-.53.27a2.11,2.11,0,0,1,0-4.21h.54a2,2,0,1,1,0,3.94Zm-8.82,0-.53.23a2.09,2.09,0,0,1,0-4.17l.53,0a2,2,0,1,1,0,4Zm-8.83,0-.53.2a2.07,2.07,0,1,1,0-4.14l.53-.07a2,2,0,1,1,0,4Z"/><path class="cls-1" d="M688.47,489.44l-.53.07a2.3,2.3,0,0,1,0-4.57l.54.09a2.21,2.21,0,0,1,0,4.41Zm-8.82,0-.54,0a2.28,2.28,0,0,1,0-4.54l.54.05a2.23,2.23,0,0,1,0,4.45Zm-8.82,0h-.54a2.26,2.26,0,0,1,0-4.5l.53,0a2.25,2.25,0,0,1,0,4.48Zm-8.83-.56-.53.25a2.4,2.4,0,0,1,0-4.75l.54.26a2.12,2.12,0,0,1,0,4.24Zm-8.82,0-.54.21a2.37,2.37,0,0,1,0-4.71l.53.23a2.14,2.14,0,0,1,0,4.27Zm-8.83,0-.53.18a2.36,2.36,0,0,1,0-4.68l.54.19a2.16,2.16,0,0,1,0,4.31Zm-8.82,0L635,489a2.34,2.34,0,0,1,0-4.64l.54.16a2.17,2.17,0,0,1,0,4.34Zm-8.82,0-.54.11a2.2,2.2,0,0,1,0-4.4l.52,0a2.14,2.14,0,0,1,0,4.27Zm-8.83,0-.53.07a2.21,2.21,0,0,1,0-4.42l.52,0a2.17,2.17,0,0,1,0,4.33Zm-8.82,0-.54,0a2.28,2.28,0,0,1,0-4.54l.53.05a2.23,2.23,0,0,1,0,4.45Zm-8.83,0h-.53a2.26,2.26,0,0,1,0-4.5l.54,0a2.25,2.25,0,0,1,0,4.48Zm-8.82-.57-.54.26a2.4,2.4,0,0,1,0-4.75l.53.26a2.06,2.06,0,0,1,2.06,2.14A2,2,0,0,1,591.41,488.31Zm-8.83,0-.53.22a2.38,2.38,0,0,1,0-4.71l.54.23a2.13,2.13,0,0,1,0,4.26Zm-8.82,0-.54.19a2.36,2.36,0,0,1,0-4.68l.54.19a2.15,2.15,0,0,1,0,4.3Zm-8.82,0-.54.15a2.34,2.34,0,0,1,0-4.64l.53.16a2.17,2.17,0,0,1,0,4.33Zm-8.83,0-.53.12a2.32,2.32,0,0,1,0-4.61l.54.12a2.19,2.19,0,0,1,0,4.37Zm-8.82,0-.54.08a2.3,2.3,0,0,1,0-4.57l.53.09a2.2,2.2,0,0,1,0,4.4Zm-8.83,0-.53.05a2.28,2.28,0,0,1,0-4.54l.54.05a2.23,2.23,0,0,1,0,4.44Zm-8.82,0h-.54a2.26,2.26,0,0,1,0-4.5l.54,0a2.24,2.24,0,0,1,0,4.47Zm-8.82-.56-.54.26a2.4,2.4,0,0,1,0-4.76l.53.27a2.12,2.12,0,0,1,0,4.23Zm-8.83,0-.53.22a2.38,2.38,0,0,1,0-4.72l.54.24a2.13,2.13,0,0,1,0,4.26Z"/><path class="cls-1" d="M688.42,497.31l-.53.1a2.21,2.21,0,0,1,0-4.41l.51,0a2.15,2.15,0,0,1,0,4.29Zm-8.82,0-.54.06a2.29,2.29,0,0,1,0-4.56l.53.08a2.22,2.22,0,0,1,0,4.42Zm-8.83,0-.53,0a2.27,2.27,0,0,1,0-4.53l.54,0a2.24,2.24,0,0,1,0,4.46Zm-8.82,0h-.54a2.25,2.25,0,0,1,0-4.49H662a2.25,2.25,0,0,1,0,4.49Zm-8.83-.56-.53.24a2.39,2.39,0,0,1,0-4.74l.54.25a2.13,2.13,0,0,1,0,4.25Zm-8.82,0-.53.2a2.37,2.37,0,0,1,0-4.7l.53.22a2.14,2.14,0,0,1,0,4.28Zm-8.82,0-.54.17a2.35,2.35,0,0,1,0-4.67l.53.18a2.16,2.16,0,0,1,0,4.32Zm-8.83,0-.53.13a2.33,2.33,0,0,1,0-4.63l.54.15a2.18,2.18,0,0,1,0,4.35Zm-8.82,0-.54.1a2.31,2.31,0,0,1,0-4.6l.53.11a2.2,2.2,0,0,1,0,4.39Zm-8.83,0-.53.06a2.29,2.29,0,0,1,0-4.56l.54.08a2.21,2.21,0,0,1,0,4.42Zm-8.82,0-.53,0a2.24,2.24,0,0,1,0-4.46h.52a2.22,2.22,0,0,1,0,4.42Zm-8.83,0h-.53a2.25,2.25,0,0,1,0-4.49h.54a2.25,2.25,0,0,1,0,4.49Zm-8.82-.56-.53.24a2.39,2.39,0,0,1,0-4.74l.53.25a2.13,2.13,0,0,1,0,4.25Zm-8.82,0-.54.2a2.37,2.37,0,0,1,0-4.7l.53.22a2.14,2.14,0,0,1,0,4.28Zm-8.83,0-.53.17a2.35,2.35,0,0,1,0-4.67l.54.18a2.16,2.16,0,0,1,0,4.32Zm-8.82,0-.54.13a2.33,2.33,0,0,1,0-4.63l.53.15a2.18,2.18,0,0,1,0,4.35Zm-8.83,0-.53.1a2.31,2.31,0,0,1,0-4.6l.54.11a2.2,2.2,0,0,1,0,4.39Zm-8.82,0-.53.06a2.29,2.29,0,0,1,0-4.56l.53.08a2.21,2.21,0,0,1,0,4.42Zm-8.82,0-.54,0a2.27,2.27,0,0,1,0-4.53l.53,0a2.24,2.24,0,0,1,0,4.46Zm-8.83,0h-.53a2.25,2.25,0,0,1,0-4.48h.52a2.25,2.25,0,0,1,0,4.49Zm-8.82-.56-.54.24a2.39,2.39,0,0,1,0-4.74l.53.25a2.13,2.13,0,0,1,0,4.25Z"/><path class="cls-1" d="M688.37,505.19l-.54.11a2.32,2.32,0,0,1,0-4.61l.53.13a2.19,2.19,0,0,1,0,4.37Zm-8.83,0-.53.08a2.3,2.3,0,0,1,0-4.58l.54.09a2.21,2.21,0,0,1,0,4.41Zm-8.82,0-.54,0a2.28,2.28,0,0,1,0-4.54l.53.06a2.23,2.23,0,0,1,0,4.44Zm-8.83,0h-.53a2.26,2.26,0,0,1,0-4.51l.54,0a2.25,2.25,0,0,1,0,4.48Zm-8.82,0-.54,0a2.24,2.24,0,0,1,0-4.47h.54a2.26,2.26,0,0,1,0,4.51Zm-8.82-.57-.54.23a2.07,2.07,0,0,1-2.06-2.14,2.13,2.13,0,0,1,2.09-2.17l.52,0a2,2,0,1,1,0,4.05Zm-8.83,0-.53.19a2.36,2.36,0,0,1,0-4.69l.54.21a2.15,2.15,0,0,1,0,4.29Zm-8.82,0-.54.16a2.35,2.35,0,0,1,0-4.66l.53.17a2.17,2.17,0,0,1,0,4.33Zm-8.83,0-.53.12a2.32,2.32,0,0,1,0-4.62l.54.14a2.18,2.18,0,0,1,0,4.36Zm-8.82,0-.54.09a2.31,2.31,0,0,1,0-4.59l.54.1a2.2,2.2,0,0,1,0,4.4Zm-8.82,0-.54.05a2.29,2.29,0,0,1,0-4.55l.53.07a2.22,2.22,0,0,1,0,4.43Zm-8.83,0-.53,0a2.27,2.27,0,0,1,0-4.52l.54,0a2.24,2.24,0,0,1,0,4.47Zm-8.82,0-.54,0a2.25,2.25,0,0,1,0-4.48h.53a2.26,2.26,0,0,1,0,4.5Zm-8.83-.56-.53.23a2.39,2.39,0,0,1,0-4.73l.54.24a2.13,2.13,0,0,1,0,4.26Zm-8.82,0-.53.19a2.36,2.36,0,0,1,0-4.69l.53.21a2.15,2.15,0,0,1,0,4.29Zm-8.83,0-.53.16a2.35,2.35,0,0,1,0-4.66l.54.17a2.17,2.17,0,0,1,0,4.33Zm-8.82,0-.54.12a2.32,2.32,0,0,1,0-4.62l.54.14a2.18,2.18,0,0,1,0,4.36Zm-8.82,0-.54.09a2.21,2.21,0,0,1,0-4.42l.52,0a2.16,2.16,0,0,1,0,4.31Zm-8.83,0-.53.05a2.29,2.29,0,0,1,0-4.55l.54.07a2.22,2.22,0,0,1,0,4.43Zm-8.82,0-.54,0a2.24,2.24,0,0,1,0-4.47h.52a2.23,2.23,0,0,1,0,4.44Zm-8.83,0-.53,0a2.25,2.25,0,0,1,0-4.48h.54a2.26,2.26,0,0,1,0,4.5Z"/><path class="cls-1" d="M688.31,513.06l-.53.14a2.19,2.19,0,0,1,0-4.38l.52,0a2.11,2.11,0,0,1,0,4.22Zm-8.82,0-.54.1a2.31,2.31,0,0,1,0-4.6l.53.12a2.19,2.19,0,0,1,0,4.38Zm-8.83,0-.53.07a2.3,2.3,0,0,1,0-4.57l.54.08a2.21,2.21,0,0,1,0,4.42Zm-8.82,0-.53,0a2.27,2.27,0,0,1,0-4.53l.53.05a2.23,2.23,0,0,1,0,4.45Zm-8.82,0h-.54a2.26,2.26,0,0,1,0-4.5H653a2.25,2.25,0,0,1,0,4.49Zm-8.83,0-.53,0a2.24,2.24,0,0,1,0-4.46l.54,0a2.27,2.27,0,0,1,0,4.52Zm-8.82-.56-.54.21a2.37,2.37,0,0,1,0-4.71l.53.22a2.14,2.14,0,0,1,0,4.28Zm-8.83,0-.53.17a2.35,2.35,0,0,1,0-4.67l.54.19a2.16,2.16,0,0,1,0,4.31Zm-8.82,0-.54.14a2.34,2.34,0,0,1,0-4.64l.54.15a2.18,2.18,0,0,1,0,4.35Zm-8.82,0-.54.1a2.31,2.31,0,0,1,0-4.6l.53.12a2.19,2.19,0,0,1,0,4.38Zm-8.83,0-.53.07a2.22,2.22,0,0,1,0-4.43h.52a2.18,2.18,0,0,1,0,4.35Zm-8.82,0-.54,0a2.27,2.27,0,0,1,0-4.53l.53.05a2.23,2.23,0,0,1,0,4.45Zm-8.83,0h-.53a2.26,2.26,0,0,1,0-4.5h.54a2.25,2.25,0,0,1,0,4.49Zm-8.82,0-.54,0a2.24,2.24,0,0,1,0-4.46l.53,0a2.27,2.27,0,0,1,0,4.52Zm-8.82-.57-.54.22a2.37,2.37,0,0,1,0-4.71l.53.22a2.14,2.14,0,0,1,0,4.27Zm-8.83,0-.53.18a2.35,2.35,0,0,1,0-4.67l.53.19a2.15,2.15,0,0,1,0,4.3Zm-8.82,0-.54.15a2.34,2.34,0,0,1,0-4.64l.53.15a2.17,2.17,0,0,1,0,4.34Zm-8.83,0-.53.11a2.2,2.2,0,0,1,0-4.4l.52,0a2.14,2.14,0,0,1,0,4.27Zm-8.82,0-.54.08a2.3,2.3,0,0,1,0-4.57l.53.08a2.14,2.14,0,0,1,2.06,2.23A2.11,2.11,0,0,1,529.48,511.93Zm-8.83,0-.53,0a2.27,2.27,0,0,1,0-4.53l.54.05a2.23,2.23,0,0,1,0,4.44Zm-8.82,0h-.54a2.26,2.26,0,0,1,0-4.5h.54a2.25,2.25,0,0,1,0,4.48Z"/><path class="cls-1" d="M688.26,520.93l-.53.16a2.35,2.35,0,0,1,0-4.66l.53.18a2.16,2.16,0,0,1,0,4.32Zm-8.82,0-.54.13a2.33,2.33,0,0,1,0-4.63l.53.14a2.18,2.18,0,0,1,0,4.36Zm-8.83,0-.53.09a2.31,2.31,0,0,1,0-4.59l.54.11a2.2,2.2,0,0,1,0,4.39Zm-8.82,0-.54.06a2.29,2.29,0,0,1,0-4.56l.53.07a2.22,2.22,0,0,1,0,4.43Zm-8.83,0-.53,0a2.27,2.27,0,0,1,0-4.52l.54,0a2.24,2.24,0,0,1,0,4.46Zm-8.82,0h-.53a2.18,2.18,0,0,1-2.07-2.26,2.14,2.14,0,0,1,2.09-2.23h.52a2.26,2.26,0,0,1,0,4.5Zm-8.83,0-.53,0a2.23,2.23,0,0,1,0-4.45l.54,0a2.27,2.27,0,0,1,0,4.53Zm-8.82-.56-.53.2a2.37,2.37,0,0,1,0-4.7l.53.21a2.15,2.15,0,0,1,0,4.29Zm-8.82,0-.54.16a2.35,2.35,0,0,1,0-4.66l.53.18a2.16,2.16,0,0,1,0,4.32Zm-8.83,0-.53.13a2.33,2.33,0,0,1,0-4.63l.54.14a2.18,2.18,0,0,1,0,4.36Zm-8.82,0-.54.09a2.31,2.31,0,0,1,0-4.59l.53.11a2.2,2.2,0,0,1,0,4.39Zm-8.83,0-.53.06a2.29,2.29,0,0,1,0-4.56l.54.07a2.22,2.22,0,0,1,0,4.43Zm-8.82,0-.53,0a2.27,2.27,0,0,1,0-4.52l.53,0a2.24,2.24,0,0,1,0,4.46Zm-8.82,0H573a2.25,2.25,0,0,1,0-4.49h.53a2.26,2.26,0,0,1,0,4.5Zm-8.83,0-.53,0a2.23,2.23,0,0,1,0-4.45l.54,0a2.27,2.27,0,0,1,0,4.53Zm-8.82-.56-.54.2a2.37,2.37,0,0,1,0-4.7l.53.21a2.15,2.15,0,0,1,0,4.29Zm-8.83,0-.53.16a2.35,2.35,0,0,1,0-4.66l.54.18a2.16,2.16,0,0,1,0,4.32Zm-8.82,0-.53.13a2.33,2.33,0,0,1,0-4.63l.53.14a2.18,2.18,0,0,1,0,4.36Zm-8.83,0-.53.09a2.31,2.31,0,0,1,0-4.59l.54.11a2.2,2.2,0,0,1,0,4.39Zm-8.82,0-.53.06a2.29,2.29,0,0,1,0-4.56l.53.07a2.22,2.22,0,0,1,0,4.43Zm-8.82,0-.54,0a2.27,2.27,0,0,1,0-4.52l.53,0a2.24,2.24,0,0,1,0,4.46Z"/><path class="cls-1" d="M688.21,528.81l-.54.18a2.36,2.36,0,0,1,0-4.68l.53.19a2.16,2.16,0,0,1,0,4.31Zm-8.83,0-.53.14a2.34,2.34,0,0,1,0-4.64l.54.16a2.17,2.17,0,0,1,0,4.34Zm-8.82,0-.54.11a2.32,2.32,0,0,1,0-4.61l.53.12a2.19,2.19,0,0,1,0,4.38Zm-8.83,0-.53.07a2.3,2.3,0,0,1,0-4.57l.54.09a2.21,2.21,0,0,1,0,4.41Zm-8.82,0-.54,0a2.28,2.28,0,0,1,0-4.54l.53.05a2.23,2.23,0,0,1,0,4.45Zm-8.82,0h-.54a2.26,2.26,0,0,1,0-4.5l.53,0a2.25,2.25,0,0,1,0,4.48Zm-8.83,0-.54,0a2.18,2.18,0,0,1-2.06-2.26,2.15,2.15,0,0,1,2.08-2.21l.54,0a2.27,2.27,0,0,1,0,4.52Zm-8.82,0-.54-.07a2.22,2.22,0,0,1,0-4.43l.53,0a2.29,2.29,0,0,1,0,4.55Zm-8.83-.57-.53.19a2.36,2.36,0,0,1,0-4.69l.54.2a2.15,2.15,0,0,1,0,4.3Zm-8.82,0-.54.15a2.34,2.34,0,0,1,0-4.65l.53.17a2.17,2.17,0,0,1,0,4.33Zm-8.83,0-.53.12a2.32,2.32,0,0,1,0-4.62l.54.13a2.19,2.19,0,0,1,0,4.37Zm-8.82,0-.54.08a2.3,2.3,0,0,1,0-4.58l.54.1a2.2,2.2,0,0,1,0,4.4Zm-8.82,0-.54,0a2.29,2.29,0,0,1,0-4.55l.53.06a2.23,2.23,0,0,1,0,4.44Zm-8.83,0H573a2.26,2.26,0,0,1,0-4.51l.54,0a2.24,2.24,0,0,1,0,4.47Zm-8.82,0-.54,0a2.25,2.25,0,0,1,0-4.48h.53a2.26,2.26,0,0,1,0,4.51Zm-8.83,0-.53-.06a2.23,2.23,0,0,1,0-4.44l.54,0a2.28,2.28,0,0,1,0,4.54Zm-8.82-.56-.54.19a2.36,2.36,0,0,1,0-4.69l.54.2a2.15,2.15,0,0,1,0,4.3Zm-8.83,0-.53.15a2.34,2.34,0,0,1,0-4.65l.53.17a2.17,2.17,0,0,1,0,4.33Zm-8.82,0-.53.12a2.32,2.32,0,0,1,0-4.62l.54.13a2.19,2.19,0,0,1,0,4.37Zm-8.82,0-.54.08a2.3,2.3,0,0,1,0-4.58l.53.1a2.2,2.2,0,0,1,0,4.4Zm-8.83,0-.53.05a2.29,2.29,0,0,1,0-4.55l.54.06a2.23,2.23,0,0,1,0,4.44Z"/><path class="cls-1" d="M688.15,537.24l-.53-.08a2.22,2.22,0,0,1,0-4.42l.54-.06a2.29,2.29,0,0,1,0,4.56Zm-8.82-.56-.54.17a2.35,2.35,0,0,1,0-4.67l.53.18a2.16,2.16,0,0,1,0,4.32Zm-8.83,0-.53.13a2.33,2.33,0,0,1,0-4.63l.54.15a2.18,2.18,0,0,1,0,4.35Zm-8.82,0-.53.1a2.31,2.31,0,0,1,0-4.6l.53.11a2.2,2.2,0,0,1,0,4.39Zm-8.82,0-.54.06a2.29,2.29,0,0,1,0-4.56l.53.08a2.22,2.22,0,0,1,0,4.42Zm-8.83,0-.53,0a2.27,2.27,0,0,1,0-4.53l.54,0a2.24,2.24,0,0,1,0,4.46Zm-8.82,0h-.54a2.25,2.25,0,0,1,0-4.49h.53a2.25,2.25,0,0,1,0,4.49Zm-8.83,0-.53,0a2.24,2.24,0,0,1,0-4.46l.54,0a2.27,2.27,0,0,1,0,4.53Zm-8.82,0-.54-.08a2.21,2.21,0,0,1,0-4.42l.53-.06a2.29,2.29,0,0,1,0,4.56Zm-8.83-.56-.53.17a2.09,2.09,0,0,1-2.06-2.18,2.12,2.12,0,0,1,2.09-2.18l.52,0a2.08,2.08,0,0,1,0,4.16Zm-8.82,0-.54.13a2.33,2.33,0,0,1,0-4.63l.54.15a2.18,2.18,0,0,1,0,4.35Zm-8.82,0-.54.1a2.21,2.21,0,0,1,0-4.41l.52,0a2.15,2.15,0,0,1,0,4.29Zm-8.83,0-.53.06a2.13,2.13,0,0,1-2.06-2.22,2.15,2.15,0,0,1,2.09-2.21h.52a2.18,2.18,0,0,1,0,4.36Zm-8.82,0-.54,0a2.24,2.24,0,0,1,0-4.46h.52a2.22,2.22,0,0,1,0,4.42Zm-8.83,0h-.53a2.25,2.25,0,0,1,0-4.49h.54a2.25,2.25,0,0,1,0,4.49Zm-8.82,0-.54,0a2.24,2.24,0,0,1,0-4.46l.54,0a2.27,2.27,0,0,1,0,4.53Zm-8.82,0-.54-.08a2.21,2.21,0,0,1,0-4.42l.53-.06a2.29,2.29,0,0,1,0,4.56Zm-8.83-.57-.53.18a2.26,2.26,0,0,1-2.06-2.36,2.23,2.23,0,0,1,2.07-2.31l.54.18a2.16,2.16,0,0,1,0,4.31Zm-8.82,0-.54.14a2.1,2.1,0,0,1-2.06-2.18,2.15,2.15,0,0,1,2.09-2.2l.52,0a2.11,2.11,0,0,1,0,4.21Zm-8.83,0-.53.11a2.31,2.31,0,0,1,0-4.6l.54.11a2.19,2.19,0,0,1,0,4.38Zm-8.82,0-.54.07a2.29,2.29,0,0,1,0-4.56l.53.08a2.21,2.21,0,0,1,0,4.41Z"/><path class="cls-1" d="M688.1,545.11l-.54-.05a2.23,2.23,0,0,1,0-4.44l.53,0a2.28,2.28,0,0,1,0,4.54Zm-8.83,0-.53-.09a2.2,2.2,0,0,1,0-4.4l.54-.08a2.3,2.3,0,0,1,0,4.57Zm-8.82-.56-.54.16a2.35,2.35,0,0,1,0-4.66l.54.17a2.17,2.17,0,0,1,0,4.33Zm-8.82,0-.54.12a2.32,2.32,0,0,1,0-4.62l.53.14a2.18,2.18,0,0,1,0,4.36Zm-8.83,0-.53.09a2.31,2.31,0,0,1,0-4.59l.54.1a2.2,2.2,0,0,1,0,4.4Zm-8.82,0-.54.05a2.29,2.29,0,0,1,0-4.55l.53.07a2.22,2.22,0,0,1,0,4.43Zm-8.83,0-.53,0a2.27,2.27,0,0,1,0-4.52l.54,0a2.24,2.24,0,0,1,0,4.47Zm-8.82,0-.53,0a2.25,2.25,0,0,1,0-4.48h.53a2.26,2.26,0,0,1,0,4.5Zm-8.83,0-.53,0a2.23,2.23,0,0,1,0-4.45l.54,0a2.28,2.28,0,0,1,0,4.54Zm-8.82,0-.54-.09a2.21,2.21,0,0,1,0-4.41l.54-.07a2.3,2.3,0,0,1,0,4.57Zm-8.82-.56-.54.16a2.35,2.35,0,0,1,0-4.66l.53.17a2.17,2.17,0,0,1,0,4.33ZM591,544l-.53.12a2.32,2.32,0,0,1,0-4.62l.54.14a2.18,2.18,0,0,1,0,4.36Zm-8.82,0-.54.09a2.31,2.31,0,0,1,0-4.59l.53.1a2.2,2.2,0,0,1,0,4.4Zm-8.83,0-.53,0a2.29,2.29,0,0,1,0-4.55l.54.07a2.22,2.22,0,0,1,0,4.43Zm-8.82,0-.53,0a2.27,2.27,0,0,1,0-4.52l.53,0a2.24,2.24,0,0,1,0,4.47Zm-8.82,0-.54,0a2.25,2.25,0,0,1,0-4.48h.53a2.26,2.26,0,0,1,0,4.5Zm-8.83,0-.53,0a2.23,2.23,0,0,1,0-4.45l.54,0a2.28,2.28,0,0,1,0,4.54Zm-8.82,0-.54-.09a2.21,2.21,0,0,1,0-4.41l.53-.07a2.3,2.3,0,0,1,0,4.57Zm-8.83-.56-.53.16a2.35,2.35,0,0,1,0-4.66l.54.17a2.17,2.17,0,0,1,0,4.33Zm-8.82,0-.53.12a2.2,2.2,0,0,1,0-4.39l.52,0a2.13,2.13,0,0,1,0,4.25Zm-8.83,0-.53.09a2.31,2.31,0,0,1,0-4.59l.53.1a2.2,2.2,0,0,1,0,4.4Z"/><path class="cls-1" d="M688,553l-.53,0a2.24,2.24,0,0,1,0-4.46l.54,0a2.27,2.27,0,0,1,0,4.52Zm-8.82,0-.54-.07a2.22,2.22,0,0,1,0-4.43l.54-.06a2.29,2.29,0,0,1,0,4.56Zm-8.82,0-.54-.11a2.2,2.2,0,0,1,0-4.39l.53-.09a2.31,2.31,0,0,1,0,4.59Zm-8.83-.56-.53.14a2.34,2.34,0,0,1,0-4.64l.54.15a2.18,2.18,0,0,1,0,4.35Zm-8.82,0-.54.1a2.2,2.2,0,0,1,0-4.4l.52,0a2.14,2.14,0,0,1,0,4.28Zm-8.83,0-.53.07a2.3,2.3,0,0,1,0-4.57l.54.08a2.21,2.21,0,0,1,0,4.42Zm-8.82,0-.54,0a2.27,2.27,0,0,1,0-4.53l.54.05a2.23,2.23,0,0,1,0,4.45Zm-8.82,0h-.54a2.26,2.26,0,0,1,0-4.5h.53a2.25,2.25,0,0,1,0,4.49Zm-8.83,0-.53,0a2.24,2.24,0,0,1,0-4.46l.54,0a2.27,2.27,0,0,1,0,4.52Zm-8.82,0-.54-.07a2.2,2.2,0,0,1-2.06-2.29,2.17,2.17,0,0,1,2.09-2.24h.52a2.32,2.32,0,0,1,0,4.61Zm-8.83,0-.53-.11a2.2,2.2,0,0,1,0-4.39l.54-.09a2.31,2.31,0,0,1,0,4.59Zm-8.82-.57-.54.15a2.34,2.34,0,0,1,0-4.65l.53.16a2.17,2.17,0,0,1,0,4.34Zm-8.83,0-.53.11a2.32,2.32,0,0,1,0-4.61l.54.13a2.19,2.19,0,0,1,0,4.37Zm-8.82,0-.54.08a2.3,2.3,0,0,1,0-4.58l.54.09a2.21,2.21,0,0,1,0,4.41Zm-8.82,0-.54,0a2.28,2.28,0,0,1,0-4.54l.53.06a2.23,2.23,0,0,1,0,4.44Zm-8.83,0h-.53a2.25,2.25,0,0,1,0-4.48h.52a2.24,2.24,0,0,1,0,4.47Zm-8.82,0-.54,0a2.24,2.24,0,0,1,0-4.47h.53a2.26,2.26,0,0,1,0,4.51Zm-8.83,0-.53-.06a2.27,2.27,0,0,1,0-4.53h.52a2.31,2.31,0,0,1,0,4.6Zm-8.82,0-.54-.1a2.2,2.2,0,0,1,0-4.4l.54-.08a2.3,2.3,0,0,1,0,4.58Zm-8.82-.56-.54.15a2.11,2.11,0,0,1-2.06-2.19,2.14,2.14,0,0,1,2.09-2.19l.52,0a2.1,2.1,0,0,1,0,4.2Zm-8.83,0-.53.11a2.32,2.32,0,0,1,0-4.61l.54.13a2.19,2.19,0,0,1,0,4.37Z"/><path class="cls-1" d="M688,560.86h-.53a2.25,2.25,0,0,1,0-4.49H688a2.26,2.26,0,0,1,0,4.5Zm-8.82,0-.54-.05a2.23,2.23,0,0,1,0-4.45l.53,0a2.27,2.27,0,0,1,0,4.53Zm-8.83,0-.53-.08a2.22,2.22,0,0,1,0-4.42l.54-.07a2.3,2.3,0,0,1,0,4.57Zm-8.82,0-.54-.12a2.19,2.19,0,0,1,0-4.38l.53-.1a2.31,2.31,0,0,1,0,4.6Zm-8.83-.56-.53.13a2.33,2.33,0,0,1,0-4.63l.54.14a2.18,2.18,0,0,1,0,4.36Zm-8.82,0-.53.09a2.31,2.31,0,0,1,0-4.59l.53.11a2.2,2.2,0,0,1,0,4.39Zm-8.82,0-.54.06a2.29,2.29,0,0,1,0-4.56l.53.07a2.22,2.22,0,0,1,0,4.43Zm-8.83,0-.53,0a2.27,2.27,0,0,1,0-4.52l.54,0a2.24,2.24,0,0,1,0,4.46Zm-8.82,0h-.54a2.25,2.25,0,0,1,0-4.49h.53a2.26,2.26,0,0,1,0,4.5Zm-8.83,0-.53,0a2.23,2.23,0,0,1,0-4.45l.54,0a2.27,2.27,0,0,1,0,4.53Zm-8.82,0-.53-.08a2.21,2.21,0,0,1,0-4.42l.53-.07a2.3,2.3,0,0,1,0,4.57Zm-8.83,0-.53-.12a2.22,2.22,0,0,1-2.06-2.31,2.18,2.18,0,0,1,2.09-2.26h.52a2.37,2.37,0,0,1,0,4.7Zm-8.82-.56-.53.13a2.33,2.33,0,0,1,0-4.63l.53.14a2.18,2.18,0,0,1,0,4.36Zm-8.82,0-.54.09a2.31,2.31,0,0,1,0-4.59l.53.11a2.2,2.2,0,0,1,0,4.39Zm-8.83,0-.53.06a2.29,2.29,0,0,1,0-4.56l.54.07a2.22,2.22,0,0,1,0,4.43Zm-8.82,0-.54,0a2.24,2.24,0,0,1,0-4.46h.52a2.22,2.22,0,0,1,0,4.43Zm-8.83,0h-.53a2.25,2.25,0,0,1,0-4.49h.54a2.26,2.26,0,0,1,0,4.5Zm-8.82,0-.53,0a2.26,2.26,0,0,1,0-4.51H538a2.29,2.29,0,0,1,0,4.56Zm-8.82,0-.54-.08a2.21,2.21,0,0,1,0-4.42l.53-.07a2.3,2.3,0,0,1,0,4.57Zm-8.83,0-.53-.12a2.21,2.21,0,0,1-2.06-2.31,2.19,2.19,0,0,1,2.09-2.25h.52a2.36,2.36,0,0,1,0,4.69Zm-8.82-.57-.54.14a2.33,2.33,0,0,1,0-4.63l.53.14a2.18,2.18,0,0,1,0,4.35Z"/><path class="cls-1" d="M490,30.33l-.53.06a2.23,2.23,0,0,1,0-4.44H490a2.19,2.19,0,0,1,0,4.37Zm-8.82,0-.54,0a2,2,0,1,1,0-4l.53-.25a2.09,2.09,0,0,1,0,4.18Zm-8.83-.56-.53.27a2.11,2.11,0,0,1,0-4.21h.54a2,2,0,1,1,0,3.94Zm-8.82,0L463,30a2.09,2.09,0,0,1,0-4.17l.53,0a2,2,0,1,1,0,4Zm-8.82,0-.54.2a2.08,2.08,0,0,1-2.06-2.16,2.14,2.14,0,0,1,2.09-2.18l.52,0a2.06,2.06,0,1,1,0,4.11Zm-8.83,0-.53.16a2.18,2.18,0,0,1,0-4.36l.52,0a2.09,2.09,0,0,1,0,4.17Zm-8.82,0-.54.13a2,2,0,1,1,0-4.07l.53-.14a2,2,0,1,1,0,4.08Zm-8.83,0-.53.09a2,2,0,1,1,0-4l.54-.17a2.06,2.06,0,1,1,0,4.11Zm-8.82,0-.54.06a2,2,0,1,1,0-4l.53-.21a2.08,2.08,0,1,1,0,4.15Zm-8.82,0-.54,0a2,2,0,1,1,0-4l.53-.24a2.09,2.09,0,0,1,0,4.18Zm-8.83-.56-.53.27a2,2,0,0,1-2.06-2.13,2.1,2.1,0,0,1,2.09-2.15l.51,0a2,2,0,1,1,0,4Zm-8.82,0-.54.23a2.09,2.09,0,0,1,0-4.17l.53,0a2,2,0,1,1,0,4Zm-8.83,0-.53.2a2.07,2.07,0,0,1,0-4.14l.54-.07a2,2,0,1,1,0,4Zm-8.82,0-.54.16a2.05,2.05,0,1,1,0-4.1l.53-.1a2,2,0,1,1,0,4Zm-8.83,0-.53.13a2,2,0,1,1,0-4.07l.54-.14a2,2,0,1,1,0,4.08Zm-8.82,0-.53.09a2,2,0,1,1,0-4l.53-.17a2.06,2.06,0,1,1,0,4.11Zm-8.82,0-.54.06a2,2,0,1,1,0-4l.53-.21a2.08,2.08,0,0,1,0,4.15Zm-8.83,0-.53,0a2,2,0,1,1,0-4L340,25a2.09,2.09,0,0,1,0,4.18Zm-8.82-.56-.54.27a2.11,2.11,0,0,1,0-4.21h.53a2,2,0,1,1,0,3.94Zm-8.83,0-.53.23a2.09,2.09,0,0,1,0-4.17l.54,0a2,2,0,1,1,0,4Zm-8.82,0-.54.2a2.07,2.07,0,1,1,0-4.14l.54-.07a2,2,0,1,1,0,4Z"/><path class="cls-1" d="M489.92,38.21l-.54.07a2.3,2.3,0,0,1,0-4.57l.53.09a2.21,2.21,0,0,1,0,4.41Zm-8.83,0-.53,0a2.28,2.28,0,0,1,0-4.54l.54,0a2.23,2.23,0,0,1,0,4.45Zm-8.82,0h-.54a2.26,2.26,0,0,1,0-4.5l.54,0a2.25,2.25,0,0,1,0,4.48Zm-8.82-.57-.54.26a2.4,2.4,0,0,1,0-4.75l.53.26a2.12,2.12,0,0,1,0,4.23Zm-8.83,0-.53.22a2.38,2.38,0,0,1,0-4.71l.54.23a2.13,2.13,0,0,1,0,4.26Zm-8.82,0-.54.19a2.36,2.36,0,0,1,0-4.68l.53.19a2.15,2.15,0,0,1,0,4.3Zm-8.83,0-.53.15a2.34,2.34,0,0,1,0-4.64l.54.16a2.17,2.17,0,0,1,0,4.33Zm-8.82,0-.53.12a2.2,2.2,0,0,1,0-4.4l.52,0a2.13,2.13,0,0,1,0,4.26Zm-8.82,0-.54.08a2.21,2.21,0,0,1,0-4.42h.52a2.17,2.17,0,0,1,0,4.33Zm-8.83,0-.53,0a2.28,2.28,0,0,1,0-4.54l.54.05a2.23,2.23,0,0,1,0,4.44Zm-8.82,0h-.54a2.26,2.26,0,0,1,0-4.5l.53,0a2.24,2.24,0,0,1,0,4.47Zm-8.83-.56-.53.26a2.4,2.4,0,0,1,0-4.76s.54.27.54.27a2.12,2.12,0,0,1,0,4.23Zm-8.82,0-.53.22a2.38,2.38,0,0,1,0-4.72l.53.24a2.13,2.13,0,0,1,0,4.26Zm-8.83,0-.53.19a2.36,2.36,0,0,1,0-4.69l.54.2a2.15,2.15,0,0,1,0,4.3Zm-8.82,0-.53.15a2.34,2.34,0,0,1,0-4.65l.53.17a2.17,2.17,0,0,1,0,4.33Zm-8.82,0-.54.12a2.32,2.32,0,0,1,0-4.62l.53.13a2.19,2.19,0,0,1,0,4.37Zm-8.83,0-.53.08a2.3,2.3,0,0,1,0-4.58l.54.1a2.2,2.2,0,0,1,0,4.4Zm-8.82,0-.54.05a2.29,2.29,0,0,1,0-4.55l.53.06a2.23,2.23,0,0,1,0,4.44Zm-8.83,0h-.53a2.26,2.26,0,0,1,0-4.51l.54,0a2.24,2.24,0,0,1,0,4.47Zm-8.82-.56-.53.26a2.4,2.4,0,0,1,0-4.76l.53.27a2.12,2.12,0,0,1,0,4.23Zm-8.82,0-.54.22a2.38,2.38,0,0,1,0-4.72l.53.24a2.13,2.13,0,0,1,0,4.26Z"/><path class="cls-1" d="M489.86,46.08l-.53.1a2.21,2.21,0,0,1,0-4.41h.52a2.15,2.15,0,0,1,0,4.3Zm-8.82,0-.53.06a2.29,2.29,0,0,1,0-4.56l.54.08a2.21,2.21,0,0,1,0,4.42Zm-8.82,0-.54,0a2.27,2.27,0,0,1,0-4.53l.53,0a2.24,2.24,0,0,1,0,4.46Zm-8.83,0h-.53a2.25,2.25,0,0,1,0-4.49h.54a2.25,2.25,0,0,1,0,4.49Zm-8.82-.56-.54.24a2.39,2.39,0,0,1,0-4.74l.53.25a2.13,2.13,0,0,1,0,4.25Zm-8.83,0-.53.2a2.37,2.37,0,0,1,0-4.7l.54.22a2.14,2.14,0,0,1,0,4.28Zm-8.82,0-.54.17a2.27,2.27,0,0,1-2.06-2.36A2.25,2.25,0,0,1,436.4,41l.54.18a2.16,2.16,0,0,1,0,4.32Zm-8.82,0-.54.13a2.33,2.33,0,0,1,0-4.63l.53.15a2.18,2.18,0,0,1,0,4.35Zm-8.83,0-.53.1a2.31,2.31,0,0,1,0-4.6l.54.11a2.2,2.2,0,0,1,0,4.39Zm-8.82,0-.54.06a2.29,2.29,0,0,1,0-4.56l.53.08a2.22,2.22,0,0,1,0,4.42Zm-8.83,0-.53,0a2.24,2.24,0,0,1,0-4.46h.52a2.21,2.21,0,0,1,0,4.42Zm-8.82,0h-.54a2.25,2.25,0,0,1,0-4.49h.53a2.25,2.25,0,0,1,0,4.49ZM384,45l-.54.24a2.39,2.39,0,0,1,0-4.74l.53.25A2.13,2.13,0,0,1,384,45Zm-8.83,0-.53.2a2.37,2.37,0,0,1,0-4.7l.54.22a2.14,2.14,0,0,1,0,4.28Zm-8.82,0-.54.17a2.35,2.35,0,0,1,0-4.67l.53.18a2.16,2.16,0,0,1,0,4.32Zm-8.83,0-.53.13a2.33,2.33,0,0,1,0-4.63l.54.14a2.18,2.18,0,0,1,0,4.36Zm-8.82,0-.54.1a2.31,2.31,0,0,1,0-4.6l.53.11a2.2,2.2,0,0,1,0,4.39Zm-8.83,0-.53.06a2.29,2.29,0,0,1,0-4.56l.54.08a2.21,2.21,0,0,1,0,4.42ZM331,45l-.54,0a2.2,2.2,0,0,1-2.06-2.29,2.18,2.18,0,0,1,2.08-2.24l.54,0A2.24,2.24,0,0,1,331,45Zm-8.82,0h-.54a2.17,2.17,0,0,1-2.06-2.26,2.14,2.14,0,0,1,2.09-2.22h.52a2.25,2.25,0,0,1,0,4.49Zm-8.83-.57-.53.24a2.39,2.39,0,0,1,0-4.74l.54.26a2.12,2.12,0,0,1,0,4.24Z"/><path class="cls-1" d="M489.81,54l-.53.12a2.32,2.32,0,0,1,0-4.62l.53.14a2.18,2.18,0,0,1,0,4.36ZM481,54l-.54.09a2.31,2.31,0,0,1,0-4.59l.53.1a2.2,2.2,0,0,1,0,4.4Zm-8.83,0-.53,0a2.29,2.29,0,0,1,0-4.55l.54.07a2.22,2.22,0,0,1,0,4.43Zm-8.82,0-.53,0a2.27,2.27,0,0,1,0-4.52l.53,0a2.24,2.24,0,0,1,0,4.47Zm-8.83,0-.53,0a2.25,2.25,0,0,1,0-4.48h.54a2.26,2.26,0,0,1,0,4.5Zm-8.82-.56-.53.23a2.08,2.08,0,0,1-2.07-2.15,2.13,2.13,0,0,1,2.1-2.17l.51,0a2,2,0,1,1,0,4Zm-8.82,0-.54.19a2.36,2.36,0,0,1,0-4.69l.53.21a2.15,2.15,0,0,1,0,4.29Zm-8.83,0-.53.16a2.35,2.35,0,0,1,0-4.66l.54.17a2.17,2.17,0,0,1,0,4.33Zm-8.82,0-.54.12a2.32,2.32,0,0,1,0-4.62l.53.14a2.18,2.18,0,0,1,0,4.36Zm-8.83,0-.53.09a2.31,2.31,0,0,1,0-4.59l.54.1a2.2,2.2,0,0,1,0,4.4Zm-8.82,0-.53,0a2.28,2.28,0,0,1,0-4.55l.53.07a2.22,2.22,0,0,1,0,4.43Zm-8.82,0-.54,0a2.27,2.27,0,0,1,0-4.52l.53,0a2.24,2.24,0,0,1,0,4.47Zm-8.83,0-.53,0a2.25,2.25,0,0,1,0-4.48h.54a2.26,2.26,0,0,1,0,4.5Zm-8.82-.56-.54.22a2.38,2.38,0,0,1,0-4.72l.53.24a2.13,2.13,0,0,1,0,4.26Zm-8.83,0-.53.19a2.36,2.36,0,0,1,0-4.69l.54.2a2.15,2.15,0,0,1,0,4.3Zm-8.82,0-.53.16a2.35,2.35,0,0,1,0-4.66l.53.17a2.17,2.17,0,0,1,0,4.33Zm-8.83,0-.53.12a2.32,2.32,0,0,1,0-4.62l.54.14a2.18,2.18,0,0,1,0,4.36Zm-8.82,0-.53.09a2.21,2.21,0,0,1,0-4.42h.51a2.16,2.16,0,0,1,0,4.32Zm-8.82,0-.54.05a2.29,2.29,0,0,1,0-4.55l.53.07a2.22,2.22,0,0,1,0,4.43Zm-8.83,0-.53,0a2.15,2.15,0,0,1-2.06-2.25,2.13,2.13,0,0,1,2.09-2.22h.52a2.23,2.23,0,0,1,0,4.45Zm-8.82,0-.54,0a2.25,2.25,0,0,1,0-4.48h.53a2.26,2.26,0,0,1,0,4.5Z"/><path class="cls-1" d="M489.76,61.83l-.54.14a2.19,2.19,0,0,1,0-4.38l.52,0a2.11,2.11,0,0,1,0,4.22Zm-8.83,0-.53.1a2.31,2.31,0,0,1,0-4.6l.54.12a2.19,2.19,0,0,1,0,4.38Zm-8.82,0-.54.07a2.3,2.3,0,0,1,0-4.57l.53.08a2.22,2.22,0,0,1,0,4.42Zm-8.82,0-.54,0a2.27,2.27,0,0,1,0-4.53l.53.05a2.23,2.23,0,0,1,0,4.45Zm-8.83,0h-.53a2.26,2.26,0,0,1,0-4.5h.54a2.25,2.25,0,0,1,0,4.49Zm-8.82,0-.54,0a2.24,2.24,0,0,1,0-4.46l.53,0a2.27,2.27,0,0,1,0,4.52Zm-8.83-.57-.53.21a2.37,2.37,0,0,1,0-4.7l.54.22a2.14,2.14,0,0,1,0,4.27Zm-8.82,0-.54.18a2.35,2.35,0,0,1,0-4.67L428,57a2.16,2.16,0,0,1,0,4.31Zm-8.83,0-.53.14a2.33,2.33,0,0,1,0-4.63l.54.15a2.17,2.17,0,0,1,0,4.34Zm-8.82,0-.54.11a2.31,2.31,0,0,1,0-4.6l.54.12a2.19,2.19,0,0,1,0,4.37Zm-8.82,0-.54.08a2.22,2.22,0,0,1,0-4.43h.52a2.17,2.17,0,0,1,0,4.34Zm-8.83,0-.53,0a2.27,2.27,0,0,1,0-4.53l.54,0a2.23,2.23,0,0,1,0,4.44Zm-8.82,0h-.54a2.26,2.26,0,0,1,0-4.5h.53a2.25,2.25,0,0,1,0,4.48Zm-8.83,0-.53,0a2.24,2.24,0,0,1,0-4.46l.54,0a2.26,2.26,0,0,1,0,4.51Zm-8.82-.56-.53.21a2.37,2.37,0,0,1,0-4.71l.53.23a2.14,2.14,0,0,1,0,4.27Zm-8.82,0-.54.18a2.36,2.36,0,0,1,0-4.68l.53.19a2.16,2.16,0,0,1,0,4.31Zm-8.83,0-.53.14a2.34,2.34,0,0,1,0-4.64l.54.16a2.17,2.17,0,0,1,0,4.34Zm-8.82,0-.54.11a2.2,2.2,0,0,1,0-4.4l.52,0a2.14,2.14,0,0,1,0,4.27Zm-8.83,0-.53.07a2.3,2.3,0,0,1,0-4.57l.54.09a2.21,2.21,0,0,1,0,4.41Zm-8.82,0-.54,0a2.28,2.28,0,0,1,0-4.54l.53,0a2.23,2.23,0,0,1,0,4.45Zm-8.83,0h-.53a2.26,2.26,0,0,1,0-4.5l.54,0a2.25,2.25,0,0,1,0,4.48Z"/><path class="cls-1" d="M489.7,69.7l-.53.16a2.35,2.35,0,0,1,0-4.66l.54.17a2.17,2.17,0,0,1,0,4.33Zm-8.82,0-.54.13a2.33,2.33,0,0,1,0-4.63l.54.14a2.18,2.18,0,0,1,0,4.36Zm-8.82,0-.54.09a2.31,2.31,0,0,1,0-4.59l.53.11a2.2,2.2,0,0,1,0,4.39Zm-8.83,0-.53.06a2.29,2.29,0,0,1,0-4.56l.54.07a2.22,2.22,0,0,1,0,4.43Zm-8.82,0-.54,0a2.27,2.27,0,0,1,0-4.52l.53,0a2.24,2.24,0,0,1,0,4.46Zm-8.83,0h-.53A2.17,2.17,0,0,1,443,67.42a2.15,2.15,0,0,1,2.09-2.23h.52a2.26,2.26,0,0,1,0,4.5Zm-8.82,0-.54,0a2.23,2.23,0,0,1,0-4.45l.53,0a2.27,2.27,0,0,1,0,4.53Zm-8.83-.56-.53.19a2.36,2.36,0,0,1,0-4.69l.54.21a2.15,2.15,0,0,1,0,4.29Zm-8.82,0-.54.16a2.35,2.35,0,0,1,0-4.66l.54.17a2.17,2.17,0,0,1,0,4.33Zm-8.82,0-.54.12a2.32,2.32,0,0,1,0-4.62l.53.14a2.18,2.18,0,0,1,0,4.36Zm-8.83,0-.53.09a2.31,2.31,0,0,1,0-4.59l.54.1a2.2,2.2,0,0,1,0,4.4Zm-8.82,0-.54,0a2.29,2.29,0,0,1,0-4.55l.53.07a2.22,2.22,0,0,1,0,4.43Zm-8.83,0-.53,0a2.27,2.27,0,0,1,0-4.52l.54,0a2.24,2.24,0,0,1,0,4.47Zm-8.82,0-.54,0a2.25,2.25,0,0,1,0-4.48H375a2.26,2.26,0,0,1,0,4.5Zm-8.82,0-.54,0a2.23,2.23,0,0,1,0-4.45l.53,0a2.28,2.28,0,0,1,0,4.54Zm-8.83-.57-.53.2a2.36,2.36,0,0,1,0-4.69l.54.21a2.14,2.14,0,0,1,0,4.28Zm-8.82,0-.54.17a2.35,2.35,0,0,1,0-4.66l.53.17a2.16,2.16,0,0,1,0,4.32Zm-8.83,0-.53.13a2.32,2.32,0,0,1,0-4.62l.54.14a2.18,2.18,0,0,1,0,4.35Zm-8.82,0-.54.1a2.31,2.31,0,0,1,0-4.59l.53.1a2.13,2.13,0,0,1,2.06,2.22A2.1,2.1,0,0,1,330.87,68.57Zm-8.83,0-.53.06a2.29,2.29,0,0,1,0-4.55l.53.07a2.21,2.21,0,0,1,0,4.42Zm-8.82,0-.54,0a2.27,2.27,0,0,1,0-4.52l.54,0a2.24,2.24,0,0,1,0,4.46Z"/><path class="cls-1" d="M489.65,77.57l-.53.18a2.36,2.36,0,0,1,0-4.68l.53.2a2.15,2.15,0,0,1,0,4.3Zm-8.82,0-.54.15a2.34,2.34,0,0,1,0-4.65l.53.16a2.17,2.17,0,0,1,0,4.34Zm-8.83,0-.53.11a2.32,2.32,0,0,1,0-4.61l.54.13a2.19,2.19,0,0,1,0,4.37Zm-8.82,0-.54.08a2.3,2.3,0,0,1,0-4.58l.53.09a2.21,2.21,0,0,1,0,4.41Zm-8.83,0-.53,0a2.28,2.28,0,0,1,0-4.54l.54.06a2.23,2.23,0,0,1,0,4.44Zm-8.82,0H445a2.26,2.26,0,0,1,0-4.51l.53,0a2.25,2.25,0,0,1,0,4.48Zm-8.82,0-.54,0a2.25,2.25,0,0,1,0-4.48h.53a2.26,2.26,0,0,1,0,4.51Zm-8.83,0-.53-.06a2.23,2.23,0,0,1,0-4.44l.53,0a2.28,2.28,0,0,1,0,4.55ZM419.06,77l-.54.18a2.36,2.36,0,0,1,0-4.68l.53.2a2.15,2.15,0,0,1,0,4.3Zm-8.83,0-.53.15a2.34,2.34,0,0,1,0-4.65l.54.16a2.17,2.17,0,0,1,0,4.34Zm-8.82,0-.54.11a2.32,2.32,0,0,1,0-4.61l.53.13a2.19,2.19,0,0,1,0,4.37Zm-8.83,0-.53.08a2.3,2.3,0,0,1,0-4.58l.54.09a2.21,2.21,0,0,1,0,4.41Zm-8.82,0-.53,0a2.28,2.28,0,0,1,0-4.54l.53.06a2.23,2.23,0,0,1,0,4.44Zm-8.82,0h-.54a2.26,2.26,0,0,1,0-4.51l.53,0a2.25,2.25,0,0,1,0,4.48Zm-8.83,0-.53,0a2.25,2.25,0,0,1,0-4.48h.54a2.26,2.26,0,0,1,0,4.51Zm-8.82,0-.54-.06a2.23,2.23,0,0,1,0-4.44l.53-.05a2.29,2.29,0,0,1,0,4.55Zm-8.83-.56-.53.18a2.36,2.36,0,0,1,0-4.68l.54.2a2.15,2.15,0,0,1,0,4.3Zm-8.82,0-.53.15a2.34,2.34,0,0,1,0-4.65l.53.16a2.17,2.17,0,0,1,0,4.34Zm-8.82,0-.54.11a2.32,2.32,0,0,1,0-4.61l.53.13a2.19,2.19,0,0,1,0,4.37Zm-8.83,0-.53.08a2.3,2.3,0,0,1,0-4.58L322,72a2.21,2.21,0,0,1,0,4.41Zm-8.82,0-.54,0a2.28,2.28,0,0,1,0-4.54l.53.06a2.23,2.23,0,0,1,0,4.44Z"/><path class="cls-1" d="M489.6,86l-.54-.08a2.21,2.21,0,0,1,0-4.42l.53-.06a2.29,2.29,0,0,1,0,4.56Zm-8.83-.56-.53.16a2.35,2.35,0,0,1,0-4.66l.54.18a2.16,2.16,0,0,1,0,4.32Zm-8.82,0-.54.13a2.33,2.33,0,0,1,0-4.63l.53.14a2.18,2.18,0,0,1,0,4.36Zm-8.83,0-.53.1a2.31,2.31,0,0,1,0-4.6l.54.11a2.2,2.2,0,0,1,0,4.39Zm-8.82,0-.54.06a2.29,2.29,0,0,1,0-4.56l.54.07a2.22,2.22,0,0,1,0,4.43Zm-8.82,0-.54,0A2.27,2.27,0,0,1,445,81l.53,0a2.24,2.24,0,0,1,0,4.46Zm-8.83,0h-.53a2.25,2.25,0,0,1,0-4.49h.54a2.26,2.26,0,0,1,0,4.5Zm-8.82,0-.54,0a2.23,2.23,0,0,1,0-4.45l.53,0a2.27,2.27,0,0,1,0,4.53Zm-8.83,0-.53-.08a2.22,2.22,0,0,1,0-4.42l.54-.07a2.3,2.3,0,0,1,0,4.57Zm-8.82-.57-.54.17a2.09,2.09,0,0,1-2.06-2.17,2.11,2.11,0,0,1,2.1-2.18l.51,0a2.08,2.08,0,1,1,0,4.15Zm-8.83,0-.53.14a2.34,2.34,0,0,1,0-4.64l.54.15a2.18,2.18,0,0,1,0,4.35Zm-8.82,0L392,85a2.2,2.2,0,0,1,0-4.4l.51,0a2.14,2.14,0,0,1,0,4.28Zm-8.82,0-.54.07a2.22,2.22,0,0,1,0-4.43h.52a2.18,2.18,0,0,1,0,4.35Zm-8.83,0-.53,0a2.23,2.23,0,0,1,0-4.45h.52a2.21,2.21,0,0,1,0,4.41Zm-8.82,0h-.54a2.26,2.26,0,0,1,0-4.5h.53a2.17,2.17,0,0,1,2.06,2.27A2.15,2.15,0,0,1,366.06,84.88Zm-8.83,0-.53,0a2.24,2.24,0,0,1,0-4.46l.54,0a2.27,2.27,0,0,1,0,4.52Zm-8.82,0-.53-.07a2.22,2.22,0,0,1,0-4.43l.53-.06a2.29,2.29,0,0,1,0,4.56Zm-8.82-.56-.54.17a2.35,2.35,0,0,1,0-4.67l.53.19a2.16,2.16,0,0,1,0,4.31Zm-8.83,0-.53.14a2.1,2.1,0,0,1-2.06-2.19,2.13,2.13,0,0,1,2.09-2.19l.52,0a2.11,2.11,0,0,1,0,4.22Zm-8.82,0-.54.1a2.31,2.31,0,0,1,0-4.6l.53.12a2.19,2.19,0,0,1,0,4.38Zm-8.83,0-.53.07a2.3,2.3,0,0,1,0-4.57l.54.08a2.21,2.21,0,0,1,0,4.42Z"/><path class="cls-1" d="M489.54,93.88l-.53,0a2.23,2.23,0,0,1,0-4.45l.54,0a2.28,2.28,0,0,1,0,4.54Zm-8.82,0-.54-.09a2.21,2.21,0,0,1,0-4.41l.53-.07a2.3,2.3,0,0,1,0,4.57Zm-8.83-.56-.53.15a2.34,2.34,0,0,1,0-4.65l.54.17a2.17,2.17,0,0,1,0,4.33Zm-8.82,0-.53.12a2.32,2.32,0,0,1,0-4.62l.53.13a2.19,2.19,0,0,1,0,4.37Zm-8.82,0-.54.08a2.3,2.3,0,0,1,0-4.58l.53.1a2.2,2.2,0,0,1,0,4.4Zm-8.83,0-.53.05a2.29,2.29,0,0,1,0-4.55l.54.06a2.23,2.23,0,0,1,0,4.44Zm-8.82,0h-.54a2.26,2.26,0,0,1,0-4.51l.53,0a2.24,2.24,0,0,1,0,4.47Zm-8.83,0-.53,0a2.25,2.25,0,0,1,0-4.48h.54a2.26,2.26,0,0,1,0,4.51Zm-8.82,0-.54-.06a2.23,2.23,0,0,1,0-4.44l.54,0a2.28,2.28,0,0,1,0,4.54Zm-8.82,0-.54-.09a2.21,2.21,0,0,1,0-4.41l.54-.08a2.3,2.3,0,0,1,0,4.58Zm-8.83-.56-.53.15a2.34,2.34,0,0,1,0-4.65l.53.17a2.17,2.17,0,0,1,0,4.33Zm-8.82,0-.54.12a2.32,2.32,0,0,1,0-4.62l.53.13a2.19,2.19,0,0,1,0,4.37Zm-8.83,0-.53.08a2.3,2.3,0,0,1,0-4.58l.54.1a2.2,2.2,0,0,1,0,4.4Zm-8.82,0-.54,0a2.29,2.29,0,0,1,0-4.55l.53.06a2.23,2.23,0,0,1,0,4.44Zm-8.83,0h-.53a2.26,2.26,0,0,1,0-4.51l.54,0a2.24,2.24,0,0,1,0,4.47Zm-8.82,0-.53,0a2.25,2.25,0,0,1,0-4.48h.53a2.26,2.26,0,0,1,0,4.51Zm-8.82,0-.54-.06a2.23,2.23,0,0,1,0-4.44l.53,0a2.28,2.28,0,0,1,0,4.54Zm-8.83,0-.53-.09a2.21,2.21,0,0,1,0-4.41l.54-.08a2.3,2.3,0,0,1,0,4.58Zm-8.82-.57-.54.16a2.34,2.34,0,0,1,0-4.65l.53.17a2.16,2.16,0,0,1,0,4.32Zm-8.83,0-.53.13a2.2,2.2,0,0,1,0-4.39l.52,0a2.12,2.12,0,0,1,0,4.24Zm-8.82,0-.54.09a2.3,2.3,0,0,1,0-4.58l.54.1a2.2,2.2,0,0,1,0,4.39Z"/><path class="cls-1" d="M489.49,101.76l-.54,0a2.24,2.24,0,0,1,0-4.46l.53,0a2.27,2.27,0,0,1,0,4.53Zm-8.83,0-.53-.08a2.22,2.22,0,0,1,0-4.42l.54-.06a2.29,2.29,0,0,1,0,4.56Zm-8.82,0-.54-.11a2.2,2.2,0,0,1,0-4.39l.54-.09a2.31,2.31,0,0,1,0,4.59Zm-8.82-.57-.54.14a2.34,2.34,0,0,1,0-4.64l.53.16a2.17,2.17,0,0,1,0,4.34Zm-8.83,0-.53.11a2.2,2.2,0,0,1,0-4.4l.52,0a2.14,2.14,0,0,1,0,4.27Zm-8.82,0-.54.07a2.3,2.3,0,0,1,0-4.57l.53.09a2.21,2.21,0,0,1,0,4.41Zm-8.83,0-.53,0a2.28,2.28,0,0,1,0-4.54l.54,0a2.23,2.23,0,0,1,0,4.45Zm-8.82,0h-.53a2.26,2.26,0,0,1,0-4.5l.53,0a2.25,2.25,0,0,1,0,4.48Zm-8.82,0-.54,0a2.24,2.24,0,0,1,0-4.47l.53,0a2.27,2.27,0,0,1,0,4.52Zm-8.83,0-.53-.07a2.19,2.19,0,0,1-2.06-2.29,2.16,2.16,0,0,1,2.09-2.24h.52a2.31,2.31,0,0,1,0,4.6Zm-8.82,0-.54-.1a2.2,2.2,0,0,1,0-4.4l.53-.09a2.31,2.31,0,0,1,0,4.59Zm-8.83-.56-.53.14a2.34,2.34,0,0,1,0-4.64l.54.16a2.17,2.17,0,0,1,0,4.34Zm-8.82,0-.54.11a2.32,2.32,0,0,1,0-4.61l.53.12a2.19,2.19,0,0,1,0,4.38Zm-8.83,0-.53.07a2.3,2.3,0,0,1,0-4.57l.54.09a2.21,2.21,0,0,1,0,4.41Zm-8.82,0-.53,0a2.28,2.28,0,0,1,0-4.54l.53.05a2.23,2.23,0,0,1,0,4.45Zm-8.82,0h-.54a2.24,2.24,0,0,1,0-4.47h.52a2.24,2.24,0,0,1,0,4.47Zm-8.83,0-.53,0a2.24,2.24,0,0,1,0-4.47l.54,0a2.27,2.27,0,0,1,0,4.52Zm-8.82,0-.54-.07A2.27,2.27,0,0,1,339,96h.52a2.31,2.31,0,0,1,0,4.6Zm-8.83,0-.53-.1a2.2,2.2,0,0,1,0-4.4l.54-.09a2.31,2.31,0,0,1,0,4.59Zm-8.82-.56-.53.14A2.11,2.11,0,0,1,319.23,98a2.13,2.13,0,0,1,2.09-2.19l.52,0a2.11,2.11,0,0,1,0,4.21Zm-8.82,0-.54.11a2.32,2.32,0,0,1,0-4.61l.53.12a2.19,2.19,0,0,1,0,4.38Z"/><path class="cls-1" d="M489.43,109.63l-.53,0a2.25,2.25,0,0,1,0-4.48h.54a2.26,2.26,0,0,1,0,4.5Zm-8.82,0-.54,0a2.23,2.23,0,0,1,0-4.45l.54,0a2.28,2.28,0,0,1,0,4.54Zm-8.82,0-.54-.09a2.21,2.21,0,0,1,0-4.41l.53-.07a2.3,2.3,0,0,1,0,4.57Zm-8.83,0-.53-.12a2.19,2.19,0,0,1,0-4.38L463,105a2.32,2.32,0,0,1,0,4.61Zm-8.82-.56-.54.12a2.32,2.32,0,0,1,0-4.62l.53.14a2.18,2.18,0,0,1,0,4.36Zm-8.83,0-.53.09a2.31,2.31,0,0,1,0-4.59l.54.1a2.2,2.2,0,0,1,0,4.4Zm-8.82,0-.54.05a2.29,2.29,0,0,1,0-4.55l.54.07a2.22,2.22,0,0,1,0,4.43Zm-8.82,0-.54,0a2.27,2.27,0,0,1,0-4.52l.53,0a2.24,2.24,0,0,1,0,4.47Zm-8.83,0-.53,0a2.25,2.25,0,0,1,0-4.48h.54a2.26,2.26,0,0,1,0,4.5Zm-8.82,0-.54,0a2.23,2.23,0,0,1,0-4.45l.53,0a2.28,2.28,0,0,1,0,4.54Zm-8.83,0-.53-.09a2.21,2.21,0,0,1,0-4.41l.54-.07a2.3,2.3,0,0,1,0,4.57Zm-8.82,0-.54-.12a2.23,2.23,0,0,1-2.06-2.32,2.18,2.18,0,0,1,2.1-2.25h.51a2.37,2.37,0,0,1,0,4.7Zm-8.83-.57-.53.13a2.33,2.33,0,0,1,0-4.63l.54.15a2.18,2.18,0,0,1,0,4.35Zm-8.82,0-.53.1a2.31,2.31,0,0,1,0-4.6l.54.11a2.2,2.2,0,0,1,0,4.39Zm-8.82,0-.54.06a2.29,2.29,0,0,1,0-4.56l.53.08a2.22,2.22,0,0,1,0,4.42Zm-8.83,0-.53,0a2.24,2.24,0,0,1,0-4.46h.52a2.22,2.22,0,0,1,0,4.43Zm-8.82,0h-.54a2.25,2.25,0,0,1,0-4.49h.53a2.25,2.25,0,0,1,0,4.49Zm-8.83,0-.53,0a2.27,2.27,0,0,1,0-4.52h.52a2.29,2.29,0,0,1,0,4.56Zm-8.82,0-.54-.08a2.21,2.21,0,0,1,0-4.42l.54-.06a2.29,2.29,0,0,1,0,4.56Zm-8.82,0-.54-.11a2.3,2.3,0,0,1,0-4.57h.52a2.36,2.36,0,0,1,0,4.69Zm-8.83-.56-.53.13a2.33,2.33,0,0,1,0-4.63l.54.15a2.18,2.18,0,0,1,0,4.35Z"/><path class="cls-3" d="M551.61,235.66c-3.76,2.17-13.44.09-21.63-4.63s-11.78-10.33-8-12.49,13.45-.1,21.63,4.63S555.37,233.49,551.61,235.66Z"/><polygon class="cls-1" points="545.36 137.85 545.71 139.79 546.5 143.41 545.36 146.37 540.77 148.99 536.02 148.99 533.52 146.07 533.76 141.29 538.45 138.56 545.36 137.85"/><path class="cls-1" d="M530.87,217.45s-6.45,2.54-8.1,3-1.46,2.84-1,3.61,2.89.62,4.93.35,3.47-1.43,5-1.73,4.2.3,5.24-.47.12-5.53.12-5.53l-2.24-.63h-3.05Z"/><path class="cls-4" d="M529.36,174.82c-.94,9,.24,19.86.39,21.49.76,8.8.49,18.83.84,20.62s5.76,2,6.55-.39,2.22-8.47,1-18.1c0-1.8,2.51-12.6,3.31-14.29s-.27-9.3-.27-9.3S529.87,173.69,529.36,174.82Z"/><path class="cls-1" d="M544.23,226.54a52.84,52.84,0,0,1-2.16,7c-.36.41-.57,2.16.19,2.5,4.93,2.18,6.64-1.85,6.91-2.79a20.9,20.9,0,0,0,.62-5.53,2.33,2.33,0,0,0-.44-1.49l-1.82-1.55S544.22,225.87,544.23,226.54Z"/><path class="cls-4" d="M529.36,174.82c3.42,7,9.29,8.6,9.29,8.6,1,5.22.42,12.53,3.08,21.69,1.4,4.82.53,14.55,2,20.73.46,1.86,4.69,1.39,5.77.26s2.29-13.86,0-23.57c-.42-1.76,2.78-23.18.06-27.67C547.82,172.65,529.53,174.21,529.36,174.82Z"/><path class="cls-5" d="M522.5,141.6s-2.34.61-1.41,4.28a3.4,3.4,0,0,0,4.39,2.61l2.11-2.09-1.71-5.57Z"/><path class="cls-6" d="M498.35,149.09s-4.53-.64-5.22-.64-3.38.81-3.58,2.84,1.32,3.18,2.28,3.06a2.18,2.18,0,0,0,1.44-.9,18.4,18.4,0,0,0,4.35-.18,3.93,3.93,0,0,0,1.1-.67l1.21-1-.34-1.89Z"/><path class="cls-1" d="M523.42,141.84c-2.71.78-9,3.85-9.41,4-4,.4-13.34,3.29-15.66,3.29.52.92.37,3.51.37,3.51,3.91.26,13.56.61,16.62-1a79.7,79.7,0,0,0,10.59-4.18l2.7-1.08L527.18,141A17.37,17.37,0,0,0,523.42,141.84Z"/><path class="cls-4" d="M536.27,140.35c-2.64,3.37-3.12,6.64-5,6.51s-3.53.89-5.77,1.63c1.11-1.58.87-6.31-3-6.89,2-.9,4.32-2.17,4.32-2.17S534.16,134.81,536.27,140.35Z"/><path class="cls-7" d="M536.28,141.89s-1.34,3.58,1.29,5.07c2,1.12,5.69-1,6.82-2.47s1.32-4.7,1.32-4.7c2.85,3.47,6.89,5.89,8.58,8,.39,1.07-4.75,8.71-4.46,16.95.16,4.51.16,8.15.46,10,.68,4.1-2.25,4.91-6.64,4.91-7.76,0-13-2.21-14.51-5.14,0,0,.62-15.45.76-24.52,0-7.47,7.1-12.21,7.1-12.21s1,1,1.23,1.3A7,7,0,0,0,536.28,141.89Z"/><path class="cls-1" d="M544,175.37s-2.87.24-3.68.29-3.39,1.68-3.29,2.18,3.41-.77,3.49-.15-.48,1.21-1.26,1.61-3.64.79-3.69,1.93c-.1,2.1,5.47,1.81,6.66,1.23s2.07-2.22,3.65-3.33c.28-.48,1.09-1.52,1.09-1.52l-1.27-2.24Z"/><path class="cls-1" d="M549.58,160.78a33.14,33.14,0,0,0,2.08,5.24c-1.9.87-4.43,7.2-7.63,9.35l1.88,3.76s7.3-5.48,8.75-7c2.46-2.61,2.59-5,2.37-6.21-.26-1.5-.56-8-.56-8A19.84,19.84,0,0,1,549.58,160.78Z"/><path class="cls-4" d="M551.1,147.22c5.59-1,5.47,6.13,5.47,6.13s.22,3.63.53,6-7.32,4.21-8,1.4a26.28,26.28,0,0,1-.63-4.38S545.26,148.27,551.1,147.22Z"/><path class="cls-1" d="M534.87,130s-1.53,2.68-.83,5.05c-.53,1.83.55,6.74.8,7.41s1.88,1.76,2.89,1.2,4-1.54,5.48-3.27a4.12,4.12,0,0,0,.92-2.22s1.55.49,2.29-2.22a22.68,22.68,0,0,0,.76-2.16l-.84-3.37-5-2.32-4,.29Z"/><path class="cls-8" d="M545.06,134.53c-1.13-.06-1.45,2-1.68,2.49-.35-1.73-1.55.19-2.35-1.85-5.16.11-5.57-4-6.72-5s-.57-2.8,2.59-4.79c2.63-1.66,4.34-.33,4.34-.33s5,.24,6.31,5.12c1,4-2,7.49-2,7.49S546.87,134.64,545.06,134.53Z"/><polygon class="cls-4" points="564.25 246.85 514.67 275.48 507.06 271.08 507.06 270 509.66 269.93 564.25 245.77 564.25 246.85"/><polygon class="cls-7" points="564.25 245.77 514.67 274.39 507.06 270 556.64 241.38 564.25 245.77"/><polygon class="cls-4" points="480.21 198.33 430.63 226.96 423.02 222.56 423.02 221.48 425.62 221.41 480.21 197.25 480.21 198.33"/><polygon class="cls-7" points="480.21 197.25 430.63 225.88 423.02 221.48 472.6 192.86 480.21 197.25"/><polygon class="cls-9" points="474.02 197.46 473.18 197.94 471.93 150.84 471 149.47 471.83 148.98 474.02 150.24 474.02 197.46"/><polygon class="cls-8" points="473.18 197.94 471 196.68 471 149.47 473.18 150.73 473.18 197.94"/><path class="cls-7" d="M472.77,146.89l2.25,1.3-1.82,3.16-2.26-1.3a.93.93,0,0,1-.38-.84,2.85,2.85,0,0,1,1.29-2.23A.9.9,0,0,1,472.77,146.89Z"/><path class="cls-10" d="M474.11,148.28a2.85,2.85,0,0,0-1.29,2.23c0,.83.58,1.16,1.29.75A2.85,2.85,0,0,0,475.4,149C475.4,148.2,474.82,147.87,474.11,148.28Z"/><polygon class="cls-4" points="558.33 246.14 557.5 246.62 556.24 199.52 555.31 198.15 556.15 197.66 558.33 198.93 558.33 246.14"/><polygon class="cls-8" points="557.5 246.62 555.31 245.36 555.31 198.15 557.5 199.41 557.5 246.62"/><polygon class="cls-9" points="519.21 227.12 511.99 231.29 504.38 226.89 504.38 225.81 506.97 225.74 519.21 226.05 519.21 227.12"/><polygon class="cls-10" points="519.21 226.05 511.99 230.21 504.38 225.81 511.59 221.65 519.21 226.05"/><path class="cls-8" d="M509.89,225.81l0-37h4l0,37a1,1,0,0,1-.58.8,3,3,0,0,1-2.81,0A1,1,0,0,1,509.89,225.81Z"/><path class="cls-10" d="M510.49,189.66a3.09,3.09,0,0,0,2.81,0,.85.85,0,0,0,0-1.62,3.09,3.09,0,0,0-2.81,0A.86.86,0,0,0,510.49,189.66Z"/><path class="cls-4" d="M510.29,188.8l0-17.27h3.15l0,17.27a.81.81,0,0,1-.46.65,2.5,2.5,0,0,1-2.23,0A.79.79,0,0,1,510.29,188.8Z"/><path class="cls-11" d="M510.77,172.17a2.44,2.44,0,0,0,2.23,0,.68.68,0,0,0,0-1.28,2.44,2.44,0,0,0-2.23,0A.68.68,0,0,0,510.77,172.17Z"/><path class="cls-8" d="M475,148.19l81.89,47.31-1.82,3.15L473.2,151.34a.91.91,0,0,1-.38-.83,2.85,2.85,0,0,1,1.29-2.23A.9.9,0,0,1,475,148.19Z"/><path class="cls-11" d="M556,195.59a2.83,2.83,0,0,0-1.29,2.23c0,.81.57,1.15,1.29.74a2.87,2.87,0,0,0,1.28-2.23C557.29,195.51,556.71,195.18,556,195.59Z"/><path class="cls-1" d="M556.91,195.5l2.26,1.3L557.35,200l-2.26-1.3a.93.93,0,0,1-.38-.84,2.84,2.84,0,0,1,1.3-2.23A.86.86,0,0,1,556.91,195.5Z"/><path class="cls-4" d="M558.26,196.89a2.87,2.87,0,0,0-1.29,2.24c0,.82.58,1.15,1.29.74a2.85,2.85,0,0,0,1.29-2.23C559.55,196.81,559,196.48,558.26,196.89Z"/><path class="cls-3" d="M484.52,244.2l-18.3-10.57,18.3-10.57,18.31,10.57Z"/><polygon class="cls-7" points="484.52 243.4 467.6 233.63 467.6 228.75 501.45 228.75 484.52 243.4"/><polygon class="cls-7" points="484.52 243.4 484.52 238.52 501.45 228.75 501.45 233.63 484.52 243.4"/><polygon class="cls-12" points="484.52 238.52 467.6 228.75 484.52 218.98 501.45 228.75 484.52 238.52"/><polygon class="cls-4" points="484.52 238.52 467.6 228.75 467.6 226.46 501.45 226.46 484.52 238.52"/><polygon class="cls-4" points="484.52 238.52 484.52 236.23 501.45 226.46 501.45 228.75 484.52 238.52"/><polygon class="cls-8" points="484.52 236.23 467.6 226.46 484.52 216.69 501.45 226.46 484.52 236.23"/><path class="cls-3" d="M531.24,252.73c-7.39,4.27-19.38,4.27-26.77,0s-7.39-11.18,0-15.45,19.38-4.27,26.77,0S538.63,248.47,531.24,252.73Z"/><path class="cls-8" d="M537.27,231.42a20,20,0,1,1-20-20A20,20,0,0,1,537.27,231.42Z"/><path class="cls-8" d="M508.52,222.73c-.86,1.47-2.51,2.11-3.67,1.43s-1.4-2.44-.54-3.9,2.51-2.11,3.67-1.42S509.38,221.27,508.52,222.73Z"/><path class="cls-1" d="M509.26,166.13a32.88,32.88,0,0,1,3.88-.08c.9.12,3.26,1.58,2.79,2.13s-2.78-.53-3.12-.34-.89.4-.93.72,2.18,1.72,2,2.32-2.32-.65-3.74-.85a6.83,6.83,0,0,1-3-1.67Z"/><path class="cls-8" d="M504.68,165.73a18.65,18.65,0,0,0,2.3,2.6c1,.89,3.21-1.11,2.64-1.74a15.37,15.37,0,0,1-1.73-3.17C507.33,162.25,504,164.8,504.68,165.73Z"/><path class="cls-4" d="M497.17,143.75a2.81,2.81,0,0,1,3.94,2.19c2.59,10.75,7.33,16.32,7.33,18.17,0,1.34-2.22,3.34-3.86,2.14s-7.78-10.72-7.78-10.72l-2.34-7.8Z"/><path class="cls-1" d="M517,213.48a35.56,35.56,0,0,0,5.27,6.16c.65.54,1.31,1,1,2.15-.06.24-.45,1.88-2.69,1.57s-4.89-4.12-5.59-4.69-1.62-.21-3.11-1.42-.08-4.24-.08-4.24S516.74,212.86,517,213.48Z"/><path class="cls-7" d="M512,209.08a12.14,12.14,0,0,1-.41,3.7c-.54,1.76,5.57,2.77,5.82.35a17.77,17.77,0,0,1-.2-4.61C517.37,207.62,512,209.08,512,209.08Z"/><path class="cls-4" d="M492.66,183.32s15.41,8.07,18.84,11.55c-1,9.82-.46,13.6.3,14.6s3.32,2.38,5.13,1.23,3.1-16.13,2.17-18.91-12.34-16.56-18.38-19c-2.16-1.11-7.08,1.08-7.08,1.08Z"/><path class="cls-1" d="M485.16,221.14a31.18,31.18,0,0,0,6.23,7.12c.74.57.3,1.76.3,1.76a5.36,5.36,0,0,1-5.48.52c-2.15-1.09-3.62-3.39-5.26-4.75s-.11-5-.11-5Z"/><path class="cls-7" d="M480.92,216.86a17.47,17.47,0,0,1-.46,4c-.47,1.54,4.85,2.41,5.07.31a15.23,15.23,0,0,1-.17-4C485.49,216.33,480.92,216.86,480.92,216.86Z"/><path class="cls-4" d="M481.11,178.75c-.63,9.36.32,19.32,0,21.44-1.45,9.41-1.28,16.69-.09,17.79a3,3,0,0,0,4.25,0c3.7-3.18,6.87-33.26,8.12-34.28a22.07,22.07,0,0,0,7.33-10.94l-14.49.62A62.88,62.88,0,0,0,481.11,178.75Z"/><polygon class="cls-1" points="495.44 145.15 495.93 148.08 494.63 151.08 491.12 150.16 487.85 148.27 486.81 145.31 488.47 142.07 492.36 141.65 495.44 145.15"/><path class="cls-7" d="M481.74,175.19s-1,3-.63,3.56c14.33,4,18.71-4.36,18.71-4.36Z"/><path class="cls-7" d="M481.63,150.85l2.14-4.22a4.22,4.22,0,0,1,4-.75c2.2.81,2.32,3.07,6.36,3.41,1.22-1.27.46-5,.46-5l2.6-.58A19.25,19.25,0,0,1,501,157.21c-1.32,10.74.41,14-.26,15.55-.39.89-1.8,5.05-10.08,5.47-7.92.41-8.66-1.84-9-3.5s1.39-4.46,1.45-7.41a18.16,18.16,0,0,0-.75-5.38Z"/><path class="cls-4" d="M499.66,133.06c.89,3.29-1.17,4.67-1.17,4.67l-1.69-1.26.66-4.57A21.23,21.23,0,0,1,499.66,133.06Z"/><path class="cls-1" d="M498.12,132.42s.63,4.09.35,5.2a22.43,22.43,0,0,1-.46,7.28,3.17,3.17,0,0,1-3.18,1.17c-2.25-.27-5.17-1.89-5.32-4.29a3.42,3.42,0,0,0-.86-2.08l7.38-9.35Z"/><path class="cls-13" d="M496.77,134.73s-1.86-.68-2.08.76c-1.07,6.81-5.17,7.13-5.52,7.36a7.75,7.75,0,0,0,0,6.65s-3.72.23-4.07-1.88a34.46,34.46,0,0,1-3.47,3.23s1.33-7.08,1.18-10.31c-.55-12.51,5.75-11.41,5.75-11.41a4.6,4.6,0,0,1,5-1.1,12.33,12.33,0,0,1,6.1,5A2.62,2.62,0,0,0,496.77,134.73Z"/><polygon class="cls-4" points="432.41 221.55 431.58 222.04 430.32 174.94 429.39 173.56 430.23 173.08 432.41 174.34 432.41 221.55"/><polygon class="cls-8" points="431.58 222.04 429.39 220.78 429.39 173.56 431.58 174.83 431.58 222.04"/><path class="cls-7" d="M431.07,171l2.26,1.3-1.83,3.16-2.26-1.3a.9.9,0,0,1-.37-.83,2.83,2.83,0,0,1,1.29-2.24A.88.88,0,0,1,431.07,171Z"/><path class="cls-10" d="M432.41,172.35a2.85,2.85,0,0,0-1.29,2.24c0,.82.58,1.15,1.29.75a2.86,2.86,0,0,0,1.29-2.24C433.7,172.27,433.13,171.94,432.41,172.35Z"/><polygon class="cls-4" points="516.73 270.24 515.89 270.72 514.64 223.62 513.7 222.24 514.54 221.76 516.73 223.03 516.73 270.24"/><polygon class="cls-8" points="515.89 270.72 513.7 269.45 513.7 222.24 515.89 223.5 515.89 270.72"/><polygon class="cls-4" points="477.59 251.15 470.37 255.32 462.76 250.92 462.76 249.84 465.36 249.77 477.59 250.07 477.59 251.15"/><polygon class="cls-7" points="477.59 250.07 470.37 254.24 462.76 249.84 469.98 245.68 477.59 250.07"/><path class="cls-8" d="M468.27,249.83l0-37h4l0,37a1,1,0,0,1-.58.81,3.09,3.09,0,0,1-2.81,0A1,1,0,0,1,468.27,249.83Z"/><path class="cls-10" d="M468.88,213.69a3.09,3.09,0,0,0,2.81,0,.86.86,0,0,0,0-1.62,3.09,3.09,0,0,0-2.81,0A.85.85,0,0,0,468.88,213.69Z"/><path class="cls-4" d="M468.67,212.83l0-17.27h3.15l0,17.27a.78.78,0,0,1-.46.64,2.42,2.42,0,0,1-2.22,0A.79.79,0,0,1,468.67,212.83Z"/><path class="cls-11" d="M469.15,196.2a2.44,2.44,0,0,0,2.23,0,.67.67,0,0,0,0-1.28,2.44,2.44,0,0,0-2.23,0A.68.68,0,0,0,469.15,196.2Z"/><path class="cls-8" d="M433.32,172.26l81.89,47.31-1.81,3.15-81.9-47.31a.9.9,0,0,1-.37-.83,2.84,2.84,0,0,1,1.28-2.23A.93.93,0,0,1,433.32,172.26Z"/><path class="cls-11" d="M514.31,219.66a2.85,2.85,0,0,0-1.29,2.23c0,.82.58,1.15,1.29.74a2.83,2.83,0,0,0,1.28-2.23C515.59,219.58,515,219.25,514.31,219.66Z"/><path class="cls-1" d="M515.22,219.57l2.26,1.3L515.65,224l-2.26-1.3a.9.9,0,0,1-.38-.83,2.85,2.85,0,0,1,1.3-2.24A.93.93,0,0,1,515.22,219.57Z"/><path class="cls-4" d="M516.56,221a2.84,2.84,0,0,0-1.29,2.23c0,.82.58,1.16,1.29.74a2.84,2.84,0,0,0,1.29-2.23C517.85,220.89,517.27,220.55,516.56,221Z"/><path class="cls-1" d="M471.32,186.64a30.59,30.59,0,0,0-3.79,2.87c-.54.71-1.06,4.32-.63,4.61A2.57,2.57,0,0,0,469,194c1.38-.57,2.05-3.54,2.95-3.49.37,0-1.22,3-.49,3.15s2.07-1.62,2.28-2.52a32.61,32.61,0,0,0,.23-3.79c-.17-.51-1-.71-1-.71Z"/><path class="cls-8" d="M471.54,183.1c-.22,1.14-.35,2.38-.64,3.56-.15.61,3,1.33,3.12.49a12.79,12.79,0,0,1,.87-3.32C475.39,182.64,471.77,182,471.54,183.1Z"/><path class="cls-4" d="M483.85,150.74c-4.16-1.2-5.13,5.1-5.13,5.1s-8.05,25-7.51,26.59,2.24,2,3.93,1.31,10.32-26.49,10.32-26.49S488,151.93,483.85,150.74Z"/><polygon class="cls-4" points="582.65 233.31 582.72 235.55 583.04 235.35 582.97 233.1 582.65 233.31"/><polygon class="cls-1" points="582.32 233.12 582.38 235.36 582.72 235.55 582.65 233.31 582.32 233.12"/><polygon class="cls-1" points="582.32 233.54 584.8 234.94 584.78 234.51 582.32 233.12 582.32 233.54"/><polygon class="cls-7" points="582.32 233.12 584.78 234.51 585.1 234.31 582.67 232.9 582.32 233.12"/><polygon class="cls-4" points="590.69 233.31 590.62 235.55 590.3 235.35 590.37 233.1 590.69 233.31"/><polygon class="cls-1" points="591.02 233.12 590.95 235.36 590.62 235.55 590.69 233.31 591.02 233.12"/><polygon class="cls-1" points="591.02 233.54 588.54 234.94 588.55 234.51 591.02 233.12 591.02 233.54"/><polygon class="cls-7" points="591.02 233.12 588.55 234.51 588.23 234.31 590.67 232.9 591.02 233.12"/><polygon class="cls-4" points="586.66 237.63 582.79 235.8 582.79 235.28 586.66 236.98 586.66 237.63"/><polygon class="cls-7" points="586.66 236.98 582.79 235.28 586.61 233.56 590.54 235.28 586.66 236.98"/><polygon class="cls-4" points="586.66 237.63 590.54 235.8 590.54 235.28 586.66 236.98 586.66 237.63"/><polygon class="cls-1" points="585.1 236.71 582.62 238.11 582.64 237.69 585.1 236.3 585.1 236.71"/><polygon class="cls-7" points="585.1 236.3 582.64 237.69 582.32 237.49 584.75 236.08 585.1 236.3"/><polygon class="cls-4" points="582.64 237.69 582.57 239.93 582.25 239.73 582.32 237.49 582.64 237.69"/><polygon class="cls-1" points="582.97 237.5 582.9 239.74 582.57 239.93 582.64 237.69 582.97 237.5"/><polygon class="cls-1" points="588.39 236.64 590.87 238.04 590.86 237.61 588.39 236.22 588.39 236.64"/><polygon class="cls-7" points="588.39 236.22 590.86 237.61 591.18 237.41 588.74 236 588.39 236.22"/><polygon class="cls-4" points="590.86 237.61 590.92 239.86 591.25 239.65 591.18 237.41 590.86 237.61"/><polygon class="cls-1" points="590.52 237.43 590.59 239.66 590.92 239.86 590.85 237.61 590.52 237.43"/><path class="cls-14" d="M573.32,191.65a6.63,6.63,0,0,1,13.26,0v43.46"/><path class="cls-15" d="M576.93,388.27l.53,1.93a34.61,34.61,0,0,0,4,5.92c.8.88.61,3.55.44,4.12a2.88,2.88,0,0,1-4,2.11,4.83,4.83,0,0,1-2.85-3.51l-.76-3.63A11.28,11.28,0,0,1,572,392.6c-.47-1.05.07-4.77.07-4.77Z"/><path class="cls-16" d="M577.6,338.76c2.15,1.5,1.16,25.36,1.3,29.56.52,15.85-.73,18.31-1.7,19.65a3.61,3.61,0,0,1-5.45-.09c-1.76-2.2-2.66-24.84-2.66-24.84L567,338.15S575.67,337.42,577.6,338.76Z"/><path class="cls-17" d="M547.08,321.43s-.93,2.22,3.61,2.88,4.45-2.53,4.45-2.53l-1.66-3-4.93-.61Z"/><path class="cls-13" d="M547.72,320.84a32.42,32.42,0,0,0-.91,6l7.46-1.33,1.25-5.46-7.27-1.16S547.55,320.31,547.72,320.84Z"/><path class="cls-13" d="M557.94,304.53a6.9,6.9,0,1,0,6.9-6.89A6.9,6.9,0,0,0,557.94,304.53Z"/><path class="cls-7" d="M578.18,303.08a43.23,43.23,0,0,1-7.49-4.34s-2.24,1.07-1.6,1.53c2.24.52,2.67,8.07-4.25,8.13s-5.66-8.59-3.43-8.46c1.51.09-.33-1.2-.33-1.2a35.66,35.66,0,0,1-6.14,1.4c-3.66,3.45-1.46,18.67-1.46,18.67s1,11.56-1.21,19.49c6.6,6.4,26.84,7,26.06.1s2.23-23.66,2-24.31S580,304.77,578.18,303.08Z"/><path class="cls-4" d="M554.94,300.14c-7.74.85-5.58,8.4-6.05,11.59-1.1,4.33-1.81,9.7-1.81,9.7s3-3.17,7.13,0a56.73,56.73,0,0,0-1.28-8.38S552.44,304.07,554.94,300.14Z"/><path class="cls-1" d="M559.18,298a17.55,17.55,0,0,0,4.12,8.83c.73.82,3.22.7,3.93-.37a24,24,0,0,0,3.46-7.74l1.13-1.33.92-2.44-1.44-2.49L566,291.21H558.9l-1.35,2.62Z"/><path class="cls-17" d="M580.23,327.39s-.2,3.29-4.13,2.33c-4.14-1-2.88-4.63-2.88-4.63l1-3,6.2,1.53Z"/><path class="cls-13" d="M580.29,323.22A82.56,82.56,0,0,0,579,334.31c-.12,5.19-3.81,11.26-5.49,15.87a14.55,14.55,0,0,1,0,3.53c-1.41-2.16-5-3.75-5-3.75s1.61-11.11,4.36-17A55.63,55.63,0,0,1,574,322.6l1.73-1.57,4.9.48Z"/><path class="cls-4" d="M578.18,303.08c6.09.79,6.72,5.93,6.29,8.39s-3.91,10.94-4.24,15.92c-.7-2.47-5.46-3.39-7-2.3a24.67,24.67,0,0,1,3.91-10.41A42.82,42.82,0,0,0,578.18,303.08Z"/><path class="cls-17" d="M572,295.57c-.92-.39-1.63,2.39-1.83,2.63s-1-.4-1.59-1.14c-.37-.43-.58-1.15-.78-1.24-.56-.25-3.37,2.44-4.2,2.35s-3.5-2.32-4-2.06-.46,1.91-.46,1.91-2.32-2.27-2.53-4.57c-.1-1.14,2.63-6.93,7.9-6.31,5.44-1.32,7.71,5.36,8.39,6.69.9,1.78-1.07,4.09-1.43,4.51a1.1,1.1,0,0,1-.82.4S572.39,295.73,572,295.57Z"/><path class="cls-3" d="M536.66,419.28a23.55,23.55,0,0,1,4.64-.62c-.26-3.32,1.81-6.68,6.19-9.22,8.3-4.78,21.74-4.78,30,0s8.29,12.56,0,17.34c-5.2,3-12.42,4.13-19.13,3.36a14.45,14.45,0,0,1-1.48,3.85c-2.44,4.41-6.53,6.81-9.12,5.37s-2.71-6.18-.27-10.58a15.32,15.32,0,0,1,.93-1.47c-.33-.17-.65-.35-1-.53a17,17,0,0,1-2.56-1.79,21.46,21.46,0,0,1-6.36,2.52c-5.61,1.3-10.6.52-11.12-1.75S531,420.58,536.66,419.28Z"/><path class="cls-4" d="M539.28,402.6a23.23,23.23,0,1,0,23.23-23.24A23.23,23.23,0,0,0,539.28,402.6Z"/><path class="cls-13" d="M555.75,334.48s-.87-3.1-2.09-6.33c1.1-.67,5.85-5.72,5.85-5.72a4.9,4.9,0,0,0,2.62.44c.88-.33.15-1.32.15-1.32s4.11-1.8,2.37-4.12c-1.23-1.65-4.56-1.79-5.47-.56s-1.94,2.42-1.94,2.42-10.5,4.34-11.09,6.43c-1.12,3.95,3,11.38,3,11.38S555.88,335.14,555.75,334.48Z"/><path class="cls-4" d="M559.25,351.08a24.9,24.9,0,0,0-4.91,2.63,44.69,44.69,0,0,0-5.88-15.87c-1.57-2.68,6.18-6.24,7.56-3.53a97.62,97.62,0,0,0,5.59,9S563.78,349,559.25,351.08Z"/><path class="cls-13" d="M537,418.7c-1.65,1.67-6.7,4.15-7.74,4.51s-1.25,2.66-.91,3c.91.83,3.32.39,4.63,0s3.58-1.88,5.15-2.19,4.8-.08,5.94-1.39-1-5.32-1-5.32S537.45,418.11,537,418.7Z"/><path class="cls-17" d="M541.65,411.5a39.1,39.1,0,0,0,1.84,5.55c1,2.11-6,4.47-6.75,1.49a18.81,18.81,0,0,0-1-5.66C535.38,411.78,541.65,411.5,541.65,411.5Z"/><path class="cls-17" d="M550.57,377.85c-11.75,6.58-14.55,15.62-18.9,19s-2.26,7.79-.84,9.68c3.77,5,1.55,7.28,5.28,9a4.44,4.44,0,0,0,5.85-1.83c2.14-4-3.84-11.62-3.84-11.62l16.68-8.38,4.89-7.25,1-6.55S553,377.11,550.57,377.85Z"/><path class="cls-13" d="M549.89,427s1.38,3.37-2.5,8a1.89,1.89,0,0,0,.13,2.43c.37.55,3.12,1.7,6-1.18,2.26-2.28,1.18-3.28,2.69-5.86s-1.18-5.31-1.18-5.31Z"/><path class="cls-17" d="M554.14,419.74a16.68,16.68,0,0,0,1.18,4.95c1,2.11-5,4.57-5.76,1.59a18.76,18.76,0,0,0-1-5.66C548.19,419.52,554.14,419.74,554.14,419.74Z"/><path class="cls-17" d="M572.87,380.5s1,8.71-4.65,13.56-13,13.75-14.8,14.67c1.64,6.49,1.77,11.88,1,13.56-1,2.23-2.71,3.14-5.28,1.7s-2.77-6.68-4.92-10.72c-1.19-2.23-1.44-5.2-.54-6.7,4.7-7.8,9.75-18.14,14.67-24.43C559.64,381.75,572.87,380.5,572.87,380.5Z"/><path class="cls-13" d="M570.38,348.25a3,3,0,0,0,.46,1.08l.49,2.22-1.05,2.27-3.35,2-4.42-.3-3-3.06.31-2.68,3-4.74h6.07l1.66.43A23.78,23.78,0,0,0,570.38,348.25Z"/><path class="cls-4" d="M575.74,355.35c-2.21-2.81-4.9-6-4.9-6a5.46,5.46,0,0,1-2.25,3.84c-2.07,1.4-5.6,1.11-6.46.18-2.31-2.52,1-8,1-8s-2.12-1.2-2.8,0c-2.7,4.87-11.28,8.86-11.26,14.15,0,2.65,3.67,4.89,3.67,4.89s-5.07,7.68-2.06,13.86c1.16,2.37,9.83,7.66,14.87,7.47s7.56-2.86,7.18-6.57-.69-5.76-1.45-6.6c.85-2.57,4.41-5.63,4.41-5.63S576.12,357.7,575.74,355.35Z"/><path class="cls-13" d="M559.94,338.17c-.52,2.07-.25,2.84-.12,3.07-1.78,2.49-.52,5.64-.45,7.39s2.07,2.16,3.29,2.07c4.55.95,6-3.6,6-3.6a3.84,3.84,0,0,0,1-.19c.79-.2,1.65-2.1,1.65-2.1v-6l-7.43-3.05S560.46,336.09,559.94,338.17Z"/><path class="cls-1" d="M573,334.69s3.6,2.16,2.59,5.2-4.26,5.74-5.18,8.36c-.26-.52-1.31-1.12-.3-3.2-.91-.6-1.88.61-1.88.61s-1-1-1.05-3.71c-1.45,0-1,1.83-1,1.83a3.48,3.48,0,0,1-2.23-3.52,1.59,1.59,0,0,0-1.71,1.93s-5.75-6,.76-9.47C570.42,328.73,573,334.69,573,334.69Z"/><path class="cls-13" d="M574.65,379.82a3.59,3.59,0,0,0-2.5-1.61c-.49.31.26,1.43-.72,1.94s-4.59,2.36-4.45,3.59c.19,1.71,3.53,2.85,5.5,2.1a12.11,12.11,0,0,0,4-2.92C576.92,382,574.65,379.82,574.65,379.82Z"/><path class="cls-13" d="M584.88,369s2.48,4.19,3.48,5.95c1.31,2.3-1.3,4.66-2.15,5s-8.75,2.82-10.06,3.08-2.25-2.79-1.31-3.34a31.81,31.81,0,0,0,5.89-5,27.28,27.28,0,0,1-2.36-3.95A40.85,40.85,0,0,0,584.88,369Z"/><path class="cls-4" d="M572.28,355.55c3.67-2.35,6.81,3.14,6.81,3.14s4.67,7.33,5.64,9.17c1.44,2.75-5.44,6.29-7.19,3.8-2.35-3.35-5.75-7.76-5.75-7.76S568.09,358.23,572.28,355.55Z"/><path class="cls-13" d="M548.39,335.65s2.46-.43,2.9,1,.61,3.68-.69,4a2.24,2.24,0,0,1-1.83-.55,6,6,0,0,1-1.33-2.06,7.56,7.56,0,0,1,0-5.25l.42,1.77Z"/></svg>