<svg id="Layer_1" data-name="Layer 1" xmlns="http://www.w3.org/2000/svg" viewBox="0 0 625 625"><defs><style>.cls-1{fill:#c3dae2;}.cls-2{fill:#374a4f;}.cls-3{fill:#d2ebf3;}.cls-4{fill:#5b7781;}.cls-5{fill:#95c6d1;}.cls-6{fill:#231f20;}.cls-7{fill:#253b7e;}.cls-8{fill:#dbad6e;}</style></defs><path class="cls-1" d="M677.34,674.74l-1.71-2.46c-31.29-44.92-70-94.23-124.6-97.89-31.29-2.1-66,11.12-92.24-6-12.51-8.18-20.53-22.11-33.38-29.74-31.21-18.53-71,8.12-106.8,2.2-58.07-9.6-75.35-95.12-132-110.94-36-10-72.91,12.75-99,39.43a294,294,0,0,0-45.91,61.19C15,577.79-44.13,546.81-89.15,573c-29.4,17.11-54.1,41.12-61.12,75.24A227.8,227.8,0,0,0-154,674.74Z"/><path class="cls-2" d="M197.58,238.58c5.69-24.53,17.54-37.29-.2-38.08-26.79-1.18-43.71-24.56-76.19-17.5-10.93,2.38-10.14,47.95,10.41,58C147.93,249,197.58,238.58,197.58,238.58Z"/><path class="cls-3" d="M452.47,376l-16-5.2-7.8,7.32s2.08,11.11,5.29,15.36l14.56-3.75Z"/><path class="cls-3" d="M434.38,383.83c-.17,3.1-1.24,6.74.71,10.1a18.7,18.7,0,0,0,5.14,5.5l7.53-3.37,4.25-5.49-4.6-8.15-4.34-2.48Z"/><path class="cls-3" d="M438.55,402.35c1.24,1.77,3.33,3.25,4.95,2.93l1.25-2.93-2.16-2.91-1.66-.33Z"/><rect class="cls-4" x="464.42" y="414.42" width="8.42" height="273.6"/><path class="cls-4" d="M470.17,396.51c-6.5.45-6.93-6.79-19.86-7.54s-26.83,7.73-26,14.25,9.22,5.22,11.2,2.34,8.28-7.24,15-4.72,13.46,9.78,11.89,16.26c-1.79,7.45,3.74,3.5,6.7,3.63s7.72,1.26,7.85-1.51-4.1-8-1.88-12.31,7.48-1.62,9.47-.56,2.53-11.33,1.89-13.58-4.84.53-6.05,2.88S470.17,396.51,470.17,396.51Z"/><path class="cls-3" d="M452.47,376l-9.4,4-.1,1.94,1.88,3.1-2.58-1.06-1.7,2.91-2,.46.48,3.14a2.84,2.84,0,0,1,3.69,1.43,8.84,8.84,0,0,1,.62,3,28.57,28.57,0,0,1-.75,4.56c-.9,3-1.46,4.88.37,5.77.79.38,1.64-.54,2.43-2,1.14.82,2.32,1.33,2.9,1h0a1.78,1.78,0,0,0,1-.79,3.91,3.91,0,0,0,3,.78c.77,0,1.87-1.32,2.81-3.11a3.3,3.3,0,0,0,2.52.54v0c1.81-.17,1.07-7.08,1.81-9.24a24.94,24.94,0,0,0,1.06-7C460.35,380.21,452.47,376,452.47,376Zm-6.55,10.81.22.11L446,387l0-.24Z"/><path class="cls-3" d="M420.16,380.71a78.57,78.57,0,0,0,11.34,7.88s9.95-4.73,10.45-16l-10.28-10.69L422.3,370Z"/><path class="cls-4" d="M342.55,524.79l-55.48,2a157.85,157.85,0,0,0-3-22.78c-4.26-18.27-5.44-35-14.66-59.39s-13.94-82.46-13.94-82.46L318,363.63C331.87,408.43,338.57,465.29,342.55,524.79Z"/><path class="cls-4" d="M283.91,399.6c9.36,55.73,3.13,93.92-1.3,141.79l-59-8.67s-5-50.93-11.65-76.11-8.35-67.73-2.84-87.47c9.44-33.91,73.14-12.31,73.14-12.31Z"/><path class="cls-4" d="M280.64,524.83c8.58,25.86-13.11,139.89-18.1,145.36s-20.46,5.37-29.38-1.52-9.56-142.49-9.56-142.49l23.81-21.93Z"/><path class="cls-4" d="M334.74,182.45c-18.33,63-19.12,105.38-7.81,125l43.38-22.66s-1.88-34.16-6.14-61.7C359,189.55,334.74,182.45,334.74,182.45Z"/><path class="cls-4" d="M322.84,301.47c38.88,38.18,100.78,93.11,109,78.47,9.39-16.75,4.63-18.81-3.56-25.59s-58-69.57-58-69.57Z"/><path class="cls-4" d="M342.55,524.79c.2,66.78-2.77,134.36-5.28,146.75,0,0-14.3,3.4-35.55,1.42,0,0-11.84-61-13.3-85.91-1-16.57-1.16-46-1.38-63.32Z"/><path class="cls-4" d="M235,172.21c-38.89,1.72-69.19,90.35-71.63,112.57l31-9.24s26.93-25.36,40.38-49.91S235,172.21,235,172.21Z"/><path class="cls-5" d="M229.71,172.08s21.59,43.61-23.86,92.09l6.84,97s70,23.05,107.19,13.88l2.53-41.23s23-77.22,27.79-141c0,0-2.49-6.91-18.38-12l-42.42,1.51-31.19-14.23S247.31,166,229.71,172.08Z"/><path class="cls-4" d="M331.82,180.77c-5.57,16.86-23.58,24.1-29,26.67-4,1.87-13.23-8.3-21.2-17.77-10.14-12-12.05-10.67-23.37-21.62,18.11-1.78,36.28.85,49.4,5.58a142.89,142.89,0,0,0,19.6,5.74A27.66,27.66,0,0,1,331.82,180.77Z"/><path class="cls-1" d="M269.58,107.08l11.54,9.5,14.64,23.62s13.78,18,17.07,14,1.31-6.75,7.8-15.81a30,30,0,0,0,3.32-6.27,47.16,47.16,0,0,0,2.57-9.45c1.33-7.94-.85-15.59-2.57-21.51-3.1-10.63-7.4-12.8-25.44-18.44C281.83,77.46,273.14,92.08,269.58,107.08Z"/><polygon class="cls-3" points="315.94 176.73 310.39 139.09 292.14 143.9 273.86 152.13 280.92 180.58 315.94 176.73"/><path class="cls-3" d="M270.1,96.71c4.35-11.76,21.1-13.82,35.64-3.15l.24.06.06.15a40.76,40.76,0,0,1,6,5.57c8.62,9.71,4.84,18.35-.41,25.56l-.12,16.67c-6.52,12.79-23.15,24.1-37.69,20C257.57,156.93,259.16,140.54,270.1,96.71Z"/><path class="cls-1" d="M308.63,101.55c.77,2.28,2.16,5.59,1.81,8-1,6.71-1.78,5-2.34,7.35-.69,2.95-2.51,4.41-1.18,7.14.79,1.62,8.38,5.45,7.19,6.8-.76.86,1.28-5.7,1.75-6.08,3.09-2.52,6.41-5.42,6.91-9.38a13.74,13.74,0,0,0-.56-5.16,61.77,61.77,0,0,0-2.06-6.66,12.86,12.86,0,0,0-2.94-5.06c-1.86-1.74-11.12-5.45-13-6C308.44,96,308.18,100.23,308.63,101.55Z"/><path class="cls-3" d="M298.51,157.33c-5.83,5.39-13.6,9.09-21,9.64l-1.1-4.44-.08-2.49Z"/><path class="cls-1" d="M314.32,125.65c-3.77,8.06-20.44,16.11-27.06,15.77s-9.35-9.34-25-8.08c0,0-6.52,18.3,3.89,26.12,8.07,6.06,31.72,4.44,42.69-11.71l4.7-2.94Z"/><path class="cls-3" d="M300.86,131.93c1,2.65,6.55,2.8,9.91,1.57s5.29-4.38,4.32-7-4.48-3.82-7.84-2.59S299.89,129.27,300.86,131.93Z"/><path class="cls-3" d="M315.94,176.73c-4.53,9.25-33.61,9.51-35,3.85l11.32-6.65Z"/><path class="cls-1" d="M215.84,381.89c3.55,6.42,2.67,8.35,9,9.63s7.62,4.93,10.88,7.88,8,2.81,7.53,5.47-5.66,3-9.13-.26-4-1.07-3.43.84l-18.63,5.89-9.77-22.61Z"/><path class="cls-1" d="M212.05,411.34l4.77-7.69,9.69-1.47,4.05,2.75s4,12.6,5.31,16a22.79,22.79,0,0,1,1.75,7.13,2.34,2.34,0,0,1-3.11,2.05h0a3.35,3.35,0,0,1,.33,1.13,2.14,2.14,0,0,1-1.8,2.62c-1.78.3-2.88-1.49-3.27-2.26v0a3.06,3.06,0,0,0-.15-.31,1.39,1.39,0,0,1,0,.57c-.19,1.55-2.66,2.29-3.83.13-.89-1.64-2-3.58-2.65-4.67h0c-.3-.51-.5-.83-.5-.83a.86.86,0,0,1-.14.13c-2.3,2-5-3.37-10.3-15Z"/><path class="cls-4" d="M225,420.9s0,0,0,0,0,0,0,0c.62,1.07,1.13,2.19,1.65,3.3s.93,2.26,1.39,3.4c.53,1.32,1.06,2.65,1.58,4a3.06,3.06,0,0,0-.15-.31,1.39,1.39,0,0,1,0,.57c-.62-1.36-1.23-2.71-1.84-4.07-.5-1.12-1-2.23-1.48-3.37S225.39,422.09,225,420.9Z"/><path class="cls-4" d="M231.38,423.63c-.39-1-.79-2.06-1.08-3.13,0,0,0,0,0,0s0,0,0,0c.56,1,1,1.95,1.49,2.95s.84,2,1.25,3.06c.48,1.2.95,2.41,1.42,3.61h0a3.35,3.35,0,0,1,.33,1.13"/><path class="cls-4" d="M220.21,420.78l0,0a19.41,19.41,0,0,1,1.2,2.25c.36.77.64,1.57.95,2.36l.72,1.85c-.3-.51-.5-.83-.5-.83a.86.86,0,0,1-.14.13c-.15-.33-.3-.66-.46-1-.35-.77-.73-1.53-1-2.32a23,23,0,0,1-.79-2.43A.05.05,0,0,1,220.21,420.78Z"/><path class="cls-4" d="M152.38,282.37c7.29,58.88,38.74,112.49,52.93,116.05s20.58-12,18.92-22.47-29.82-100.41-29.82-100.41Z"/><path class="cls-2" d="M151.39,95.69s-35.67-11.94-48.29-4.87-15.37,18.92-12.5,37.92,31.59,27.78,31.59,27.78l16.28-18.75Z"/><path class="cls-3" d="M111.68,181.74l31.46,2.62-1.92-13L139,156.29a12.66,12.66,0,0,0-2.58-4.63,5.26,5.26,0,0,1-1.29-2.82l-2.33-2.78-6.6-7.85-10.25,5.89C117,167.22,111.68,181.74,111.68,181.74Z"/><path class="cls-6" d="M122.57,148.94l13.27,10.68A54.51,54.51,0,0,1,133.9,150l-2.29-2.73Z"/><path class="cls-3" d="M117.45,146.69c10.5,11.88,17.91,16.83,31.29,17.12,12.3.26,12.83-33.9,12.28-40.42-1.45-17.18-2-25.3-8.64-25.26-.4,0-17.94,9.24-8.07,6.18L111.18,112S106.94,134.81,117.45,146.69Z"/><path class="cls-5" d="M139.93,162.74s-5.69-1.52-8.88-3.72c0,0,3.1,6.37,9.67,9Z"/><path class="cls-7" d="M78.22,354h0A.05.05,0,0,0,78.22,354Z"/><path class="cls-4" d="M79.31,345.93c-20.79,37.14-1.79,158.25.72,190.46l47.39-3.74S142,387.42,141.81,370.36l.76-31.45Z"/><path class="cls-4" d="M108.81,349.2c-13.7,40.3,33.51,156.2,41.82,187.42l43.78-22.74s-9.85-135-13.15-151.74l-5-31.07Z"/><path class="cls-4" d="M81.17,508.12s-22.3,52.17-27.7,83.77-1.76,83.28-1.76,83.28S63,677.85,66.2,677.75a93,93,0,0,0,15.25-1.41s20.18-83.64,29.76-101.69C127.48,544,129,523.13,129,523.13l-17-27.69Z"/><path class="cls-4" d="M194.41,513.88s-.59,40.23-3.6,63.34-8,88.06-5.87,104.23c0,0-16,6.84-29.42,1,0,0-15.77-97-16.26-117.91s6.93-56.58,6.93-56.58l4-16.53Z"/><path class="cls-5" d="M188.43,374.41s-89.28,3.64-118.17-4.16c0,0,20.67-85.82,14.81-110.55l2.23-70.29,26.8-10,19,1c.36.13,8.5.34,8.86.46,4.88,3.94,17.43,4.28,30.67,22.93,5.65,8,6.49,16.61,5.61,26.32C177.21,241.48,184.25,343.19,188.43,374.41Z"/><path class="cls-3" d="M83,198.36c-3.54,2-7,6.69-10.4,13.06-3.6,6.66-7.22,15.19-11,24.48-2.1,5.1-4.45,10.36-6.49,15.83C41.38,288.3,42.59,298.4,42.59,298.4l34.92-.74S88.62,259,96.35,243.14c.16-.34.33-.69.49-1a103.84,103.84,0,0,0,6.2-16.57c3.42-12.48,3.81-24.89-3.91-29.29C95.59,194.22,92.24,193.08,83,198.36Z"/><path class="cls-4" d="M98.73,265.77c-24.1-7.09-35.88-2.32-51.51-9.61,0,0,19.77-64.17,40.08-66.75,5.26-.67,15.8,3,18.07,8.48C113.46,217.63,98.73,265.77,98.73,265.77Z"/><path class="cls-8" d="M101.88,318.59a3.29,3.29,0,0,0,1.64-.22c-1.45-.24-2.91-.47-4.36-.69Z"/><path class="cls-3" d="M43,312.77a5.33,5.33,0,0,0,4.27,3.46L60.26,318c17,1.66,72.49,3.61,108.9-2.31,0,0-3.84-12.45-11-13-36.29-2.78-81.39-17.88-103.83-17.56l-7.11-9.62c-3.78,14.58-7.94,26.89-4.18,37.23Z"/><path class="cls-3" d="M112.21,180.11s14.75,14.41,31.47,21.62c0,0,.53-14-1.27-22.33l-15.26-8.33-12.3,4.81Z"/><path class="cls-2" d="M159.63,109.38s-17.69-4.44-35.27,2.77c-2,.81-2.66,12-2.67,17.76,0,4.94.07,10.52-1.48,13.35l-15.51-9.34-2.86-20.27L108.52,102l4-12.88,4.67-3.52c7.53-2.4,16.27-3,23.51.14,2.12.93,16.52,8,17.76,15.7Z"/><path class="cls-3" d="M108.88,134.73c-1.59,2.8.29,6.87,4.2,9.1s8.38,1.77,10-1-.58-5.9-4.32-8.41C114.58,131.62,110.48,131.93,108.88,134.73Z"/><path class="cls-3" d="M157,303.06s6.8-6,11.34-8.29,9.9-4.75,11-3.32-8.43,8-10,9.61l-2.12,4.26-11.59,3.14Z"/><path class="cls-3" d="M164,316.3s14.34,2.72,16.94,1.93l.29-17.06-12.95-1.76-6.56,3.29-4.51,3.76,2.07,6.35Z"/><path class="cls-3" d="M180.51,301.08s7.38-1.79,10.11-3.15,4.39-2.19,5.38-.76c1.13,1.64-6.18,5.39-8.69,6.53a80.83,80.83,0,0,1-9.61,2.82Z"/><path class="cls-3" d="M181.29,304.93a67.13,67.13,0,0,0,8.93-2.92c2.64-1.29,4.25-2.09,5.23-.66,1.14,1.64-5.93,5.22-8.36,6.31a76,76,0,0,1-9.32,2.62Z"/><path class="cls-3" d="M181.58,308.53a64.05,64.05,0,0,0,9-2.76c2.65-1.27,4.27-2.06,5.33-.53,1.21,1.76-5.9,5.28-8.34,6.34s-9.45,2.44-9.45,2.44Z"/><path class="cls-3" d="M180.07,313.62s6.77-1.71,9.14-2.88,3.84-1.89,4.73-.6c1,1.49-4.53,4.71-6.64,5.86a25.85,25.85,0,0,1-6.37,2.23Z"/><path class="cls-3" d="M268.9,125.58c0,1.75-2.07,3.16-4.63,3.16s-4.63-1.41-4.63-3.16,4.13-8.93,6.69-8.93S268.9,123.83,268.9,125.58Z"/><path class="cls-3" d="M155,137.67c0,1.74,2.08,3.16,4.63,3.16s4.63-1.42,4.63-3.16-4.13-8.93-6.69-8.93S155,135.92,155,137.67Z"/></svg>