<svg id="Layer_1" data-name="Layer 1" xmlns="http://www.w3.org/2000/svg" viewBox="0 0 625 625"><defs><style>.cls-1{fill:#c3dae2;}</style></defs><path class="cls-1" d="M677.34,674.74l-1.71-2.46c-31.29-44.92-70-94.23-124.6-97.89-31.29-2.1-66,11.12-92.24-6-12.51-8.18-20.53-22.11-33.38-29.74-31.21-18.53-71,8.12-106.8,2.2-58.07-9.6-75.35-95.12-132-110.94-36-10-72.91,12.75-99,39.43a294,294,0,0,0-45.91,61.19C15,577.79-44.13,546.81-89.15,573c-29.4,17.11-54.1,41.12-61.12,75.24A227.8,227.8,0,0,0-154,674.74Z"/></svg>