<svg xmlns="http://www.w3.org/2000/svg" viewBox="0 0 338 153"><defs><style>.cls-1,.cls-14{fill:none;stroke:#384b51;}.cls-1{stroke-miterlimit:10;stroke-width:3px;}.cls-2{fill:#95c6d1;}.cls-3{fill:#010101;opacity:0.3;}.cls-4{fill:#d2ebf3;}.cls-5{fill:#5b7781;}.cls-6{fill:#a7a9ab;}.cls-7{fill:#f0c7b5;}.cls-8{fill:#384b51;}.cls-9{fill:#184766;}.cls-10{fill:#3677ac;}.cls-11{fill:#939599;}.cls-12{fill:#53545a;}.cls-13{fill:#c3dae2;}.cls-14{stroke-linecap:round;stroke-linejoin:round;}</style></defs><g id="Layer_1" data-name="Layer 1"><rect class="cls-1" x="1" y="1.59" width="335.5" height="150.01"/></g><g id="Layer_2" data-name="Layer 2"><path class="cls-2" d="M14.27,52.71q1.61-3.81,7.57-8.07a54.86,54.86,0,0,0,6.7-5.31,7.84,7.84,0,0,0,2.34-5.47,6,6,0,0,0-1.34-4,4.71,4.71,0,0,0-3.84-1.6c-2.27,0-3.83.85-4.65,2.55a12.76,12.76,0,0,0-.84,4.68H12.93a18.34,18.34,0,0,1,1.76-7.86q3-5.71,10.66-5.71,6,0,9.63,3.35a11.63,11.63,0,0,1,3.58,8.88A12,12,0,0,1,36,41.64a25.13,25.13,0,0,1-5.45,4.87l-3,2.13c-1.87,1.33-3.16,2.29-3.85,2.89A8.48,8.48,0,0,0,22,53.6H38.61v6.6H12.51A18,18,0,0,1,14.27,52.71Z"/><path class="cls-2" d="M65.8,27q2.94,5.13,2.94,14.56T65.8,56.05q-2.92,5.1-10.21,5.1t-10.21-5.1Q42.46,51,42.45,41.51T45.38,27q2.92-5.13,10.21-5.13T65.8,27ZM51.18,51.57c.71,2.32,2.19,3.48,4.41,3.48s3.69-1.16,4.38-3.48a37.37,37.37,0,0,0,1-10.06,36.88,36.88,0,0,0-1-10.2A4.24,4.24,0,0,0,55.59,28a4.29,4.29,0,0,0-4.41,3.31q-1.08,3.32-1.08,10.2A35.92,35.92,0,0,0,51.18,51.57Z"/><path class="cls-2" d="M74.44,33.92v-5.1a33.33,33.33,0,0,0,5-.48,7,7,0,0,0,3.68-2,6.58,6.58,0,0,0,1.46-2.73,5.92,5.92,0,0,0,.29-1.52h6.26V60.2H83.4V33.92Z"/><path class="cls-2" d="M103.52,43.83a9.13,9.13,0,0,1,4.24-3.92,8.91,8.91,0,0,1-3.6-4,11,11,0,0,1-.83-4,9.36,9.36,0,0,1,3.13-7.09q3.14-2.92,8.86-2.93t8.85,2.93a9.36,9.36,0,0,1,3.13,7.09,11,11,0,0,1-.83,4,7.7,7.7,0,0,1-3.58,3.72,10.56,10.56,0,0,1,4.25,4.18,11.86,11.86,0,0,1,1.42,5.8A10.88,10.88,0,0,1,125,57.82q-3.57,3.38-10,3.38t-9.68-3.38a11.27,11.27,0,0,1-3.29-8.19A11.67,11.67,0,0,1,103.52,43.83Zm7.79,9.67a6,6,0,0,0,8.07,0,6.14,6.14,0,0,0,1.46-4.36,6.05,6.05,0,0,0-1.49-4.43,6,6,0,0,0-8,0,6,6,0,0,0-1.48,4.43A6.1,6.1,0,0,0,111.31,53.5Zm.47-17.35a4.72,4.72,0,0,0,3.55,1.31,4.63,4.63,0,0,0,3.54-1.31,4.71,4.71,0,0,0,1.26-3.39,4.82,4.82,0,0,0-1.26-3.54A4.72,4.72,0,0,0,115.33,28a4.42,4.42,0,0,0-4.83,4.81A4.68,4.68,0,0,0,111.78,36.15Z"/><path class="cls-3" d="M288.56,103.16c-3,1.7-10.57.07-17-3.64s-9.25-8.12-6.3-9.82,10.57-.08,17,3.64S291.51,101.45,288.56,103.16Z"/><polygon class="cls-4" points="283.64 26.29 283.92 27.82 284.54 30.66 283.64 32.99 280.03 35.05 276.3 35.05 274.34 32.74 274.53 28.99 278.21 26.84 283.64 26.29"/><path class="cls-4" d="M272.26,88.85s-5.07,2-6.37,2.38-1.15,2.23-.79,2.84,2.27.48,3.88.27,2.72-1.12,3.93-1.36,3.3.24,4.12-.36.1-4.36.1-4.36l-1.76-.49H273Z"/><path class="cls-5" d="M271.07,55.34a93.53,93.53,0,0,0,.3,16.89c.61,6.92.39,14.8.67,16.21s4.52,1.56,5.14-.3,1.75-6.66.79-14.23a70,70,0,0,1,2.6-11.23c.64-1.33-.21-7.31-.21-7.31S271.47,54.45,271.07,55.34Z"/><path class="cls-4" d="M282.76,96a41.39,41.39,0,0,1-1.7,5.53c-.28.32-.45,1.7.15,2,3.87,1.71,5.22-1.46,5.43-2.19a16.72,16.72,0,0,0,.49-4.35,1.84,1.84,0,0,0-.35-1.17l-1.43-1.21S282.75,95.46,282.76,96Z"/><path class="cls-5" d="M271.07,55.34a12.65,12.65,0,0,0,7.3,6.76c.75,4.1.33,9.85,2.42,17.05,1.1,3.79.42,11.43,1.61,16.29.36,1.47,3.68,1.1,4.53.2s1.8-10.89,0-18.52c-.33-1.38,2.19-18.21,0-21.75C285.58,53.64,271.2,54.86,271.07,55.34Z"/><path class="cls-6" d="M265.68,29.23s-1.84.49-1.11,3.37a2.67,2.67,0,0,0,3.45,2L269.67,33l-1.34-4.38Z"/><path class="cls-7" d="M246.7,35.12s-3.56-.5-4.11-.5-2.65.64-2.81,2.23a2.06,2.06,0,0,0,1.79,2.4,1.69,1.69,0,0,0,1.14-.7,14.38,14.38,0,0,0,3.42-.14,3.32,3.32,0,0,0,.86-.53l.95-.8-.27-1.49Z"/><path class="cls-4" d="M266.4,29.42c-2.13.62-7.06,3-7.39,3.11-3.18.32-10.49,2.59-12.31,2.59a7.48,7.48,0,0,1,.29,2.76c3.07.21,10.65.48,13.06-.8a62.56,62.56,0,0,0,8.32-3.29l2.12-.85-1.13-4.14A13.36,13.36,0,0,0,266.4,29.42Z"/><path class="cls-5" d="M276.5,28.25c-2.07,2.65-2.45,5.22-3.94,5.12s-2.78.7-4.54,1.28c.87-1.24.69-5-2.34-5.42,1.54-.7,3.39-1.7,3.39-1.7S274.84,23.9,276.5,28.25Z"/><path class="cls-2" d="M276.51,29.46s-1.05,2.82,1,4c1.56.88,4.47-.75,5.36-1.93a8.47,8.47,0,0,0,1-3.7c2.24,2.73,5.42,4.63,6.74,6.25.31.84-3.73,6.85-3.5,13.32.12,3.55.12,6.41.36,7.85.53,3.23-1.77,3.86-5.22,3.86-6.1,0-10.19-1.74-11.4-4,0,0,.48-12.14.59-19.27,0-5.87,5.59-9.6,5.59-9.6s.77.77,1,1A5.51,5.51,0,0,0,276.51,29.46Z"/><path class="cls-4" d="M282.6,55.78l-2.89.23c-.63,0-2.66,1.31-2.59,1.71s2.68-.61,2.74-.13-.37,1-1,1.28-2.87.61-2.91,1.51c-.07,1.65,4.3,1.42,5.24,1s1.62-1.74,2.87-2.62c.22-.38.85-1.19.85-1.19l-1-1.76Z"/><path class="cls-4" d="M287,44.31a25.49,25.49,0,0,0,1.63,4.11c-1.49.69-3.48,5.66-6,7.36l1.48,2.95s5.73-4.31,6.87-5.52c1.93-2.06,2-3.92,1.87-4.88-.21-1.19-.44-6.32-.44-6.32A15.67,15.67,0,0,1,287,44.31Z"/><path class="cls-5" d="M288.15,33.65c4.4-.79,4.3,4.82,4.3,4.82s.18,2.85.42,4.69-5.75,3.31-6.3,1.1a20.77,20.77,0,0,1-.5-3.44S283.57,34.47,288.15,33.65Z"/><path class="cls-4" d="M275.4,20.11a5.89,5.89,0,0,0-.65,4c-.42,1.44.43,5.3.63,5.82s1.47,1.38,2.26.94,3.17-1.2,4.32-2.56a3.24,3.24,0,0,0,.71-1.75s1.22.39,1.81-1.74c.32-.76.6-1.71.6-1.71l-.66-2.64-4-1.83-3.13.23Z"/><path class="cls-8" d="M283.41,23.68c-.89-.05-1.14,1.58-1.32,1.95-.28-1.35-1.22.15-1.85-1.45-4.06.09-4.38-3.15-5.28-3.94s-.45-2.2,2-3.76c2.07-1.3,3.41-.26,3.41-.26a5.54,5.54,0,0,1,5,4c.81,3.14-1.55,5.89-1.55,5.89S284.83,23.76,283.41,23.68Z"/><polygon class="cls-5" points="298.49 111.95 259.53 134.45 253.54 131 253.54 130.15 255.58 130.09 298.49 111.11 298.49 111.95"/><polygon class="cls-2" points="298.49 111.11 259.53 133.6 253.54 130.15 292.51 107.65 298.49 111.11"/><polygon class="cls-5" points="232.44 73.82 193.48 96.32 187.49 92.86 187.49 92.02 189.54 91.96 232.44 72.97 232.44 73.82"/><polygon class="cls-2" points="232.44 72.97 193.48 95.47 187.49 92.02 226.46 69.52 232.44 72.97"/><polygon class="cls-9" points="227.57 73.13 226.92 73.51 225.93 36.49 225.2 35.42 225.85 35.04 227.57 36.03 227.57 73.13"/><polygon class="cls-8" points="226.92 73.51 225.2 72.52 225.2 35.42 226.92 36.41 226.92 73.51"/><path class="cls-2" d="M226.59,33.39l1.77,1-1.43,2.49-1.78-1a.7.7,0,0,1-.29-.65,2.23,2.23,0,0,1,1-1.76A.71.71,0,0,1,226.59,33.39Z"/><path class="cls-10" d="M227.65,34.48a2.26,2.26,0,0,0-1,1.76c0,.65.46.91,1,.59a2.25,2.25,0,0,0,1-1.76C228.66,34.42,228.21,34.16,227.65,34.48Z"/><polygon class="cls-5" points="293.84 111.39 293.18 111.77 292.2 74.75 291.46 73.67 292.12 73.3 293.84 74.29 293.84 111.39"/><polygon class="cls-8" points="293.18 111.77 291.46 110.78 291.46 73.67 293.18 74.67 293.18 111.77"/><polygon class="cls-9" points="263.09 96.45 257.42 99.72 251.44 96.27 251.44 95.42 253.48 95.36 263.09 95.6 263.09 96.45"/><polygon class="cls-10" points="263.09 95.6 257.42 98.87 251.44 95.42 257.11 92.15 263.09 95.6"/><path class="cls-8" d="M255.76,95.41l0-29h3.13l0,29a.8.8,0,0,1-.46.64,2.46,2.46,0,0,1-2.21,0A.8.8,0,0,1,255.76,95.41Z"/><path class="cls-10" d="M256.24,67a2.46,2.46,0,0,0,2.21,0,.68.68,0,0,0,0-1.28,2.46,2.46,0,0,0-2.21,0A.68.68,0,0,0,256.24,67Z"/><path class="cls-5" d="M256.08,66.33l0-13.57h2.47V66.33a.62.62,0,0,1-.37.51,1.93,1.93,0,0,1-1.75,0A.63.63,0,0,1,256.08,66.33Z"/><path class="cls-11" d="M256.46,53.26a1.93,1.93,0,0,0,1.75,0,.53.53,0,0,0,0-1,1.93,1.93,0,0,0-1.75,0A.53.53,0,0,0,256.46,53.26Z"/><path class="cls-8" d="M228.36,34.41l64.36,37.18-1.43,2.48L226.93,36.89a.72.72,0,0,1-.3-.65,2.26,2.26,0,0,1,1-1.76A.72.72,0,0,1,228.36,34.41Z"/><path class="cls-11" d="M292,71.67a2.22,2.22,0,0,0-1,1.75c0,.64.45.9,1,.58a2.23,2.23,0,0,0,1-1.75C293,71.6,292.57,71.34,292,71.67Z"/><path class="cls-4" d="M292.72,71.59l1.78,1-1.44,2.48-1.77-1a.73.73,0,0,1-.3-.66,2.24,2.24,0,0,1,1-1.75A.7.7,0,0,1,292.72,71.59Z"/><path class="cls-5" d="M293.78,72.69a2.23,2.23,0,0,0-1,1.76c0,.64.45.91,1,.58a2.24,2.24,0,0,0,1-1.75C294.8,72.63,294.34,72.37,293.78,72.69Z"/><path class="cls-3" d="M235.83,109.87l-14.39-8.31,14.39-8.3,14.39,8.31Z"/><polygon class="cls-2" points="235.83 109.24 222.53 101.56 222.53 97.73 249.13 97.73 235.83 109.24"/><polygon class="cls-2" points="235.83 109.24 235.83 105.41 249.13 97.73 249.13 101.56 235.83 109.24"/><polygon class="cls-12" points="235.83 105.41 222.53 97.73 235.83 90.05 249.13 97.73 235.83 105.41"/><polygon class="cls-5" points="235.83 105.41 222.53 97.73 222.53 95.93 249.13 95.93 235.83 105.41"/><polygon class="cls-5" points="235.83 105.41 235.83 103.6 249.13 95.93 249.13 97.73 235.83 105.41"/><polygon class="cls-8" points="235.83 103.6 222.53 95.93 235.83 88.25 249.13 95.93 235.83 103.6"/><path class="cls-3" d="M272.54,116.58c-5.8,3.35-15.22,3.35-21,0s-5.81-8.79,0-12.15,15.23-3.35,21,0S278.36,113.22,272.54,116.58Z"/><path class="cls-8" d="M277.28,99.83a15.74,15.74,0,1,1-15.73-15.74A15.74,15.74,0,0,1,277.28,99.83Z"/><path class="cls-8" d="M254.69,93a2,2,0,1,1-.43-3.06A2.22,2.22,0,0,1,254.69,93Z"/><path class="cls-4" d="M255.28,48.51a26.3,26.3,0,0,1,3-.06c.71.09,2.56,1.24,2.19,1.68s-2.18-.42-2.45-.28-.69.32-.73.57,1.71,1.36,1.55,1.83-1.83-.51-2.94-.67a5.45,5.45,0,0,1-2.33-1.32Z"/><path class="cls-8" d="M251.67,48.2a15.58,15.58,0,0,0,1.81,2c.78.7,2.52-.87,2.07-1.36a13,13,0,0,1-1.36-2.5C253.75,45.47,251.12,47.47,251.67,48.2Z"/><path class="cls-5" d="M245.77,30.92a2.21,2.21,0,0,1,3.1,1.73c2,8.44,5.76,12.82,5.76,14.27,0,1.06-1.75,2.63-3,1.69s-6.12-8.43-6.12-8.43l-1.84-6.13Z"/><path class="cls-4" d="M261.33,85.73a27,27,0,0,0,4.15,4.83c.5.43,1,.81.78,1.7a1.67,1.67,0,0,1-2.12,1.23c-1.81-.25-3.84-3.24-4.38-3.68s-1.28-.17-2.46-1.12-.06-3.33-.06-3.33S261.15,85.24,261.33,85.73Z"/><path class="cls-2" d="M257.43,82.27a9.51,9.51,0,0,1-.33,2.9c-.42,1.39,4.38,2.18,4.58.29a14,14,0,0,1-.16-3.63C261.65,81.12,257.43,82.27,257.43,82.27Z"/><path class="cls-5" d="M242.23,62s12.11,6.35,14.8,9.08c-.82,7.72-.36,10.69.24,11.48s2.61,1.87,4,1,2.43-12.67,1.71-14.86-9.7-13-14.45-15c-1.7-.87-5.57.86-5.57.86Z"/><path class="cls-4" d="M236.33,91.75a24.47,24.47,0,0,0,4.9,5.59c.58.45.23,1.39.23,1.39a4.22,4.22,0,0,1-4.31.4c-1.68-.86-2.84-2.66-4.13-3.73s-.08-4-.08-4Z"/><path class="cls-2" d="M233,88.38a13.39,13.39,0,0,1-.37,3.12c-.37,1.21,3.82,1.9,4,.25a11.89,11.89,0,0,1-.13-3.16C236.59,88,233,88.38,233,88.38Z"/><path class="cls-5" d="M233.15,58.43c-.5,7.36.25,15.18,0,16.85-1.14,7.4-1,13.12-.08,14a2.34,2.34,0,0,0,3.35,0c2.9-2.5,5.4-26.15,6.38-26.95a17.39,17.39,0,0,0,5.76-8.6l-11.39.49A48.47,48.47,0,0,0,233.15,58.43Z"/><polygon class="cls-4" points="244.41 32.02 244.79 34.33 243.77 36.69 241.02 35.96 238.45 34.48 237.63 32.15 238.93 29.6 241.99 29.27 244.41 32.02"/><path class="cls-2" d="M233.65,55.63s-.82,2.35-.5,2.8C244.41,61.57,247.86,55,247.86,55Z"/><path class="cls-2" d="M233.56,36.5l1.68-3.31a3.3,3.3,0,0,1,3.13-.59c1.73.64,1.82,2.41,5,2.68,1-1,.37-3.9.37-3.9l2-.46a15.17,15.17,0,0,1,3,10.58c-1.05,8.44.31,11-.21,12.22-.3.7-1.42,4-7.92,4.31-6.22.32-6.81-1.46-7.08-2.76s1.09-3.5,1.13-5.82a13.87,13.87,0,0,0-.59-4.23Z"/><path class="cls-5" d="M247.72,22.52c.71,2.59-.91,3.67-.91,3.67l-1.33-1,.52-3.59A18.83,18.83,0,0,1,247.72,22.52Z"/><path class="cls-4" d="M246.52,22a19.79,19.79,0,0,1,.27,4.09,17.59,17.59,0,0,1-.36,5.72,2.5,2.5,0,0,1-2.5.92c-1.77-.22-4.06-1.49-4.18-3.37a2.71,2.71,0,0,0-.67-1.64l5.79-7.35Z"/><path class="cls-13" d="M245.45,23.84s-1.46-.54-1.63.59c-.84,5.36-4.07,5.61-4.34,5.79a6.12,6.12,0,0,0,0,5.22s-2.92.18-3.2-1.48a27.08,27.08,0,0,1-2.72,2.54,52.65,52.65,0,0,0,.93-8.1c-.44-9.83,4.52-9,4.52-9a3.6,3.6,0,0,1,3.92-.86,9.57,9.57,0,0,1,4.79,3.95A2.07,2.07,0,0,0,245.45,23.84Z"/><polygon class="cls-5" points="194.88 92.07 194.22 92.45 193.23 55.43 192.5 54.35 193.16 53.98 194.88 54.97 194.88 92.07"/><polygon class="cls-8" points="194.22 92.45 192.5 91.46 192.5 54.35 194.22 55.35 194.22 92.45"/><path class="cls-2" d="M193.82,52.31l1.77,1-1.43,2.49-1.78-1a.7.7,0,0,1-.29-.65,2.23,2.23,0,0,1,1-1.76A.71.71,0,0,1,193.82,52.31Z"/><path class="cls-10" d="M194.88,53.4a2.26,2.26,0,0,0-1,1.76c0,.65.46.91,1,.59a2.25,2.25,0,0,0,1-1.76C195.89,53.34,195.44,53.08,194.88,53.4Z"/><polygon class="cls-5" points="261.14 130.33 260.48 130.71 259.5 93.69 258.76 92.61 259.42 92.23 261.14 93.23 261.14 130.33"/><polygon class="cls-8" points="260.48 130.71 258.76 129.72 258.76 92.61 260.48 93.61 260.48 130.71"/><polygon class="cls-5" points="230.38 115.33 224.71 118.61 218.72 115.15 218.72 114.31 220.77 114.25 230.38 114.49 230.38 115.33"/><polygon class="cls-2" points="230.38 114.49 224.71 117.76 218.72 114.31 224.4 111.03 230.38 114.49"/><path class="cls-8" d="M223.06,114.3v-29h3.13l0,29a.75.75,0,0,1-.46.63,2.4,2.4,0,0,1-2.21,0A.76.76,0,0,1,223.06,114.3Z"/><path class="cls-10" d="M223.53,85.89a2.4,2.4,0,0,0,2.21,0,.67.67,0,0,0,0-1.27,2.46,2.46,0,0,0-2.21,0A.67.67,0,0,0,223.53,85.89Z"/><path class="cls-5" d="M223.37,85.22l0-13.58h2.47V85.22a.61.61,0,0,1-.36.5,1.93,1.93,0,0,1-1.75,0A.61.61,0,0,1,223.37,85.22Z"/><path class="cls-11" d="M223.75,72.15a1.93,1.93,0,0,0,1.75,0,.53.53,0,0,0,0-1,1.93,1.93,0,0,0-1.75,0A.53.53,0,0,0,223.75,72.15Z"/><path class="cls-8" d="M195.59,53.33,260,90.51,258.52,93,194.16,55.81a.73.73,0,0,1-.3-.66,2.26,2.26,0,0,1,1-1.75A.72.72,0,0,1,195.59,53.33Z"/><path class="cls-11" d="M259.24,90.58a2.25,2.25,0,0,0-1,1.76c0,.64.45.9,1,.58a2.22,2.22,0,0,0,1-1.75C260.25,90.52,259.8,90.26,259.24,90.58Z"/><path class="cls-4" d="M260,90.51l1.78,1L260.29,94l-1.77-1a.73.73,0,0,1-.3-.66,2.28,2.28,0,0,1,1-1.76A.72.72,0,0,1,260,90.51Z"/><path class="cls-5" d="M261,91.61a2.23,2.23,0,0,0-1,1.76c0,.64.45.9,1,.58a2.24,2.24,0,0,0,1-1.76C262,91.55,261.57,91.28,261,91.61Z"/><path class="cls-4" d="M225.45,64.63a24.63,24.63,0,0,0-3,2.26c-.43.56-.84,3.39-.5,3.62a2,2,0,0,0,1.61-.09c1.08-.45,1.61-2.78,2.32-2.74.29,0-1,2.33-.39,2.47s1.63-1.27,1.79-2a22.89,22.89,0,0,0,.18-3c-.13-.4-.78-.56-.78-.56Z"/><path class="cls-8" d="M225.63,61.85c-.18.89-.28,1.87-.51,2.8-.12.47,2.39,1,2.46.38a10.19,10.19,0,0,1,.68-2.61C228.65,61.49,225.81,61,225.63,61.85Z"/><path class="cls-5" d="M235.3,36.42c-3.27-1-4,4-4,4S225,60,225.37,61.33s1.76,1.54,3.09,1,8.11-20.82,8.11-20.82S238.57,37.35,235.3,36.42Z"/><polygon class="cls-5" points="312.95 101.31 313.01 103.07 313.26 102.91 313.2 101.15 312.95 101.31"/><polygon class="cls-4" points="312.69 101.16 312.74 102.92 313 103.07 312.95 101.31 312.69 101.16"/><polygon class="cls-4" points="312.69 101.49 314.64 102.59 314.63 102.26 312.69 101.17 312.69 101.49"/><polygon class="cls-2" points="312.69 101.17 314.63 102.26 314.88 102.1 312.96 100.99 312.69 101.17"/><polygon class="cls-5" points="319.27 101.31 319.21 103.07 318.96 102.91 319.02 101.15 319.27 101.31"/><polygon class="cls-4" points="319.53 101.16 319.48 102.92 319.21 103.07 319.27 101.31 319.53 101.16"/><polygon class="cls-4" points="319.53 101.49 317.58 102.59 317.59 102.26 319.53 101.17 319.53 101.49"/><polygon class="cls-2" points="319.53 101.17 317.59 102.26 317.34 102.1 319.25 100.99 319.53 101.17"/><polygon class="cls-5" points="316.11 104.71 313.06 103.27 313.06 102.86 316.11 104.2 316.11 104.71"/><polygon class="cls-2" points="316.11 104.2 313.06 102.86 316.06 101.51 319.15 102.86 316.11 104.2"/><polygon class="cls-5" points="316.11 104.71 319.15 103.27 319.15 102.86 316.11 104.2 316.11 104.71"/><polygon class="cls-4" points="314.88 103.99 312.93 105.09 312.94 104.75 314.88 103.66 314.88 103.99"/><polygon class="cls-2" points="314.88 103.66 312.94 104.75 312.69 104.59 314.6 103.49 314.88 103.66"/><polygon class="cls-5" points="312.94 104.75 312.89 106.52 312.63 106.36 312.69 104.59 312.94 104.75"/><polygon class="cls-4" points="313.2 104.61 313.15 106.36 312.89 106.52 312.94 104.75 313.2 104.61"/><polygon class="cls-4" points="317.46 103.93 319.41 105.03 319.4 104.69 317.46 103.6 317.46 103.93"/><polygon class="cls-2" points="317.46 103.6 319.4 104.69 319.65 104.53 317.74 103.43 317.46 103.6"/><polygon class="cls-5" points="319.4 104.69 319.45 106.46 319.71 106.3 319.65 104.53 319.4 104.69"/><polygon class="cls-4" points="319.14 104.55 319.19 106.31 319.45 106.46 319.4 104.69 319.14 104.55"/><path class="cls-14" d="M305.62,68.57a5.21,5.21,0,0,1,10.42,0v34.16"/><path class="cls-8" d="M16.88,90.61a4.79,4.79,0,0,1-.55,0l-.22-1a5.83,5.83,0,0,0,.87.07.67.67,0,0,0,.73-.64,13.78,13.78,0,0,0,.1-2v-.09H16A11.41,11.41,0,0,1,14.89,92L14,91.21a6.16,6.16,0,0,0,.67-1.76A17.43,17.43,0,0,0,15,85.87v-2h4.58V82.38h1v1.53H23.4v1H20.58a13.1,13.1,0,0,0,.53,3.39,9.55,9.55,0,0,0,1.3-2.77l.84.46a12.5,12.5,0,0,1-1.74,3.48,2.38,2.38,0,0,0,.34.82c.22.41.39.62.49.62s.46-.55.69-1.64l.67.9c-.36,1.25-.8,1.88-1.34,1.88a1.35,1.35,0,0,1-.95-.52,4,4,0,0,1-.74-1.24A9.8,9.8,0,0,1,18.25,92l-.65-.87a7.38,7.38,0,0,0,2.68-1.9,15,15,0,0,1-.75-4.33H16V86h2.76c0,.3,0,.63,0,1a8.32,8.32,0,0,1-.33,3.11C18.17,90.45,17.67,90.63,16.88,90.61ZM22,83.9c-.18-.2-.51-.51-1-.93l.69-.6a8.53,8.53,0,0,1,1,.84Z"/><path class="cls-8" d="M34.26,90.73v1h-9.7v-1ZM24.75,85.4v-1h9.34v1Zm2.72,5a19.76,19.76,0,0,0-1.24-4.3l1-.3a19.79,19.79,0,0,1,1.34,4.3Zm2-6a14.55,14.55,0,0,0-1.75-1.47l.74-.57a10.15,10.15,0,0,1,1.76,1.34ZM32.63,86a23.17,23.17,0,0,1-1.36,4.37L30.19,90a19.17,19.17,0,0,0,1.42-4.28Z"/><path class="cls-8" d="M38.88,88.76a19.5,19.5,0,0,0,4.89-1.27l.56.86a26.07,26.07,0,0,1-5.45,1.27v.79a.38.38,0,0,0,.43.43h3.47a.48.48,0,0,0,.5-.41,10,10,0,0,0,.19-1.16l1,.29a6.37,6.37,0,0,1-.37,1.65c-.15.35-.54.52-1.16.52H39.2a1.48,1.48,0,0,1-1.05-.28,1.46,1.46,0,0,1-.28-1V88.67a20,20,0,0,1-2.21.92l-.48-.92a22.36,22.36,0,0,0,4.66-2.08H35.27V85.7h3.59V84.52H35.94v-.87h2.92V82.36h1v1.29H42.4v.87H39.87V85.7h1.26A12.24,12.24,0,0,0,43.71,83l.76.52a11.92,11.92,0,0,1-2,2.15h2.3v.89H41.45a15.94,15.94,0,0,1-2.56,1.61Z"/><path class="cls-8" d="M51,82.38v1.19a9.38,9.38,0,0,0,1.07,3.72,9.57,9.57,0,0,0,3.27,3.82l-.73.94a5.35,5.35,0,0,1-1.34-1.15,10,10,0,0,1-1.77-2.31,11.63,11.63,0,0,1-.93-2.34,8.78,8.78,0,0,1-4.21,5.81l-.71-.94a7.57,7.57,0,0,0,3-3,8.64,8.64,0,0,0,1.16-4.38V82.38Z"/><path class="cls-8" d="M57.24,88a6.07,6.07,0,0,1-.75.77l-.32-1a9.78,9.78,0,0,0,2.06-2.61l.71.55a8,8,0,0,1-.73,1.17v5.23h-1Zm-1-3.36a8.74,8.74,0,0,0,2-2.13L59,83a9.17,9.17,0,0,1-2.23,2.46Zm2.29,6.52a9.2,9.2,0,0,0,2.81-.5,6.43,6.43,0,0,1-1.18-1.06,9.76,9.76,0,0,1-1.09.58l-.56-.67a5.24,5.24,0,0,0,2.31-1.43H59.56v-3.2l-.51.46-.62-.73a7.39,7.39,0,0,0,2.11-2.23l.91.26a3.46,3.46,0,0,1-.39.56h4.81V84h-5.4a4.27,4.27,0,0,1-.54.52h5.3v3.55H61.92a4.61,4.61,0,0,1-.52.54h3.52v.68a5.3,5.3,0,0,1-1.71,1.41,11.06,11.06,0,0,0,2.65.46l-.38.89a10.8,10.8,0,0,1-3.21-.83,13,13,0,0,1-3.35.84Zm2-5.23h3.79v-.59H60.49Zm0,1.36h3.79v-.66H60.49Zm.59,2.12a3.75,3.75,0,0,0,1.18.88,3.45,3.45,0,0,0,1.36-.88Z"/><path class="cls-8" d="M67.55,91.92l-.85-.77a6.61,6.61,0,0,0,.61-1.78,22.36,22.36,0,0,0,.24-4.06V83.09h4a2.25,2.25,0,0,0-.35-.62l1.07-.09a3.72,3.72,0,0,1,.37.71h3.73v.83h-3.7v.6h2.82v1.3h.88v.79h-.88V88H72.83a10.21,10.21,0,0,0,1,1.31,6.52,6.52,0,0,0,1.36-1l.8.57a8,8,0,0,1-1.52,1.09A7.29,7.29,0,0,0,76.34,91l-.5.88a4.11,4.11,0,0,1-1.3-.78,6.9,6.9,0,0,1-1.84-2.05v1.67A1.07,1.07,0,0,1,71.48,92h-.9L70.39,91l1,0a.29.29,0,0,0,.33-.33V88H69.22v-.75h2.52v-.65h-3.2v.1A11,11,0,0,1,67.55,91.92Zm.62-1.12a12.41,12.41,0,0,0,2.88-1.31l.26.78a14,14,0,0,1-2.77,1.36Zm.37-5h3.2v-.54H69.22v-.76h2.52v-.6h-3.2ZM70,89.72a6,6,0,0,0-1.06-1.11l.74-.46a11.22,11.22,0,0,1,1.12,1Zm4.62-3.91v-.54H72.7v.54Zm0,1.44V86.6H72.7v.65Z"/><path class="cls-8" d="M77.24,87.23v-.9H78.6a7.23,7.23,0,0,0-.7-1.58l1-.25a8.58,8.58,0,0,1,.7,1.83h.92a12.5,12.5,0,0,0,.7-1.85l.9.36-.28.73a5.45,5.45,0,0,1-.3.76h1.34v.9Zm.17-2.94V83.4h2.27a5.1,5.1,0,0,0-.57-.9l1-.13a9,9,0,0,1,.54,1h2.07v.89Zm.29,3.76h4.52v4h-.94v-.62H78.64v.62H77.7Zm3.58.89H78.64v1.61h2.64Zm5.54-5.34a29.14,29.14,0,0,1-1.07,3.08,4.93,4.93,0,0,1,1.11,2.77,1.53,1.53,0,0,1-1.75,1.7h-.34l-.31-1a3.83,3.83,0,0,0,.6,0c.6,0,.9-.25.9-.74a6.1,6.1,0,0,0-1.18-2.74c.32-.75.68-1.73,1.07-3h-1.7v8.32h-1V82.83h3.64Z"/><path class="cls-8" d="M93.39,87.26a2.49,2.49,0,0,1-1.32,2l-.42-.57a1.57,1.57,0,0,0,1-.95h-.81v-1.6h1.55Z"/><path class="cls-8" d="M107.84,87.53a13.15,13.15,0,0,1-.4,3.69c-.22.55-.81.82-1.79.82h-.43l-.32-1c.27,0,.55,0,.84,0h.12c.47,0,.74-.29.83-.85a14.41,14.41,0,0,0,.17-1.9h-6.31a11.34,11.34,0,0,1-1.47,1.69l-.77-.71A8.56,8.56,0,0,0,100,87.4a9.05,9.05,0,0,0,1.26-2.65H98.7v-.89H100a10.29,10.29,0,0,0-.51-1.1l.87-.21a8.52,8.52,0,0,1,.55,1.31h.66a9.53,9.53,0,0,0,.24-1.45l.95.07a10,10,0,0,1-.24,1.38h4.19l-.28,1.84h.9L107,87.53Zm-6.48,1.75a9.55,9.55,0,0,1-.9,2.59l-.94-.48a8.35,8.35,0,0,0,1-2.35Zm4.72-1.75.14-1h-4.61a5.52,5.52,0,0,1-.52,1Zm-4.15,4.24a25.06,25.06,0,0,0-.13-2.51l.88-.09a18.19,18.19,0,0,1,.24,2.53Zm3.52-6.07.16-1h-3.34a9.56,9.56,0,0,1-.3,1Zm-1.72,5.53a10.11,10.11,0,0,0-.41-2.11l.84-.16a8,8,0,0,1,.51,2.06Zm1.66-.6c-.25-.78-.45-1.35-.59-1.68l.74-.25a12.33,12.33,0,0,1,.66,1.65Z"/><path class="cls-8" d="M108.83,86.91a15.42,15.42,0,0,0,2-4.54l.9.41a13.69,13.69,0,0,1-.63,1.79v7.49h-1V86.51A7.93,7.93,0,0,1,109.4,88Zm5.65-1.44h-2.7v-.93h6.6v.93H115.5v2H118v.93H115.5v2.38h3v.93h-6.91v-.93h2.86V88.37H112.1v-.93h2.38Zm.6-.93a20.91,20.91,0,0,0-1.77-1.5l.68-.67a11.84,11.84,0,0,1,1.84,1.42Z"/><path class="cls-8" d="M122.81,83.43a20.74,20.74,0,0,1-.68,2.56,6,6,0,0,1,.83,2.38c0,.95-.5,1.43-1.49,1.43l-.33,0-.26-1a4,4,0,0,0,.59,0c.37,0,.56-.16.56-.5a5.71,5.71,0,0,0-.86-2.31c.19-.57.42-1.36.66-2.38h-1.1v8.4h-1V82.75h3Zm3.35,4.6h-.73a1.34,1.34,0,0,1,0,.24,3.63,3.63,0,0,1-2.62,3.8l-.63-.86a2.8,2.8,0,0,0,2.28-3V88H123.1v-.91h6V88h-2v2.66a.32.32,0,0,0,.36.35h.24c.22,0,.36,0,.41-.14a4.74,4.74,0,0,0,.08-1.31v-.22l.85.21v.31c0,1-.1,1.6-.29,1.76a1.56,1.56,0,0,1-1,.26h-.38a1.34,1.34,0,0,1-.93-.26,1.27,1.27,0,0,1-.26-1Zm2-1.87h-4.26v-.52h-.8v-2.3h2.41a7.11,7.11,0,0,0-.44-.84l1-.13a4.57,4.57,0,0,1,.41,1h2.47v2.31h-.79Zm-.16-1.9h-3.93v1H128Z"/><path class="cls-8" d="M17.81,101.4a19.38,19.38,0,0,0,4.89-1.27l.57.86a26.15,26.15,0,0,1-5.46,1.27v.79a.38.38,0,0,0,.44.43h3.46a.5.5,0,0,0,.51-.41,8.44,8.44,0,0,0,.18-1.16l1,.29a6,6,0,0,1-.37,1.65c-.15.35-.54.52-1.15.52H18.13a1.48,1.48,0,0,1-1.05-.28,1.47,1.47,0,0,1-.27-1v-1.79a20.21,20.21,0,0,1-2.22.92l-.48-.92a22.36,22.36,0,0,0,4.66-2.08H14.2v-.89h3.59V97.16H14.87v-.87h2.92V95h1v1.29h2.53v.87H18.8v1.18h1.27a12.19,12.19,0,0,0,2.57-2.67l.76.52a12.25,12.25,0,0,1-1.95,2.15h2.29v.89H20.39a16,16,0,0,1-2.57,1.61Z"/><path class="cls-8" d="M29.92,95v1.19A9.38,9.38,0,0,0,31,99.93a9.57,9.57,0,0,0,3.27,3.82l-.73.94a5.22,5.22,0,0,1-1.33-1.15,9.51,9.51,0,0,1-1.77-2.31,11.12,11.12,0,0,1-.94-2.34,8.74,8.74,0,0,1-4.21,5.81l-.71-.94a7.66,7.66,0,0,0,3.05-3,8.63,8.63,0,0,0,1.15-4.38V95Z"/><path class="cls-8" d="M36.52,100.84q-.37.16-1.26.45l-.14-1c.65-.2,1.12-.35,1.4-.46V98H35.25V97h1.27V95h.94v2h1V98h-1v1.56a7.25,7.25,0,0,0,1-.51l0,1a6,6,0,0,1-1,.51v3a1.42,1.42,0,0,1-.23,1,1.39,1.39,0,0,1-.95.24h-.79l-.24-.92.93,0a.3.3,0,0,0,.34-.33Zm8.13,3.55-.8,0a8.76,8.76,0,0,1-3.32-.37,2.64,2.64,0,0,1-1-1.06,5.88,5.88,0,0,1-1.2,1.61l-.73-.66A4.89,4.89,0,0,0,39.24,101l.9.15c-.08.37-.15.68-.22.91a1.83,1.83,0,0,0,.33.55,2.05,2.05,0,0,0,.81.71v-2.68H38.54v-.86H44.7v.86H42v.92h2.29v.83H42v1.11h1.5q.66,0,1.29-.06Zm-5.79-5.23V95.37h5.27v3.79Zm4.27-3H39.84v.68h3.29Zm-3.29,2.23h3.29V97.6H39.84Z"/><path class="cls-8" d="M45.63,99.15a10.11,10.11,0,0,0,2-4.14l.84.33c-.09.27-.2.61-.33,1l-.33.94v7.39h-1V99a8.56,8.56,0,0,1-.87,1.27Zm5.55,2.67a9.74,9.74,0,0,1-2.28,2.7l-.79-.71a9.26,9.26,0,0,0,2.24-2.53ZM50,100.1V97.89h-1.6v-1H50V95h1v1.92h1.65V95h1v1.92h1.49v1H53.58v2.21h1.75v1h-7.1v-1Zm2.64,0V97.89H50.94v2.21Zm2,4.47c-.89-1.1-1.68-2-2.36-2.76l.8-.5a29,29,0,0,1,2.33,2.47Z"/><path class="cls-8" d="M57.37,95.38h7.31v9.32h-1V104H58.4v.74h-1Zm6.27,1H58.4V99h5.24Zm0,3.64H58.4v2.88h5.24Z"/><path class="cls-8" d="M76.17,96.43v2.62h-1V97.33H67.94v1.72h-1V96.43h2a3.67,3.67,0,0,0-.25-.32l-.44-.54,1-.42a8.68,8.68,0,0,1,.9,1.28h.91V95h1v1.42H73A4,4,0,0,0,74,95.16l1,.38a3.4,3.4,0,0,1-.71.89Zm-.55,6.38a1.62,1.62,0,0,1-.21,1,.93.93,0,0,1-.77.27H73.52l-.23-1,1,0q.36,0,.36-.33V102H72.05v2.71H71V102H68.66v2.14h-1v-3H71v-.67H68.58v-2.5h6v2.5H72.05v.67h3.58Zm-2-4.06H69.51v.87h4.07Z"/><path class="cls-8" d="M78.31,100.63a6.07,6.07,0,0,1-.75.77l-.32-1a9.78,9.78,0,0,0,2.06-2.61l.71.56a9.4,9.4,0,0,1-.73,1.16v5.23h-1Zm-1-3.36a8.77,8.77,0,0,0,2-2.13l.79.47a9.17,9.17,0,0,1-2.23,2.46Zm2.3,6.52a9.07,9.07,0,0,0,2.8-.5,6.38,6.38,0,0,1-1.17-1.06,9.76,9.76,0,0,1-1.09.58l-.56-.67a5.24,5.24,0,0,0,2.31-1.43H80.63v-3.2l-.51.46-.63-.73A7.27,7.27,0,0,0,81.6,95l.92.26a3.46,3.46,0,0,1-.39.56h4.81v.81h-5.4a4.27,4.27,0,0,1-.54.52h5.29v3.55H83a4.61,4.61,0,0,1-.52.54H86v.68a5.16,5.16,0,0,1-1.7,1.41,11.06,11.06,0,0,0,2.65.46l-.38.89a10.8,10.8,0,0,1-3.21-.83,13,13,0,0,1-3.35.84Zm2-5.23h3.79V98H81.56Zm0,1.36h3.79v-.66H81.56Zm.59,2.12a3.51,3.51,0,0,0,1.18.88,3.52,3.52,0,0,0,1.36-.88Z"/><path class="cls-8" d="M88.62,104.56l-.86-.77a6.6,6.6,0,0,0,.62-1.78A22.36,22.36,0,0,0,88.62,98V95.73h4a2.25,2.25,0,0,0-.35-.62L93.36,95a3.72,3.72,0,0,1,.37.71h3.72v.83H93.76v.6h2.82v1.3h.87v.79h-.87v1.4H93.9a9.46,9.46,0,0,0,1,1.31,6,6,0,0,0,1.36-1l.8.57a7.38,7.38,0,0,1-1.52,1.09,7.68,7.68,0,0,0,1.82,1.08l-.49.88a4.22,4.22,0,0,1-1.31-.78,6.74,6.74,0,0,1-1.83-2.05v1.67a1.07,1.07,0,0,1-1.22,1.21h-.91l-.18-.9,1,0a.29.29,0,0,0,.33-.33v-2.75H90.28V99.9h2.53v-.65h-3.2v.1A11,11,0,0,1,88.62,104.56Zm.62-1.12a12.41,12.41,0,0,0,2.88-1.31l.25.78a14.19,14.19,0,0,1-2.76,1.36Zm.37-5h3.2v-.54H90.28v-.76h2.53v-.6h-3.2ZM91,102.36A6.27,6.27,0,0,0,90,101.25l.74-.46a11.22,11.22,0,0,1,1.12,1Zm4.61-3.91v-.54H93.77v.54Zm0,1.44v-.65H93.77v.65Z"/><path class="cls-8" d="M100.13,100c-.69-.49-1.3-.89-1.83-1.19l.62-.81A14.78,14.78,0,0,1,100.76,99Zm.89,1.37a14.48,14.48,0,0,1-1.86,3.31l-.8-.86a14.08,14.08,0,0,0,1.83-3.15Zm-.4-4.17a20,20,0,0,0-1.84-1.22l.61-.83.93.49c.25.14.57.34,1,.6Zm3.9-1.81a20.6,20.6,0,0,1-1.61,3.05,20.71,20.71,0,0,0,3.21-.32,11.57,11.57,0,0,0-1-1.55l.83-.46A28.18,28.18,0,0,1,108,99.24l-.92.62-.23-.46a2.09,2.09,0,0,0-.25-.46,44.26,44.26,0,0,1-5.49.53l-.2-1.07h.92A18.82,18.82,0,0,0,103.47,95Zm-3,5h5.87v4.38h-1v-.55h-3.87v.55h-1Zm4.86.91h-3.87v2h3.87Z"/><path class="cls-8" d="M115.05,96.58q-.14.33-.27.6h3.5v.74h-2.54a4.55,4.55,0,0,0,.86.82,2.83,2.83,0,0,0,.57-.72l.71.38a5.71,5.71,0,0,1-.62.74,7.63,7.63,0,0,0,1.27.48l-.35.84-.67-.31v2.1h-2.2v1.45c0,.61-.33.92-1,.92h-.91l-.22-.85.88,0c.22,0,.33-.09.33-.26v-1.29h-2.32v-2l-.25.15a2.7,2.7,0,0,0-.32.19l-.37-.89a4.38,4.38,0,0,0,1-.45,5,5,0,0,0-.72-.82l.7-.37.66.72a4.43,4.43,0,0,0,.69-.85h-1.94v-.74h2.27c0-.09.09-.19.16-.32s.09-.22.12-.28h-2.93v3.07a7.82,7.82,0,0,1-1.49,5l-.68-.8a6.19,6.19,0,0,0,1.22-3.32,9.23,9.23,0,0,1-1.08.69l-.3-.89a5.63,5.63,0,0,0,1.42-.76V95.76h3.59a3,3,0,0,0-.36-.65l1-.1a5.16,5.16,0,0,1,.38.75h3.47v.82Zm-5.6,2.1a9.55,9.55,0,0,0-.6-1.94l.69-.27a7.89,7.89,0,0,1,.69,1.9Zm1.38,4.85a6.14,6.14,0,0,0,2-1.13l.62.6a8.9,8.9,0,0,1-2,1.27Zm2.16-3.2h3.66v-.56H113Zm0,1.26h3.66V101H113Zm1.81-3.67h-.37a4.65,4.65,0,0,1-.8,1.16h2.24A4.39,4.39,0,0,1,114.8,97.92Zm3.17,6.42c-.38-.29-.73-.53-1-.73l-1-.61.55-.63c.63.36,1.3.76,2,1.21Z"/><path class="cls-8" d="M124.18,101.5a1.54,1.54,0,0,1-1.62-1.59,1.61,1.61,0,0,1,.45-1.16,1.69,1.69,0,0,1,2.33,0,1.75,1.75,0,0,1,0,2.31A1.47,1.47,0,0,1,124.18,101.5Zm0-.72a.77.77,0,0,0,.87-.88c0-.61-.29-.92-.87-.92a.9.9,0,1,0,0,1.8Z"/></g></svg>