<svg id="Layer_1" data-name="Layer 1" xmlns="http://www.w3.org/2000/svg" viewBox="0 0 110 110"><defs><style>.cls-1{fill:#5b7781;}</style></defs><path class="cls-1" d="M55,110a55,55,0,1,1,55-55A55.06,55.06,0,0,1,55,110ZM55,4.09A50.91,50.91,0,1,0,105.91,55,51,51,0,0,0,55,4.09Z"/><path class="cls-1" d="M64.25,58.24A5.54,5.54,0,0,1,63.1,55v0L63,29.26a8.11,8.11,0,0,0-7-7.21v-.61a10.06,10.06,0,0,0-9.62-10.13,9.93,9.93,0,0,0-10.23,9.92v3.35a7.94,7.94,0,0,1-7.5,8,7.81,7.81,0,0,1-8.11-7.81V14.91a1.09,1.09,0,0,0-.85-1.08c-.68-.13-1.27,2.59-1.27,3.24v7.49A10.07,10.07,0,0,0,28,34.7a10,10,0,0,0,10.23-9.93V21.42a7.94,7.94,0,0,1,7.51-8,7.83,7.83,0,0,1,8.11,7.81v.82a8.12,8.12,0,0,0-7,7h-.09l0,23.39v2.49a6,6,0,0,1-3.38,5.42A6.37,6.37,0,0,0,39.7,66v3.11c0,4.27,11.67,4.61,15.25,4.61s15.24-.34,15.24-4.61V66a6.37,6.37,0,0,0-3.71-5.66h0a5.23,5.23,0,0,1-1.8-1.54ZM61,52.43v2.49c0,3.14,1.53,6.53,4.57,7.33,2.86.75,2.35,6,2.48,7.41-.42.78-4.1,2.18-11.73,2.34-8.88.17-14-1.38-14.43-2.35.12-1.43-.53-6.4,2.47-7.4s4.57-4.19,4.57-7.33V52.43L49,29a6,6,0,0,1,11.86.06Z"/><path class="cls-1" d="M55,74.74c-14.16,0-16.27-3.53-16.27-5.63V66A7.36,7.36,0,0,1,43,59.43a5,5,0,0,0,2.81-4.51l0-26.91h.26a9.16,9.16,0,0,1,6.81-6.81,6.78,6.78,0,0,0-7-6.75,6.94,6.94,0,0,0-6.53,7v3.35A10.95,10.95,0,0,1,28,35.72,11.13,11.13,0,0,1,17.4,24.56V17.07c0-.48.37-3.12,1.37-4a1.38,1.38,0,0,1,1.11-.3,2.12,2.12,0,0,1,1.68,2.09v9.86a6.78,6.78,0,0,0,7.05,6.78,6.94,6.94,0,0,0,6.52-7V21.23a11,11,0,0,1,11.28-11A11.13,11.13,0,0,1,57,21.2a9.08,9.08,0,0,1,7,8v.1L64.13,55a4.48,4.48,0,0,0,.94,2.64h0l.41.55a4,4,0,0,0,1.44,1.24A7.39,7.39,0,0,1,71.22,66v3.11C71.22,71.21,69.1,74.74,55,74.74Zm-12-5.5c1,.62,5.32,1.9,13.37,1.74,6.82-.15,9.9-1.27,10.7-1.75V68.7c0-1.63,0-5-1.69-5.46-3.66-1-5.33-5-5.33-8.32V52.44l-.1-23.25A5,5,0,0,0,50,29.13l-.11,23.31v2.48c0,3.26-1.62,7.09-5.26,8.3-1.65.55-1.77,3.08-1.76,5.4ZM47.83,29.8V54.92a7,7,0,0,1-4,6.34A5.36,5.36,0,0,0,40.72,66v3.11a1.19,1.19,0,0,0,.12.51v-.06c0-.2,0-.54,0-.93,0-2.2,0-6.29,3.16-7.35,2.67-.89,3.87-3.84,3.87-6.36V52.43L48,28.94l0-.08a7,7,0,0,1,13.88.07v.17L62,52.43v2.49c0,2.57,1.19,5.65,3.81,6.34a4,4,0,0,1,.64.23L66,61.26a6.13,6.13,0,0,1-2.19-1.85l-.41-.55A6.58,6.58,0,0,1,62.08,55v0L62,29.32a7.07,7.07,0,0,0-6.12-6.26L55,23V21.44a9.18,9.18,0,0,0-1-4.11,8.79,8.79,0,0,1,.9,3.9V23l-.89.11a7.11,7.11,0,0,0-6.11,6.11ZM67.47,62.25C69,63.88,69,66.88,69,68.68c0,.37,0,.7,0,.89v.05a1.19,1.19,0,0,0,.12-.51V66A5.12,5.12,0,0,0,67.47,62.25Zm-.29,6.84ZM21.35,30.17a8.86,8.86,0,0,0,15.9-5.4V21.42a9,9,0,0,1,8.49-9,8.78,8.78,0,0,1,6.46,2.47,9,9,0,0,1,.88,1,8.86,8.86,0,0,0-15.9,5.39v3.35a9,9,0,0,1-8.5,9,8.79,8.79,0,0,1-6.46-2.46A11.37,11.37,0,0,1,21.35,30.17ZM19.51,16.52a3.72,3.72,0,0,0-.07.55v7.49a9.19,9.19,0,0,0,1,4.09,8.84,8.84,0,0,1-.89-3.88Z"/><path class="cls-1" d="M67.38,65.76l-3,.81c-3.39.59-15.18.62-18.59.1l-4.46-.91V64l4.5.91c3.42.52,15.2.48,18.6-.11l2.92-.8Z"/><path class="cls-1" d="M54.4,67.66a74,74,0,0,1-8.68-.38l-5-1v-3L46,64.28a102.19,102.19,0,0,0,18.35-.1l3.67-1v3.06l-3.48,1A80,80,0,0,1,54.4,67.66ZM42,65.26l4,.81A104,104,0,0,0,64.28,66l2.49-.68v-.51l-2.2.61a102.57,102.57,0,0,1-18.8.1L42,64.73Z"/><path class="cls-1" d="M55.14,102.68a12.29,12.29,0,0,1-10-5.09,1.43,1.43,0,0,1,2.32-1.68,9.44,9.44,0,0,0,7.63,3.91,9.34,9.34,0,0,0,7.38-3.59A1.43,1.43,0,1,1,64.77,98,12.17,12.17,0,0,1,55.14,102.68Z"/><path class="cls-1" d="M55.09,95.94a8.15,8.15,0,0,1-6.62-3.39,1.43,1.43,0,1,1,2.32-1.67,5.33,5.33,0,0,0,4.3,2.2,5.27,5.27,0,0,0,4.16-2,1.43,1.43,0,0,1,2.25,1.78A8.12,8.12,0,0,1,55.09,95.94Z"/><path class="cls-1" d="M55,89.62a4.35,4.35,0,0,1-3.53-1.81,1.43,1.43,0,0,1,2.32-1.68,1.45,1.45,0,0,0,1.21.62,1.49,1.49,0,0,0,1.17-.57A1.43,1.43,0,1,1,58.46,88,4.35,4.35,0,0,1,55,89.62Z"/><path class="cls-1" d="M55,83.64A143,143,0,0,1,4,73.9l1.6-3.77A141.41,141.41,0,0,0,55,79.55a236.36,236.36,0,0,0,47.81-4.74l.92,4A240.91,240.91,0,0,1,55,83.64Z"/></svg>