<svg id="Layer_1" data-name="Layer 1" xmlns="http://www.w3.org/2000/svg" xmlns:xlink="http://www.w3.org/1999/xlink" viewBox="0 0 100 100"><defs><style>.cls-1{fill:none;}.cls-2{fill:#5b7781;}.cls-3{clip-path:url(#clip-path);}</style><clipPath id="clip-path"><circle class="cls-1" cx="49.84" cy="50" r="48.29"/></clipPath></defs><path class="cls-2" d="M49.84,100.16A50.16,50.16,0,1,1,100,50,50.21,50.21,0,0,1,49.84,100.16Zm0-96.58A46.42,46.42,0,1,0,96.27,50,46.47,46.47,0,0,0,49.84,3.58Z"/><g class="cls-3"><polygon class="cls-2" points="29.07 93.92 25.48 92.86 34.48 63.85 38.06 64.91 29.07 93.92"/><path class="cls-2" d="M68.22,19.41a15,15,0,0,1-9.13-3.11C47.94,7.71,48-11.09,48-12.36A20.52,20.52,0,0,1,67.46-33.45a20.17,20.17,0,0,1,14.82,5.88,20.83,20.83,0,0,1,6.19,15.21c0,1.25,0,20.07-11.11,28.66A15,15,0,0,1,68.22,19.41Zm0-49.14H67.6A16.77,16.77,0,0,0,51.72-12.41v.07c0,.18-.15,18.13,9.65,25.68a11.1,11.1,0,0,0,13.71,0c9.8-7.55,9.65-25.5,9.65-25.68v-.07a16.84,16.84,0,0,0-5.08-12.51A16.48,16.48,0,0,0,68.17-29.73Z"/><path class="cls-2" d="M16.48,83,12.8,82.4l7.12-43.46a12.76,12.76,0,0,1,9.59-10.67l21-5.27a6,6,0,0,0,3.79-2.89c1.48-2.68,2.31-5,2.33-6.49l3.73.06c0,2.17-1,4.94-2.79,8.23a9.75,9.75,0,0,1-6.16,4.71l-21,5.27a9.05,9.05,0,0,0-6.81,7.58v.05Z"/><path class="cls-2" d="M50.67,72c-4.17,0-9.12-.2-13-3.45-1.28-1.07-2.35-3.16-3.2-4.74l3.3-.27c.61,1.16,1.39,1.38,2.3,2.14,3.12,2.62,7.57,2.6,11.49,2.59,1.1,0,2.21-.06,3.29-.17l.37,3.72C54,72,52.8,72,51.58,72Z"/><polygon class="cls-2" points="39.78 98.29 36.05 98.29 36.21 65.88 39.94 65.88 39.78 98.29"/><path class="cls-2" d="M119.61,83l-7.12-43.54a9.08,9.08,0,0,0-6.81-7.58l-21-5.27a9.73,9.73,0,0,1-6.15-4.71c-1.82-3.29-2.76-6.06-2.8-8.23l3.74-.06c0,1.51.85,3.81,2.33,6.48A6,6,0,0,0,85.56,23l21,5.27a12.78,12.78,0,0,1,9.59,10.67L123.3,82.4Z"/><rect class="cls-2" x="101.16" y="62.53" width="3.73" height="21.58" transform="translate(-16.51 32.07) rotate(-16.4)"/><path class="cls-2" d="M85.42,72.42h-.9c-1.22,0-2.45-.07-3.65-.19l.37-3.72a32.8,32.8,0,0,0,3.29.17c3.93,0,8.38-1.09,11.5-3.7a9.76,9.76,0,0,0,2.3-2.89l3.29,1.76a13.41,13.41,0,0,1-3.19,4A20.61,20.61,0,0,1,85.42,72.42Z"/><rect class="cls-2" x="96.15" y="65.88" width="3.73" height="18.97"/></g><path class="cls-2" d="M46.34,45H37.91a4.37,4.37,0,0,1-4.37-4.36V37.81a4.37,4.37,0,0,1,4.37-4.37h8.43a4.37,4.37,0,0,1,4.36,4.37v2.87A4.36,4.36,0,0,1,46.34,45Zm-8.43-7.86a.63.63,0,0,0-.63.63v2.87a.63.63,0,0,0,.63.63h8.43a.63.63,0,0,0,.63-.63V37.81a.63.63,0,0,0-.63-.63Z"/><path class="cls-2" d="M46.34,59.73H37.91a4.37,4.37,0,0,1-4.37-4.36V52.5a4.37,4.37,0,0,1,4.37-4.37h8.43A4.37,4.37,0,0,1,50.7,52.5v2.87A4.36,4.36,0,0,1,46.34,59.73Zm-8.43-7.86a.63.63,0,0,0-.63.63v2.87a.63.63,0,0,0,.63.63h8.43a.63.63,0,0,0,.63-.63V52.5a.63.63,0,0,0-.63-.63Z"/><path class="cls-2" d="M2.49,61.35A1.88,1.88,0,0,1,2,61.29,1.85,1.85,0,0,1,.68,59C4.41,44,19,44.42,27.73,44.65c1.78,0,3.31.08,4.54,0a8.93,8.93,0,0,0,8.07-6,1.86,1.86,0,0,1,3.57,1.07A12.59,12.59,0,0,1,32.5,48.38c-1.39.09-3.08,0-4.87,0-8.57-.23-20.32-.54-23.33,11.56A1.88,1.88,0,0,1,2.49,61.35Z"/><path class="cls-2" d="M6.36,72.89a1.73,1.73,0,0,1-.45,0,1.87,1.87,0,0,1-1.36-2.27c1.56-6.26,4.67-10,9.51-11.56,4-1.26,8.46-.66,12.39-.13a33,33,0,0,0,5.82.47,8.93,8.93,0,0,0,8.07-6,1.86,1.86,0,0,1,3.57,1.07A12.59,12.59,0,0,1,32.5,63.07,34.32,34.32,0,0,1,26,62.58c-7.74-1-15-2-17.78,8.9A1.86,1.86,0,0,1,6.36,72.89Z"/></svg>