<svg id="Layer_1" data-name="Layer 1" xmlns="http://www.w3.org/2000/svg" xmlns:xlink="http://www.w3.org/1999/xlink" viewBox="0 0 130 130"><defs><style>.cls-1{fill:none;}.cls-2{fill:#5b7781;}.cls-3{clip-path:url(#clip-path);}</style><clipPath id="clip-path"><circle class="cls-1" cx="64.84" cy="65" r="62.26"/></clipPath></defs><path class="cls-2" d="M64.84,129.67A64.67,64.67,0,1,1,129.52,65,64.74,64.74,0,0,1,64.84,129.67Zm0-124.53A59.86,59.86,0,1,0,124.7,65,59.92,59.92,0,0,0,64.84,5.14Z"/><g class="cls-3"><polygon class="cls-2" points="38.05 121.63 33.43 120.27 45.03 82.86 49.64 84.22 38.05 121.63"/><path class="cls-2" d="M88.54,25.55a19.24,19.24,0,0,1-11.78-4C62.39,10.47,62.43-13.77,62.44-15.4,62.1-29.88,73.36-42.07,87.56-42.6A26,26,0,0,1,106.66-35a26.78,26.78,0,0,1,8,19.62c0,1.6.07,25.87-14.31,36.94A19.25,19.25,0,0,1,88.54,25.55ZM88.47-37.8h-.73C76.14-37.36,67-27.35,67.26-15.48v.1c0,.23-.2,23.38,12.44,33.11a14.31,14.31,0,0,0,17.69,0C110,8,109.83-15.15,109.83-15.38v-.09a21.71,21.71,0,0,0-6.55-16.13A21.21,21.21,0,0,0,88.47-37.8Z"/><path class="cls-2" d="M21.83,107.56l-4.75-.78,9.17-56A16.48,16.48,0,0,1,38.62,37l27.12-6.79a7.74,7.74,0,0,0,4.89-3.74c1.9-3.45,3-6.42,3-8.36l4.82.08c0,2.79-1.26,6.37-3.61,10.61a12.59,12.59,0,0,1-7.93,6.08L39.79,41.65A11.68,11.68,0,0,0,31,51.43v.06Z"/><path class="cls-2" d="M65.91,93.42c-5.37,0-11.76-.26-16.77-4.46-1.64-1.37-3-4.07-4.11-6.1l4.24-.35c.8,1.49,1.8,1.78,3,2.77,4,3.37,9.76,3.35,14.82,3.33,1.42,0,2.85-.08,4.24-.22l.48,4.79c-1.55.15-3.13.24-4.7.24Z"/><polygon class="cls-2" points="51.87 127.27 47.05 127.27 47.26 85.47 52.08 85.47 51.87 127.27"/><path class="cls-2" d="M154.8,107.56l-9.19-56.13a11.67,11.67,0,0,0-8.77-9.78l-27.11-6.79a12.59,12.59,0,0,1-7.94-6.08c-2.34-4.24-3.56-7.82-3.6-10.61l4.81-.08c0,1.94,1.1,4.91,3,8.36a7.69,7.69,0,0,0,4.89,3.74L138,37a16.47,16.47,0,0,1,12.37,13.76l9.17,56Z"/><rect class="cls-2" x="131.01" y="81.16" width="4.81" height="27.83" transform="translate(-21.41 41.53) rotate(-16.4)"/><path class="cls-2" d="M110.72,93.91h-1.17a45.94,45.94,0,0,1-4.7-.24l.48-4.79c1.4.14,2.82.21,4.24.22,5.07,0,10.8-1.41,14.83-4.78a12.36,12.36,0,0,0,3-3.72l4.25,2.27A17.46,17.46,0,0,1,127.49,88,26.52,26.52,0,0,1,110.72,93.91Z"/><rect class="cls-2" x="124.56" y="85.47" width="4.81" height="24.46"/></g><path class="cls-2" d="M60.32,58.61H49.45A5.63,5.63,0,0,1,43.83,53v-3.7a5.63,5.63,0,0,1,5.62-5.63H60.32A5.64,5.64,0,0,1,66,49.28V53A5.64,5.64,0,0,1,60.32,58.61ZM49.45,48.46a.82.82,0,0,0-.81.82V53a.81.81,0,0,0,.81.81H60.32a.82.82,0,0,0,.82-.81v-3.7a.82.82,0,0,0-.82-.82Z"/><path class="cls-2" d="M60.32,77.55H49.45a5.63,5.63,0,0,1-5.62-5.63v-3.7a5.63,5.63,0,0,1,5.62-5.63H60.32A5.64,5.64,0,0,1,66,68.22v3.7A5.64,5.64,0,0,1,60.32,77.55ZM49.45,67.41a.81.81,0,0,0-.81.81v3.7a.82.82,0,0,0,.81.82H60.32a.82.82,0,0,0,.82-.82v-3.7a.82.82,0,0,0-.82-.81Z"/><path class="cls-2" d="M3.78,79.64a2.32,2.32,0,0,1-.58-.08,2.4,2.4,0,0,1-1.76-2.91C6.27,57.31,25.09,57.8,36.33,58.1c2.29.06,4.27.11,5.86,0a11.49,11.49,0,0,0,10.39-7.68,2.41,2.41,0,0,1,4.62,1.38,16.28,16.28,0,0,1-14.72,11.1c-1.79.12-4,.06-6.28,0-11.05-.29-26.2-.69-30.08,14.9A2.43,2.43,0,0,1,3.78,79.64Z"/><path class="cls-2" d="M8.78,94.52a2.3,2.3,0,0,1-.58-.07,2.41,2.41,0,0,1-1.76-2.92c2-8.08,6-13,12.26-14.91,5.18-1.62,10.91-.85,16-.17a42.91,42.91,0,0,0,7.52.6,11.5,11.5,0,0,0,10.39-7.67,2.41,2.41,0,0,1,4.62,1.37A16.29,16.29,0,0,1,42.48,81.86,45.17,45.17,0,0,1,34,81.22c-10-1.34-19.41-2.61-22.92,11.47A2.4,2.4,0,0,1,8.78,94.52Z"/></svg>