<svg id="Layer_1" data-name="Layer 1" xmlns="http://www.w3.org/2000/svg" xmlns:xlink="http://www.w3.org/1999/xlink" viewBox="0 0 110 110"><defs><style>.cls-1{fill:none;}.cls-2{fill:#5b7781;}.cls-3{clip-path:url(#clip-path);}</style><clipPath id="clip-path"><circle class="cls-1" cx="56.63" cy="55" r="52.72"/></clipPath></defs><path class="cls-2" d="M54.84,109.76A54.76,54.76,0,1,1,109.61,55,54.82,54.82,0,0,1,54.84,109.76Zm0-105.45A50.69,50.69,0,1,0,105.53,55,50.75,50.75,0,0,0,54.84,4.31Z"/><g class="cls-3"><polygon class="cls-2" points="50.25 115.18 46.34 114.03 56.16 82.35 60.07 83.5 50.25 115.18"/><path class="cls-2" d="M93,33.83a16.36,16.36,0,0,1-10-3.4C70.86,21.05,70.89.52,70.91-.85a22.39,22.39,0,0,1,21.26-23,22.08,22.08,0,0,1,16.18,6.42A22.79,22.79,0,0,1,115.11-.86c0,1.36,0,21.91-12.13,31.29A16.31,16.31,0,0,1,93,33.83Zm-.07-53.65h-.62A18.3,18.3,0,0,0,75-.92v.09c0,.19-.16,19.79,10.54,28a12.12,12.12,0,0,0,15,0C111.19,19,111-.64,111-.83V-.91a18.41,18.41,0,0,0-5.55-13.66A18,18,0,0,0,92.94-19.82Z"/><polygon class="cls-2" points="39.92 82.47 42.67 65.64 38.61 65.22 35.82 82.26 39.92 82.47"/><polygon class="cls-2" points="38.86 88.92 36.51 103.27 32.49 102.61 34.8 88.53 38.86 88.92"/><path class="cls-2" d="M44.29,55.79v0a9.9,9.9,0,0,1,7.43-8.28l23-5.75a10.64,10.64,0,0,0,6.72-5.15c2-3.6,3-6.62,3-9l-4.07-.07c0,1.65-.93,4.17-2.55,7.09a6.51,6.51,0,0,1-4.14,3.16l-23,5.75A14,14,0,0,0,40.26,55.15Z"/><path class="cls-2" d="M73.84,91.3c-4.55,0-10-.23-14.2-3.78-1.39-1.17-2.56-3.45-3.48-5.17l3.59-.29c.68,1.26,1.52,1.51,2.51,2.34,3.41,2.85,8.27,2.84,12.55,2.82,1.21,0,2.41-.07,3.59-.18l.41,4c-1.31.13-2.65.2-4,.21Z"/><polygon class="cls-2" points="61.95 119.95 57.87 119.95 58.05 84.56 62.13 84.56 61.95 119.95"/><path class="cls-2" d="M149.11,103.27l-7.78-47.53a9.89,9.89,0,0,0-7.43-8.28l-23-5.75a10.65,10.65,0,0,1-6.71-5.15c-2-3.6-3-6.62-3.06-9l4.08-.07c0,1.65.93,4.17,2.54,7.09a6.56,6.56,0,0,0,4.14,3.16l23,5.75a14,14,0,0,1,10.48,11.65l7.77,47.46Z"/><path class="cls-2" d="M111.78,91.71h-1c-1.33,0-2.67-.07-4-.2l.4-4.06c1.18.12,2.39.18,3.59.19,4.29,0,9.15-1.19,12.55-4a10.55,10.55,0,0,0,2.52-3.15l3.59,1.92A14.6,14.6,0,0,1,126,86.71,22.46,22.46,0,0,1,111.78,91.71Z"/></g><rect class="cls-2" x="9.81" y="57.33" width="10.74" height="3.57" rx="1.78"/><rect class="cls-2" x="16.26" y="82.95" width="10.74" height="3.57" rx="1.78"/><rect class="cls-2" x="17.22" y="58.48" width="34.19" height="1.05"/><rect class="cls-2" x="17.22" y="84.21" width="28.53" height="1.05"/><path class="cls-2" d="M51.41,62.87A3.84,3.84,0,1,1,55.24,59,3.84,3.84,0,0,1,51.41,62.87Zm0-6.45A2.61,2.61,0,1,0,54,59,2.61,2.61,0,0,0,51.41,56.42Z"/><path class="cls-2" d="M51.41,64.87A5.84,5.84,0,1,1,57.24,59,5.85,5.85,0,0,1,51.41,64.87Zm0-10.45A4.62,4.62,0,1,0,56,59,4.62,4.62,0,0,0,51.41,54.42Z"/><path class="cls-2" d="M51.41,66.91A7.88,7.88,0,1,1,59.28,59,7.89,7.89,0,0,1,51.41,66.91Zm0-14.53A6.65,6.65,0,1,0,58.06,59,6.66,6.66,0,0,0,51.41,52.38Z"/><path class="cls-2" d="M45.74,88.57a3.83,3.83,0,1,1,3.83-3.83A3.84,3.84,0,0,1,45.74,88.57Zm0-6.44a2.61,2.61,0,1,0,2.61,2.61A2.61,2.61,0,0,0,45.74,82.13Z"/><path class="cls-2" d="M45.74,90.58a5.84,5.84,0,1,1,5.84-5.84A5.85,5.85,0,0,1,45.74,90.58Zm0-10.46a4.62,4.62,0,1,0,4.62,4.62A4.62,4.62,0,0,0,45.74,80.12Z"/><path class="cls-2" d="M45.74,92.61a7.87,7.87,0,1,1,7.87-7.87A7.88,7.88,0,0,1,45.74,92.61Zm0-14.52a6.65,6.65,0,1,0,6.65,6.65A6.66,6.66,0,0,0,45.74,78.09Z"/></svg>