<svg id="Layer_1" data-name="Layer 1" xmlns="http://www.w3.org/2000/svg" viewBox="0 0 110 110"><defs><style>.cls-1{fill:#5b7781;}</style></defs><path class="cls-1" d="M55,110.16a55,55,0,1,1,55-55A55.06,55.06,0,0,1,55,110.16ZM55,4.25a50.91,50.91,0,1,0,50.91,50.91A51,51,0,0,0,55,4.25Z"/><path class="cls-1" d="M65.77,108.39a2,2,0,0,1-2-1.68c-.07-.42-.12-.65-.15-.77a2.43,2.43,0,0,1,0-1.12c0-.12,0-.57,0-1.88A26.61,26.61,0,0,1,74.25,81.11a9.16,9.16,0,0,0,3.6-9.64c-1.29-4.86-6-4.77-9.44-4.28l-1.1.18c-.77.13-1.56.27-2.38.35-2.33.2-4.12-1.21-5.43-2.23l-.36-.28A6.4,6.4,0,0,0,55.71,64a7.5,7.5,0,0,0-4,.9,8,8,0,0,0-.94.76,6.19,6.19,0,0,1-4,2h-.09a11.88,11.88,0,0,1-2-.25l-.54-.1-.83-.15c-3.43-.48-8.11-.55-9.4,4.28a9.16,9.16,0,0,0,3.61,9.65,26.64,26.64,0,0,1,10.61,21.83l-.09,3.46a2,2,0,0,1-2,2h0a2.05,2.05,0,0,1-2-2.1l.1-3.42a22.53,22.53,0,0,0-8.94-18.45,13.29,13.29,0,0,1-5.14-14c2.07-7.77,9.65-7.89,14-7.27h.1l.78.14.61.11a9.42,9.42,0,0,0,1.33.19,4.86,4.86,0,0,0,1.31-1,10.43,10.43,0,0,1,1.6-1.23A11.44,11.44,0,0,1,56,60a10.28,10.28,0,0,1,5.61,2l.39.3c.85.67,1.82,1.43,2.54,1.37s1.32-.18,2-.3l1.2-.2c4.35-.62,11.92-.5,14,7.27a13.3,13.3,0,0,1-5.15,14,22.51,22.51,0,0,0-8.93,18.48,22.15,22.15,0,0,1-.06,2.44c0,.15.07.35.12.64a2.05,2.05,0,0,1-1.65,2.38A2.31,2.31,0,0,1,65.77,108.39Zm-2.14-3.66,0,.06Z"/><path class="cls-1" d="M31.9,40.55a2,2,0,1,1,2.05-2h0A2,2,0,0,1,31.9,40.55Z"/><path class="cls-1" d="M83,67.83a2.06,2.06,0,0,1-1.94-1.37,10.13,10.13,0,0,0-4-5.22,9.39,9.39,0,0,0-3.4-1.32,2,2,0,0,1-.25-4A11.21,11.21,0,0,0,75,55.3a12.42,12.42,0,0,0,5.43-6.12,2,2,0,1,1,3.74,1.64,17.11,17.11,0,0,1-5.2,6.8l.28.17a14.2,14.2,0,0,1,5.69,7.33,2,2,0,0,1-1.26,2.6A2,2,0,0,1,83,67.83Z"/><path class="cls-1" d="M44.37,54.82A15.69,15.69,0,0,1,35.42,52a12.85,12.85,0,0,1-5.5-14,13.52,13.52,0,0,1,5.2-7.71,22.51,22.51,0,0,0,8.93-18.48L44,4a2,2,0,0,1,4.09,0l.09,7.83A26.64,26.64,0,0,1,37.53,33.62,9.47,9.47,0,0,0,33.89,39a8.9,8.9,0,0,0,3.87,9.63c3.14,2.19,8.12,3.19,12.15.47a11,11,0,0,1,5.66-1.9h.63A11.1,11.1,0,0,1,62,49a9.12,9.12,0,0,0,1.23.67,11.24,11.24,0,0,0,9.33-.25,9.53,9.53,0,0,0,5.34-6.13,8.55,8.55,0,0,0,0-4.35,9.48,9.48,0,0,0-3.62-5.3A26.64,26.64,0,0,1,63.64,11.79L63.73,4a2,2,0,0,1,2.05-2h0a2,2,0,0,1,2,2.07l-.09,7.82a22.49,22.49,0,0,0,8.94,18.48,13.64,13.64,0,0,1,5.17,7.6,12.88,12.88,0,0,1,0,6.41,13.78,13.78,0,0,1-7.55,8.78,15.41,15.41,0,0,1-12.77.28,13.78,13.78,0,0,1-1.77-1,7,7,0,0,0-3.62-1.15h-.31a7,7,0,0,0-3.59,1.22A14,14,0,0,1,44.37,54.82Z"/><path class="cls-1" d="M52.5,52.05a2.07,2.07,0,0,1-1.66-.84,2,2,0,0,1,.45-2.86c2.29-1.68,7-4.39,12.73-3.76a2,2,0,1,1-.45,4.07c-4.35-.48-8,1.67-9.87,3A2,2,0,0,1,52.5,52.05Z"/><path class="cls-1" d="M28.27,67.83a1.91,1.91,0,0,1-.66-.11,2,2,0,0,1-1.27-2.6A14.26,14.26,0,0,1,32,57.79l.28-.17a17.21,17.21,0,0,1-5.2-6.8,2,2,0,0,1,3.74-1.64,12.42,12.42,0,0,0,5.43,6.12,11.21,11.21,0,0,0,1.6.66,2,2,0,0,1-.25,4,9.39,9.39,0,0,0-3.4,1.32,10.19,10.19,0,0,0-4,5.22A2.05,2.05,0,0,1,28.27,67.83Z"/></svg>