<svg id="Layer_1" data-name="Layer 1" xmlns="http://www.w3.org/2000/svg" xmlns:xlink="http://www.w3.org/1999/xlink" viewBox="0 0 110 110"><defs><style>.cls-1{fill:none;}.cls-2{fill:#5b7781;}.cls-3{clip-path:url(#clip-path);}</style><clipPath id="clip-path"><circle class="cls-1" cx="54.84" cy="55" r="53.1"/></clipPath></defs><path class="cls-2" d="M54.84,110.16A55.16,55.16,0,1,1,110,55,55.22,55.22,0,0,1,54.84,110.16ZM54.84,4A51.05,51.05,0,1,0,105.89,55,51.11,51.11,0,0,0,54.84,4Z"/><g class="cls-3"><polygon class="cls-2" points="31.99 103.3 28.05 102.14 37.94 70.23 41.88 71.39 31.99 103.3"/><path class="cls-2" d="M75.06,21.36a16.43,16.43,0,0,1-10-3.42C52.75,8.49,52.78-12.18,52.8-13.57a22.55,22.55,0,0,1,21.42-23.2,22.19,22.19,0,0,1,16.29,6.46,23,23,0,0,1,6.81,16.74c0,1.37.05,22.06-12.22,31.51A16.41,16.41,0,0,1,75.06,21.36Zm-.07-54h-.62a18.45,18.45,0,0,0-17.47,19v.09c0,.2-.16,19.93,10.61,28.24a12.24,12.24,0,0,0,15.09,0c10.78-8.31,10.61-28,10.61-28.24v-.08a18.56,18.56,0,0,0-5.59-13.76A18.1,18.1,0,0,0,75-32.68Z"/><path class="cls-2" d="M18.16,91.3l-4.05-.67,7.82-47.79A14.06,14.06,0,0,1,32.48,31.1L55.6,25.31a6.59,6.59,0,0,0,4.18-3.19c1.62-2.94,2.53-5.47,2.56-7.13l4.1.07c0,2.38-1.07,5.43-3.07,9a10.72,10.72,0,0,1-6.77,5.18L33.48,35.08A10,10,0,0,0,26,43.42v0Z"/><path class="cls-2" d="M55.76,79.24c-4.59,0-10-.22-14.31-3.8-1.4-1.18-2.58-3.47-3.51-5.21l3.62-.29c.68,1.27,1.53,1.51,2.53,2.35,3.43,2.88,8.33,2.86,12.65,2.84A36.06,36.06,0,0,0,60.35,75L60.76,79c-1.32.14-2.67.2-4,.21Z"/><polygon class="cls-2" points="43.77 108.1 39.67 108.1 39.85 72.46 43.96 72.46 43.77 108.1"/><path class="cls-2" d="M131.57,91.3l-7.84-47.88a10,10,0,0,0-7.48-8.34L93.12,29.29a10.73,10.73,0,0,1-6.76-5.18c-2-3.62-3-6.67-3.08-9L87.39,15c0,1.66.93,4.19,2.56,7.13a6.54,6.54,0,0,0,4.17,3.19l23.12,5.79a14.06,14.06,0,0,1,10.55,11.74l7.83,47.79Z"/><rect class="cls-2" x="111.27" y="68.78" width="4.11" height="23.73" transform="translate(-18.16 35.28) rotate(-16.4)"/><path class="cls-2" d="M94,79.65H93a38,38,0,0,1-4-.21l.41-4.08a35.91,35.91,0,0,0,3.61.18c4.32,0,9.21-1.19,12.64-4.07a10.71,10.71,0,0,0,2.53-3.18l3.62,1.94a14.66,14.66,0,0,1-3.51,4.39A22.62,22.62,0,0,1,94,79.65Z"/><rect class="cls-2" x="105.77" y="72.46" width="4.11" height="20.86"/></g><path class="cls-2" d="M51,49.55H41.72a4.81,4.81,0,0,1-4.8-4.8V41.59a4.81,4.81,0,0,1,4.8-4.8H51a4.81,4.81,0,0,1,4.8,4.8v3.16A4.81,4.81,0,0,1,51,49.55ZM41.72,40.9a.7.7,0,0,0-.7.69v3.16a.7.7,0,0,0,.7.69H51a.69.69,0,0,0,.69-.69V41.59A.69.69,0,0,0,51,40.9Z"/><path class="cls-2" d="M51,65.7H41.72a4.8,4.8,0,0,1-4.8-4.8V57.75a4.8,4.8,0,0,1,4.8-4.8H51a4.8,4.8,0,0,1,4.8,4.8V60.9A4.8,4.8,0,0,1,51,65.7Zm-9.27-8.65a.7.7,0,0,0-.7.7V60.9a.7.7,0,0,0,.7.7H51a.69.69,0,0,0,.69-.7V57.75a.69.69,0,0,0-.69-.7Z"/><path class="cls-2" d="M2.77,67.48a2.14,2.14,0,0,1-.5-.06,2.06,2.06,0,0,1-1.5-2.49C4.89,48.44,20.94,48.86,30.52,49.11c2,0,3.65.1,5,0a9.83,9.83,0,0,0,8.87-6.54,2.05,2.05,0,0,1,3.93,1.17,13.86,13.86,0,0,1-12.55,9.47c-1.53.1-3.39.05-5.35,0C21,53,8.07,52.63,4.76,65.93A2.06,2.06,0,0,1,2.77,67.48Z"/><path class="cls-2" d="M7,80.18a1.73,1.73,0,0,1-.5-.07A2,2,0,0,1,5,77.63c1.71-6.9,5.13-11.06,10.45-12.72,4.42-1.38,9.31-.73,13.62-.15a36.36,36.36,0,0,0,6.41.52,9.83,9.83,0,0,0,8.87-6.55,2.05,2.05,0,0,1,3.93,1.18,13.87,13.87,0,0,1-12.55,9.47,39,39,0,0,1-7.2-.55C20.05,67.69,12,66.61,9,78.62A2.06,2.06,0,0,1,7,80.18Z"/></svg>