<svg id="πœ_h_1" data-name="πœºh_1" xmlns="http://www.w3.org/2000/svg" viewBox="0 0 246.83 52.78"><defs><style>.cls-1{fill:#1d1d1b;}.cls-2{fill:#67c0b7;}.cls-2,.cls-4{fill-rule:evenodd;}.cls-3,.cls-6{fill:none;stroke:#67c0b7;stroke-miterlimit:10;}.cls-3{stroke-width:0.01px;}.cls-4{fill:#fff;}.cls-5{fill:#00b9ee;}.cls-6{stroke-width:0.01px;}</style></defs><path class="cls-1" d="M151.48,19.1c.61.18.91.31.91.37s0,.13-.14.13-.13,0-.13.09c-.24.55-.55,1.17-.92,1.86-.19.33-.37.65-.56.93,1.15-.1,2.29-.23,3.43-.39a7.28,7.28,0,0,0-.64-1c0-.05.18-.17.53-.34a11,11,0,0,1,.88,1.44,6.46,6.46,0,0,1,.54,1.26,2.29,2.29,0,0,1-.63.18,4,4,0,0,0-.36-1c-1.43.21-3,.39-4.77.57a.23.23,0,0,0-.2.13.19.19,0,0,1-.18.11c-.08,0-.24-.3-.49-.9l1.15-.08A18.65,18.65,0,0,0,151,20.27a7.92,7.92,0,0,0,.36-1.11s0-.06.08-.06M107.15,20h2.44V19.2c0-.06,0-.1.15-.1.48,0,.71,0,.71.1s0,.14-.09.15-.1.08-.1.2V20h2.56c.07,0,.11.05.11.15v.3c0,.1,0,.15-.11.15h-2.56v.75h2q.15,0,.15.12v2.14c0,.06-.05.1-.15.1h-1.7a6.41,6.41,0,0,0,.41.57,3.61,3.61,0,0,0,.71.63,4.19,4.19,0,0,0,1.19.63s.07,0,.07.05a.17.17,0,0,1-.06.12,3,3,0,0,0-.37.34.12.12,0,0,1-.1.06,3.38,3.38,0,0,1-.85-.46,4,4,0,0,1-.88-.78,4.11,4.11,0,0,1-.41-.51v2.24a.12.12,0,0,1-.14.13h-.38c-.1,0-.15-.05-.15-.13V24.3l-.08.08a6.87,6.87,0,0,1-.66.73,8.06,8.06,0,0,1-.87.63,3.25,3.25,0,0,1-.68.33s-.08,0-.12-.12l-.33-.35c0-.06-.07-.09-.07-.12a8.69,8.69,0,0,0,1.08-.49,5.91,5.91,0,0,0,.9-.68,4.44,4.44,0,0,0,.51-.64h-1.59c-.11,0-.16,0-.16-.1V21.43c0-.08,0-.12.16-.12h1.91v-.75h-2.44q-.12,0-.12-.15v-.3Q107,20,107.15,20Zm95.4-.82.7.32c.06.05.09.09.09.13s-.06.1-.18.1H203c.14.17.26.31.39.44a4.16,4.16,0,0,0,.67.5,4.58,4.58,0,0,0,1.09.48c.06,0,.09,0,.09,0a.13.13,0,0,1,0,.11c-.13.11-.25.21-.35.31a.1.1,0,0,1-.09.06,3.23,3.23,0,0,1-.81-.35,3.66,3.66,0,0,1-.81-.61,4.28,4.28,0,0,1-.57-.61,6.27,6.27,0,0,1-.55.51,6.85,6.85,0,0,1-.71.54.57.57,0,0,1-.13.08h2.56c.05,0,.08,0,.08.11v.3c0,.07,0,.11-.08.11h-2.66c-.06,0-.08,0-.08-.11v-.29l-.51.31a6.23,6.23,0,0,1-.69.32.17.17,0,0,1-.14-.09,1.3,1.3,0,0,0-.28-.34c-.07,0-.1-.07-.1-.09s0,0,0-.05a5.87,5.87,0,0,0,1-.39,6.36,6.36,0,0,0,1.07-.68,5.43,5.43,0,0,0,.59-.51,4,4,0,0,0,.46-.6A.33.33,0,0,1,202.55,19.14Zm11.21,0,.58.22c.06,0,.1.08.1.11a.1.1,0,0,1-.08.11.12.12,0,0,0-.12.07.77.77,0,0,1-.07.2h4.36c.05,0,.07,0,.07.11v.3c0,.08,0,.11-.07.11H214l-.09.16c-.13.22-.26.42-.4.62a2.4,2.4,0,0,1-.45.45l-.19,0-.34-.14s-.07,0-.07-.05,0-.05,0-.06a3.57,3.57,0,0,0,.67-.77,4.59,4.59,0,0,0,.32-.57,8.15,8.15,0,0,0,.28-.81A.07.07,0,0,1,213.76,19.18Zm-6.4,0,.75.09c.07,0,.11.06.11.09s0,.09-.11.09-.19.2-.19.44v7.35c0,.46-.33.69-1,.69h-.68s-.08-.06-.08-.18a1.56,1.56,0,0,0-.18-.44s0-.07.08-.07a6.05,6.05,0,0,0,.79.07c.28,0,.41-.11.41-.33V19.86a1.55,1.55,0,0,0,0-.43.81.81,0,0,1,0-.19S207.24,19.18,207.36,19.18ZM193,19.77a.47.47,0,0,0-.17,0,8.19,8.19,0,0,1-1.26.35v.68h2c.05,0,.07,0,.07.11v.3c0,.1,0,.15-.07.15h-2V22h1.62c.09,0,.15,0,.15.11v2.73c0,.08-.06.12-.15.12h-1.62v.67h1.69c.05,0,.08,0,.08.12V26c0,.1,0,.16-.08.16h-1.69v.65l1.1-.13.82-.15s0,0,0,.09a1.93,1.93,0,0,0-.07.43c0,.06,0,.09,0,.09l-1,.11c-1,.18-2.11.35-3.21.52-.07.18-.13.29-.19.3A.12.12,0,0,1,189,28l-.24-.83c.31,0,1-.12,2.17-.27v-.75h-1.73s-.07-.06-.07-.16v-.29c0-.08,0-.12.07-.12h1.73V25h-1.65q-.15,0-.15-.12V22.1c0-.07.05-.11.15-.11h1.65v-.61h-2c-.06,0-.08-.05-.08-.15v-.3c0-.07,0-.11.08-.11h2v-.57a16.42,16.42,0,0,1-1.73.09c-.1,0-.16,0-.18-.1a1.16,1.16,0,0,0-.12-.34.2.2,0,0,1,0-.13,18.41,18.41,0,0,0,2.14-.12,6.33,6.33,0,0,0,1.65-.43.68.68,0,0,1,.15,0,.28.28,0,0,1,.12,0c.3.26.45.44.45.51s0,.16-.12.16Zm-31.1-.59c.48,0,.72,0,.72.1s0,.14-.1.15-.09.07-.09.19V20h3.19s.07,0,.07.11v.3c0,.1,0,.15-.07.15h-6.57v2.07a11.21,11.21,0,0,1-.23,2.6,5.49,5.49,0,0,1-.58,1.61,3.73,3.73,0,0,1-.66.92h-.09a1.12,1.12,0,0,0-.35-.25.25.25,0,0,1,0-.15,3.79,3.79,0,0,0,.7-1.1,6.23,6.23,0,0,0,.45-1.56s0-.07,0-.11l-.24.2c-.13.09-.28.2-.47.31a.28.28,0,0,0,0,.12c0,.05,0,.08,0,.08a2.94,2.94,0,0,1-.51-.5.19.19,0,0,1-.05-.1s0,0,0,0,.3-.15.45-.25A6.15,6.15,0,0,0,158,24a3.19,3.19,0,0,0,.32-.28c0-.34,0-.69,0-1.07v-.37a3,3,0,0,1-.22.29,6.53,6.53,0,0,0-.64-.65,3.68,3.68,0,0,0-.45-.32,1.65,1.65,0,0,1,.26-.4.15.15,0,0,1,.08-.05,6,6,0,0,1,.61.47l.36.37V20.11c0-.07,0-.11.16-.11h3.22v-.72C161.75,19.21,161.8,19.18,161.9,19.18Zm-31.51,0,.64.25c.07,0,.11.08.11.12a.12.12,0,0,1-.08.11c-.07,0-.11,0-.13.12-.12.42-.23.77-.31,1h3.18c.13,0,.19.05.19.15,0,2.26,0,3.83-.1,4.68a6.08,6.08,0,0,1-.3,1.66.88.88,0,0,1-.45.56,2.15,2.15,0,0,1-.92.15c-.48,0-.73-.06-.74-.19a3.35,3.35,0,0,0-.15-.56s0-.06,0-.06l.09,0a3.9,3.9,0,0,0,.63.06,1.2,1.2,0,0,0,.78-.19,2.69,2.69,0,0,0,.32-1.26,43.62,43.62,0,0,0,.14-4.4h-.45c-.06.42-.12.81-.19,1.2a9.6,9.6,0,0,1-.36,1.51,10.76,10.76,0,0,1-.49,1.28,5.51,5.51,0,0,1-.65,1.1,4.28,4.28,0,0,1-.72.78,4.57,4.57,0,0,1-.68.47.19.19,0,0,1-.14-.07l-.35-.42s-.06-.07-.06-.1a.18.18,0,0,1,0-.1,3.09,3.09,0,0,0,.71-.42,4.29,4.29,0,0,0,.58-.63,5,5,0,0,0,.66-1.12,6.5,6.5,0,0,0,.49-1.26,7.42,7.42,0,0,0,.3-1.15,8.26,8.26,0,0,0,.17-1.07h-.53c-.27.8-.5,1.42-.7,1.87a12.37,12.37,0,0,1-.71,1.41,7.33,7.33,0,0,1-.87,1.19.19.19,0,0,1-.16-.07c-.13-.11-.24-.22-.37-.32a.29.29,0,0,1,0-.09,6.32,6.32,0,0,0,.68-.8,9.54,9.54,0,0,0,.81-1.43,18.71,18.71,0,0,0,.68-1.76h-.61c-.12.24-.22.45-.33.66a6.41,6.41,0,0,1-.52.73.56.56,0,0,1-.2,0l-.37-.14s-.06,0-.06-.05a.12.12,0,0,1,0-.09,4.69,4.69,0,0,0,.75-1.18,5.62,5.62,0,0,0,.34-.87,10.11,10.11,0,0,0,.31-1.24C130.34,19.2,130.36,19.18,130.39,19.18Zm81.61,0a3.05,3.05,0,0,1,.78.49c0,.06,0,.09-.07.09a.26.26,0,0,0-.22.11,13,13,0,0,1-.72,1.66V27.8c0,.08,0,.13-.15.13h-.37c-.11,0-.16-.05-.16-.13V22.64c-.2.28-.48.63-.81,1a.29.29,0,0,1-.21-.09l-.29-.23a.18.18,0,0,1-.06-.13l.79-1a8.09,8.09,0,0,0,.89-1.52,8.18,8.18,0,0,0,.52-1.45C211.94,19.23,212,19.2,212,19.2Zm-18.09,2.15h1c0-.42,0-.85,0-1.32,0-.13,0-.38,0-.75,0-.05,0-.08.12-.08l.69.07c.09,0,.14.05.14.09a.15.15,0,0,1-.09.15.21.21,0,0,0-.18.22c0,.6,0,1.14,0,1.62h1.67c.08,0,.11,0,.11.15,0,1.7,0,2.92-.11,3.66a9.42,9.42,0,0,1-.31,2,.88.88,0,0,1-1,.7c-.43,0-.65-.07-.66-.19a1.63,1.63,0,0,0-.27-.49V27.1l.93,0c.25,0,.41-.16.47-.49a7.81,7.81,0,0,0,.2-1.57c.06-.62.1-1.67.12-3.12h-1.19c0,.83-.07,1.5-.13,2a10.45,10.45,0,0,1-.55,2.56,8.9,8.9,0,0,1-.69,1.42h-.1l-.59-.21s0,0,0-.11a5.77,5.77,0,0,0,.8-1.41,7.38,7.38,0,0,0,.49-1.95,18.52,18.52,0,0,0,.17-2.3h-1q-.12,0-.12-.15v-.3C193.79,21.39,193.83,21.35,193.91,21.35ZM126.07,20l.72.2a.09.09,0,0,1,.07.1s-.07.11-.19.18c0,.3-.11.56-.15.79h.65V19.32c0-.08,0-.12.14-.12.48,0,.71,0,.71.12s0,.13-.09.14-.1.08-.1.2v1.57H129c.07,0,.11.05.11.15v.3c0,.11,0,.17-.11.17h-1.17v2.21l1.08-.46.05,0a.07.07,0,0,1,.07.06,2.23,2.23,0,0,1,0,.53c-.39.18-.77.35-1.17.5v3.19c0,.08,0,.11-.14.11h-.38c-.09,0-.14,0-.14-.11V24.94l-1.2.46c-.1.17-.17.26-.23.26s-.19-.26-.39-.79a12.36,12.36,0,0,0,1.69-.52l.13,0V21.85h-.79a4.19,4.19,0,0,0-.1.42,8,8,0,0,1-.4,1.06.31.31,0,0,1-.2,0,1.79,1.79,0,0,0-.37-.12.09.09,0,0,1-.06-.08,2.67,2.67,0,0,0,.15-.34,4.6,4.6,0,0,0,.34-.88c.09-.3.15-.67.23-1.09A4.42,4.42,0,0,0,126,20S126.06,20,126.07,20Zm-21-.76c.33.19.6.35.81.5l.63.53a.21.21,0,0,1,0,.07,2.8,2.8,0,0,1-.29.41,8.22,8.22,0,0,0-.86-.67,4.25,4.25,0,0,0-.61-.35,2.47,2.47,0,0,1,.3-.42C105,19.22,105.06,19.2,105.08,19.2ZM221.14,21h3.45V19.36q0-.12.15-.12.75,0,.75.12c0,.08,0,.13-.09.14s-.1.08-.1.19V21h3.23c.13,0,.19,0,.19.12v4.36c0,.07-.06.1-.19.1h-.38c-.09,0-.14,0-.14-.1v-.72H225.3v3.12c0,.08-.06.11-.18.11h-.38c-.1,0-.15,0-.15-.11V24.73H221.7v.67q0,.12-.18.12h-.38q-.15,0-.15-.12V21.13C221,21,221,21,221.14,21Zm-73.41-1.73c.33.18.61.34.82.48l.65.51a.21.21,0,0,1,0,.07,2.8,2.8,0,0,1-.29.41,7.07,7.07,0,0,0-.88-.64,5.21,5.21,0,0,0-.63-.34,2.09,2.09,0,0,1,.3-.42S147.71,19.24,147.73,19.24Zm-28,.79h1.2v-.67c0-.08,0-.12.16-.12q.72,0,.72.12a.13.13,0,0,1-.11.14c-.06,0-.09.08-.09.19V20H123c.1,0,.14,0,.14.12v1.23h.52s.08,0,.08.12v.3c0,.1,0,.15-.08.15h-.52v1.2c0,.1,0,.15-.07.15h-1.47v.78h1.54s.07,0,.07.12v.3c0,.1,0,.16-.07.16h-1.54v.82h1.88c.06,0,.08,0,.08.11v.3c0,.1,0,.14-.08.14h-1.88v.66c0,.07-.05.1-.15.1h-.37c-.11,0-.16,0-.16-.1V26h-1.42s-.07,0-.07-.14v-.3c0-.07,0-.11.07-.11h1.42v-.82h-1.12s-.08-.06-.08-.16v-.3c0-.08,0-.12.08-.12h1.12V23.3h-1.16c-.06,0-.07-.05-.07-.15v-.3c0-.07,0-.11.07-.11h1.16V22h-1.49s-.08-.05-.08-.15v-.3c0-.08,0-.12.08-.12h1.49V20.6h-1.2s-.07-.06-.07-.16v-.29C119.67,20.07,119.69,20,119.74,20Zm114.48-.75a.59.59,0,0,1,.18.06,16,16,0,0,1,2.23,1.26.19.19,0,0,1,.1.15.14.14,0,0,1,0,.09l-.21.27a.32.32,0,0,1-.17.05.34.34,0,0,1-.2-.1A14.88,14.88,0,0,0,234,19.93c-.13,0-.2-.1-.2-.16a.17.17,0,0,1,0-.1l.24-.35A.24.24,0,0,1,234.22,19.28Zm-117.67,0a2.93,2.93,0,0,1,.79.49c0,.06,0,.09-.07.09a.33.33,0,0,0-.23.1,12.45,12.45,0,0,1-.6,1.67v6.26c0,.07,0,.1-.15.1h-.37c-.11,0-.15,0-.15-.1V22.83c-.16.23-.33.49-.53.77a.22.22,0,0,1-.19-.09l-.3-.24a.19.19,0,0,1-.07-.12c.21-.3.43-.61.64-.95a7.86,7.86,0,0,0,.73-1.45,8.82,8.82,0,0,0,.43-1.39C116.5,19.31,116.52,19.28,116.55,19.28Zm62.4.08a5.15,5.15,0,0,1,.78.47,5.74,5.74,0,0,1,.6.47l-.05.08-.27.41a7,7,0,0,0-.84-.62,3.47,3.47,0,0,0-.6-.31,1.88,1.88,0,0,1,.29-.43C178.9,19.38,178.93,19.36,179,19.36Zm1.87.15h5.71c.09,0,.14,0,.14.11v1.31a.12.12,0,0,1-.14.13h-.38c-.07,0-.11,0-.11-.13v-.86h-4.69v.86a.12.12,0,0,1-.14.13h-.39c-.07,0-.11,0-.11-.13V19.62A.1.1,0,0,1,180.82,19.51Zm-10.6.64h-1.46c-.08,0-.11,0-.11-.15v-.31c0-.09,0-.14.11-.14h5.89a.27.27,0,0,1,.17,0c.13.1.2.19.2.27l-1.24,2.43h1.81a.24.24,0,0,1,.15.06.73.73,0,0,1,.18.31,11.55,11.55,0,0,1-.65,1.65,6.4,6.4,0,0,1-.76,1.2,3.89,3.89,0,0,1-.6.62,1.52,1.52,0,0,0,.33.18,8.41,8.41,0,0,0,2.08.75c.06,0,.09.05.09.07a.15.15,0,0,1-.09.14l-.33.38a.13.13,0,0,1-.13.11,2.06,2.06,0,0,1-.56-.22,9.49,9.49,0,0,1-1.94-1,6.3,6.3,0,0,1-1.27.7,6.67,6.67,0,0,1-1.38.47.21.21,0,0,1-.19-.09c-.06-.1-.14-.2-.22-.31a.21.21,0,0,1-.05-.09s0-.06.08-.08a6.55,6.55,0,0,0,1-.29,5.44,5.44,0,0,0,1.43-.69s0,0-.05,0a5.26,5.26,0,0,1-1.22-1.3,7.59,7.59,0,0,1-.88-1.6,9.25,9.25,0,0,1-.61,2.15,4.51,4.51,0,0,1-.83,1.23,4.76,4.76,0,0,1-1.15.91q-.25-.25-.45-.48a3.76,3.76,0,0,0,.87-.67,5.27,5.27,0,0,0,.9-1.22,8.81,8.81,0,0,0,.61-2.11A23.78,23.78,0,0,0,170.22,20.15Zm-30.39-.56h4.32c.1,0,.15,0,.15.1v4.14c0,.07-.05.11-.15.11h-1.84v1.12h1.95c.07,0,.11.05.11.15v.31c0,.09,0,.14-.11.14h-1.95V27h2.21c.08,0,.11,0,.11.15v.31c0,.09,0,.14-.11.14h-5.17c-.09,0-.12,0-.12-.14v-.31c0-.11,0-.15.12-.15h2.28V25.66h-1.8c-.08,0-.11-.05-.11-.14v-.31c0-.1,0-.15.11-.15h1.8V23.94h-1.8c-.1,0-.15,0-.15-.11V19.69C139.68,19.63,139.73,19.59,139.83,19.59Zm-3.75.34h3c.07,0,.11,0,.11.14v.31c0,.09,0,.14-.11.14h-1.24v2.11h1.06c.06,0,.1.05.1.15v.3c0,.09,0,.14-.1.14h-1.06v2.32c.4-.15.79-.3,1.14-.46l.06,0s.07,0,.07.12a2.39,2.39,0,0,1,0,.56c-.86.36-1.74.69-2.63,1-.11.16-.19.25-.26.25s-.18-.28-.38-.83c.39-.09.84-.21,1.35-.37V23.22h-1c-.08,0-.11,0-.11-.14v-.3c0-.1,0-.15.11-.15h1V20.52h-1.12c-.08,0-.12-.05-.12-.14v-.31C136,20,136,19.93,136.08,19.93Zm-18.81.1h1.5c.09,0,.14,0,.16,0s.18.2.18.26l-1,2.25h.76a.18.18,0,0,1,.15.06c.11.09.16.15.16.2,0,.52-.09,1-.14,1.31s-.13.74-.22,1.1a6,6,0,0,1-.21.77,4.32,4.32,0,0,1-.21.52.92.92,0,0,0,.14.14,1.86,1.86,0,0,0,.53.25,2.38,2.38,0,0,0,.53.11c.45,0,1.09.05,1.89.05.43,0,1.16-.06,2.22-.16a.58.58,0,0,1,0,.13c-.07.17-.12.34-.18.52s-.06.1-.14.1c-.26,0-.88,0-1.85,0a20.46,20.46,0,0,1-2.46-.11,1.76,1.76,0,0,1-.66-.26,2.92,2.92,0,0,1-.28-.21,2.53,2.53,0,0,1-.18.27,5.47,5.47,0,0,1-.5.54.19.19,0,0,1-.14-.08,3.1,3.1,0,0,0-.34-.27s0-.05,0-.07a0,0,0,0,1,0-.05,3.42,3.42,0,0,0,.58-.55l.2-.26a3.18,3.18,0,0,1-.35-.69,5.87,5.87,0,0,1-.33-1.64c0-.07,0-.1.1-.1h.33c.09,0,.14,0,.15.1a5.25,5.25,0,0,0,.24,1.18c.06.18.12.33.19.49a3.63,3.63,0,0,0,.21-.56,10.14,10.14,0,0,0,.25-1c0-.32.09-.73.15-1.25h-.79l-.17.39c0,.06-.06.09-.11.09-.34-.07-.53-.15-.53-.21l1.3-2.81h-1.07c-.07,0-.11-.06-.11-.17v-.3C117.16,20.08,117.2,20,117.27,20Zm53.51,2.26h2.28l1.11-2.14h-3.28C170.86,21,170.83,21.73,170.78,22.29Zm-28.47-2.11v1.28h1.31V20.18Zm-2,1.28h1.28V20.18h-1.28Zm41.48-.6h1.55V20.3c0-.05,0-.07.1-.07.45,0,.68,0,.68.11s0,.11-.07.12-.07.07-.07.19v.21h1.57s.07,0,.07.11v.3c0,.11,0,.16-.07.16H184V22h1.9c.11,0,.16,0,.16.11v2.77c0,.08-.05.12-.16.12H184v.56h2.28c.07,0,.12.05.12.15V26c0,.09,0,.14-.12.14H184v.71c0,.08-.06.12-.16.12h-.38c-.06,0-.1,0-.1-.12v-.71H181c-.06,0-.1,0-.1-.14V25.7c0-.1,0-.15.1-.15h2.34V25h-1.89c-.09,0-.14,0-.14-.12V22.1c0-.07.05-.11.14-.11h1.89v-.56h-1.55c-.05,0-.07-.05-.07-.16V21C181.76,20.9,181.78,20.86,181.83,20.86Zm23.84-.6c.48,0,.71,0,.71.12s0,.12-.09.13-.1.08-.1.2V26c0,.08-.05.12-.14.12h-.38q-.15,0-.15-.12V20.38Q205.52,20.26,205.67,20.26Zm-84,.34v.78h.86V20.6Zm38.07.67h2.15a5.18,5.18,0,0,0,.17-.56c0-.05.05-.06.12-.06.47.15.71.26.71.32a.14.14,0,0,1-.08.12.23.23,0,0,0-.19.1.13.13,0,0,1,0,.08h2.89s.07,0,.07.11v.3c0,.08,0,.12-.07.12h-1.67a6.48,6.48,0,0,0,.45.85l.17.23,0,0a1.44,1.44,0,0,0,.33-.32,1.61,1.61,0,0,0,.2-.31s0,0,0,0a2.29,2.29,0,0,1,.67.38c0,.05,0,.09-.06.09a.21.21,0,0,0-.2.1,1.64,1.64,0,0,1-.43.44.84.84,0,0,1-.19.14,3.18,3.18,0,0,0,.59.45,4.08,4.08,0,0,0,.59.31.11.11,0,0,1-.07.11,1.65,1.65,0,0,0-.24.33s-.07.05-.14.05a3.54,3.54,0,0,1-.8-.48l-.25-.23v2c0,.07-.06.11-.15.11H163v1.31c0,.48-.38.72-1.16.72h-.49s-.06-.06-.06-.19a1.73,1.73,0,0,0-.17-.5v0a4.13,4.13,0,0,0,.68.07c.35,0,.52-.11.52-.33V25.93h-1.5c-.1,0-.15,0-.15-.11V24a7.17,7.17,0,0,1-.91.6.33.33,0,0,1-.14,0c-.07,0-.11,0-.16-.1a1,1,0,0,0-.21-.24.11.11,0,0,1-.08-.12s0,0,.07-.06a2.11,2.11,0,0,0,.6-.3,3.77,3.77,0,0,0,.73-.55c-.12-.14-.25-.26-.37-.39s-.32-.24-.43-.31a1.45,1.45,0,0,1,.26-.36s.06-.06.08-.06a5.74,5.74,0,0,1,.55.47l.27.29a4.17,4.17,0,0,0,.7-1.09h-1.93c-.05,0-.08,0-.08-.12v-.3C159.61,21.31,159.64,21.27,159.69,21.27ZM214,21h3.94c.1,0,.15,0,.15.11v2.29c0,.07,0,.11-.15.11H214c-.1,0-.15,0-.15-.11V21.13C213.8,21.06,213.85,21,214,21Zm-109.16.21a7.61,7.61,0,0,1,.86.56,7.19,7.19,0,0,1,.67.58.22.22,0,0,0,0,.07c-.19.27-.28.41-.29.41a7.37,7.37,0,0,0-.93-.74,4.24,4.24,0,0,0-.65-.39,2.09,2.09,0,0,1,.3-.42C104.74,21.25,104.77,21.23,104.79,21.23Zm74,.08a6.05,6.05,0,0,1,.85.53,7.85,7.85,0,0,1,.64.53l0,.07a2.77,2.77,0,0,1-.33.44,8.19,8.19,0,0,0-.87-.71,3.55,3.55,0,0,0-.63-.37,1.81,1.81,0,0,1,.3-.42C178.71,21.33,178.74,21.31,178.76,21.31Zm55,.12.69.07c.1,0,.14,0,.14.08a.09.09,0,0,1-.07.1c-.06,0-.07.05-.07.12v4.69c0,.29.17.45.51.45h1.8c.53,0,.85-.09.95-.26A5.6,5.6,0,0,0,238.2,25a1.21,1.21,0,0,0,.42.38c.09,0,.14.09.14.15a5,5,0,0,1-.59,1.73c-.14.25-.43.36-.87.36h-2.4c-.77,0-1.17-.23-1.17-.71V21.54C233.73,21.46,233.75,21.43,233.77,21.43Zm-19.3.59h2.9V21.5h-2.9Zm10.83-.38v2.41H228V21.64Zm-3.6,2.41h2.89V21.64H221.7Zm-74.83-2.41c.34.19.62.35.84.5l.66.52a.15.15,0,0,1-.05.08c-.18.28-.28.41-.28.41a6.89,6.89,0,0,0-.91-.67,4.32,4.32,0,0,0-.64-.35,1.92,1.92,0,0,1,.3-.42C146.82,21.66,146.85,21.64,146.87,21.64Zm14.62,1.51h2.34l-.26-.4a7.87,7.87,0,0,1-.44-.95h-.81a5.29,5.29,0,0,1-.39.75C161.78,22.77,161.64,23,161.49,23.15Zm-49.76-.07V21.91h-1.47v1.17Zm-2.14,0V21.91h-1.38v1.17Zm12-1.13v.79h.86V22Zm22,1.38V22.06h-1.31v1.27Zm-2,0V22.06h-1.28v1.27Zm95.81-1a11.81,11.81,0,0,1,1.36,1c.41.38.77.73,1,1a.2.2,0,0,1-.05.09,3.22,3.22,0,0,1-.36.47A10.93,10.93,0,0,0,238,23.55a5.86,5.86,0,0,0-1-.7,2.2,2.2,0,0,1,.35-.48C237.38,22.32,237.41,22.29,237.44,22.29Zm-36.65,2.77a3.39,3.39,0,0,1-.14.81A3.6,3.6,0,0,1,200.2,27a2.72,2.72,0,0,1-.49.62.2.2,0,0,1-.11,0c-.1-.09-.22-.18-.34-.27a.19.19,0,0,1,0-.12,2.84,2.84,0,0,0,.51-.72,4,4,0,0,0,.32-1,7.33,7.33,0,0,0,.1-1.34V22.4c0-.07,0-.11.15-.11h4.32c.1,0,.15,0,.15.11v2.51c0,.11-.05.15-.15.15Zm31.37-2.66.63.26c.11,0,.16.09.16.15a.27.27,0,0,1-.13.24c-.1,0-.16.07-.19.23a17.36,17.36,0,0,1-.85,2.73c-.05.15-.11.23-.14.23a.34.34,0,0,1-.19-.08A2.85,2.85,0,0,0,231,26s-.08,0-.08-.05a.37.37,0,0,1,0-.15,11.5,11.5,0,0,0,.6-1.48,10.08,10.08,0,0,0,.44-1.65C232.09,22.49,232.12,22.4,232.16,22.4Zm-14.79.65v-.54h-2.9v.54Zm-25.8-.5v.64h1.1v-.64Zm-1.78.64h1.11v-.64h-1.11ZM184,22.55v.64h1.37v-.64Zm-2,.64h1.36v-.64H182Zm18.81-.34v.61h3.27v-.61Zm-29.75,0a5.6,5.6,0,0,0,.59,1.12,5.76,5.76,0,0,0,.82,1.06,6,6,0,0,0,.86.71,6.12,6.12,0,0,0,.72-.72,4.75,4.75,0,0,0,.69-1.18,6.48,6.48,0,0,0,.38-1Zm7.38.75h1.61q.15,0,.15.12v2.4a1.46,1.46,0,0,0,.11.58.62.62,0,0,0,.25.28,1.61,1.61,0,0,0,.52.2,6,6,0,0,0,.88.06h2a15.82,15.82,0,0,0,2.69-.26.28.28,0,0,1,.13,0c.06,0,.08,0,.08,0a6.66,6.66,0,0,0-.19.77c0,.12-.06.17-.15.17H182a5.34,5.34,0,0,1-.69-.05c-.21-.05-.43-.11-.64-.18a2.13,2.13,0,0,1-.53-.3,2,2,0,0,1-.35-.56l0-.05s-.07,0-.08,0a3.82,3.82,0,0,0-.94,1s-.05.07-.08.07-.16-.16-.36-.49a.45.45,0,0,1-.05-.19,6.92,6.92,0,0,0,1.28-.86.4.4,0,0,0,0-.2v-1.9h-1.08c-.08,0-.12-.06-.12-.17v-.29C178.34,23.68,178.38,23.63,178.46,23.63Zm-17.16.65h2.52v-.61H161.3Zm31.37.11v-.64h-1.1v.64Zm-1.77,0v-.64h-1.11v.64Zm-5.51,0v-.67H184v.67Zm-2,0v-.67H182v.67Zm-78.93-.67h1.69c.1,0,.15,0,.15.11v2.21a1,1,0,0,0,.09.49.52.52,0,0,0,.22.26,1.12,1.12,0,0,0,.45.18,6,6,0,0,0,.77.06H110a17.89,17.89,0,0,0,2.93-.28l.15,0s.08,0,.08,0a5.49,5.49,0,0,0-.18.78c0,.11-.07.16-.16.16h-5a4,4,0,0,1-.61-.05,5.66,5.66,0,0,1-.59-.15,1.18,1.18,0,0,1-.47-.27,1.54,1.54,0,0,1-.33-.47l0,0h-.07a4,4,0,0,0-1,1.09.11.11,0,0,1-.09.07s-.16-.17-.36-.49a.46.46,0,0,1,0-.2,6.81,6.81,0,0,0,1.34-.95s0-.1,0-.22V24.35h-1.16c-.08,0-.12,0-.12-.15v-.3Q104.33,23.75,104.45,23.75Zm44,.08s.05,0,.06.07c.16.35.25.53.25.56a.24.24,0,0,1-.05.14c-.25.72-.48,1.34-.71,1.85-.13.29-.27.6-.44.95a1,1,0,0,0-.05.33c0,.07,0,.12-.08.12s-.25-.2-.6-.61a.13.13,0,0,1-.07-.11.25.25,0,0,1,0-.13,4.11,4.11,0,0,0,.47-.69,11.34,11.34,0,0,0,.65-1.26c.17-.43.34-.8.47-1.15C148.37,23.85,148.39,23.83,148.41,23.83Zm1.38.07h4.62c.1,0,.15,0,.15.11v3.72c0,.07-.05.12-.15.12H154c-.11,0-.15-.05-.15-.12v-.49h-3.57v.52c0,.08,0,.13-.15.13h-.38a.12.12,0,0,1-.14-.13V24.05C149.65,24,149.7,23.9,149.79,23.9Zm63,0h5.82c.06,0,.08,0,.08.11v.3c0,.07,0,.11-.08.11h-3.95a4.8,4.8,0,0,1-.3.52,1.25,1.25,0,0,1-.09.12h4.08c.07,0,.11,0,.11.08a12.25,12.25,0,0,1-.11,1.62,2.28,2.28,0,0,1-.27.88c-.11.21-.41.31-.9.31-.34,0-.52-.06-.54-.21a1.38,1.38,0,0,0-.21-.54v-.07a2.59,2.59,0,0,0,.75.1c.21,0,.35-.05.41-.17a2,2,0,0,0,.17-.59,6.69,6.69,0,0,0,.09-.92h-.64a9.15,9.15,0,0,1-.64,1,5.65,5.65,0,0,1-.65.74,5.75,5.75,0,0,1-.8.64.23.23,0,0,1-.16-.06c-.11-.13-.23-.23-.33-.34a.2.2,0,0,1,0-.08,4.51,4.51,0,0,0,.61-.42,4.88,4.88,0,0,0,.73-.72,6,6,0,0,0,.52-.75h-.75c-.29.39-.52.68-.72.91a6,6,0,0,1-.73.69,4.85,4.85,0,0,1-.9.57.19.19,0,0,1-.16-.05,3.51,3.51,0,0,0-.34-.33.3.3,0,0,1,0-.11,4.3,4.3,0,0,0,.69-.37,4.84,4.84,0,0,0,.82-.64,8.51,8.51,0,0,0,.58-.67h-1a5.23,5.23,0,0,1-.61.54,2.38,2.38,0,0,1-.46.28s-.08,0-.11-.12a4.26,4.26,0,0,0-.3-.32.48.48,0,0,1-.08-.11,8.13,8.13,0,0,0,.75-.4,5.46,5.46,0,0,0,.63-.58,3.48,3.48,0,0,0,.27-.42h-1.2c-.05,0-.07,0-.07-.11v-.3C212.71,24,212.73,23.94,212.78,23.94Zm-11.95,0v.18c0,.14,0,.26,0,.38h3.28v-.56Zm-50.51,2.71h3.57V24.5h-3.57Zm13.5-1.25v-.59H161.3v.59Zm37.12.19h3.68c.1,0,.15,0,.15.11v2.15c0,.08-.05.11-.15.11h-.38c-.09,0-.14,0-.14-.11v-.27h-2.63v.27c0,.08-.05.11-.15.11h-.38c-.1,0-.15,0-.15-.11V25.7C200.79,25.63,200.84,25.59,200.94,25.59Zm-40,.44.49.37a.26.26,0,0,1,.06.12s0,0-.06,0a.43.43,0,0,0-.19.06,6.1,6.1,0,0,1-.61.51,7.2,7.2,0,0,1-1,.52c-.08,0-.12,0-.14-.07s-.22-.18-.32-.27-.07,0-.07-.07l0,0a1.93,1.93,0,0,0,.47-.18,4.21,4.21,0,0,0,.7-.44,5,5,0,0,0,.57-.51S160.91,26,160.93,26Zm3.16.08a8.86,8.86,0,0,1,1,.57c.3.2.55.39.78.56,0,0,0,0,0,.07a2.85,2.85,0,0,1-.3.38,8.29,8.29,0,0,0-1-.74,5.5,5.5,0,0,0-.74-.39,1.79,1.79,0,0,1,.26-.38C164,26.13,164.06,26.11,164.09,26.11Zm37.38.91h2.63v-.87h-2.63Z"/><path class="cls-1" d="M237.24,43.86a3.38,3.38,0,0,1-2.52-.86,3.33,3.33,0,0,1-.86-2.5,3.37,3.37,0,0,1,.86-2.51,3.42,3.42,0,0,1,2.52-.85h2.59v1.4h-2.35a2.24,2.24,0,0,0-1.3.27,1.33,1.33,0,0,0-.35,1h4v1.41h-4a1.27,1.27,0,0,0,.33,1,2.15,2.15,0,0,0,1.31.27h2.36v1.4Z"/><path class="cls-1" d="M228.75,37.14h3a2.24,2.24,0,0,1,1.47.38,1.69,1.69,0,0,1,.42,1.31V40h-1.7v-.87a.7.7,0,0,0-.14-.52,1,1,0,0,0-.64-.14h-.62v5.43h-1.77Z"/><path class="cls-1" d="M223.3,37.14h1.25V34.7h1.77v2.44h1.87v1.34h-1.87v2.71a1.68,1.68,0,0,0,.25,1,1.18,1.18,0,0,0,.9.29h.72v1.34h-1.62a2,2,0,0,1-1.5-.55,2.15,2.15,0,0,1-.52-1.56V38.48H223.3Z"/><path class="cls-1" d="M216.8,37.14h3.34a3.27,3.27,0,0,1,2.16.57A2.41,2.41,0,0,1,223,39.6v4.26h-1.78v-4a1.38,1.38,0,0,0-.24-1,1.43,1.43,0,0,0-.93-.21h-1.43v5.24H216.8Z"/><path class="cls-1" d="M213.57,43.86a3.38,3.38,0,0,1-2.52-.86,3.33,3.33,0,0,1-.86-2.5,3.37,3.37,0,0,1,.86-2.51,3.42,3.42,0,0,1,2.52-.85h2.59v1.4h-2.35a2.22,2.22,0,0,0-1.3.27,1.29,1.29,0,0,0-.35,1h4v1.41h-4a1.27,1.27,0,0,0,.33,1,2.15,2.15,0,0,0,1.31.27h2.36v1.4Z"/><path class="cls-1" d="M206.67,36.27A1.93,1.93,0,0,0,205,37a4.53,4.53,0,0,0-.53,2.5,3.49,3.49,0,0,0,.5,2.13,2.16,2.16,0,0,0,1.75.61h3.16v1.6h-3.25a6.71,6.71,0,0,1-1.7-.18,3.38,3.38,0,0,1-1.16-.63,3.52,3.52,0,0,1-1.06-1.46,6,6,0,0,1-.34-2.14,5.22,5.22,0,0,1,1-3.59,4.21,4.21,0,0,1,3.27-1.16h3.2v1.57Z"/><path class="cls-1" d="M193.47,42.38h1.43V37.14h1.78v6.54a2.75,2.75,0,0,1-.63,2,2.56,2.56,0,0,1-1.9.63h-3.48V44.93h3.17a1.12,1.12,0,0,0,.78-.24.91.91,0,0,0,.28-.72v-.11h-1.57a3.17,3.17,0,0,1-2.15-.6,2.64,2.64,0,0,1-.64-2V37.14h1.76v4a1.53,1.53,0,0,0,.23,1A1.3,1.3,0,0,0,193.47,42.38Z"/><path class="cls-1" d="M185.09,37.14h3a2.22,2.22,0,0,1,1.46.38,1.69,1.69,0,0,1,.42,1.31V40h-1.69v-.87a.7.7,0,0,0-.14-.52,1,1,0,0,0-.64-.14h-.62v5.43h-1.78Z"/><path class="cls-1" d="M184,43.86h-3.34a3.1,3.1,0,0,1-2.13-.59,2.35,2.35,0,0,1-.66-1.87V37.14h1.77v4.12a1.29,1.29,0,0,0,.23.89,1.38,1.38,0,0,0,.93.23h1.43V37.14H184Z"/><path class="cls-1" d="M174.13,44.88a.73.73,0,0,0,.68-.32,2.07,2.07,0,0,0,.2-1.1V37.14h1.86v6.39a3.21,3.21,0,0,1-.57,2.1,2.22,2.22,0,0,1-1.8.66h-1.15V44.88Zm2.74-8.51H175V34.7h1.86Z"/><path class="cls-1" d="M167.85,37.14h3.34a3.27,3.27,0,0,1,2.16.57A2.41,2.41,0,0,1,174,39.6v4.26h-1.77v-4a1.39,1.39,0,0,0-.25-1,1.43,1.43,0,0,0-.93-.21h-1.43v5.24h-1.77Z"/><rect class="cls-1" x="164.61" y="34.7" width="2.01" height="9.16"/><path class="cls-1" d="M152.29,42.46H156a1.39,1.39,0,0,0,.73-.16.56.56,0,0,0,.23-.49.56.56,0,0,0-.23-.5,1.21,1.21,0,0,0-.73-.17H154.5a3,3,0,0,1-1.85-.42,1.86,1.86,0,0,1-.47-1.48,2,2,0,0,1,.57-1.59,2.65,2.65,0,0,1,1.8-.51h3.81v1.4h-3.13a2.39,2.39,0,0,0-1,.13.52.52,0,0,0-.23.48.52.52,0,0,0,.21.46,1.11,1.11,0,0,0,.63.14h1.61a2.48,2.48,0,0,1,1.68.52,1.85,1.85,0,0,1,.58,1.48,2.22,2.22,0,0,1-.51,1.52,1.68,1.68,0,0,1-1.33.59h-4.58Z"/><path class="cls-1" d="M147,37.14h1.25V34.7H150v2.44h1.87v1.34H150v2.71a1.68,1.68,0,0,0,.25,1,1.18,1.18,0,0,0,.9.29h.72v1.34h-1.62a2,2,0,0,1-1.5-.55,2.15,2.15,0,0,1-.52-1.56V38.48H147Z"/><path class="cls-1" d="M142.11,37.14h3a2.24,2.24,0,0,1,1.47.38,1.69,1.69,0,0,1,.42,1.31V40h-1.69v-.87a.7.7,0,0,0-.15-.52.94.94,0,0,0-.63-.14h-.63v5.43h-1.77Z"/><path class="cls-1" d="M141.52,40.5a3.38,3.38,0,0,1-1,2.53A3.58,3.58,0,0,1,138,44a3.62,3.62,0,0,1-2.6-.94,3.78,3.78,0,0,1,0-5.06,4,4,0,0,1,5.19,0A3.41,3.41,0,0,1,141.52,40.5Zm-5.27,0a2.22,2.22,0,0,0,.45,1.5,1.54,1.54,0,0,0,1.25.53A1.58,1.58,0,0,0,139.2,42a2.66,2.66,0,0,0,0-3,1.74,1.74,0,0,0-2.5,0A2.27,2.27,0,0,0,136.25,40.5Z"/><path class="cls-1" d="M127.55,37.14H131a3.18,3.18,0,0,1,2.41.9,3.59,3.59,0,0,1,.87,2.54,4.35,4.35,0,0,1-.18,1.23,3.74,3.74,0,0,1-.55,1,2.44,2.44,0,0,1-1.05.79,4.5,4.5,0,0,1-1.62.24h-1.53v2.43h-1.77Zm1.77,1.45v3.83h1.09a1.66,1.66,0,0,0,2-2A2.08,2.08,0,0,0,132,39a2,2,0,0,0-1.43-.42Z"/><path class="cls-1" d="M126.32,36.33h-4.75a1.84,1.84,0,0,0-1.13.3,1.06,1.06,0,0,0-.35.9.89.89,0,0,0,.3.74,1.39,1.39,0,0,0,.91.26h2.55a3.34,3.34,0,0,1,2.24.6,2.52,2.52,0,0,1,.68,2,2.56,2.56,0,0,1-.78,2.07,3.62,3.62,0,0,1-2.42.67h-5.13V42.23h4.82a2,2,0,0,0,1.16-.25.89.89,0,0,0,.33-.79,1,1,0,0,0-.3-.81,1.7,1.7,0,0,0-1.06-.25h-2.27a3.53,3.53,0,0,1-2.32-.63,2.49,2.49,0,0,1-.73-2,2.69,2.69,0,0,1,.77-2.13,3.65,3.65,0,0,1,2.44-.68h5Z"/><path class="cls-1" d="M111.68,40.1a5.38,5.38,0,0,1-1.61,3A4.68,4.68,0,0,1,107,44a3.94,3.94,0,0,1-2.45-.67,2.16,2.16,0,0,1-.89-1.83A2.38,2.38,0,0,1,104,40.3a2.64,2.64,0,0,1,.93-.92,2.49,2.49,0,0,1-.93-1,2.6,2.6,0,0,1-.32-1.31,2.26,2.26,0,0,1,.72-1.78,3.07,3.07,0,0,1,2.05-.64h3.08v1.7h-2.6a1.55,1.55,0,0,0-1,.28.89.89,0,0,0-.37.75,1.06,1.06,0,0,0,.3.8,1.18,1.18,0,0,0,.86.3h.62V40.1h-.6a1.08,1.08,0,0,0-.79.29,1.07,1.07,0,0,0-.31.79,1.08,1.08,0,0,0,.4.88,1.68,1.68,0,0,0,1.08.33,2.4,2.4,0,0,0,1.67-.57,3.21,3.21,0,0,0,.91-1.72h-1.29V38.53h4.44V40.1Z"/><path class="cls-1" d="M94.45,42.38h1.43V37.14h1.77v6.54a2.75,2.75,0,0,1-.62,2,2.56,2.56,0,0,1-1.9.63H91.65V44.93h3.17a1.12,1.12,0,0,0,.78-.24.91.91,0,0,0,.28-.72v-.11H94.31a3.16,3.16,0,0,1-2.15-.6,2.64,2.64,0,0,1-.64-2V37.14h1.76v4a1.47,1.47,0,0,0,.23,1A1.3,1.3,0,0,0,94.45,42.38Z"/><path class="cls-1" d="M84.28,37.14H87.7a3.16,3.16,0,0,1,2.41.9A3.54,3.54,0,0,1,91,40.58a4,4,0,0,1-.18,1.23,3.48,3.48,0,0,1-.55,1,2.42,2.42,0,0,1-1,.79,4.58,4.58,0,0,1-1.62.24H86.06v2.43H84.28Zm1.78,1.45v3.83h1.08A2.12,2.12,0,0,0,88.67,42a2.14,2.14,0,0,0,.45-1.51A2,2,0,0,0,88.71,39a2,2,0,0,0-1.43-.42Z"/><path class="cls-1" d="M76.81,37.14h3.63a3,3,0,0,1,2.08.63,2.44,2.44,0,0,1,.69,1.88v4.21H78.44a2.15,2.15,0,0,1-1.54-.51,1.85,1.85,0,0,1-.54-1.43A2,2,0,0,1,77,40.27,3.28,3.28,0,0,1,79,39.78h2.33v-.17a1,1,0,0,0-.34-.84,2.33,2.33,0,0,0-1.26-.24h-3Zm2.36,5.37h2.21V41.12H79.29a1.59,1.59,0,0,0-.85.16.66.66,0,0,0-.24.59.57.57,0,0,0,.19.5A1.48,1.48,0,0,0,79.17,42.51Z"/><path class="cls-1" d="M71.17,37.14h3a2.24,2.24,0,0,1,1.47.38A1.69,1.69,0,0,1,76,38.83V40h-1.7v-.87a.7.7,0,0,0-.14-.52,1,1,0,0,0-.64-.14h-.62v5.43H71.17Z"/><path class="cls-1" d="M67.94,43.86A3.42,3.42,0,0,1,65.41,43a3.37,3.37,0,0,1-.85-2.5A3.41,3.41,0,0,1,65.41,38a3.46,3.46,0,0,1,2.53-.85h2.59v1.4H68.18a2.22,2.22,0,0,0-1.3.27,1.3,1.3,0,0,0-.36,1h4v1.41h-4a1.31,1.31,0,0,0,.33,1,2.19,2.19,0,0,0,1.32.27h2.36v1.4Z"/><path class="cls-1" d="M57.76,34.7h1.76v2.44H61.1a3.22,3.22,0,0,1,2.14.58,2.35,2.35,0,0,1,.66,1.88v4.26H62.12V39.8a1,1,0,0,0-1.19-1.18H59.52v5.24H57.76Z"/><path class="cls-1" d="M52.31,37.14h1.25V34.7h1.77v2.44H57.2v1.34H55.33v2.71a1.63,1.63,0,0,0,.25,1,1.15,1.15,0,0,0,.9.3h.72v1.34H55.58a2,2,0,0,1-1.5-.55,2.15,2.15,0,0,1-.52-1.56V38.48H52.31Z"/><path class="cls-1" d="M52.38,40.5a3.38,3.38,0,0,1-1,2.53,3.58,3.58,0,0,1-2.59.94,3.62,3.62,0,0,1-2.6-.94,3.78,3.78,0,0,1,0-5.06,4,4,0,0,1,5.19,0A3.41,3.41,0,0,1,52.38,40.5Zm-5.27,0a2.22,2.22,0,0,0,.45,1.5,1.54,1.54,0,0,0,1.25.53A1.58,1.58,0,0,0,50.06,42a2.66,2.66,0,0,0,0-3,1.74,1.74,0,0,0-2.5,0A2.27,2.27,0,0,0,47.11,40.5Z"/><path class="cls-1" d="M44.66,36.37H42.8V34.7h1.86Zm0,7.49H42.8V37.14h1.86Z"/><path class="cls-1" d="M35.61,42.46h3.74a1.39,1.39,0,0,0,.73-.16.56.56,0,0,0,.23-.49.56.56,0,0,0-.23-.5,1.21,1.21,0,0,0-.73-.17H37.82A3,3,0,0,1,36,40.72a1.86,1.86,0,0,1-.47-1.48,2,2,0,0,1,.57-1.59,2.63,2.63,0,0,1,1.8-.51h3.81v1.4H38.55a2.36,2.36,0,0,0-1,.13.52.52,0,0,0-.23.48.52.52,0,0,0,.21.46,1.11,1.11,0,0,0,.63.14h1.61a2.48,2.48,0,0,1,1.68.52A1.85,1.85,0,0,1,42,41.75a2.22,2.22,0,0,1-.51,1.52,1.68,1.68,0,0,1-1.33.59H35.61Z"/><path class="cls-1" d="M31.41,42.38h1.43V37.14h1.77v6.54a2.75,2.75,0,0,1-.62,2,2.56,2.56,0,0,1-1.9.63H28.61V44.93h3.17a1.12,1.12,0,0,0,.78-.24.91.91,0,0,0,.28-.72v-.11H31.27a3.17,3.17,0,0,1-2.15-.6,2.64,2.64,0,0,1-.64-2V37.14h1.76v4a1.53,1.53,0,0,0,.23,1A1.3,1.3,0,0,0,31.41,42.38Z"/><path class="cls-1" d="M21.35,34.7h1.76v2.44h1.58a3.2,3.2,0,0,1,2.14.58,2.35,2.35,0,0,1,.67,1.88v4.26H25.71V39.8a1.3,1.3,0,0,0-.26-.94,1.3,1.3,0,0,0-.93-.24H23.11v5.24H21.35Z"/><path class="cls-1" d="M12.56,34.7h4.18a9.36,9.36,0,0,1,1.68.12,2.55,2.55,0,0,1,1,.34,2.67,2.67,0,0,1,.95,1.05,3.4,3.4,0,0,1,.31,1.48,3.55,3.55,0,0,1-.26,1.41,2.39,2.39,0,0,1-.79,1,2.86,2.86,0,0,1-1,.45,8.5,8.5,0,0,1-1.78.14H14.48v3.2H12.56Zm4.16,1.63H14.48V39h2.35a2.18,2.18,0,0,0,1.3-.33,1.24,1.24,0,0,0,.42-1,1.22,1.22,0,0,0-.42-1A2.47,2.47,0,0,0,16.72,36.33Z"/><path class="cls-2" d="M62.91,5.76a.37.37,0,0,1,.66.32.37.37,0,1,1-.66-.32"/><path class="cls-3" d="M62.8,5.71a.48.48,0,0,1,.65-.22.47.47,0,0,1,.22.64.48.48,0,0,1-.64.23A.5.5,0,0,1,62.8,5.71Z"/><path class="cls-4" d="M63.16,5.88a.09.09,0,0,1,.12,0,.09.09,0,0,1,0,.12.09.09,0,0,1-.12,0,.09.09,0,0,1,0-.13"/><path class="cls-3" d="M63.16,5.88a.09.09,0,0,1,.12,0,.09.09,0,0,1,0,.12.09.09,0,0,1-.12,0A.09.09,0,0,1,63.16,5.88Z"/><path class="cls-2" d="M68.46,6.18a.21.21,0,0,1,.29-.1.22.22,0,0,1,.11.29.24.24,0,0,1-.3.1.22.22,0,0,1-.1-.29"/><path class="cls-3" d="M68.4,6.15a.29.29,0,1,1,.14.38A.28.28,0,0,1,68.4,6.15Z"/><path class="cls-4" d="M68.61,6.25a.05.05,0,0,1,.07,0,.06.06,0,0,1,0,.07.05.05,0,0,1-.1,0"/><path class="cls-3" d="M68.61,6.25a.05.05,0,0,1,.07,0,.06.06,0,0,1,0,.07.05.05,0,0,1-.1,0Z"/><path class="cls-2" d="M69.28,6.12a.21.21,0,0,1,.29-.1.22.22,0,0,1,.1.29.22.22,0,0,1-.29.1.22.22,0,0,1-.1-.29"/><path class="cls-3" d="M69.22,6.09A.29.29,0,0,1,69.6,6a.28.28,0,0,1,.13.38.28.28,0,0,1-.38.14A.28.28,0,0,1,69.22,6.09Z"/><path class="cls-4" d="M69.43,6.19a.05.05,0,0,1,.07,0,.05.05,0,0,1,0,.08.06.06,0,0,1-.07,0,0,0,0,0,1,0-.07"/><path class="cls-3" d="M69.43,6.19a.05.05,0,0,1,.07,0,.05.05,0,0,1,0,.08.06.06,0,0,1-.07,0A0,0,0,0,1,69.43,6.19Z"/><path class="cls-2" d="M70,6.68a.21.21,0,0,1,.29-.1.21.21,0,1,1-.29.1"/><path class="cls-3" d="M70,6.65a.29.29,0,0,1,.39-.13.28.28,0,0,1,.13.38.28.28,0,0,1-.38.13A.28.28,0,0,1,70,6.65Z"/><path class="cls-4" d="M70.19,6.75a.07.07,0,0,1,.08,0,.08.08,0,0,1,0,.08.06.06,0,0,1-.07,0,.05.05,0,0,1,0-.07"/><path class="cls-3" d="M70.19,6.75a.07.07,0,0,1,.08,0,.08.08,0,0,1,0,.08.06.06,0,0,1-.07,0A.05.05,0,0,1,70.19,6.75Z"/><path class="cls-2" d="M70.73,7.44a.43.43,0,1,1,.2.58.44.44,0,0,1-.2-.58"/><path class="cls-3" d="M70.61,7.39a.56.56,0,0,1,.75-.27.57.57,0,1,1-.49,1A.57.57,0,0,1,70.61,7.39Z"/><path class="cls-4" d="M71,7.58a.11.11,0,1,1,0,.15.12.12,0,0,1,0-.15"/><path class="cls-3" d="M71,7.58a.11.11,0,1,1,0,.15A.12.12,0,0,1,71,7.58Z"/><path class="cls-2" d="M71.65,8.28a.22.22,0,0,1,.3-.1.21.21,0,0,1,.11.3.23.23,0,1,1-.41-.2"/><path class="cls-3" d="M71.58,8.25A.31.31,0,0,1,72,8.11a.3.3,0,0,1,.14.4.31.31,0,0,1-.41.14A.3.3,0,0,1,71.58,8.25Z"/><path class="cls-4" d="M71.8,8.36a.07.07,0,0,1,.08,0,.06.06,0,0,1,0,.08.05.05,0,0,1-.08,0,.05.05,0,0,1,0-.07"/><path class="cls-3" d="M71.8,8.36a.07.07,0,0,1,.08,0,.06.06,0,0,1,0,.08.05.05,0,0,1-.08,0A.05.05,0,0,1,71.8,8.36Z"/><path class="cls-2" d="M67.36,5.23c-4.53-2.64-6.11.15-4.87,2.8a14.64,14.64,0,0,0,3.39,4.91C64,11.77,62.82,9.7,61.71,7.83c-2-3.33,1.51-6.71,5.65-2.6"/><path class="cls-2" d="M66.05,13.07c2.91,0,6.2-1,7.6-4.09a3.71,3.71,0,0,0-6.4-3.6A22.9,22.9,0,0,0,66,13.06,28,28,0,0,1,67.4,6c2.47-2.84,6.52.36,5.37,3s-4.6,3.53-6.72,4.15"/><path class="cls-5" d="M12.64,8.21h4.07v9.3l7.62-9.3h4.89l-7.77,9.46,7.85,9.91H24.1L16.71,18v9.63H12.64V8.21m23,16.51h4.7V21.78H35.91a3.27,3.27,0,0,0-1.81.36,1.38,1.38,0,0,0-.5,1.23,1.21,1.21,0,0,0,.4,1.05A3,3,0,0,0,35.64,24.72Zm-5-11.35h7.69a6.37,6.37,0,0,1,4.39,1.33,5.12,5.12,0,0,1,1.47,4v8.91H34.11a4.61,4.61,0,0,1-3.26-1.07,3.94,3.94,0,0,1-1.14-3A4.23,4.23,0,0,1,31,20,7.07,7.07,0,0,1,35.38,19h4.94v-.36a2,2,0,0,0-.75-1.78,5,5,0,0,0-2.65-.51H30.65ZM55.08,24.64h2V16.41h-2a12.78,12.78,0,0,0-2,.1,3,3,0,0,0-1,.36,3.2,3.2,0,0,0-1.27,1.39,5.48,5.48,0,0,0-.4,2.24,4.2,4.2,0,0,0,1,3.21A5.38,5.38,0,0,0,55.08,24.64Zm5.73,2.42a6.08,6.08,0,0,1-1.31,4.3,5.38,5.38,0,0,1-4.07,1.37H48.07V29.84h6.72a2.39,2.39,0,0,0,1.66-.52A2,2,0,0,0,57,27.81v-.23H54a11.45,11.45,0,0,1-3.41-.36A5.22,5.22,0,0,1,48.64,26a6.25,6.25,0,0,1-1.56-2.4,8.55,8.55,0,0,1-.55-3.11,8.41,8.41,0,0,1,.55-3.07A6.29,6.29,0,0,1,48.64,15a5.18,5.18,0,0,1,2.13-1.29,11.19,11.19,0,0,1,3.2-.38h6.84Zm7.06-13.69V27.58H63.93V13.37Zm3.24,0h7.06c2.13,0,3.65.4,4.57,1.2a5.1,5.1,0,0,1,1.37,4v9H80.35V19A3,3,0,0,0,79.86,17a2.94,2.94,0,0,0-2-.47h-3V27.58H71.11V13.37M92.58,24.72h4.7V21.78H92.85a3.27,3.27,0,0,0-1.81.36,1.38,1.38,0,0,0-.5,1.23,1.21,1.21,0,0,0,.4,1.05A3,3,0,0,0,92.58,24.72Zm-5-11.35h7.69a6.37,6.37,0,0,1,4.39,1.33,5.12,5.12,0,0,1,1.47,4v8.91H91.05a4.61,4.61,0,0,1-3.26-1.07,3.94,3.94,0,0,1-1.14-3A4.23,4.23,0,0,1,88,20,7.07,7.07,0,0,1,92.32,19h4.94v-.36a2,2,0,0,0-.74-1.78,5,5,0,0,0-2.66-.51H87.59Z"/><path class="cls-2" d="M72.25,8.73a.15.15,0,0,1,.18-.06.12.12,0,0,1,.06.18.13.13,0,0,1-.17.06.14.14,0,0,1-.07-.18"/><path class="cls-6" d="M72.22,8.72a.17.17,0,0,1,.23-.09.18.18,0,0,1,.08.24A.18.18,0,0,1,72.3,9,.17.17,0,0,1,72.22,8.72Z"/><path class="cls-4" d="M72.35,8.78s0,0,0,0,0,0,0,.05a0,0,0,0,1,0,0,0,0,0,0,1,0,0"/><path class="cls-6" d="M72.35,8.78s0,0,0,0,0,0,0,.05a0,0,0,0,1,0,0A0,0,0,0,1,72.35,8.78Z"/><path class="cls-2" d="M65.12,5.91a.66.66,0,1,1,.31.88.66.66,0,0,1-.31-.88"/><path class="cls-3" d="M64.93,5.82A.87.87,0,1,1,65.34,7,.88.88,0,0,1,64.93,5.82Z"/><path class="cls-4" d="M65.57,6.12a.16.16,0,1,1,.07.22.16.16,0,0,1-.07-.22"/><path class="cls-3" d="M65.57,6.12a.16.16,0,1,1,.07.22A.16.16,0,0,1,65.57,6.12Z"/><path class="cls-2" d="M67.55,6.54a.25.25,0,0,1,.34-.12.26.26,0,0,1,.12.35.25.25,0,0,1-.34.12.26.26,0,0,1-.12-.35"/><path class="cls-3" d="M67.47,6.51a.34.34,0,0,1,.46-.17.35.35,0,0,1,.16.46.33.33,0,0,1-.46.16A.34.34,0,0,1,67.47,6.51Z"/><path class="cls-4" d="M67.72,6.63a.06.06,0,0,1,.09,0,.06.06,0,0,1,0,.08.06.06,0,0,1-.09,0,.06.06,0,0,1,0-.08"/><path class="cls-3" d="M67.72,6.63a.06.06,0,0,1,.09,0,.06.06,0,0,1,0,.08.06.06,0,0,1-.09,0A.06.06,0,0,1,67.72,6.63Z"/></svg>