<svg id="Layer_1" data-name="Layer 1" xmlns="http://www.w3.org/2000/svg" viewBox="0 0 110 110"><defs><style>.cls-1{fill:#5b7781;}</style></defs><path class="cls-1" d="M55,109.88a54.44,54.44,0,1,1,54.44-54.44A54.51,54.51,0,0,1,55,109.88ZM55,5.05a50.39,50.39,0,1,0,50.38,50.39A50.45,50.45,0,0,0,55,5.05Z"/><path class="cls-1" d="M23.16,95.64H19.07V69.94a9.4,9.4,0,0,1,9.39-9.39H48.65v4.09H28.46a5.3,5.3,0,0,0-5.29,5.3Z"/><polygon class="cls-1" points="32.34 101.56 28.25 101.56 28.25 75.93 26.63 72.69 30.29 70.86 32.34 74.96 32.34 101.56"/><path class="cls-1" d="M59.88,71.77h-4.1V14a2.54,2.54,0,0,0-5.08,0V33.22H46.61V14a6.64,6.64,0,1,1,13.27,0Z"/><path class="cls-1" d="M89.25,95.64H85.16V90.22c0-3.78.19-7.61.56-11.37.84-8.42,1.27-17,1.27-25.44h4.1c0,8.6-.44,17.29-1.29,25.85a108.26,108.26,0,0,0-.55,11Z"/><path class="cls-1" d="M71.51,83H52.32a5.72,5.72,0,0,1,0-11.44h17l6.82-17.07L79.92,56,72.07,75.65H52.32a1.63,1.63,0,0,0,0,3.25H71.51a7.74,7.74,0,0,0,7.15-4.74l7.93-18.84a5.19,5.19,0,0,0-4.78-7.2H70.6a13,13,0,0,1-12-7.92L56,34l3.76-1.61,2.65,6.17A9,9,0,0,0,70.6,44H81.81a9.28,9.28,0,0,1,8.56,12.88L82.44,75.74A11.84,11.84,0,0,1,71.51,83Z"/><rect class="cls-1" x="55.78" y="79.12" width="4.09" height="28.84"/><rect class="cls-1" x="57.83" y="86.25" width="29.37" height="4.09"/><path class="cls-1" d="M38.54,57.05A10.08,10.08,0,1,1,48.62,47,10.09,10.09,0,0,1,38.54,57.05Zm0-16.07a6,6,0,1,0,6,6A6,6,0,0,0,38.54,41Z"/><path class="cls-1" d="M73.87,41A10.08,10.08,0,1,1,84,30.9,10.09,10.09,0,0,1,73.87,41Zm0-16.06a6,6,0,1,0,6,6A6,6,0,0,0,73.87,24.92Z"/></svg>