<svg id="Layer_1" data-name="Layer 1" xmlns="http://www.w3.org/2000/svg" viewBox="0 0 625 625"><defs><style>.cls-1{fill:#d2ebf3;}.cls-2{fill:#f5a98d;}.cls-3{fill:#c3dae2;}.cls-4{fill:#374a4f;}.cls-5{fill:#5b7781;}.cls-6{fill:#95c6d1;}.cls-7{fill:#fcd4af;}.cls-8{fill:#fff;opacity:0.45;}</style></defs><rect class="cls-1" x="306.32" y="150.66" width="30.34" height="44.81"/><path class="cls-2" d="M316.67,271.76,289.12,263l23-71.91a16.78,16.78,0,0,1,21.35-10.78l1.12.37a16.79,16.79,0,0,1,10.17,22.23Z"/><path class="cls-3" d="M371.89,285.38l-3.77,15-69-22.87A14.38,14.38,0,0,1,290.76,258l4.87-10.81Z"/><path class="cls-3" d="M388.54,298.16c-5,7.29-10.28,10.59-14,8.8-9.09-4.32-14.49-9-13.13-15.44s5.31-12.26,14.85-9.08C391,287.37,392.22,292.75,388.54,298.16Z"/><path class="cls-4" d="M264.51,380.15l6.12-81.8,59.52,11.52-15.3,79.05c-8.67,33.85-40.9,53.55-55.44,33.6C253.13,413.9,264.51,380.15,264.51,380.15Z"/><path class="cls-4" d="M177.27,405.06s57.61-24.68,94.72-12.14c10.82,3.66,13,37.87,3,37.73-21.3-.31-101.74-4-101.74-4Z"/><path class="cls-5" d="M326.72,399.84l-46.57-69.46,51.91-24.59,34,73c10.43,22.37,4.88,66-18.6,58.38C337.31,433.86,326.72,399.84,326.72,399.84Z"/><path class="cls-5" d="M397,527.39s-47.31-55.16-54.23-93.71c-2-11.25,25.34-36.49,27.66-26.63,4.88,20.74,43.38,106.5,43.38,106.5Z"/><path class="cls-5" d="M450.41,518.49l-37.56,22.26c-10.45,4.7-18.86-6.69-18.86-6.69-3.58-5.74-.05-10.57,5.92-14.1l34.55-13.67c6-3.53,15.18-12.41,18.75-6.67C453.21,499.62,456.38,515,450.41,518.49Z"/><path class="cls-6" d="M452.61,498.27c2.4,3.86-.5,9.84-6.46,13.38l-37.56,22.26c-6,3.53-12.75,3.27-15.14-.58h0c-2.4-3.85-4.28-8.28-1.48-11.6l48.78-19.79c6-3.53,9.46-7.52,11.86-3.67Z"/><path class="cls-6" d="M450.27,496.7c1.65,4.21.26,8.83-3.92,10.42L420,517.1a8.27,8.27,0,0,1-10.58-4.75h0a8,8,0,0,1,4.6-10.5l21.31-.41C439.49,499.86,450.27,496.7,450.27,496.7Z"/><path class="cls-5" d="M151,456.49l-.67-43.65c1.11-11.41,15.18-13,15.18-13,6.76-.25,9.19,5.21,9.3,12.14l-5.3,36.78c.11,6.93,3.24,19.34-3.52,19.59C166,468.3,151.12,463.43,151,456.49Z"/><path class="cls-6" d="M167.48,468.44c-4.54.17-8.3-5.31-8.4-12.25l-.67-43.65c-.11-6.93,3.48-12.69,8-12.86h0c4.53-.17,9.31.4,10.8,4.48l-7,52.17c.11,6.93,1.83,11.94-2.7,12.11Z"/><path class="cls-6" d="M170,467.19c-4.47-.66-7.8-4.15-7.09-8.58l4.44-27.85a8.26,8.26,0,0,1,9.37-6.81h0a8,8,0,0,1,6.83,9.2l-10.23,18.69C172.62,456.27,170,467.19,170,467.19Z"/><path class="cls-1" d="M356.68,125.28c0,5.31,4.05,9.59,3.63,14.47-.11,1.27-4.33,4.49-4.95,7.53-2.28,11.23-8.52,18.76-25.55,16.54-14.72-1.92-26.87-17.26-26.87-38.54s12-38.54,26.87-38.54S356.68,104,356.68,125.28Z"/><path class="cls-5" d="M322.48,335.32l-5.35,5.74c-8.95,9.61-18.55,9.48-27.69,1l-20.86-13.71c-9.13-8.51-9.28-23.2-.33-32.8l5.34-5.74c9-9.61,23.62-10.5,32.75-2l15.8,14.72C331.28,311,331.43,325.71,322.48,335.32Z"/><path class="cls-6" d="M260.88,294.7l29.51-97.29c2.8-16.81,20.12-27.53,38.67-23.95l.68.13c18.55,3.58,24.52,25.28,21.71,42.09l-19.39,90.11C333,328.32,252.33,322.43,260.88,294.7Z"/><ellipse class="cls-4" cx="318.58" cy="201.98" rx="15.9" ry="16.54"/><path class="cls-1" d="M285,264.33l-24.1-16,5.64-10.7c7.9-15,18.83-33,29.54-46.09l4.58-5.1a26.59,26.59,0,0,1,7.84-6.1c5.68-2.82,11.85-3.42,17.65.57l1,.67a16.78,16.78,0,0,1,3.71,24.16l-4.48,7.39a221.87,221.87,0,0,1-28,36.93Z"/><path class="cls-1" d="M334.41,292.52l-11,12.43L266.59,265a14.37,14.37,0,0,1-2.73-21l7.64-9.07Z"/><path class="cls-1" d="M347.53,292.9c-1.12,2.14-4.47,2.23-9.52-.43s-10.32-1.75-9.2-3.88,8.35-5.77,13.39-3.11S348.66,290.77,347.53,292.9Z"/><path class="cls-4" d="M359.69,107.62c0,9.27-9.25,14.78-20.29,16.72-6.41,1.13-9.77,12.48-15.62,12.48-15.6,0-28.24-12-28.24-26.85s12.64-26.86,28.24-26.86S359.69,92.78,359.69,107.62Z"/><path class="cls-4" d="M334.19,119.85c0,17-12.48,30.81-27.87,30.81s-27.19-21.19-25-38.72c2.14-16.88,20.42-28.08,35.81-28.08S334.19,102.84,334.19,119.85Z"/><path class="cls-1" d="M331.59,138.33c2.42,6,1.94,6.06-3.47,8.22s-11.77-1-14.19-7,0-12.71,5.43-14.88S329.17,132.28,331.59,138.33Z"/><path class="cls-1" d="M347.53,316.18c-10.08,7-11.29,3.6-18.8-1.52-8.23-5.61-11.19-9.71-7.29-20.45,2.59-7.13,13.75-8.27,22.79-3.49,3.87,2,13.6,8.25,12.82,14.23C356.4,310,351.17,313.64,347.53,316.18Z"/><path class="cls-3" d="M369.31,294.92l-1.68-.59a4.17,4.17,0,0,1-2.56-5.33l2.6-7.41A4.19,4.19,0,0,1,373,279l4.95,1.74c1.64.58,1.78,1.73,1.42,3.18a8.33,8.33,0,0,1-1.16,2.6l-3.84,5.91C372.32,294.74,370.79,295.15,369.31,294.92Z"/><path class="cls-4" d="M322.07,221.92a26.22,26.22,0,1,1,26.35-26.21A26.31,26.31,0,0,1,322.07,221.92Zm0-50.44a24.23,24.23,0,1,0,24.37,24.23A24.32,24.32,0,0,0,322.07,171.48Z"/><path class="cls-4" d="M322.07,211.83a16.13,16.13,0,1,1,16.21-16.12A16.18,16.18,0,0,1,322.07,211.83Zm0-30.26a14.14,14.14,0,1,0,14.23,14.14A14.19,14.19,0,0,0,322.07,181.57Z"/><ellipse class="cls-4" cx="322.07" cy="195.71" rx="9.13" ry="9.08"/><path class="cls-4" d="M272,280.49a26.22,26.22,0,1,1,26.35-26.22A26.31,26.31,0,0,1,272,280.49ZM272,230a24.23,24.23,0,1,0,24.37,24.23A24.32,24.32,0,0,0,272,230Z"/><path class="cls-4" d="M272,270.4a16.13,16.13,0,1,1,16.21-16.13A16.19,16.19,0,0,1,272,270.4Zm0-30.27a14.14,14.14,0,1,0,14.23,14.14A14.2,14.2,0,0,0,272,240.13Z"/><ellipse class="cls-4" cx="271.95" cy="254.27" rx="9.13" ry="9.08"/><path class="cls-4" d="M395.66,530.37A26.22,26.22,0,1,1,422,504.16,26.31,26.31,0,0,1,395.66,530.37Zm0-50.44A24.23,24.23,0,1,0,420,504.16,24.33,24.33,0,0,0,395.66,479.93Z"/><path class="cls-4" d="M395.66,520.29a16.13,16.13,0,1,1,16.21-16.13A16.19,16.19,0,0,1,395.66,520.29Zm0-30.27a14.14,14.14,0,1,0,14.22,14.14A14.19,14.19,0,0,0,395.66,490Z"/><ellipse class="cls-4" cx="395.66" cy="504.16" rx="9.13" ry="9.08"/><path class="cls-7" d="M453.1,455.73c.47,3.46,4,6.1,5.71,7.76s3.78-.16,3.78-.16l-6.66-8.68Z"/><path class="cls-3" d="M409,435.05c10.15,7.73,25.39,22.76,40.82,34.7,3.52,2.72,6.22,1.24,9.14-2.11h0a8,8,0,0,0-.84-11.34c-14.3-12.21-29.31-24.71-39.47-32.45C412.44,419.11,403.87,431.13,409,435.05Z"/><path class="cls-4" d="M377,449.88A59.51,59.51,0,0,1,330,436.08a58.2,58.2,0,0,1-5.61-82.8h0a59.89,59.89,0,0,1,83.7-5.8,58.2,58.2,0,0,1,5.61,82.8A59.5,59.5,0,0,1,377,449.88Zm-49.55-93.95a54.2,54.2,0,0,0,5.22,77.12,55.89,55.89,0,0,0,78.09-5.42,54.2,54.2,0,0,0-5.22-77.12,55.87,55.87,0,0,0-78.09,5.42Z"/><path class="cls-8" d="M417.66,366.53a54.75,54.75,0,0,0-5.86-9,54.58,54.58,0,0,0-22.49-16.69,54.81,54.81,0,0,0-54.18,94,53.88,53.88,0,0,0,10.68,6.54,55.27,55.27,0,0,0,15,4.54,54.67,54.67,0,0,0,33.29-5.5,54.81,54.81,0,0,0,25.05-70.63C418.72,368.65,418.2,367.59,417.66,366.53Z"/><path class="cls-6" d="M421.38,368.75q-.7-1.62-1.53-3.21a55.12,55.12,0,0,0-17.31-19.79A54.91,54.91,0,0,0,348.11,341a54.82,54.82,0,0,1,47.23,7.5,54,54,0,0,1,11.46,10.75,54.75,54.75,0,0,1,5.86,9c.54,1.06,1.06,2.12,1.53,3.2a54.8,54.8,0,0,1-25.05,70.63c-.79.41-1.6.74-2.4,1.11a54.78,54.78,0,0,0,34.64-74.49Z"/><rect class="cls-5" x="437.9" y="472.38" width="75.51" height="15.96" transform="translate(407.9 -192.25) rotate(38.97)"/></svg>