<svg id="Layer_1" data-name="Layer 1" xmlns="http://www.w3.org/2000/svg" viewBox="0 0 625 625"><defs><style>.cls-1,.cls-8{fill:#95c6d1;}.cls-2{fill:#d2ebf3;}.cls-3,.cls-9{fill:#374a4f;}.cls-4,.cls-7{fill:#5b7781;}.cls-5{fill:#212f33;}.cls-15,.cls-6{fill:#c3dae2;}.cls-6,.cls-7,.cls-8,.cls-9{fill-rule:evenodd;}.cls-10{fill:none;stroke:#374a4f;stroke-linecap:round;stroke-linejoin:round;stroke-width:4px;}.cls-11{fill:#010101;opacity:0.3;}.cls-12{fill:#14a9a0;}.cls-13{fill:#384b51;}.cls-14{fill:#939599;}</style></defs><path class="cls-1" d="M338.13,297.75c8.79-3.81,8.5-6.74,6.62-17s1-13.19,11.55-15.53,18.47-13.19,17.59-19.05-5.28-3.23-10.56,0-12.25-2.93-16.41,6.44c-4.36,9.84-31.36,10.26-31.36,10.26v38.49S329.33,301.56,338.13,297.75Z"/><path class="cls-2" d="M284.19,252.61c-5.5-8.65-11.14-3.22-16.41-6.44s-9.67-5.87-10.55,0,7,16.7,17.58,19.05,13.42,5.27,11.55,15.53-2.17,13.19,6.63,17,22.57,3.61,22.57,3.61V262.87S290.93,263.21,284.19,252.61Z"/><path class="cls-2" d="M284.19,207.83c-5.5-8.65-11.14-3.22-16.41-6.45s-9.67-5.86-10.55,0,7,16.71,17.58,19.06,13.42,5.27,11.55,15.53-2.17,13.19,6.63,17,22.57,3.61,22.57,3.61V218.09S290.93,218.43,284.19,207.83Z"/><path class="cls-1" d="M338.13,253c8.79-3.81,8.5-6.74,6.62-17s1-13.19,11.55-15.53,18.47-13.19,17.59-19.06-5.28-3.22-10.56,0-12.25-2.92-16.41,6.45c-4.36,9.84-31.36,10.26-31.36,10.26v38.49S329.33,256.78,338.13,253Z"/><path class="cls-1" d="M338.13,208.19c8.79-3.81,8.5-6.74,6.62-17s1-13.19,11.55-15.53,18.47-13.19,17.59-19.06-5.28-3.22-10.56,0-12.25-2.92-16.41,6.45c-4.36,9.84-31.36,10.26-31.36,10.26V211.8S329.33,212,338.13,208.19Z"/><path class="cls-2" d="M284.19,163.05c-5.5-8.65-11.14-3.22-16.41-6.45s-9.67-5.86-10.55,0,7,16.71,17.58,19.06,13.42,5.27,11.55,15.53-2.17,13.19,6.63,17,22.57,3.61,22.57,3.61V173.31S290.93,173.65,284.19,163.05Z"/><path class="cls-1" d="M338.13,163.41c8.79-3.81,8.5-6.74,6.62-17s1-13.19,11.55-15.53,18.47-13.19,17.59-19.06-5.28-3.22-10.56,0-12.25-2.92-16.41,6.45c-4.36,9.84-31.36,10.26-31.36,10.26V167S329.33,167.22,338.13,163.41Z"/><path class="cls-2" d="M284.19,118.27c-5.5-8.65-11.14-3.22-16.41-6.45s-9.67-5.86-10.55,0,7,16.71,17.58,19.06,13.42,5.27,11.55,15.53-2.17,13.19,6.63,17S315.56,167,315.56,167V128.53S290.93,128.87,284.19,118.27Z"/><path class="cls-2" d="M284.19,73.49c-5.5-8.65-11.14-3.22-16.41-6.45s-9.67-5.86-10.55,0,7,16.71,17.58,19.06,13.42,5.27,11.55,15.53-2.17,13.19,6.63,17,22.57,3.61,22.57,3.61V83.75S290.93,84.09,284.19,73.49Z"/><path class="cls-1" d="M356.3,86.1c10.55-2.35,18.47-13.19,17.59-19.06s-5.28-3.22-10.56,0-12.25-2.92-16.41,6.45c-4.36,9.84-31.36,10.26-31.36,10.26v38.49s13.77.2,22.57-3.61,8.5-6.74,6.62-17S345.75,88.44,356.3,86.1Z"/><path class="cls-2" d="M284.19,28.71c-5.5-8.65-11.14-3.22-16.41-6.45s-9.67-5.86-10.55,0,7,16.71,17.58,19.06,13.42,5.27,11.55,15.53S284.19,70,293,73.85s22.57,3.61,22.57,3.61V39S290.93,39.31,284.19,28.71Z"/><path class="cls-1" d="M338.13,73.85c8.79-3.81,8.5-6.74,6.62-17s1-13.19,11.55-15.53,18.47-13.19,17.59-19.06-5.28-3.22-10.56,0-12.25-2.92-16.41,6.45C342.56,38.55,315.56,39,315.56,39V77.46S329.33,77.66,338.13,73.85Z"/><circle class="cls-3" cx="314.89" cy="183.87" r="20.95" transform="translate(84.59 466.58) rotate(-81.11)"/><polygon class="cls-4" points="354.03 177.56 340.03 177.56 344.04 158.16 329.28 181.3 344.37 181.3 339.27 200.7 354.03 177.56"/><polygon class="cls-4" points="383.41 93.07 362.03 93.07 368.15 63.43 345.6 98.79 368.65 98.79 360.86 128.42 383.41 93.07"/><polygon class="cls-4" points="288.78 223.08 254.34 223.08 264.21 175.37 227.89 232.28 265.01 232.28 252.46 279.99 288.78 223.08"/><path class="cls-2" d="M136.32,35.15l-.54.05a2.23,2.23,0,0,1,0-4.44h.52a2.19,2.19,0,0,1,0,4.38Zm-8.83,0-.53,0a2,2,0,1,1,0-4l.54-.25a2.1,2.1,0,0,1,0,4.19Zm-8.82-.56-.54.26a2.1,2.1,0,0,1,0-4.2h.53a2,2,0,1,1,0,3.94Zm-8.83,0-.53.23a2.09,2.09,0,0,1,0-4.17l.54,0a2,2,0,1,1,0,4Zm-8.82,0-.54.19a2.08,2.08,0,0,1-2.06-2.16,2.13,2.13,0,0,1,2.1-2.17l.52,0a2.06,2.06,0,1,1,0,4.11Zm-8.82,0-.54.16a2.18,2.18,0,0,1,0-4.36l.52,0a2.09,2.09,0,0,1,0,4.18Zm-8.83,0-.53.12a2,2,0,1,1,0-4.06l.54-.14a2,2,0,1,1,0,4.08Zm-8.82,0-.54.09a2,2,0,1,1,0-4l.53-.18a2.06,2.06,0,1,1,0,4.12Zm-8.83,0-.53,0a2,2,0,1,1,0-4l.54-.21a2.08,2.08,0,0,1,0,4.15Zm-8.82,0-.54,0a2,2,0,1,1,0-4l.53-.25a2.1,2.1,0,0,1,0,4.19ZM48.07,34l-.53.27a2,2,0,0,1-2.06-2.12A2.11,2.11,0,0,1,47.57,30l.52,0a2,2,0,1,1,0,4Zm-8.82,0-.54.23a2.08,2.08,0,0,1,0-4.16l.54,0a2,2,0,1,1,0,4Zm-8.82,0-.54.2a2.07,2.07,0,1,1,0-4.13l.53-.07a2,2,0,1,1,0,4ZM21.6,34l-.53.17a2.05,2.05,0,1,1,0-4.1l.54-.11a2,2,0,1,1,0,4Zm-8.82,0-.54.13a2,2,0,1,1,0-4.06l.53-.14a2,2,0,1,1,0,4.07ZM4,34l-.53.1a2,2,0,1,1,0-4L4,29.91A2.06,2.06,0,1,1,4,34Zm-8.82,0-.54.06a2,2,0,0,1-2.06-2,2,2,0,0,1,2.08-2l.54-.21A2,2,0,0,1-2.79,32,2,2,0,0,1-4.87,34Zm-8.82,0-.54,0a2,2,0,0,1-2.06-2,1.94,1.94,0,0,1,2.08-2l.53-.25A2,2,0,0,1-11.62,32,2,2,0,0,1-13.69,34Zm-8.83-.56s-.53.27-.53.27a2,2,0,0,1-2.06-2.12A2,2,0,0,1-23,29.52h.54a1.93,1.93,0,0,1,2.06,2A1.94,1.94,0,0,1-22.52,33.46Zm-8.82,0-.54.23a2,2,0,0,1-2.06-2.1,2,2,0,0,1,2.08-2.07l.53,0a1.94,1.94,0,0,1,2.06,2A1.94,1.94,0,0,1-31.34,33.46Zm-8.83,0-.53.2a2,2,0,0,1-2.06-2.09,2,2,0,0,1,2.07-2.05l.54-.06a2,2,0,0,1,2.06,2A2,2,0,0,1-40.17,33.46Z"/><path class="cls-2" d="M136.26,43l-.53.08a2.3,2.3,0,0,1,0-4.58l.54.09a2.21,2.21,0,0,1,0,4.41Zm-8.82,0-.54,0a2.28,2.28,0,0,1,0-4.54l.53.06a2.23,2.23,0,0,1,0,4.44Zm-8.83,0h-.53a2.26,2.26,0,0,1,0-4.51l.54,0a2.25,2.25,0,0,1,0,4.48Zm-8.82-.56-.53.25a2.4,2.4,0,0,1,0-4.75l.53.26a2.12,2.12,0,0,1,0,4.24Zm-8.82,0-.54.21a2.37,2.37,0,0,1,0-4.71l.53.23a2.14,2.14,0,0,1,0,4.27Zm-8.83,0-.53.18a2.36,2.36,0,0,1,0-4.68l.54.19a2.16,2.16,0,0,1,0,4.31Zm-8.82,0-.54.15a2.34,2.34,0,0,1,0-4.65l.53.16a2.17,2.17,0,0,1,0,4.34Zm-8.83,0-.53.11a2.2,2.2,0,0,1,0-4.4l.52,0a2.14,2.14,0,0,1,0,4.27Zm-8.82,0-.54.08a2.22,2.22,0,0,1,0-4.43l.51,0a2.17,2.17,0,0,1,0,4.33Zm-8.82,0-.54,0a2.28,2.28,0,0,1,0-4.54l.53.06a2.23,2.23,0,0,1,0,4.44Zm-8.83,0h-.53a2.26,2.26,0,0,1,0-4.51L48,38a2.25,2.25,0,0,1,0,4.48ZM39.2,41.9l-.54.25a2.4,2.4,0,0,1,0-4.75l.53.26a2.12,2.12,0,0,1,0,4.24Zm-8.83,0-.53.21a2.38,2.38,0,0,1,0-4.71l.54.23a2.14,2.14,0,0,1,0,4.27Zm-8.82,0-.54.18a2.36,2.36,0,0,1,0-4.68l.53.19a2.16,2.16,0,0,1,0,4.31Zm-8.83,0-.53.15a2.34,2.34,0,0,1,0-4.65l.54.16a2.17,2.17,0,0,1,0,4.34Zm-8.82,0L3.37,42a2.32,2.32,0,0,1,0-4.61l.53.12a2.19,2.19,0,0,1,0,4.38Zm-8.82,0-.54.07a2.2,2.2,0,0,1-2.06-2.3A2.21,2.21,0,0,1-5.44,37.4l.53.09a2.13,2.13,0,0,1,2.06,2.22A2.13,2.13,0,0,1-4.92,41.9Zm-8.83,0-.53,0a2.19,2.19,0,0,1-2.06-2.29,2.18,2.18,0,0,1,2.07-2.25l.54.05a2.15,2.15,0,0,1,2.06,2.24A2.15,2.15,0,0,1-13.75,41.9Zm-8.82,0h-.54a2.17,2.17,0,0,1-2.06-2.27,2.17,2.17,0,0,1,2.08-2.23l.53,0a2.16,2.16,0,0,1,2.06,2.26A2.16,2.16,0,0,1-22.57,41.9Zm-8.83-.57-.53.26A2.29,2.29,0,0,1-34,39.2a2.29,2.29,0,0,1,2.07-2.37s.54.27.54.27a2.06,2.06,0,0,1,2.06,2.13A2.05,2.05,0,0,1-31.4,41.33Zm-8.82,0-.54.22a2.28,2.28,0,0,1-2.06-2.37,2.28,2.28,0,0,1,2.08-2.35l.54.24a2.08,2.08,0,0,1,2.06,2.15A2.07,2.07,0,0,1-40.22,41.33Z"/><path class="cls-2" d="M136.21,50.89l-.54.1a2.21,2.21,0,0,1,0-4.41l.52,0a2.15,2.15,0,0,1,0,4.29Zm-8.83,0-.53.07a2.3,2.3,0,0,1,0-4.57l.54.08a2.21,2.21,0,0,1,0,4.42Zm-8.82,0-.54,0a2.27,2.27,0,0,1,0-4.53l.54,0a2.23,2.23,0,0,1,0,4.45Zm-8.82,0h-.54a2.26,2.26,0,0,1,0-4.5h.53a2.25,2.25,0,0,1,0,4.49Zm-8.83-.56-.53.24a2.39,2.39,0,0,1,0-4.74l.54.25a2.13,2.13,0,0,1,0,4.25Zm-8.82,0-.54.2a2.37,2.37,0,0,1,0-4.7l.53.22a2.14,2.14,0,0,1,0,4.28Zm-8.83,0-.53.17a2.35,2.35,0,0,1,0-4.67l.54.18a2.16,2.16,0,0,1,0,4.32Zm-8.82,0-.53.14a2.33,2.33,0,0,1,0-4.64l.53.15a2.18,2.18,0,0,1,0,4.35Zm-8.82,0-.54.1a2.31,2.31,0,0,1,0-4.6l.53.12a2.19,2.19,0,0,1,0,4.38Zm-8.83,0-.53.06a2.29,2.29,0,0,1,0-4.56l.54.08a2.21,2.21,0,0,1,0,4.42Zm-8.82,0-.54,0a2.24,2.24,0,0,1,0-4.46H48a2.22,2.22,0,0,1,0,4.42Zm-8.83,0h-.53a2.26,2.26,0,0,1,0-4.5h.54a2.25,2.25,0,0,1,0,4.49Zm-8.82-.56-.53.24a2.39,2.39,0,0,1,0-4.74l.53.25a2.13,2.13,0,0,1,0,4.25Zm-8.83,0L21,50a2.37,2.37,0,0,1,0-4.7l.54.22a2.14,2.14,0,0,1,0,4.28Zm-8.82,0-.53.17a2.35,2.35,0,0,1,0-4.67l.53.18a2.16,2.16,0,0,1,0,4.32Zm-8.82,0-.54.13a2.33,2.33,0,0,1,0-4.63l.53.15a2.18,2.18,0,0,1,0,4.35Zm-8.83,0-.53.1a2.22,2.22,0,0,1-2.06-2.32A2.21,2.21,0,0,1-5.5,45.27l.54.11A2.13,2.13,0,0,1-2.9,47.59,2.12,2.12,0,0,1-5,49.77Zm-8.82,0-.54.06a2.19,2.19,0,0,1-2.06-2.29,2.2,2.2,0,0,1,2.08-2.27l.53.08a2.13,2.13,0,0,1,2.06,2.22A2.12,2.12,0,0,1-13.8,49.77Zm-8.83,0-.53,0a2.18,2.18,0,0,1-2.06-2.28,2.19,2.19,0,0,1,2.07-2.25l.54,0a2.15,2.15,0,0,1,2.06,2.25A2.15,2.15,0,0,1-22.63,49.77Zm-8.82,0H-32A2.18,2.18,0,0,1-34,47.51,2.15,2.15,0,0,1-32,45.28h.52a2.18,2.18,0,0,1,2.07,2.26A2.17,2.17,0,0,1-31.45,49.77Zm-8.82-.56-.54.24a2.29,2.29,0,0,1-2.06-2.39,2.29,2.29,0,0,1,2.08-2.35l.53.25A2.06,2.06,0,0,1-38.2,47.1,2.06,2.06,0,0,1-40.27,49.21Z"/><path class="cls-2" d="M136.15,58.77l-.53.12a2.32,2.32,0,0,1,0-4.62l.54.13a2.19,2.19,0,0,1,0,4.37Zm-8.82,0-.53.08a2.3,2.3,0,0,1,0-4.58l.54.1a2.2,2.2,0,0,1,0,4.4Zm-8.82,0-.54,0a2.29,2.29,0,0,1,0-4.55l.53.06a2.23,2.23,0,0,1,0,4.44Zm-8.83,0h-.53a2.26,2.26,0,0,1,0-4.51l.54,0a2.25,2.25,0,0,1,0,4.48Zm-8.82,0-.54,0a2.25,2.25,0,0,1,0-4.48h.53a2.26,2.26,0,0,1,0,4.51ZM92,58.2l-.53.23a2.06,2.06,0,0,1-2.06-2.14,2.13,2.13,0,0,1,2.09-2.17l.52,0a2,2,0,1,1,0,4.05Zm-8.82,0-.54.19a2.36,2.36,0,0,1,0-4.68l.54.2a2.15,2.15,0,0,1,0,4.29Zm-8.82,0-.54.16a2.34,2.34,0,0,1,0-4.65l.53.16a2.17,2.17,0,0,1,0,4.33Zm-8.83,0-.53.12a2.32,2.32,0,0,1,0-4.61l.54.13a2.18,2.18,0,0,1,0,4.36Zm-8.82,0-.54.09a2.3,2.3,0,0,1,0-4.58l.53.09a2.2,2.2,0,0,1,0,4.4Zm-8.83,0-.53.06a2.29,2.29,0,0,1,0-4.55l.54.06a2.22,2.22,0,0,1,0,4.43Zm-8.82,0-.54,0a2.26,2.26,0,0,1,0-4.51l.53,0A2.16,2.16,0,0,1,41.16,56,2.14,2.14,0,0,1,39.09,58.2Zm-8.82,0h-.54a2.25,2.25,0,0,1,0-4.48h.53a2.26,2.26,0,0,1,0,4.5Zm-8.83-.56-.53.23a2.39,2.39,0,0,1,0-4.73l.54.24a2.13,2.13,0,0,1,0,4.26Zm-8.82,0-.54.19a2.36,2.36,0,0,1,0-4.69l.53.21a2.15,2.15,0,0,1,0,4.29Zm-8.83,0-.53.16a2.35,2.35,0,0,1,0-4.66l.54.17a2.17,2.17,0,0,1,0,4.33Zm-8.82,0-.54.12a2.23,2.23,0,0,1-2.06-2.32,2.23,2.23,0,0,1,2.08-2.3l.53.14A2.11,2.11,0,0,1-3,55.48,2.1,2.1,0,0,1-5,57.64Zm-8.83,0-.53.09a2.12,2.12,0,0,1-2.06-2.21,2.14,2.14,0,0,1,2.09-2.21l.52,0a2.09,2.09,0,0,1,2.06,2.17A2.09,2.09,0,0,1-13.86,57.64Zm-8.82,0-.54,0a2.2,2.2,0,0,1-2.06-2.29,2.2,2.2,0,0,1,2.08-2.26l.54.07a2.16,2.16,0,0,1,2.06,2.23A2.14,2.14,0,0,1-22.68,57.64Zm-8.82,0-.54,0a2.16,2.16,0,0,1-2.06-2.25A2.15,2.15,0,0,1-32,53.19h.52a2.15,2.15,0,0,1,2.06,2.24A2.14,2.14,0,0,1-31.5,57.64Zm-8.83,0-.53,0a2.16,2.16,0,0,1-2.06-2.25,2.15,2.15,0,0,1,2.07-2.23h.54a2.18,2.18,0,0,1,2.06,2.27A2.17,2.17,0,0,1-40.33,57.64Z"/><path class="cls-2" d="M136.1,66.64l-.53.14a2.19,2.19,0,0,1,0-4.38l.51,0a2.11,2.11,0,0,1,0,4.21Zm-8.82,0-.54.1a2.31,2.31,0,0,1,0-4.6l.53.12a2.19,2.19,0,0,1,0,4.38Zm-8.83,0-.53.07a2.3,2.3,0,0,1,0-4.57l.54.08a2.21,2.21,0,0,1,0,4.42Zm-8.82,0-.53,0a2.28,2.28,0,0,1,0-4.54l.53,0a2.23,2.23,0,0,1,0,4.45Zm-8.83,0h-.53a2.26,2.26,0,0,1,0-4.5l.54,0a2.25,2.25,0,0,1,0,4.48Zm-8.82,0-.53,0a2.24,2.24,0,0,1,0-4.47l.53,0a2.27,2.27,0,0,1,0,4.52Zm-8.82-.56-.54.21a2.37,2.37,0,0,1,0-4.71l.53.22a2.14,2.14,0,0,1,0,4.28Zm-8.83,0-.53.17a2.35,2.35,0,0,1,0-4.67l.54.19a2.16,2.16,0,0,1,0,4.31Zm-8.82,0-.54.14a2.34,2.34,0,0,1,0-4.64l.53.15a2.18,2.18,0,0,1,0,4.35Zm-8.83,0-.53.1a2.31,2.31,0,0,1,0-4.6l.54.12a2.19,2.19,0,0,1,0,4.38Zm-8.82,0-.53.07a2.22,2.22,0,0,1,0-4.43l.52,0a2.17,2.17,0,0,1,0,4.34Zm-8.82,0-.54,0a2.27,2.27,0,0,1,0-4.53l.53.05a2.23,2.23,0,0,1,0,4.45Zm-8.83,0h-.53a2.26,2.26,0,0,1,0-4.5h.54a2.25,2.25,0,0,1,0,4.49Zm-8.82,0-.54,0a2.24,2.24,0,0,1,0-4.46l.53,0a2.27,2.27,0,0,1,0,4.52Zm-8.83-.56-.53.21A2.38,2.38,0,0,1,12,61l.54.22a2.14,2.14,0,0,1,0,4.28Zm-8.82,0-.53.17a2.35,2.35,0,0,1,0-4.67l.53.19a2.16,2.16,0,0,1,0,4.31Zm-8.83,0-.53.14a2.24,2.24,0,0,1-2.06-2.34A2.24,2.24,0,0,1-5.61,61l.54.15A2.1,2.1,0,0,1-3,63.36,2.11,2.11,0,0,1-5.09,65.52Zm-8.82,0-.53.1a2.12,2.12,0,0,1-2.07-2.2,2.15,2.15,0,0,1,2.1-2.2l.51,0a2.09,2.09,0,0,1,2.07,2.15A2.08,2.08,0,0,1-13.91,65.52Zm-8.82,0-.54.07a2.21,2.21,0,0,1-2.06-2.3A2.2,2.2,0,0,1-23.25,61l.53.08a2.14,2.14,0,0,1,2.06,2.23A2.13,2.13,0,0,1-22.73,65.52Zm-8.83,0-.53,0a2.18,2.18,0,0,1-2.06-2.28A2.18,2.18,0,0,1-32.08,61l.54,0a2.15,2.15,0,0,1,2.06,2.24A2.15,2.15,0,0,1-31.56,65.52Zm-8.82,0h-.54A2.18,2.18,0,0,1-43,63.25,2.17,2.17,0,0,1-40.9,61h.53a2.16,2.16,0,0,1,2.06,2.26A2.16,2.16,0,0,1-40.38,65.52Z"/><path class="cls-2" d="M136.05,74.51l-.54.16a2.35,2.35,0,0,1,0-4.66l.53.18a2.16,2.16,0,0,1,0,4.32Zm-8.83,0-.53.13a2.33,2.33,0,0,1,0-4.63l.54.14a2.18,2.18,0,0,1,0,4.36Zm-8.82,0-.54.09a2.31,2.31,0,0,1,0-4.59l.53.11a2.2,2.2,0,0,1,0,4.39Zm-8.82,0-.54.06a2.29,2.29,0,0,1,0-4.56l.53.07a2.22,2.22,0,0,1,0,4.43Zm-8.83,0-.53,0a2.27,2.27,0,0,1,0-4.52l.54,0a2.24,2.24,0,0,1,0,4.46Zm-8.82,0h-.54a2.17,2.17,0,0,1-2.06-2.26A2.14,2.14,0,0,1,91.42,70h.52a2.26,2.26,0,0,1,0,4.5Zm-8.83,0-.53-.05a2.23,2.23,0,0,1,0-4.45l.54,0a2.27,2.27,0,0,1,0,4.53ZM74.28,74l-.54.2a2.37,2.37,0,0,1,0-4.7l.53.21a2.15,2.15,0,0,1,0,4.29Zm-8.83,0-.53.16a2.35,2.35,0,0,1,0-4.66l.54.18a2.16,2.16,0,0,1,0,4.32Zm-8.82,0-.54.13a2.33,2.33,0,0,1,0-4.63l.54.14a2.18,2.18,0,0,1,0,4.36Zm-8.82,0-.54.09a2.31,2.31,0,0,1,0-4.59l.53.11a2.2,2.2,0,0,1,0,4.39ZM39,74l-.53.06a2.29,2.29,0,0,1,0-4.56l.54.07A2.22,2.22,0,0,1,39,74Zm-8.82,0-.54,0a2.27,2.27,0,0,1,0-4.52l.53,0a2.24,2.24,0,0,1,0,4.46Zm-8.83,0H20.8a2.25,2.25,0,0,1,0-4.49h.54a2.26,2.26,0,0,1,0,4.5Zm-8.82,0-.53,0a2.23,2.23,0,0,1,0-4.45l.53,0a2.27,2.27,0,0,1,0,4.53Zm-8.82-.56-.54.2a2.37,2.37,0,0,1,0-4.7l.53.21a2.15,2.15,0,0,1,0,4.29Zm-8.83,0-.53.16A2.25,2.25,0,0,1-7.73,71.2a2.23,2.23,0,0,1,2.07-2.31l.54.18a2.1,2.1,0,0,1,2.06,2.18A2.09,2.09,0,0,1-5.14,73.39Zm-8.82,0-.54.13a2.24,2.24,0,0,1-2.06-2.33,2.24,2.24,0,0,1,2.08-2.3l.53.14a2.11,2.11,0,0,1,2.06,2.2A2.1,2.1,0,0,1-14,73.39Zm-8.83,0-.53.09a2.21,2.21,0,0,1-2.06-2.31,2.21,2.21,0,0,1,2.07-2.28l.54.11a2.12,2.12,0,0,1,2.06,2.21A2.13,2.13,0,0,1-22.79,73.39Zm-8.82,0-.54.06a2.21,2.21,0,0,1-2.06-2.3,2.2,2.2,0,0,1,2.08-2.26l.53.07a2.14,2.14,0,0,1,2.06,2.23A2.13,2.13,0,0,1-31.61,73.39Zm-8.83,0-.53,0A2.18,2.18,0,0,1-43,71.13,2.18,2.18,0,0,1-41,68.89l.54,0a2.15,2.15,0,0,1,2.06,2.25A2.15,2.15,0,0,1-40.44,73.39Z"/><path class="cls-2" d="M136,82.39l-.53.18a2.36,2.36,0,0,1,0-4.68l.54.19a2.16,2.16,0,0,1,0,4.31Zm-8.82,0-.54.14a2.34,2.34,0,0,1,0-4.64l.54.16a2.17,2.17,0,0,1,0,4.34Zm-8.82,0-.54.11a2.32,2.32,0,0,1,0-4.61l.53.12a2.19,2.19,0,0,1,0,4.38Zm-8.83,0-.53.07a2.3,2.3,0,0,1,0-4.57l.54.09a2.21,2.21,0,0,1,0,4.41Zm-8.82,0-.54,0a2.28,2.28,0,0,1,0-4.54l.53,0a2.23,2.23,0,0,1,0,4.45Zm-8.83,0h-.53a2.26,2.26,0,0,1,0-4.5l.54,0a2.25,2.25,0,0,1,0,4.48Zm-8.82,0-.54,0a2.24,2.24,0,0,1,0-4.47l.53,0a2.27,2.27,0,0,1,0,4.52Zm-8.83,0-.53-.07a2.22,2.22,0,0,1,0-4.43l.54,0a2.29,2.29,0,0,1,0,4.55Zm-8.82-.57-.54.19a2.36,2.36,0,0,1,0-4.68l.54.19a2.15,2.15,0,0,1,0,4.3Zm-8.82,0L56,82a2.34,2.34,0,0,1,0-4.64l.53.16a2.17,2.17,0,0,1,0,4.33Zm-8.83,0-.53.12a2.32,2.32,0,0,1,0-4.61l.54.12a2.19,2.19,0,0,1,0,4.37Zm-8.82,0-.54.08a2.3,2.3,0,0,1,0-4.57l.53.09a2.2,2.2,0,0,1,0,4.4Zm-8.83,0-.53.05a2.28,2.28,0,0,1,0-4.54l.54,0a2.23,2.23,0,0,1,0,4.44Zm-8.82,0h-.54a2.26,2.26,0,0,1,0-4.5l.54,0a2.24,2.24,0,0,1,0,4.47Zm-8.82,0-.54,0a2.24,2.24,0,0,1,0-4.47l.53,0a2.26,2.26,0,0,1,0,4.51Zm-8.83,0-.53-.06a2.22,2.22,0,0,1,0-4.43l.54,0a2.28,2.28,0,0,1,0,4.54Zm-8.82-.56-.54.19a2.26,2.26,0,0,1-2.06-2.36,2.27,2.27,0,0,1,2.08-2.33l.53.2a2.08,2.08,0,0,1,2.06,2.17A2.08,2.08,0,0,1-5.19,81.26Zm-8.83,0-.53.15a2.24,2.24,0,0,1-2.06-2.34,2.24,2.24,0,0,1,2.07-2.31l.54.17a2.1,2.1,0,0,1,2.06,2.18A2.1,2.1,0,0,1-14,81.26Zm-8.82,0-.54.12a2.24,2.24,0,0,1-2.06-2.33,2.23,2.23,0,0,1,2.08-2.29l.53.13a2.12,2.12,0,0,1,2.06,2.21A2.1,2.1,0,0,1-22.84,81.26Zm-8.83,0-.53.08A2.2,2.2,0,0,1-34.26,79a2.21,2.21,0,0,1,2.08-2.28l.53.1a2.13,2.13,0,0,1,2.06,2.22A2.13,2.13,0,0,1-31.67,81.26Zm-8.82,0-.54,0A2.2,2.2,0,0,1-43.09,79,2.2,2.2,0,0,1-41,76.76l.54.06a2.15,2.15,0,0,1,2.06,2.24A2.15,2.15,0,0,1-40.49,81.26Z"/><path class="cls-2" d="M135.94,90.82l-.53-.07a2.22,2.22,0,0,1,0-4.43l.53-.06a2.29,2.29,0,0,1,0,4.56Zm-8.82-.56-.54.17a2.35,2.35,0,0,1,0-4.67l.53.18a2.16,2.16,0,0,1,0,4.32Zm-8.83,0-.53.13a2.33,2.33,0,0,1,0-4.63l.54.15a2.18,2.18,0,0,1,0,4.35Zm-8.82,0-.54.1a2.31,2.31,0,0,1,0-4.6l.53.11a2.2,2.2,0,0,1,0,4.39Zm-8.83,0-.53.06a2.29,2.29,0,0,1,0-4.56l.54.08a2.21,2.21,0,0,1,0,4.42Zm-8.82,0-.53,0a2.27,2.27,0,0,1,0-4.53l.53,0a2.24,2.24,0,0,1,0,4.46Zm-8.82,0h-.54a2.25,2.25,0,0,1,0-4.49H83a2.25,2.25,0,0,1,0,4.49Zm-8.83,0-.53,0a2.24,2.24,0,0,1,0-4.46l.54,0a2.27,2.27,0,0,1,0,4.53Zm-8.82,0-.54-.08a2.21,2.21,0,0,1,0-4.42l.53-.06a2.29,2.29,0,0,1,0,4.56Zm-8.83-.56-.53.17a2.18,2.18,0,0,1,0-4.35l.52,0a2.08,2.08,0,0,1,0,4.16Zm-8.82,0-.54.13a2.33,2.33,0,0,1,0-4.63l.53.15a2.18,2.18,0,0,1,0,4.35Zm-8.83,0-.53.1a2.21,2.21,0,0,1,0-4.41l.52,0a2.15,2.15,0,0,1,0,4.29Zm-8.82,0-.54.06a2.22,2.22,0,0,1,0-4.43h.52a2.18,2.18,0,0,1,0,4.36Zm-8.82,0-.54,0a2.24,2.24,0,0,1,0-4.46h.52a2.22,2.22,0,0,1,0,4.42Zm-8.83,0h-.53a2.25,2.25,0,0,1,0-4.49h.54a2.25,2.25,0,0,1,0,4.49Zm-8.82,0-.54,0a2.24,2.24,0,0,1,0-4.46l.53,0a2.27,2.27,0,0,1,0,4.53Zm-8.83,0-.53-.08A2.13,2.13,0,0,1-7.84,87.4a2.13,2.13,0,0,1,2.07-2.2l.54-.06a2.2,2.2,0,0,1,2.06,2.29A2.2,2.2,0,0,1-5.25,89.7Zm-8.82-.56-.54.17A2.26,2.26,0,0,1-16.67,87a2.25,2.25,0,0,1,2.08-2.31l.54.18A2.1,2.1,0,0,1-12,87,2.09,2.09,0,0,1-14.07,89.14Zm-8.82,0-.54.13a2.1,2.1,0,0,1-2.06-2.18A2.13,2.13,0,0,1-23.4,84.9l.52,0A2,2,0,0,1-20.82,87,2,2,0,0,1-22.89,89.14Zm-8.83,0-.53.1a2.22,2.22,0,0,1-2.06-2.32,2.2,2.2,0,0,1,2.07-2.28l.53.11A2.13,2.13,0,0,1-29.64,87,2.13,2.13,0,0,1-31.72,89.14Zm-8.82,0-.54.06a2.2,2.2,0,0,1-2.06-2.3,2.2,2.2,0,0,1,2.08-2.26l.53.08a2.13,2.13,0,0,1,2.06,2.22A2.13,2.13,0,0,1-40.54,89.14Z"/><path class="cls-2" d="M135.89,98.7l-.54-.06a2.23,2.23,0,0,1,0-4.44l.53,0a2.29,2.29,0,0,1,0,4.55Zm-8.83,0-.53-.1a2.2,2.2,0,0,1,0-4.4l.54-.08a2.3,2.3,0,0,1,0,4.58Zm-8.82-.57-.54.16a2.35,2.35,0,0,1,0-4.66l.53.17a2.17,2.17,0,0,1,0,4.33Zm-8.83,0-.53.12a2.32,2.32,0,0,1,0-4.62l.54.14a2.18,2.18,0,0,1,0,4.36Zm-8.82,0-.54.09a2.31,2.31,0,0,1,0-4.59l.54.1a2.2,2.2,0,0,1,0,4.4Zm-8.82,0-.54.05a2.29,2.29,0,0,1,0-4.55l.53.07a2.22,2.22,0,0,1,0,4.43Zm-8.83,0-.53,0a2.27,2.27,0,0,1,0-4.52l.54,0a2.24,2.24,0,0,1,0,4.47Zm-8.82,0-.54,0a2.25,2.25,0,0,1,0-4.48h.53a2.26,2.26,0,0,1,0,4.5Zm-8.83,0-.53,0a2.23,2.23,0,0,1,0-4.45l.54,0a2.28,2.28,0,0,1,0,4.54Zm-8.82,0L55.93,98a2.21,2.21,0,0,1,0-4.41l.53-.07a2.3,2.3,0,0,1,0,4.57Zm-8.83-.56-.53.16a2.35,2.35,0,0,1,0-4.66l.54.17a2.17,2.17,0,0,1,0,4.33Zm-8.82,0-.54.12a2.32,2.32,0,0,1,0-4.62l.54.14a2.18,2.18,0,0,1,0,4.36Zm-8.82,0-.54.09a2.31,2.31,0,0,1,0-4.59l.53.1a2.2,2.2,0,0,1,0,4.4Zm-8.83,0-.53.05a2.29,2.29,0,0,1,0-4.55l.54.07a2.22,2.22,0,0,1,0,4.43Zm-8.82,0-.54,0a2.27,2.27,0,0,1,0-4.52l.53,0a2.24,2.24,0,0,1,0,4.47Zm-8.83,0-.53,0a2.25,2.25,0,0,1,0-4.48h.54a2.26,2.26,0,0,1,0,4.5Zm-8.82,0-.54,0A2.15,2.15,0,0,1-7.9,95.28a2.15,2.15,0,0,1,2.08-2.21l.54,0a2.2,2.2,0,0,1,2.06,2.29A2.19,2.19,0,0,1-5.3,97.57Zm-8.82,0-.54-.09a2.13,2.13,0,0,1-2.06-2.22,2.14,2.14,0,0,1,2.08-2.19l.53-.07A2.2,2.2,0,0,1-12,95.3,2.2,2.2,0,0,1-14.12,97.57ZM-22.95,97l-.53.16a2.25,2.25,0,0,1-2.06-2.35,2.23,2.23,0,0,1,2.07-2.31l.54.17a2.1,2.1,0,0,1,2.06,2.18A2.09,2.09,0,0,1-22.95,97Zm-8.82,0-.54.12a2.11,2.11,0,0,1-2.06-2.19,2.13,2.13,0,0,1,2.09-2.2l.52,0A2.06,2.06,0,0,1-29.7,94.9,2.05,2.05,0,0,1-31.77,97Zm-8.83,0-.53.09a2.22,2.22,0,0,1-2.06-2.31,2.2,2.2,0,0,1,2.07-2.28l.54.1a2.13,2.13,0,0,1,2.06,2.22A2.13,2.13,0,0,1-40.6,97Z"/><path class="cls-2" d="M135.83,106.57l-.53,0a2.24,2.24,0,0,1,0-4.46l.54,0a2.27,2.27,0,0,1,0,4.52Zm-8.82,0-.54-.07a2.22,2.22,0,0,1,0-4.43L127,102a2.29,2.29,0,0,1,0,4.56Zm-8.83,0-.53-.11a2.2,2.2,0,0,1,0-4.39l.54-.09a2.31,2.31,0,0,1,0,4.59Zm-8.82-.56-.53.14a2.33,2.33,0,0,1,0-4.64l.53.15a2.18,2.18,0,0,1,0,4.35Zm-8.82,0-.54.1a2.2,2.2,0,0,1,0-4.4l.52,0a2.14,2.14,0,0,1,0,4.28Zm-8.83,0-.53.07a2.3,2.3,0,0,1,0-4.57l.54.08a2.21,2.21,0,0,1,0,4.42Zm-8.82,0-.54,0a2.27,2.27,0,0,1,0-4.53l.53,0a2.23,2.23,0,0,1,0,4.45Zm-8.83,0h-.53a2.26,2.26,0,0,1,0-4.5h.54a2.25,2.25,0,0,1,0,4.49Zm-8.82,0-.54,0a2.24,2.24,0,0,1,0-4.46l.54,0a2.27,2.27,0,0,1,0,4.52Zm-8.82,0-.54-.07a2.19,2.19,0,0,1-2.06-2.29,2.16,2.16,0,0,1,2.09-2.24h.52a2.32,2.32,0,0,1,0,4.61Zm-8.83,0-.53-.11a2.2,2.2,0,0,1,0-4.39l.53-.09a2.31,2.31,0,0,1,0,4.59Zm-8.82-.57-.54.15a2.34,2.34,0,0,1,0-4.64l.53.15a2.17,2.17,0,0,1,0,4.34Zm-8.83,0-.53.11a2.31,2.31,0,0,1,0-4.6l.54.12a2.19,2.19,0,0,1,0,4.37Zm-8.82,0-.54.08a2.3,2.3,0,0,1,0-4.57l.53.08a2.14,2.14,0,0,1,2.06,2.23A2.11,2.11,0,0,1,21.12,105.44Zm-8.83,0-.53,0a2.27,2.27,0,0,1,0-4.53l.54,0a2.23,2.23,0,0,1,0,4.44Zm-8.82,0H2.94A2.25,2.25,0,0,1,3,101h.52a2.24,2.24,0,0,1,0,4.47Zm-8.82,0-.54,0a2.15,2.15,0,0,1-2.06-2.25A2.15,2.15,0,0,1-5.87,101l.53,0a2.18,2.18,0,0,1,2.06,2.27A2.17,2.17,0,0,1-5.35,105.44Zm-8.83,0-.53-.06a2.19,2.19,0,0,1-2.06-2.29,2.16,2.16,0,0,1,2.09-2.24h.52a2.23,2.23,0,0,1,2.06,2.32A2.22,2.22,0,0,1-14.18,105.44Zm-8.82,0-.54-.1a2.13,2.13,0,0,1-2.06-2.21A2.12,2.12,0,0,1-23.52,101l.53-.09a2.21,2.21,0,0,1,2.06,2.31A2.2,2.2,0,0,1-23,105.44Zm-8.83-.56-.53.15a2.1,2.1,0,0,1-2.06-2.19,2.13,2.13,0,0,1,2.09-2.18l.52,0a2,2,0,0,1,2.06,2.12A2,2,0,0,1-31.83,104.88Zm-8.82,0-.54.11a2.23,2.23,0,0,1-2.06-2.32,2.23,2.23,0,0,1,2.08-2.29l.54.13a2.12,2.12,0,0,1,2.06,2.2A2.12,2.12,0,0,1-40.65,104.88Z"/><path class="cls-2" d="M135.78,114.44h-.54a2.25,2.25,0,0,1,0-4.49h.53a2.26,2.26,0,0,1,0,4.5Zm-8.83,0-.53,0a2.23,2.23,0,0,1,0-4.45l.54,0a2.27,2.27,0,0,1,0,4.53Zm-8.82,0-.54-.08a2.21,2.21,0,0,1,0-4.42l.54-.07a2.3,2.3,0,0,1,0,4.57Zm-8.82,0-.54-.12a2.19,2.19,0,0,1,0-4.38l.53-.1a2.31,2.31,0,0,1,0,4.6Zm-8.83-.56L100,114a2.33,2.33,0,0,1,0-4.63l.54.14a2.18,2.18,0,0,1,0,4.36Zm-8.82,0-.54.09a2.31,2.31,0,0,1,0-4.59l.53.11a2.2,2.2,0,0,1,0,4.39Zm-8.83,0-.53.06a2.29,2.29,0,0,1,0-4.56l.54.07a2.22,2.22,0,0,1,0,4.43Zm-8.82,0-.53,0a2.27,2.27,0,0,1,0-4.52l.53,0a2.24,2.24,0,0,1,0,4.46Zm-8.82,0h-.54a2.25,2.25,0,0,1,0-4.49h.53a2.26,2.26,0,0,1,0,4.5Zm-8.83,0-.53,0a2.23,2.23,0,0,1,0-4.45l.54,0a2.27,2.27,0,0,1,0,4.53Zm-8.82,0L47,113.8a2.21,2.21,0,0,1,0-4.42l.53-.07a2.3,2.3,0,0,1,0,4.57Zm-8.83,0-.53-.12a2.21,2.21,0,0,1-2.06-2.31,2.16,2.16,0,0,1,2.09-2.25h.52a2.36,2.36,0,0,1,0,4.69Zm-8.82-.56-.54.13a2.33,2.33,0,0,1,0-4.63l.53.14a2.18,2.18,0,0,1,0,4.36Zm-8.83,0-.53.09a2.31,2.31,0,0,1,0-4.59l.54.11a2.2,2.2,0,0,1,0,4.39Zm-8.82,0-.53.06a2.29,2.29,0,0,1,0-4.56l.53.07a2.22,2.22,0,0,1,0,4.43Zm-8.82,0-.54,0a2.24,2.24,0,0,1,0-4.46h.52a2.22,2.22,0,0,1,0,4.43Zm-8.83,0h-.53A2.17,2.17,0,0,1-8,111.05a2.16,2.16,0,0,1,2.07-2.23h.54a2.18,2.18,0,0,1,2.06,2.27A2.17,2.17,0,0,1-5.41,113.32Zm-8.82,0-.54,0A2.19,2.19,0,0,1-16.83,111a2.18,2.18,0,0,1,2.09-2.24h.52a2.19,2.19,0,0,1,2.06,2.29A2.19,2.19,0,0,1-14.23,113.32Zm-8.83,0-.53-.08A2.14,2.14,0,0,1-25.65,111a2.13,2.13,0,0,1,2.07-2.19l.54-.07a2.2,2.2,0,0,1,2.06,2.3A2.21,2.21,0,0,1-23.06,113.32Zm-8.82,0-.53-.12a2.22,2.22,0,0,1-2.07-2.31,2.2,2.2,0,0,1,2.09-2.25h.52A2.27,2.27,0,0,1-29.8,111,2.27,2.27,0,0,1-31.88,113.32Zm-8.82-.56-.54.13a2.24,2.24,0,0,1-2.06-2.34,2.23,2.23,0,0,1,2.08-2.29l.53.14a2.11,2.11,0,0,1,2.06,2.2A2.11,2.11,0,0,1-40.7,112.76Z"/><path class="cls-2" d="M145.46,425.57l-.53.05a2.23,2.23,0,0,1,0-4.44h.52a2.19,2.19,0,0,1,0,4.38Zm-8.82,0-.54,0a2,2,0,1,1,0-4l.53-.25a2.1,2.1,0,0,1,0,4.19Zm-8.83-.56-.53.26a2.1,2.1,0,0,1,0-4.2h.54a2,2,0,1,1,0,3.94ZM119,425l-.53.23a2.09,2.09,0,0,1,0-4.17l.53,0a2,2,0,1,1,0,4Zm-8.82,0-.54.19a2.07,2.07,0,0,1-2.06-2.16,2.13,2.13,0,0,1,2.09-2.17l.52,0a2.06,2.06,0,1,1,0,4.11Zm-8.83,0-.53.16a2.18,2.18,0,0,1,0-4.36l.52,0a2.09,2.09,0,0,1,0,4.18Zm-8.82,0-.54.12a2,2,0,1,1,0-4.06l.53-.14a2,2,0,1,1,0,4.08Zm-8.83,0-.53.09a2,2,0,1,1,0-4l.54-.18a2.06,2.06,0,1,1,0,4.12Zm-8.82,0-.54.05a2,2,0,1,1,0-4l.54-.21a2.08,2.08,0,0,1,0,4.15Zm-8.82,0-.54,0a2,2,0,1,1,0-4l.53-.25a2.1,2.1,0,0,1,0,4.19Zm-8.83-.57-.53.27a2,2,0,0,1-2.06-2.12,2.11,2.11,0,0,1,2.09-2.16l.51,0a2,2,0,1,1,0,4Zm-8.82,0-.54.24a2.09,2.09,0,0,1,0-4.17l.53,0a2,2,0,1,1,0,4Zm-8.83,0-.53.2a2.07,2.07,0,1,1,0-4.13l.54-.07a2,2,0,1,1,0,4Zm-8.82,0-.54.17a2.05,2.05,0,1,1,0-4.1l.53-.11a2,2,0,1,1,0,4Zm-8.83,0-.53.13a2,2,0,1,1,0-4.06l.54-.14a2,2,0,1,1,0,4.07Zm-8.82,0-.53.1a2,2,0,1,1,0-4l.53-.18a2.06,2.06,0,1,1,0,4.11Zm-8.82,0-.54.06a2,2,0,1,1,0-4l.53-.21a2.07,2.07,0,0,1,0,4.14Zm-8.83,0-.53,0a1.94,1.94,0,0,1-2.06-2,1.93,1.93,0,0,1,2.07-2l.54-.25a2,2,0,0,1,2.06,2.11A2,2,0,0,1-4.55,424.44Zm-8.82-.56-.54.27A2,2,0,0,1-16,422,2,2,0,0,1-13.89,420h.53a1.93,1.93,0,0,1,2.06,2A1.93,1.93,0,0,1-13.37,423.88Zm-8.83,0-.53.24a2,2,0,0,1-2.06-2.1A2,2,0,0,1-22.72,420l.54,0a2,2,0,0,1,2.06,2A2,2,0,0,1-22.2,423.88Zm-8.82,0-.54.2A2,2,0,0,1-33.62,422,2,2,0,0,1-31.54,420l.54-.07a2,2,0,0,1,2.06,2A2,2,0,0,1-31,423.88Z"/><path class="cls-2" d="M145.41,433.44l-.53.08a2.3,2.3,0,0,1,0-4.58l.53.09a2.21,2.21,0,0,1,0,4.41Zm-8.83,0-.53,0a2.28,2.28,0,0,1,0-4.54l.54.06a2.23,2.23,0,0,1,0,4.44Zm-8.82,0h-.54a2.26,2.26,0,0,1,0-4.51l.54,0a2.25,2.25,0,0,1,0,4.48Zm-8.82-.56-.54.25a2.4,2.4,0,0,1,0-4.75l.53.27a2.12,2.12,0,0,1,0,4.23Zm-8.83,0-.53.22a2.38,2.38,0,0,1,0-4.72l.54.23a2.14,2.14,0,0,1,0,4.27Zm-8.82,0-.54.18a2.36,2.36,0,0,1,0-4.68l.53.2a2.15,2.15,0,0,1,0,4.3Zm-8.83,0-.53.15a2.34,2.34,0,0,1,0-4.65l.54.16a2.17,2.17,0,0,1,0,4.34Zm-8.82,0-.53.11a2.2,2.2,0,0,1,0-4.39h.52a2.14,2.14,0,0,1,0,4.27Zm-8.82,0-.54.08a2.13,2.13,0,0,1-2.06-2.22,2.15,2.15,0,0,1,2.09-2.21l.52,0a2.17,2.17,0,0,1,0,4.33Zm-8.83,0-.53,0a2.28,2.28,0,0,1,0-4.54l.54.06a2.23,2.23,0,0,1,0,4.44Zm-8.82,0h-.54a2.26,2.26,0,0,1,0-4.51l.53,0a2.25,2.25,0,0,1,0,4.48Zm-8.83-.56-.53.25a2.4,2.4,0,0,1,0-4.75l.54.27a2.12,2.12,0,0,1,0,4.23Zm-8.82,0-.53.22a2.38,2.38,0,0,1,0-4.72l.53.23a2.14,2.14,0,0,1,0,4.27Zm-8.83,0-.53.18a2.36,2.36,0,0,1,0-4.68l.54.2a2.15,2.15,0,0,1,0,4.3Zm-8.82,0-.53.15a2.34,2.34,0,0,1,0-4.65l.53.16a2.17,2.17,0,0,1,0,4.34Zm-8.82,0-.54.11a2.32,2.32,0,0,1,0-4.61l.53.13a2.19,2.19,0,0,1,0,4.37Zm-8.83,0-.53.08a2.3,2.3,0,0,1,0-4.58l.54.09a2.21,2.21,0,0,1,0,4.41Zm-8.82,0-.54,0a2.2,2.2,0,0,1-2.06-2.28,2.19,2.19,0,0,1,2.08-2.26l.53.06a2.14,2.14,0,0,1,2.06,2.23A2.13,2.13,0,0,1-4.6,432.32Zm-8.83,0H-14A2.18,2.18,0,0,1-16,430.06a2.17,2.17,0,0,1,2.07-2.24l.54,0a2.16,2.16,0,0,1,2.06,2.26A2.16,2.16,0,0,1-13.43,432.32Zm-8.82-.56-.53.25a2.3,2.3,0,0,1-2.07-2.39,2.29,2.29,0,0,1,2.08-2.36l.53.27a2.06,2.06,0,0,1,2.07,2.13A2.06,2.06,0,0,1-22.25,431.76Zm-8.82,0-.54.22a2.28,2.28,0,0,1-2.06-2.38,2.28,2.28,0,0,1,2.08-2.34l.53.23A2.07,2.07,0,0,1-29,429.64,2.07,2.07,0,0,1-31.07,431.76Z"/><path class="cls-2" d="M145.36,441.32l-.54.09a2.21,2.21,0,0,1,0-4.41l.52,0a2.15,2.15,0,0,1,0,4.3Zm-8.83,0-.53.06a2.29,2.29,0,0,1,0-4.56l.54.07a2.22,2.22,0,0,1,0,4.43Zm-8.82,0-.54,0a2.27,2.27,0,0,1,0-4.52l.53,0a2.24,2.24,0,0,1,0,4.46Zm-8.83,0h-.53a2.25,2.25,0,0,1,0-4.49h.54a2.26,2.26,0,0,1,0,4.5Zm-8.82-.57-.54.24a2.39,2.39,0,0,1,0-4.74l.53.26a2.12,2.12,0,0,1,0,4.24Zm-8.83,0-.53.21a2.37,2.37,0,0,1,0-4.71l.53.22a2.14,2.14,0,0,1,0,4.28Zm-8.82,0-.54.17a2.35,2.35,0,0,1,0-4.67l.54.19a2.16,2.16,0,0,1,0,4.31Zm-8.82,0-.54.14a2.34,2.34,0,0,1,0-4.64l.53.15a2.18,2.18,0,0,1,0,4.35Zm-8.83,0-.53.1a2.31,2.31,0,0,1,0-4.6l.54.12a2.19,2.19,0,0,1,0,4.38Zm-8.82,0-.54.07a2.3,2.3,0,0,1,0-4.57l.53.08a2.22,2.22,0,0,1,0,4.42Zm-8.83,0-.53,0a2.24,2.24,0,0,1,0-4.46h.52a2.21,2.21,0,0,1,0,4.42Zm-8.82,0h-.54a2.26,2.26,0,0,1,0-4.5h.54a2.19,2.19,0,0,1,2.06,2.27A2.16,2.16,0,0,1,48.29,440.75Zm-8.82-.56-.54.24a2.39,2.39,0,0,1,0-4.74l.53.26a2.12,2.12,0,0,1,0,4.24Zm-8.83,0-.53.21a2.38,2.38,0,0,1,0-4.71l.54.22a2.14,2.14,0,0,1,0,4.28Zm-8.82,0-.54.17a2.35,2.35,0,0,1,0-4.67l.53.19a2.16,2.16,0,0,1,0,4.31Zm-8.83,0-.53.14a2.34,2.34,0,0,1,0-4.64l.54.15a2.18,2.18,0,0,1,0,4.35Zm-8.82,0-.54.1a2.31,2.31,0,0,1,0-4.6l.53.12a2.19,2.19,0,0,1,0,4.38Zm-8.83,0-.53.07A2.2,2.2,0,0,1-7.25,438a2.2,2.2,0,0,1,2.08-2.27l.53.08A2.14,2.14,0,0,1-2.58,438,2.14,2.14,0,0,1-4.66,440.19Zm-8.82,0-.54,0a2.2,2.2,0,0,1-2.06-2.28A2.19,2.19,0,0,1-14,435.69l.54.05A2.15,2.15,0,0,1-11.4,438,2.15,2.15,0,0,1-13.48,440.19Zm-8.82,0h-.54a2.17,2.17,0,0,1-2.06-2.26,2.14,2.14,0,0,1,2.09-2.23h.52A2.16,2.16,0,0,1-20.23,438,2.16,2.16,0,0,1-22.3,440.19Zm-8.83-.56-.53.24a2.29,2.29,0,0,1-2.06-2.39,2.28,2.28,0,0,1,2.07-2.35l.54.26A2.06,2.06,0,0,1-29,437.52,2.06,2.06,0,0,1-31.13,439.63Z"/><path class="cls-2" d="M145.3,449.19l-.53.12a2.32,2.32,0,0,1,0-4.62l.54.13a2.19,2.19,0,0,1,0,4.37Zm-8.82,0-.54.08a2.3,2.3,0,0,1,0-4.58l.53.1a2.2,2.2,0,0,1,0,4.4Zm-8.83,0-.53.05a2.29,2.29,0,0,1,0-4.55l.54.06a2.23,2.23,0,0,1,0,4.44Zm-8.82,0h-.53a2.26,2.26,0,0,1,0-4.51l.53,0a2.24,2.24,0,0,1,0,4.47Zm-8.83,0-.53,0a2.25,2.25,0,0,1,0-4.48H110a2.26,2.26,0,0,1,0,4.51Zm-8.82-.56-.53.22a2.06,2.06,0,0,1-2.06-2.14,2.12,2.12,0,0,1,2.09-2.17l.51,0a2,2,0,1,1,0,4.06Zm-8.82,0-.54.19a2.36,2.36,0,0,1,0-4.69l.53.2a2.15,2.15,0,0,1,0,4.3Zm-8.83,0-.53.15a2.34,2.34,0,0,1,0-4.65l.54.17a2.17,2.17,0,0,1,0,4.33Zm-8.82,0-.54.12a2.32,2.32,0,0,1,0-4.62l.53.13a2.19,2.19,0,0,1,0,4.37Zm-8.83,0-.53.08a2.3,2.3,0,0,1,0-4.58l.54.1a2.2,2.2,0,0,1,0,4.4Zm-8.82,0-.53.05a2.28,2.28,0,0,1,0-4.55l.53.06a2.23,2.23,0,0,1,0,4.44Zm-8.82,0H47.7a2.26,2.26,0,0,1,0-4.51l.53,0a2.24,2.24,0,0,1,0,4.47Zm-8.83,0-.53,0a2.25,2.25,0,0,1,0-4.48h.54a2.26,2.26,0,0,1,0,4.51Zm-8.82-.57-.54.23a2.38,2.38,0,0,1,0-4.72l.53.24a2.13,2.13,0,0,1,0,4.25Zm-8.83,0-.53.2a2.36,2.36,0,0,1,0-4.69l.54.2a2.15,2.15,0,0,1,0,4.29Zm-8.82,0-.53.16a2.34,2.34,0,0,1,0-4.65l.53.17a2.16,2.16,0,0,1,0,4.32Zm-8.82,0-.54.13a2.32,2.32,0,0,1,0-4.62l.53.13a2.18,2.18,0,0,1,0,4.36Zm-8.83,0-.53.09a2.12,2.12,0,0,1-2.06-2.21,2.12,2.12,0,0,1,2.09-2.2h.51a2.1,2.1,0,0,1,2.07,2.17A2.09,2.09,0,0,1-4.71,448.06Zm-8.82,0-.54.06a2.2,2.2,0,0,1-2.06-2.3A2.19,2.19,0,0,1-14,443.57l.53.06a2.15,2.15,0,0,1,2.06,2.24A2.13,2.13,0,0,1-13.53,448.06Zm-8.83,0-.53,0a2.15,2.15,0,0,1-2.06-2.25,2.15,2.15,0,0,1,2.09-2.22h.52a2.15,2.15,0,0,1,2.06,2.24A2.15,2.15,0,0,1-22.36,448.06Zm-8.82,0h-.54a2.17,2.17,0,0,1-2.06-2.26,2.16,2.16,0,0,1,2.08-2.22h.53a2.17,2.17,0,0,1,2.06,2.27A2.16,2.16,0,0,1-31.18,448.06Z"/><path class="cls-2" d="M145.25,457.06l-.54.14a2.19,2.19,0,0,1,0-4.37l.52,0a2.11,2.11,0,0,1,0,4.21Zm-8.83,0-.53.11a2.32,2.32,0,0,1,0-4.61l.54.12a2.19,2.19,0,0,1,0,4.38Zm-8.82,0-.54.07a2.3,2.3,0,0,1,0-4.57l.54.09a2.21,2.21,0,0,1,0,4.41Zm-8.82,0-.54,0a2.28,2.28,0,0,1,0-4.54l.53.05a2.23,2.23,0,0,1,0,4.45Zm-8.83,0h-.53a2.26,2.26,0,0,1,0-4.5l.54,0a2.25,2.25,0,0,1,0,4.48Zm-8.82,0-.54,0a2.24,2.24,0,0,1,0-4.47l.53,0a2.27,2.27,0,0,1,0,4.52Zm-8.83-.56-.53.21a2.38,2.38,0,0,1,0-4.71l.54.23a2.14,2.14,0,0,1,0,4.27Zm-8.82,0-.53.18A2.36,2.36,0,0,1,83,452l.53.19a2.16,2.16,0,0,1,0,4.31Zm-8.83,0-.53.14a2.34,2.34,0,0,1,0-4.64l.54.16a2.17,2.17,0,0,1,0,4.34Zm-8.82,0-.54.11a2.32,2.32,0,0,1,0-4.61l.54.12a2.19,2.19,0,0,1,0,4.38Zm-8.82,0-.54.07a2.22,2.22,0,0,1,0-4.43l.52,0a2.17,2.17,0,0,1,0,4.34Zm-8.83,0-.53,0a2.28,2.28,0,0,1,0-4.54l.54.05a2.23,2.23,0,0,1,0,4.45Zm-8.82,0h-.54a2.26,2.26,0,0,1,0-4.5l.53,0a2.25,2.25,0,0,1,0,4.48Zm-8.83,0-.53,0A2.24,2.24,0,0,1,30,452l.54,0a2.27,2.27,0,0,1,0,4.52Zm-8.82-.56-.53.21a2.37,2.37,0,0,1,0-4.71l.53.23a2.14,2.14,0,0,1,0,4.27Zm-8.82,0-.54.18a2.36,2.36,0,0,1,0-4.68l.53.19a2.16,2.16,0,0,1,0,4.31Zm-8.83,0-.53.14a2.34,2.34,0,0,1,0-4.64l.54.16a2.17,2.17,0,0,1,0,4.34Zm-8.82,0-.54.11a2.13,2.13,0,0,1-2.06-2.21,2.13,2.13,0,0,1,2.09-2.19h.52a2.07,2.07,0,0,1,2.06,2.16A2.06,2.06,0,0,1-4.76,455.94Zm-8.83,0-.53.07a2.2,2.2,0,0,1-2.06-2.3,2.2,2.2,0,0,1,2.07-2.27l.54.09a2.13,2.13,0,0,1,2.06,2.22A2.14,2.14,0,0,1-13.59,455.94Zm-8.82,0-.53,0A2.21,2.21,0,0,1-25,453.69a2.19,2.19,0,0,1,2.08-2.25l.53.05a2.15,2.15,0,0,1,2.06,2.24A2.14,2.14,0,0,1-22.41,455.94Zm-8.83,0h-.53a2.17,2.17,0,0,1-2.06-2.27,2.17,2.17,0,0,1,2.07-2.23l.54,0a2.16,2.16,0,0,1,2.06,2.25A2.17,2.17,0,0,1-31.24,455.94Z"/><path class="cls-2" d="M145.19,464.94l-.53.16a2.35,2.35,0,0,1,0-4.66l.54.17a2.17,2.17,0,0,1,0,4.33Zm-8.82,0-.54.12a2.32,2.32,0,0,1,0-4.62l.54.14a2.18,2.18,0,0,1,0,4.36Zm-8.82,0L127,465a2.31,2.31,0,0,1,0-4.59l.53.1a2.2,2.2,0,0,1,0,4.4Zm-8.83,0-.53.05a2.29,2.29,0,0,1,0-4.55l.54.07a2.22,2.22,0,0,1,0,4.43Zm-8.82,0-.54,0a2.27,2.27,0,0,1,0-4.52l.53,0a2.24,2.24,0,0,1,0,4.47Zm-8.83,0-.53,0a2.25,2.25,0,0,1,0-4.49h.52a2.26,2.26,0,0,1,0,4.51Zm-8.82,0-.54-.05a2.23,2.23,0,0,1,0-4.45l.53,0a2.28,2.28,0,0,1,0,4.54Zm-8.82-.57-.54.2a2.37,2.37,0,0,1,0-4.7l.53.22a2.14,2.14,0,0,1,0,4.28Zm-8.83,0-.53.17a2.35,2.35,0,0,1,0-4.67l.54.18a2.16,2.16,0,0,1,0,4.32Zm-8.82,0-.54.13a2.33,2.33,0,0,1,0-4.63l.53.15a2.18,2.18,0,0,1,0,4.35Zm-8.83,0-.53.1a2.31,2.31,0,0,1,0-4.6L57,460a2.2,2.2,0,0,1,0,4.39Zm-8.82,0-.54.06a2.29,2.29,0,0,1,0-4.56l.53.08a2.22,2.22,0,0,1,0,4.42Zm-8.83,0-.53,0a2.27,2.27,0,0,1,0-4.53l.54,0a2.24,2.24,0,0,1,0,4.46Zm-8.82,0h-.54a2.25,2.25,0,0,1,0-4.49h.54a2.25,2.25,0,0,1,0,4.49Zm-8.82,0-.54,0a2.24,2.24,0,0,1,0-4.46l.53,0a2.27,2.27,0,0,1,0,4.53Zm-8.83-.56-.53.2a2.37,2.37,0,0,1,0-4.7l.54.21a2.15,2.15,0,0,1,0,4.29Zm-8.82,0-.54.16a2.35,2.35,0,0,1,0-4.66l.53.18a2.16,2.16,0,0,1,0,4.32Zm-8.83,0-.53.13a2.23,2.23,0,0,1-2.06-2.33,2.23,2.23,0,0,1,2.07-2.3l.54.14a2.12,2.12,0,0,1,2.06,2.2A2.11,2.11,0,0,1-4.82,463.81Zm-8.82,0-.54.1a2.23,2.23,0,0,1-2.06-2.32,2.22,2.22,0,0,1,2.08-2.28l.54.11a2.14,2.14,0,0,1,2.06,2.21A2.12,2.12,0,0,1-13.64,463.81Zm-8.83,0-.53.06a2.2,2.2,0,0,1-2.06-2.29A2.2,2.2,0,0,1-23,459.31l.53.08a2.13,2.13,0,0,1,2.06,2.22A2.14,2.14,0,0,1-22.47,463.81Zm-8.82,0-.53,0a2.19,2.19,0,0,1-2.06-2.28,2.17,2.17,0,0,1,2.07-2.25l.54,0a2.16,2.16,0,0,1,2.06,2.25A2.15,2.15,0,0,1-31.29,463.81Z"/><path class="cls-2" d="M145.14,472.81l-.53.18a2.36,2.36,0,0,1,0-4.68l.53.2a2.15,2.15,0,0,1,0,4.3Zm-8.82,0-.54.15a2.34,2.34,0,0,1,0-4.65l.53.16a2.17,2.17,0,0,1,0,4.34Zm-8.83,0-.53.11a2.32,2.32,0,0,1,0-4.61l.54.13a2.19,2.19,0,0,1,0,4.37Zm-8.82,0-.54.08a2.3,2.3,0,0,1,0-4.58l.53.09a2.21,2.21,0,0,1,0,4.41Zm-8.83,0-.53,0a2.28,2.28,0,0,1,0-4.54l.54.06a2.23,2.23,0,0,1,0,4.44Zm-8.82,0h-.53a2.26,2.26,0,0,1,0-4.51l.53,0a2.25,2.25,0,0,1,0,4.48Zm-8.82,0-.54,0a2.24,2.24,0,0,1,0-4.47h.53a2.26,2.26,0,0,1,0,4.51Zm-8.83,0-.53-.06a2.23,2.23,0,0,1,0-4.44l.54-.05a2.29,2.29,0,0,1,0,4.55Zm-8.82-.56-.54.18a2.36,2.36,0,0,1,0-4.68l.53.2a2.15,2.15,0,0,1,0,4.3Zm-8.83,0-.53.15a2.34,2.34,0,0,1,0-4.65l.54.16a2.17,2.17,0,0,1,0,4.34Zm-8.82,0-.53.11a2.32,2.32,0,0,1,0-4.61l.53.13a2.19,2.19,0,0,1,0,4.37Zm-8.83,0-.53.08a2.3,2.3,0,0,1,0-4.58l.54.09a2.21,2.21,0,0,1,0,4.41Zm-8.82,0-.53,0a2.28,2.28,0,0,1,0-4.54l.53.06a2.23,2.23,0,0,1,0,4.44Zm-8.82,0h-.54a2.26,2.26,0,0,1,0-4.51l.53,0a2.25,2.25,0,0,1,0,4.48Zm-8.83,0-.53,0a2.24,2.24,0,0,1,0-4.47h.54a2.26,2.26,0,0,1,0,4.51Zm-8.82,0-.54-.06a2.23,2.23,0,0,1,0-4.44l.53-.05a2.29,2.29,0,0,1,0,4.55ZM4,471.68l-.53.19a2.36,2.36,0,0,1,0-4.68l.54.19a2.15,2.15,0,0,1,0,4.3Zm-8.82,0-.53.16a2.26,2.26,0,0,1-2.07-2.35,2.24,2.24,0,0,1,2.08-2.3l.53.16a2.11,2.11,0,0,1,2.07,2.18A2.1,2.1,0,0,1-4.87,471.68Zm-8.82,0-.54.12a2.23,2.23,0,0,1-2.06-2.33,2.22,2.22,0,0,1,2.08-2.28l.53.13a2.1,2.1,0,0,1,2.06,2.2A2.11,2.11,0,0,1-13.69,471.68Zm-8.83,0-.53.09a2.21,2.21,0,0,1-2.06-2.31A2.19,2.19,0,0,1-23,467.19l.54.09a2.13,2.13,0,0,1,2.06,2.22A2.13,2.13,0,0,1-22.52,471.68Zm-8.82,0-.54.05a2.19,2.19,0,0,1-2.06-2.29,2.19,2.19,0,0,1,2.08-2.25l.53.06a2.14,2.14,0,0,1,2.06,2.23A2.14,2.14,0,0,1-31.34,471.68Z"/><path class="cls-2" d="M145.09,481.24l-.54-.07a2.21,2.21,0,0,1,0-4.42l.53-.07a2.29,2.29,0,0,1,0,4.56Zm-8.83-.56-.53.17a2.35,2.35,0,0,1,0-4.67l.54.19a2.16,2.16,0,0,1,0,4.31Zm-8.82,0-.54.14a2.34,2.34,0,0,1,0-4.64l.53.15a2.18,2.18,0,0,1,0,4.35Zm-8.83,0-.53.1a2.31,2.31,0,0,1,0-4.6l.54.12a2.19,2.19,0,0,1,0,4.38Zm-8.82,0-.54.07a2.3,2.3,0,0,1,0-4.57l.54.08a2.21,2.21,0,0,1,0,4.42Zm-8.82,0-.54,0a2.27,2.27,0,0,1,0-4.53l.53.05a2.23,2.23,0,0,1,0,4.45Zm-8.83,0h-.53a2.26,2.26,0,0,1,0-4.5h.54a2.25,2.25,0,0,1,0,4.49Zm-8.82,0-.54,0a2.24,2.24,0,0,1,0-4.46l.53,0a2.27,2.27,0,0,1,0,4.52Zm-8.83,0-.53-.07a2.22,2.22,0,0,1,0-4.43l.54-.06a2.29,2.29,0,0,1,0,4.56Zm-8.82-.56-.54.17a2.18,2.18,0,0,1,0-4.35l.52,0a2.08,2.08,0,0,1,0,4.16Zm-8.82,0-.54.13a2.33,2.33,0,0,1,0-4.63l.53.15a2.18,2.18,0,0,1,0,4.35Zm-8.83,0-.53.1a2.2,2.2,0,0,1,0-4.4H48a2.15,2.15,0,0,1,0,4.29Zm-8.82,0-.54.07a2.23,2.23,0,0,1,0-4.44l.52,0a2.18,2.18,0,0,1,0,4.35Zm-8.83,0-.53,0a2.24,2.24,0,0,1,0-4.46h.52a2.21,2.21,0,0,1,0,4.42Zm-8.82,0H21a2.26,2.26,0,0,1,0-4.5h.53a2.25,2.25,0,0,1,0,4.49Zm-8.83,0-.53,0a2.24,2.24,0,0,1,0-4.46l.54,0a2.27,2.27,0,0,1,0,4.52Zm-8.82,0-.53-.07a2.22,2.22,0,0,1,0-4.43l.53-.06a2.29,2.29,0,0,1,0,4.56Zm-8.82-.56-.54.17a2.25,2.25,0,0,1-2.06-2.35,2.25,2.25,0,0,1,2.08-2.32l.53.18a2.09,2.09,0,0,1,2.06,2.18A2.09,2.09,0,0,1-4.92,479.56Zm-8.83,0-.53.13a2.09,2.09,0,0,1-2.06-2.18,2.12,2.12,0,0,1,2.09-2.19l.52,0a2.05,2.05,0,0,1,2.06,2.12A2.05,2.05,0,0,1-13.75,479.56Zm-8.82,0-.54.1a2.23,2.23,0,0,1-2.06-2.32,2.22,2.22,0,0,1,2.08-2.28l.53.11a2.12,2.12,0,0,1,2.06,2.21A2.11,2.11,0,0,1-22.57,479.56Zm-8.83,0-.53.06a2.2,2.2,0,0,1-2.06-2.3,2.19,2.19,0,0,1,2.07-2.26l.54.08a2.14,2.14,0,0,1,2.06,2.23A2.14,2.14,0,0,1-31.4,479.56Z"/><path class="cls-2" d="M145,489.12l-.53-.06a2.23,2.23,0,0,1,0-4.44l.54,0a2.28,2.28,0,0,1,0,4.54Zm-8.82,0-.54-.09a2.21,2.21,0,0,1,0-4.41l.53-.08a2.3,2.3,0,0,1,0,4.58Zm-8.83-.56-.53.15a2.34,2.34,0,0,1,0-4.65l.54.17a2.17,2.17,0,0,1,0,4.33Zm-8.82,0-.53.12a2.32,2.32,0,0,1,0-4.62l.53.13a2.19,2.19,0,0,1,0,4.37Zm-8.82,0-.54.08a2.3,2.3,0,0,1,0-4.58l.53.1a2.2,2.2,0,0,1,0,4.4Zm-8.83,0-.53.05a2.29,2.29,0,0,1,0-4.55l.54.06a2.23,2.23,0,0,1,0,4.44Zm-8.82,0h-.54a2.26,2.26,0,0,1,0-4.51l.53,0a2.24,2.24,0,0,1,0,4.47Zm-8.83,0-.53,0a2.25,2.25,0,0,1,0-4.48h.54a2.26,2.26,0,0,1,0,4.51Zm-8.82,0-.54-.06a2.23,2.23,0,0,1,0-4.44l.54,0a2.28,2.28,0,0,1,0,4.54Zm-8.82,0-.54-.09a2.21,2.21,0,0,1,0-4.41l.53-.08a2.3,2.3,0,0,1,0,4.58ZM56.79,488l-.53.16a2.35,2.35,0,0,1,0-4.66l.54.17a2.17,2.17,0,0,1,0,4.33ZM48,488l-.54.12a2.32,2.32,0,0,1,0-4.62l.53.14A2.18,2.18,0,0,1,48,488Zm-8.83,0-.53.09a2.31,2.31,0,0,1,0-4.59l.54.1a2.2,2.2,0,0,1,0,4.4Zm-8.82,0-.54.05a2.29,2.29,0,0,1,0-4.55l.53.07a2.22,2.22,0,0,1,0,4.43Zm-8.83,0L21,488a2.27,2.27,0,0,1,0-4.52l.54,0a2.24,2.24,0,0,1,0,4.47Zm-8.82,0h-.53a2.25,2.25,0,0,1,0-4.49h.53a2.26,2.26,0,0,1,0,4.5Zm-8.82,0-.54-.05a2.23,2.23,0,0,1,0-4.45l.53,0a2.27,2.27,0,0,1,0,4.53ZM-5,488l-.53-.08a2.14,2.14,0,0,1-2.06-2.23,2.12,2.12,0,0,1,2.07-2.19l.54-.07a2.21,2.21,0,0,1,2.06,2.3A2.21,2.21,0,0,1-5,488Zm-8.82-.56-.54.16a2.25,2.25,0,0,1-2.06-2.35,2.25,2.25,0,0,1,2.08-2.31l.53.17a2.1,2.1,0,0,1,2.06,2.19A2.08,2.08,0,0,1-13.8,487.43Zm-8.83,0-.53.12a2.1,2.1,0,0,1-2.06-2.19,2.12,2.12,0,0,1,2.09-2.19l.52,0a2.06,2.06,0,0,1,2.06,2.13A2.06,2.06,0,0,1-22.63,487.43Zm-8.82,0-.54.09A2.22,2.22,0,0,1-34,485.21,2.22,2.22,0,0,1-32,482.93l.54.1a2.14,2.14,0,0,1,2.06,2.22A2.13,2.13,0,0,1-31.45,487.43Z"/><path class="cls-2" d="M145,497l-.53,0a2.24,2.24,0,0,1,0-4.47l.53,0a2.27,2.27,0,0,1,0,4.52Zm-8.83,0-.53-.07a2.22,2.22,0,0,1,0-4.43l.54-.05a2.29,2.29,0,0,1,0,4.55Zm-8.82,0-.54-.1a2.2,2.2,0,0,1,0-4.4l.54-.09a2.31,2.31,0,0,1,0,4.59Zm-8.82-.56-.54.14a2.34,2.34,0,0,1,0-4.64l.53.15a2.18,2.18,0,0,1,0,4.35Zm-8.83,0-.53.1a2.1,2.1,0,0,1-2.06-2.2,2.13,2.13,0,0,1,2.09-2.2l.52,0a2.14,2.14,0,0,1,0,4.28Zm-8.82,0-.54.07a2.3,2.3,0,0,1,0-4.57l.53.08a2.22,2.22,0,0,1,0,4.42Zm-8.83,0-.53,0a2.28,2.28,0,0,1,0-4.54l.54.05a2.23,2.23,0,0,1,0,4.45Zm-8.82,0h-.53a2.26,2.26,0,0,1,0-4.5l.53,0a2.25,2.25,0,0,1,0,4.48Zm-8.82,0-.54,0a2.24,2.24,0,0,1,0-4.47l.53,0a2.27,2.27,0,0,1,0,4.52Zm-8.83,0-.53-.07A2.19,2.19,0,0,1,63,494.07a2.16,2.16,0,0,1,2.09-2.24h.52a2.32,2.32,0,0,1,0,4.61Zm-8.82,0-.54-.1a2.2,2.2,0,0,1,0-4.4l.53-.09a2.31,2.31,0,0,1,0,4.59Zm-8.83-.56-.53.14a2.34,2.34,0,0,1,0-4.64l.54.15a2.18,2.18,0,0,1,0,4.35Zm-8.82,0-.53.1a2.31,2.31,0,0,1,0-4.6l.53.12a2.19,2.19,0,0,1,0,4.38Zm-8.82,0-.54.07a2.3,2.3,0,0,1,0-4.57l.54.08a2.22,2.22,0,0,1,0,4.42Zm-8.83,0-.53,0a2.28,2.28,0,0,1,0-4.54l.53.05a2.23,2.23,0,0,1,0,4.45Zm-8.82,0h-.54a2.25,2.25,0,0,1,0-4.48h.52a2.24,2.24,0,0,1,0,4.47Zm-8.83,0-.53,0a2.24,2.24,0,0,1,0-4.46l.54,0a2.27,2.27,0,0,1,0,4.52Zm-8.82,0-.54-.07a2.2,2.2,0,0,1-2.06-2.29,2.18,2.18,0,0,1,2.09-2.24H-5A2.2,2.2,0,0,1-3,493.58,2.21,2.21,0,0,1-5,495.87Zm-8.83,0-.53-.11a2.11,2.11,0,0,1-2.06-2.21,2.13,2.13,0,0,1,2.07-2.18l.54-.09a2.21,2.21,0,0,1,2.06,2.31A2.22,2.22,0,0,1-13.86,495.87Zm-8.82-.57-.53.15a2.11,2.11,0,0,1-2.07-2.18,2.13,2.13,0,0,1,2.09-2.19l.52,0a2.05,2.05,0,0,1,2.07,2.12A2,2,0,0,1-22.68,495.3Zm-8.82,0-.54.11a2.22,2.22,0,0,1-2.06-2.32A2.22,2.22,0,0,1-32,490.81l.53.12a2.12,2.12,0,0,1,2.06,2.2A2.11,2.11,0,0,1-31.5,495.3Z"/><path class="cls-2" d="M144.93,504.86h-.54a2.25,2.25,0,0,1,0-4.48h.53a2.25,2.25,0,0,1,0,4.49Zm-8.83,0-.53,0a2.17,2.17,0,0,1-2.07-2.25,2.15,2.15,0,0,1,2.08-2.2l.54,0a2.27,2.27,0,0,1,0,4.53Zm-8.82,0-.54-.08a2.21,2.21,0,0,1,0-4.41l.53-.07a2.29,2.29,0,0,1,0,4.56Zm-8.83,0-.53-.11a2.19,2.19,0,0,1,0-4.38l.54-.11a2.31,2.31,0,0,1,0,4.6Zm-8.82-.56-.54.13a2.33,2.33,0,0,1,0-4.63l.53.14a2.18,2.18,0,0,1,0,4.36Zm-8.83,0-.53.09a2.31,2.31,0,0,1,0-4.59l.54.11a2.2,2.2,0,0,1,0,4.39Zm-8.82,0-.54.06a2.29,2.29,0,0,1,0-4.56l.54.07a2.22,2.22,0,0,1,0,4.43Zm-8.82,0-.54,0a2.27,2.27,0,0,1,0-4.53l.53,0a2.24,2.24,0,0,1,0,4.46Zm-8.83,0H73.8a2.25,2.25,0,0,1,0-4.49h.54a2.25,2.25,0,0,1,0,4.49Zm-8.82,0-.54-.05a2.23,2.23,0,0,1,0-4.45l.53,0a2.27,2.27,0,0,1,0,4.53Zm-8.83,0-.53-.08a2.22,2.22,0,0,1,0-4.42l.54-.07a2.3,2.3,0,0,1,0,4.57Zm-8.82,0-.54-.11a2.23,2.23,0,0,1-2.06-2.32,2.17,2.17,0,0,1,2.1-2.25h.52a2.36,2.36,0,0,1,0,4.69ZM39,503.74l-.54.13a2.33,2.33,0,0,1,0-4.63l.53.14a2.18,2.18,0,0,1,0,4.36Zm-8.83,0-.53.09a2.31,2.31,0,0,1,0-4.59l.54.11a2.2,2.2,0,0,1,0,4.39Zm-8.82,0-.54.06a2.29,2.29,0,0,1,0-4.56l.53.07a2.22,2.22,0,0,1,0,4.43Zm-8.83,0-.53,0A2.14,2.14,0,0,1,10,501.52a2.17,2.17,0,0,1,2.09-2.22h.52a2.22,2.22,0,0,1,0,4.43Zm-8.82,0H3.2a2.25,2.25,0,0,1,0-4.49h.53a2.26,2.26,0,0,1,0,4.5Zm-8.83,0-.53-.05a2.17,2.17,0,0,1-2.06-2.27,2.18,2.18,0,0,1,2.09-2.24h.52A2.2,2.2,0,0,1-3,501.47,2.2,2.2,0,0,1-5.09,503.74Zm-8.82,0-.54-.08a2.15,2.15,0,0,1-2.06-2.23,2.14,2.14,0,0,1,2.08-2.19l.54-.07a2.21,2.21,0,0,1,2.06,2.3A2.2,2.2,0,0,1-13.91,503.74Zm-8.82,0-.54-.11a2.23,2.23,0,0,1-2.06-2.32,2.19,2.19,0,0,1,2.09-2.25h.52a2.26,2.26,0,0,1,2.06,2.36A2.26,2.26,0,0,1-22.73,503.74Zm-8.83-.56-.53.13A2.24,2.24,0,0,1-34.15,501a2.22,2.22,0,0,1,2.07-2.3l.54.14a2.12,2.12,0,0,1,2.06,2.2A2.11,2.11,0,0,1-31.56,503.18Z"/><polygon class="cls-5" points="625 625 295.54 625 432.89 0 625 0 625 625"/><path class="cls-2" d="M688.53,481.57l-.54.05a2.23,2.23,0,0,1,0-4.44h.52a2.19,2.19,0,0,1,0,4.38Zm-8.83,0-.53,0a2,2,0,1,1,0-4l.54-.25a2.1,2.1,0,0,1,0,4.19Zm-8.82-.57-.54.27a2.1,2.1,0,0,1,0-4.2h.54a2,2,0,1,1,0,3.93Zm-8.82,0-.54.23a2.08,2.08,0,0,1,0-4.16l.53,0a2,2,0,1,1,0,4Zm-8.83,0-.53.2a2.07,2.07,0,0,1-2.06-2.16,2.12,2.12,0,0,1,2.09-2.17l.52,0a2.06,2.06,0,1,1,0,4.11Zm-8.82,0-.54.16a2.08,2.08,0,0,1-2.06-2.17,2.12,2.12,0,0,1,2.09-2.19l.52,0a2.09,2.09,0,0,1,0,4.17Zm-8.83,0-.53.13a2,2,0,1,1,0-4.06l.54-.14a2,2,0,1,1,0,4.07Zm-8.82,0-.53.09a2,2,0,1,1,0-4l.53-.18a2.06,2.06,0,1,1,0,4.11Zm-8.83,0-.53.06a2,2,0,1,1,0-4l.54-.21a2.07,2.07,0,1,1,0,4.14Zm-8.82,0-.53,0a2,2,0,1,1,0-3.95l.54-.25a2.09,2.09,0,0,1,0,4.18Zm-8.82-.56-.54.27a2,2,0,0,1-2.06-2.12,2.11,2.11,0,0,1,2.09-2.16l.52,0a2,2,0,1,1,0,4Zm-8.83,0-.53.23a2.09,2.09,0,0,1,0-4.17l.54,0a2,2,0,1,1,0,4Zm-8.82,0-.54.2a2.07,2.07,0,1,1,0-4.14l.53-.07a2,2,0,1,1,0,4Zm-8.83,0-.53.16a2.05,2.05,0,1,1,0-4.1l.54-.1a2,2,0,1,1,0,4Zm-8.82,0-.53.13a2,2,0,1,1,0-4.07l.53-.14a2,2,0,1,1,0,4.08Zm-8.82,0-.54.09a2,2,0,1,1,0-4l.53-.17a2.06,2.06,0,1,1,0,4.11Zm-8.83,0-.53.06a2,2,0,1,1,0-4l.54-.2a2.07,2.07,0,1,1,0,4.14Zm-8.82,0-.54,0a2,2,0,1,1,0-4l.53-.24a2.09,2.09,0,0,1,0,4.18Zm-8.83-.56-.53.27a2.11,2.11,0,0,1,0-4.21h.54a2,2,0,1,1,0,3.94Zm-8.82,0-.53.23a2.09,2.09,0,0,1,0-4.17l.53,0a2,2,0,1,1,0,4Zm-8.83,0-.53.2a2.07,2.07,0,1,1,0-4.14l.53-.07a2,2,0,1,1,0,4Z"/><path class="cls-2" d="M688.47,489.44l-.53.07a2.3,2.3,0,0,1,0-4.57l.54.09a2.21,2.21,0,0,1,0,4.41Zm-8.82,0-.54,0a2.28,2.28,0,0,1,0-4.54l.54.05a2.23,2.23,0,0,1,0,4.45Zm-8.82,0h-.54a2.26,2.26,0,0,1,0-4.5l.53,0a2.25,2.25,0,0,1,0,4.48Zm-8.83-.56-.53.25a2.4,2.4,0,0,1,0-4.75l.54.26a2.12,2.12,0,0,1,0,4.24Zm-8.82,0-.54.21a2.37,2.37,0,0,1,0-4.71l.53.23a2.14,2.14,0,0,1,0,4.27Zm-8.83,0-.53.18a2.36,2.36,0,0,1,0-4.68l.54.19a2.16,2.16,0,0,1,0,4.31Zm-8.82,0L635,489a2.34,2.34,0,0,1,0-4.64l.54.16a2.17,2.17,0,0,1,0,4.34Zm-8.82,0-.54.11a2.2,2.2,0,0,1,0-4.4l.52,0a2.14,2.14,0,0,1,0,4.27Zm-8.83,0-.53.07a2.21,2.21,0,0,1,0-4.42l.52,0a2.17,2.17,0,0,1,0,4.33Zm-8.82,0-.54,0a2.28,2.28,0,0,1,0-4.54l.53.05a2.23,2.23,0,0,1,0,4.45Zm-8.83,0h-.53a2.26,2.26,0,0,1,0-4.5l.54,0a2.25,2.25,0,0,1,0,4.48Zm-8.82-.57-.54.26a2.4,2.4,0,0,1,0-4.75l.53.26a2.06,2.06,0,0,1,2.06,2.14A2,2,0,0,1,591.41,488.31Zm-8.83,0-.53.22a2.38,2.38,0,0,1,0-4.71l.54.23a2.13,2.13,0,0,1,0,4.26Zm-8.82,0-.54.19a2.36,2.36,0,0,1,0-4.68l.54.19a2.15,2.15,0,0,1,0,4.3Zm-8.82,0-.54.15a2.34,2.34,0,0,1,0-4.64l.53.16a2.17,2.17,0,0,1,0,4.33Zm-8.83,0-.53.12a2.32,2.32,0,0,1,0-4.61l.54.12a2.19,2.19,0,0,1,0,4.37Zm-8.82,0-.54.08a2.3,2.3,0,0,1,0-4.57l.53.09a2.2,2.2,0,0,1,0,4.4Zm-8.83,0-.53.05a2.28,2.28,0,0,1,0-4.54l.54.05a2.23,2.23,0,0,1,0,4.44Zm-8.82,0h-.54a2.26,2.26,0,0,1,0-4.5l.54,0a2.24,2.24,0,0,1,0,4.47Zm-8.82-.56-.54.26a2.4,2.4,0,0,1,0-4.76l.53.27a2.12,2.12,0,0,1,0,4.23Zm-8.83,0-.53.22a2.38,2.38,0,0,1,0-4.72l.54.24a2.13,2.13,0,0,1,0,4.26Z"/><path class="cls-2" d="M688.42,497.31l-.53.1a2.21,2.21,0,0,1,0-4.41l.51,0a2.15,2.15,0,0,1,0,4.29Zm-8.82,0-.54.06a2.29,2.29,0,0,1,0-4.56l.53.08a2.22,2.22,0,0,1,0,4.42Zm-8.83,0-.53,0a2.27,2.27,0,0,1,0-4.53l.54,0a2.24,2.24,0,0,1,0,4.46Zm-8.82,0h-.54a2.25,2.25,0,0,1,0-4.49H662a2.25,2.25,0,0,1,0,4.49Zm-8.83-.56-.53.24a2.39,2.39,0,0,1,0-4.74l.54.25a2.13,2.13,0,0,1,0,4.25Zm-8.82,0-.53.2a2.37,2.37,0,0,1,0-4.7l.53.22a2.14,2.14,0,0,1,0,4.28Zm-8.82,0-.54.17a2.35,2.35,0,0,1,0-4.67l.53.18a2.16,2.16,0,0,1,0,4.32Zm-8.83,0-.53.13a2.33,2.33,0,0,1,0-4.63l.54.15a2.18,2.18,0,0,1,0,4.35Zm-8.82,0-.54.1a2.31,2.31,0,0,1,0-4.6l.53.11a2.2,2.2,0,0,1,0,4.39Zm-8.83,0-.53.06a2.29,2.29,0,0,1,0-4.56l.54.08a2.21,2.21,0,0,1,0,4.42Zm-8.82,0-.53,0a2.24,2.24,0,0,1,0-4.46h.52a2.22,2.22,0,0,1,0,4.42Zm-8.83,0h-.53a2.25,2.25,0,0,1,0-4.49h.54a2.25,2.25,0,0,1,0,4.49Zm-8.82-.56-.53.24a2.39,2.39,0,0,1,0-4.74l.53.25a2.13,2.13,0,0,1,0,4.25Zm-8.82,0-.54.2a2.37,2.37,0,0,1,0-4.7l.53.22a2.14,2.14,0,0,1,0,4.28Zm-8.83,0-.53.17a2.35,2.35,0,0,1,0-4.67l.54.18a2.16,2.16,0,0,1,0,4.32Zm-8.82,0-.54.13a2.33,2.33,0,0,1,0-4.63l.53.15a2.18,2.18,0,0,1,0,4.35Zm-8.83,0-.53.1a2.31,2.31,0,0,1,0-4.6l.54.11a2.2,2.2,0,0,1,0,4.39Zm-8.82,0-.53.06a2.29,2.29,0,0,1,0-4.56l.53.08a2.21,2.21,0,0,1,0,4.42Zm-8.82,0-.54,0a2.27,2.27,0,0,1,0-4.53l.53,0a2.24,2.24,0,0,1,0,4.46Zm-8.83,0h-.53a2.25,2.25,0,0,1,0-4.48h.52a2.25,2.25,0,0,1,0,4.49Zm-8.82-.56-.54.24a2.39,2.39,0,0,1,0-4.74l.53.25a2.13,2.13,0,0,1,0,4.25Z"/><path class="cls-2" d="M688.37,505.19l-.54.11a2.32,2.32,0,0,1,0-4.61l.53.13a2.19,2.19,0,0,1,0,4.37Zm-8.83,0-.53.08a2.3,2.3,0,0,1,0-4.58l.54.09a2.21,2.21,0,0,1,0,4.41Zm-8.82,0-.54,0a2.28,2.28,0,0,1,0-4.54l.53.06a2.23,2.23,0,0,1,0,4.44Zm-8.83,0h-.53a2.26,2.26,0,0,1,0-4.51l.54,0a2.25,2.25,0,0,1,0,4.48Zm-8.82,0-.54,0a2.24,2.24,0,0,1,0-4.47h.54a2.26,2.26,0,0,1,0,4.51Zm-8.82-.57-.54.23a2.07,2.07,0,0,1-2.06-2.14,2.13,2.13,0,0,1,2.09-2.17l.52,0a2,2,0,1,1,0,4.05Zm-8.83,0-.53.19a2.36,2.36,0,0,1,0-4.69l.54.21a2.15,2.15,0,0,1,0,4.29Zm-8.82,0-.54.16a2.35,2.35,0,0,1,0-4.66l.53.17a2.17,2.17,0,0,1,0,4.33Zm-8.83,0-.53.12a2.32,2.32,0,0,1,0-4.62l.54.14a2.18,2.18,0,0,1,0,4.36Zm-8.82,0-.54.09a2.31,2.31,0,0,1,0-4.59l.54.1a2.2,2.2,0,0,1,0,4.4Zm-8.82,0-.54.05a2.29,2.29,0,0,1,0-4.55l.53.07a2.22,2.22,0,0,1,0,4.43Zm-8.83,0-.53,0a2.27,2.27,0,0,1,0-4.52l.54,0a2.24,2.24,0,0,1,0,4.47Zm-8.82,0-.54,0a2.25,2.25,0,0,1,0-4.48h.53a2.26,2.26,0,0,1,0,4.5Zm-8.83-.56-.53.23a2.39,2.39,0,0,1,0-4.73l.54.24a2.13,2.13,0,0,1,0,4.26Zm-8.82,0-.53.19a2.36,2.36,0,0,1,0-4.69l.53.21a2.15,2.15,0,0,1,0,4.29Zm-8.83,0-.53.16a2.35,2.35,0,0,1,0-4.66l.54.17a2.17,2.17,0,0,1,0,4.33Zm-8.82,0-.54.12a2.32,2.32,0,0,1,0-4.62l.54.14a2.18,2.18,0,0,1,0,4.36Zm-8.82,0-.54.09a2.21,2.21,0,0,1,0-4.42l.52,0a2.16,2.16,0,0,1,0,4.31Zm-8.83,0-.53.05a2.29,2.29,0,0,1,0-4.55l.54.07a2.22,2.22,0,0,1,0,4.43Zm-8.82,0-.54,0a2.24,2.24,0,0,1,0-4.47h.52a2.23,2.23,0,0,1,0,4.44Zm-8.83,0-.53,0a2.25,2.25,0,0,1,0-4.48h.54a2.26,2.26,0,0,1,0,4.5Z"/><path class="cls-2" d="M688.31,513.06l-.53.14a2.19,2.19,0,0,1,0-4.38l.52,0a2.11,2.11,0,0,1,0,4.22Zm-8.82,0-.54.1a2.31,2.31,0,0,1,0-4.6l.53.12a2.19,2.19,0,0,1,0,4.38Zm-8.83,0-.53.07a2.3,2.3,0,0,1,0-4.57l.54.08a2.21,2.21,0,0,1,0,4.42Zm-8.82,0-.53,0a2.27,2.27,0,0,1,0-4.53l.53.05a2.23,2.23,0,0,1,0,4.45Zm-8.82,0h-.54a2.26,2.26,0,0,1,0-4.5H653a2.25,2.25,0,0,1,0,4.49Zm-8.83,0-.53,0a2.24,2.24,0,0,1,0-4.46l.54,0a2.27,2.27,0,0,1,0,4.52Zm-8.82-.56-.54.21a2.37,2.37,0,0,1,0-4.71l.53.22a2.14,2.14,0,0,1,0,4.28Zm-8.83,0-.53.17a2.35,2.35,0,0,1,0-4.67l.54.19a2.16,2.16,0,0,1,0,4.31Zm-8.82,0-.54.14a2.34,2.34,0,0,1,0-4.64l.54.15a2.18,2.18,0,0,1,0,4.35Zm-8.82,0-.54.1a2.31,2.31,0,0,1,0-4.6l.53.12a2.19,2.19,0,0,1,0,4.38Zm-8.83,0-.53.07a2.22,2.22,0,0,1,0-4.43h.52a2.18,2.18,0,0,1,0,4.35Zm-8.82,0-.54,0a2.27,2.27,0,0,1,0-4.53l.53.05a2.23,2.23,0,0,1,0,4.45Zm-8.83,0h-.53a2.26,2.26,0,0,1,0-4.5h.54a2.25,2.25,0,0,1,0,4.49Zm-8.82,0-.54,0a2.24,2.24,0,0,1,0-4.46l.53,0a2.27,2.27,0,0,1,0,4.52Zm-8.82-.57-.54.22a2.37,2.37,0,0,1,0-4.71l.53.22a2.14,2.14,0,0,1,0,4.27Zm-8.83,0-.53.18a2.35,2.35,0,0,1,0-4.67l.53.19a2.15,2.15,0,0,1,0,4.3Zm-8.82,0-.54.15a2.34,2.34,0,0,1,0-4.64l.53.15a2.17,2.17,0,0,1,0,4.34Zm-8.83,0-.53.11a2.2,2.2,0,0,1,0-4.4l.52,0a2.14,2.14,0,0,1,0,4.27Zm-8.82,0-.54.08a2.3,2.3,0,0,1,0-4.57l.53.08a2.14,2.14,0,0,1,2.06,2.23A2.11,2.11,0,0,1,529.48,511.93Zm-8.83,0-.53,0a2.27,2.27,0,0,1,0-4.53l.54.05a2.23,2.23,0,0,1,0,4.44Zm-8.82,0h-.54a2.26,2.26,0,0,1,0-4.5h.54a2.25,2.25,0,0,1,0,4.48Z"/><path class="cls-2" d="M688.26,520.93l-.53.16a2.35,2.35,0,0,1,0-4.66l.53.18a2.16,2.16,0,0,1,0,4.32Zm-8.82,0-.54.13a2.33,2.33,0,0,1,0-4.63l.53.14a2.18,2.18,0,0,1,0,4.36Zm-8.83,0-.53.09a2.31,2.31,0,0,1,0-4.59l.54.11a2.2,2.2,0,0,1,0,4.39Zm-8.82,0-.54.06a2.29,2.29,0,0,1,0-4.56l.53.07a2.22,2.22,0,0,1,0,4.43Zm-8.83,0-.53,0a2.27,2.27,0,0,1,0-4.52l.54,0a2.24,2.24,0,0,1,0,4.46Zm-8.82,0h-.53a2.18,2.18,0,0,1-2.07-2.26,2.14,2.14,0,0,1,2.09-2.23h.52a2.26,2.26,0,0,1,0,4.5Zm-8.83,0-.53,0a2.23,2.23,0,0,1,0-4.45l.54,0a2.27,2.27,0,0,1,0,4.53Zm-8.82-.56-.53.2a2.37,2.37,0,0,1,0-4.7l.53.21a2.15,2.15,0,0,1,0,4.29Zm-8.82,0-.54.16a2.35,2.35,0,0,1,0-4.66l.53.18a2.16,2.16,0,0,1,0,4.32Zm-8.83,0-.53.13a2.33,2.33,0,0,1,0-4.63l.54.14a2.18,2.18,0,0,1,0,4.36Zm-8.82,0-.54.09a2.31,2.31,0,0,1,0-4.59l.53.11a2.2,2.2,0,0,1,0,4.39Zm-8.83,0-.53.06a2.29,2.29,0,0,1,0-4.56l.54.07a2.22,2.22,0,0,1,0,4.43Zm-8.82,0-.53,0a2.27,2.27,0,0,1,0-4.52l.53,0a2.24,2.24,0,0,1,0,4.46Zm-8.82,0H573a2.25,2.25,0,0,1,0-4.49h.53a2.26,2.26,0,0,1,0,4.5Zm-8.83,0-.53,0a2.23,2.23,0,0,1,0-4.45l.54,0a2.27,2.27,0,0,1,0,4.53Zm-8.82-.56-.54.2a2.37,2.37,0,0,1,0-4.7l.53.21a2.15,2.15,0,0,1,0,4.29Zm-8.83,0-.53.16a2.35,2.35,0,0,1,0-4.66l.54.18a2.16,2.16,0,0,1,0,4.32Zm-8.82,0-.53.13a2.33,2.33,0,0,1,0-4.63l.53.14a2.18,2.18,0,0,1,0,4.36Zm-8.83,0-.53.09a2.31,2.31,0,0,1,0-4.59l.54.11a2.2,2.2,0,0,1,0,4.39Zm-8.82,0-.53.06a2.29,2.29,0,0,1,0-4.56l.53.07a2.22,2.22,0,0,1,0,4.43Zm-8.82,0-.54,0a2.27,2.27,0,0,1,0-4.52l.53,0a2.24,2.24,0,0,1,0,4.46Z"/><path class="cls-2" d="M688.21,528.81l-.54.18a2.36,2.36,0,0,1,0-4.68l.53.19a2.16,2.16,0,0,1,0,4.31Zm-8.83,0-.53.14a2.34,2.34,0,0,1,0-4.64l.54.16a2.17,2.17,0,0,1,0,4.34Zm-8.82,0-.54.11a2.32,2.32,0,0,1,0-4.61l.53.12a2.19,2.19,0,0,1,0,4.38Zm-8.83,0-.53.07a2.3,2.3,0,0,1,0-4.57l.54.09a2.21,2.21,0,0,1,0,4.41Zm-8.82,0-.54,0a2.28,2.28,0,0,1,0-4.54l.53.05a2.23,2.23,0,0,1,0,4.45Zm-8.82,0h-.54a2.26,2.26,0,0,1,0-4.5l.53,0a2.25,2.25,0,0,1,0,4.48Zm-8.83,0-.54,0a2.18,2.18,0,0,1-2.06-2.26,2.15,2.15,0,0,1,2.08-2.21l.54,0a2.27,2.27,0,0,1,0,4.52Zm-8.82,0-.54-.07a2.22,2.22,0,0,1,0-4.43l.53,0a2.29,2.29,0,0,1,0,4.55Zm-8.83-.57-.53.19a2.36,2.36,0,0,1,0-4.69l.54.2a2.15,2.15,0,0,1,0,4.3Zm-8.82,0-.54.15a2.34,2.34,0,0,1,0-4.65l.53.17a2.17,2.17,0,0,1,0,4.33Zm-8.83,0-.53.12a2.32,2.32,0,0,1,0-4.62l.54.13a2.19,2.19,0,0,1,0,4.37Zm-8.82,0-.54.08a2.3,2.3,0,0,1,0-4.58l.54.1a2.2,2.2,0,0,1,0,4.4Zm-8.82,0-.54,0a2.29,2.29,0,0,1,0-4.55l.53.06a2.23,2.23,0,0,1,0,4.44Zm-8.83,0H573a2.26,2.26,0,0,1,0-4.51l.54,0a2.24,2.24,0,0,1,0,4.47Zm-8.82,0-.54,0a2.25,2.25,0,0,1,0-4.48h.53a2.26,2.26,0,0,1,0,4.51Zm-8.83,0-.53-.06a2.23,2.23,0,0,1,0-4.44l.54,0a2.28,2.28,0,0,1,0,4.54Zm-8.82-.56-.54.19a2.36,2.36,0,0,1,0-4.69l.54.2a2.15,2.15,0,0,1,0,4.3Zm-8.83,0-.53.15a2.34,2.34,0,0,1,0-4.65l.53.17a2.17,2.17,0,0,1,0,4.33Zm-8.82,0-.53.12a2.32,2.32,0,0,1,0-4.62l.54.13a2.19,2.19,0,0,1,0,4.37Zm-8.82,0-.54.08a2.3,2.3,0,0,1,0-4.58l.53.1a2.2,2.2,0,0,1,0,4.4Zm-8.83,0-.53.05a2.29,2.29,0,0,1,0-4.55l.54.06a2.23,2.23,0,0,1,0,4.44Z"/><path class="cls-2" d="M688.15,537.24l-.53-.08a2.22,2.22,0,0,1,0-4.42l.54-.06a2.29,2.29,0,0,1,0,4.56Zm-8.82-.56-.54.17a2.35,2.35,0,0,1,0-4.67l.53.18a2.16,2.16,0,0,1,0,4.32Zm-8.83,0-.53.13a2.33,2.33,0,0,1,0-4.63l.54.15a2.18,2.18,0,0,1,0,4.35Zm-8.82,0-.53.1a2.31,2.31,0,0,1,0-4.6l.53.11a2.2,2.2,0,0,1,0,4.39Zm-8.82,0-.54.06a2.29,2.29,0,0,1,0-4.56l.53.08a2.22,2.22,0,0,1,0,4.42Zm-8.83,0-.53,0a2.27,2.27,0,0,1,0-4.53l.54,0a2.24,2.24,0,0,1,0,4.46Zm-8.82,0h-.54a2.25,2.25,0,0,1,0-4.49h.53a2.25,2.25,0,0,1,0,4.49Zm-8.83,0-.53,0a2.24,2.24,0,0,1,0-4.46l.54,0a2.27,2.27,0,0,1,0,4.53Zm-8.82,0-.54-.08a2.21,2.21,0,0,1,0-4.42l.53-.06a2.29,2.29,0,0,1,0,4.56Zm-8.83-.56-.53.17a2.09,2.09,0,0,1-2.06-2.18,2.12,2.12,0,0,1,2.09-2.18l.52,0a2.08,2.08,0,0,1,0,4.16Zm-8.82,0-.54.13a2.33,2.33,0,0,1,0-4.63l.54.15a2.18,2.18,0,0,1,0,4.35Zm-8.82,0-.54.1a2.21,2.21,0,0,1,0-4.41l.52,0a2.15,2.15,0,0,1,0,4.29Zm-8.83,0-.53.06a2.13,2.13,0,0,1-2.06-2.22,2.15,2.15,0,0,1,2.09-2.21h.52a2.18,2.18,0,0,1,0,4.36Zm-8.82,0-.54,0a2.24,2.24,0,0,1,0-4.46h.52a2.22,2.22,0,0,1,0,4.42Zm-8.83,0h-.53a2.25,2.25,0,0,1,0-4.49h.54a2.25,2.25,0,0,1,0,4.49Zm-8.82,0-.54,0a2.24,2.24,0,0,1,0-4.46l.54,0a2.27,2.27,0,0,1,0,4.53Zm-8.82,0-.54-.08a2.21,2.21,0,0,1,0-4.42l.53-.06a2.29,2.29,0,0,1,0,4.56Zm-8.83-.57-.53.18a2.26,2.26,0,0,1-2.06-2.36,2.23,2.23,0,0,1,2.07-2.31l.54.18a2.16,2.16,0,0,1,0,4.31Zm-8.82,0-.54.14a2.1,2.1,0,0,1-2.06-2.18,2.15,2.15,0,0,1,2.09-2.2l.52,0a2.11,2.11,0,0,1,0,4.21Zm-8.83,0-.53.11a2.31,2.31,0,0,1,0-4.6l.54.11a2.19,2.19,0,0,1,0,4.38Zm-8.82,0-.54.07a2.29,2.29,0,0,1,0-4.56l.53.08a2.21,2.21,0,0,1,0,4.41Z"/><path class="cls-2" d="M688.1,545.11l-.54-.05a2.23,2.23,0,0,1,0-4.44l.53,0a2.28,2.28,0,0,1,0,4.54Zm-8.83,0-.53-.09a2.2,2.2,0,0,1,0-4.4l.54-.08a2.3,2.3,0,0,1,0,4.57Zm-8.82-.56-.54.16a2.35,2.35,0,0,1,0-4.66l.54.17a2.17,2.17,0,0,1,0,4.33Zm-8.82,0-.54.12a2.32,2.32,0,0,1,0-4.62l.53.14a2.18,2.18,0,0,1,0,4.36Zm-8.83,0-.53.09a2.31,2.31,0,0,1,0-4.59l.54.1a2.2,2.2,0,0,1,0,4.4Zm-8.82,0-.54.05a2.29,2.29,0,0,1,0-4.55l.53.07a2.22,2.22,0,0,1,0,4.43Zm-8.83,0-.53,0a2.27,2.27,0,0,1,0-4.52l.54,0a2.24,2.24,0,0,1,0,4.47Zm-8.82,0-.53,0a2.25,2.25,0,0,1,0-4.48h.53a2.26,2.26,0,0,1,0,4.5Zm-8.83,0-.53,0a2.23,2.23,0,0,1,0-4.45l.54,0a2.28,2.28,0,0,1,0,4.54Zm-8.82,0-.54-.09a2.21,2.21,0,0,1,0-4.41l.54-.07a2.3,2.3,0,0,1,0,4.57Zm-8.82-.56-.54.16a2.35,2.35,0,0,1,0-4.66l.53.17a2.17,2.17,0,0,1,0,4.33ZM591,544l-.53.12a2.32,2.32,0,0,1,0-4.62l.54.14a2.18,2.18,0,0,1,0,4.36Zm-8.82,0-.54.09a2.31,2.31,0,0,1,0-4.59l.53.1a2.2,2.2,0,0,1,0,4.4Zm-8.83,0-.53,0a2.29,2.29,0,0,1,0-4.55l.54.07a2.22,2.22,0,0,1,0,4.43Zm-8.82,0-.53,0a2.27,2.27,0,0,1,0-4.52l.53,0a2.24,2.24,0,0,1,0,4.47Zm-8.82,0-.54,0a2.25,2.25,0,0,1,0-4.48h.53a2.26,2.26,0,0,1,0,4.5Zm-8.83,0-.53,0a2.23,2.23,0,0,1,0-4.45l.54,0a2.28,2.28,0,0,1,0,4.54Zm-8.82,0-.54-.09a2.21,2.21,0,0,1,0-4.41l.53-.07a2.3,2.3,0,0,1,0,4.57Zm-8.83-.56-.53.16a2.35,2.35,0,0,1,0-4.66l.54.17a2.17,2.17,0,0,1,0,4.33Zm-8.82,0-.53.12a2.2,2.2,0,0,1,0-4.39l.52,0a2.13,2.13,0,0,1,0,4.25Zm-8.83,0-.53.09a2.31,2.31,0,0,1,0-4.59l.53.1a2.2,2.2,0,0,1,0,4.4Z"/><path class="cls-2" d="M688,553l-.53,0a2.24,2.24,0,0,1,0-4.46l.54,0a2.27,2.27,0,0,1,0,4.52Zm-8.82,0-.54-.07a2.22,2.22,0,0,1,0-4.43l.54-.06a2.29,2.29,0,0,1,0,4.56Zm-8.82,0-.54-.11a2.2,2.2,0,0,1,0-4.39l.53-.09a2.31,2.31,0,0,1,0,4.59Zm-8.83-.56-.53.14a2.34,2.34,0,0,1,0-4.64l.54.15a2.18,2.18,0,0,1,0,4.35Zm-8.82,0-.54.1a2.2,2.2,0,0,1,0-4.4l.52,0a2.14,2.14,0,0,1,0,4.28Zm-8.83,0-.53.07a2.3,2.3,0,0,1,0-4.57l.54.08a2.21,2.21,0,0,1,0,4.42Zm-8.82,0-.54,0a2.27,2.27,0,0,1,0-4.53l.54.05a2.23,2.23,0,0,1,0,4.45Zm-8.82,0h-.54a2.26,2.26,0,0,1,0-4.5h.53a2.25,2.25,0,0,1,0,4.49Zm-8.83,0-.53,0a2.24,2.24,0,0,1,0-4.46l.54,0a2.27,2.27,0,0,1,0,4.52Zm-8.82,0-.54-.07a2.2,2.2,0,0,1-2.06-2.29,2.17,2.17,0,0,1,2.09-2.24h.52a2.32,2.32,0,0,1,0,4.61Zm-8.83,0-.53-.11a2.2,2.2,0,0,1,0-4.39l.54-.09a2.31,2.31,0,0,1,0,4.59Zm-8.82-.57-.54.15a2.34,2.34,0,0,1,0-4.65l.53.16a2.17,2.17,0,0,1,0,4.34Zm-8.83,0-.53.11a2.32,2.32,0,0,1,0-4.61l.54.13a2.19,2.19,0,0,1,0,4.37Zm-8.82,0-.54.08a2.3,2.3,0,0,1,0-4.58l.54.09a2.21,2.21,0,0,1,0,4.41Zm-8.82,0-.54,0a2.28,2.28,0,0,1,0-4.54l.53.06a2.23,2.23,0,0,1,0,4.44Zm-8.83,0h-.53a2.25,2.25,0,0,1,0-4.48h.52a2.24,2.24,0,0,1,0,4.47Zm-8.82,0-.54,0a2.24,2.24,0,0,1,0-4.47h.53a2.26,2.26,0,0,1,0,4.51Zm-8.83,0-.53-.06a2.27,2.27,0,0,1,0-4.53h.52a2.31,2.31,0,0,1,0,4.6Zm-8.82,0-.54-.1a2.2,2.2,0,0,1,0-4.4l.54-.08a2.3,2.3,0,0,1,0,4.58Zm-8.82-.56-.54.15a2.11,2.11,0,0,1-2.06-2.19,2.14,2.14,0,0,1,2.09-2.19l.52,0a2.1,2.1,0,0,1,0,4.2Zm-8.83,0-.53.11a2.32,2.32,0,0,1,0-4.61l.54.13a2.19,2.19,0,0,1,0,4.37Z"/><path class="cls-2" d="M688,560.86h-.53a2.25,2.25,0,0,1,0-4.49H688a2.26,2.26,0,0,1,0,4.5Zm-8.82,0-.54-.05a2.23,2.23,0,0,1,0-4.45l.53,0a2.27,2.27,0,0,1,0,4.53Zm-8.83,0-.53-.08a2.22,2.22,0,0,1,0-4.42l.54-.07a2.3,2.3,0,0,1,0,4.57Zm-8.82,0-.54-.12a2.19,2.19,0,0,1,0-4.38l.53-.1a2.31,2.31,0,0,1,0,4.6Zm-8.83-.56-.53.13a2.33,2.33,0,0,1,0-4.63l.54.14a2.18,2.18,0,0,1,0,4.36Zm-8.82,0-.53.09a2.31,2.31,0,0,1,0-4.59l.53.11a2.2,2.2,0,0,1,0,4.39Zm-8.82,0-.54.06a2.29,2.29,0,0,1,0-4.56l.53.07a2.22,2.22,0,0,1,0,4.43Zm-8.83,0-.53,0a2.27,2.27,0,0,1,0-4.52l.54,0a2.24,2.24,0,0,1,0,4.46Zm-8.82,0h-.54a2.25,2.25,0,0,1,0-4.49h.53a2.26,2.26,0,0,1,0,4.5Zm-8.83,0-.53,0a2.23,2.23,0,0,1,0-4.45l.54,0a2.27,2.27,0,0,1,0,4.53Zm-8.82,0-.53-.08a2.21,2.21,0,0,1,0-4.42l.53-.07a2.3,2.3,0,0,1,0,4.57Zm-8.83,0-.53-.12a2.22,2.22,0,0,1-2.06-2.31,2.18,2.18,0,0,1,2.09-2.26h.52a2.37,2.37,0,0,1,0,4.7Zm-8.82-.56-.53.13a2.33,2.33,0,0,1,0-4.63l.53.14a2.18,2.18,0,0,1,0,4.36Zm-8.82,0-.54.09a2.31,2.31,0,0,1,0-4.59l.53.11a2.2,2.2,0,0,1,0,4.39Zm-8.83,0-.53.06a2.29,2.29,0,0,1,0-4.56l.54.07a2.22,2.22,0,0,1,0,4.43Zm-8.82,0-.54,0a2.24,2.24,0,0,1,0-4.46h.52a2.22,2.22,0,0,1,0,4.43Zm-8.83,0h-.53a2.25,2.25,0,0,1,0-4.49h.54a2.26,2.26,0,0,1,0,4.5Zm-8.82,0-.53,0a2.26,2.26,0,0,1,0-4.51H538a2.29,2.29,0,0,1,0,4.56Zm-8.82,0-.54-.08a2.21,2.21,0,0,1,0-4.42l.53-.07a2.3,2.3,0,0,1,0,4.57Zm-8.83,0-.53-.12a2.21,2.21,0,0,1-2.06-2.31,2.19,2.19,0,0,1,2.09-2.25h.52a2.36,2.36,0,0,1,0,4.69Zm-8.82-.57-.54.14a2.33,2.33,0,0,1,0-4.63l.53.14a2.18,2.18,0,0,1,0,4.35Z"/><path class="cls-2" d="M649.34,30.33l-.53.06a2.23,2.23,0,0,1,0-4.44h.51a2.19,2.19,0,0,1,0,4.37Zm-8.82,0-.54,0a2,2,0,1,1,0-4l.53-.25a2.09,2.09,0,0,1,0,4.18Zm-8.83-.56-.53.27a2.11,2.11,0,0,1,0-4.21h.54a2,2,0,1,1,0,3.94Zm-8.82,0-.53.23a2.09,2.09,0,0,1,0-4.17l.53,0a2,2,0,1,1,0,4Zm-8.83,0-.53.2a2.08,2.08,0,0,1-2.06-2.16,2.14,2.14,0,0,1,2.09-2.18l.52,0a2.06,2.06,0,1,1,0,4.11Zm-8.82,0-.53.16a2.18,2.18,0,0,1,0-4.36l.51,0a2.09,2.09,0,0,1,0,4.17Zm-8.82,0-.54.13a2,2,0,1,1,0-4.07l.53-.14a2,2,0,1,1,0,4.08Zm-8.83,0-.53.09a2,2,0,1,1,0-4l.54-.17a2.06,2.06,0,1,1,0,4.11Zm-8.82,0-.54.06a2,2,0,1,1,0-4l.53-.21a2.08,2.08,0,0,1,0,4.15Zm-8.83,0-.53,0a2,2,0,1,1,0-4l.54-.24a2.09,2.09,0,0,1,0,4.18Zm-8.82-.56s-.53.27-.53.27a2.06,2.06,0,0,1-2.07-2.13,2.11,2.11,0,0,1,2.09-2.15l.52,0a2,2,0,1,1,0,4Zm-8.82,0-.54.23a2.09,2.09,0,0,1,0-4.17l.53,0a2,2,0,1,1,0,4Zm-8.83,0-.53.2a2.07,2.07,0,0,1,0-4.14l.54-.07a2,2,0,1,1,0,4Zm-8.82,0-.54.16a2.05,2.05,0,1,1,0-4.1l.53-.1a2,2,0,1,1,0,4Zm-8.83,0-.53.13a2,2,0,1,1,0-4.07l.54-.14a2,2,0,1,1,0,4.08Zm-8.82,0-.54.09a2,2,0,1,1,0-4l.53-.17a2.06,2.06,0,1,1,0,4.11Zm-8.83,0-.53.06a2,2,0,1,1,0-4l.54-.21a2.08,2.08,0,0,1,0,4.15Zm-8.82,0-.53,0a2,2,0,1,1,0-4l.53-.24a2.09,2.09,0,0,1,0,4.18Zm-8.82-.56-.54.27a2.11,2.11,0,0,1,0-4.21h.53a2,2,0,1,1,0,3.94Zm-8.83,0-.53.23a2.09,2.09,0,0,1,0-4.17l.54,0a2,2,0,1,1,0,4Zm-8.82,0-.54.2a2.07,2.07,0,1,1,0-4.14l.53-.07a2,2,0,1,1,0,4Z"/><path class="cls-2" d="M649.29,38.21l-.54.07a2.3,2.3,0,0,1,0-4.57l.53.09a2.21,2.21,0,0,1,0,4.41Zm-8.83,0-.53,0a2.28,2.28,0,0,1,0-4.54l.54,0a2.23,2.23,0,0,1,0,4.45Zm-8.82,0h-.54a2.26,2.26,0,0,1,0-4.5l.53,0a2.25,2.25,0,0,1,0,4.48Zm-8.82-.57-.54.26a2.4,2.4,0,0,1,0-4.75l.53.26a2.12,2.12,0,0,1,0,4.23Zm-8.83,0-.54.22a2.37,2.37,0,0,1,0-4.71l.54.23a2.13,2.13,0,0,1,0,4.26Zm-8.82,0-.54.19a2.36,2.36,0,0,1,0-4.68l.53.19a2.15,2.15,0,0,1,0,4.3Zm-8.83,0-.53.15a2.34,2.34,0,0,1,0-4.64l.54.16a2.17,2.17,0,0,1,0,4.33Zm-8.82,0-.54.12a2.2,2.2,0,0,1,0-4.4l.52,0a2.13,2.13,0,0,1,0,4.26Zm-8.83,0-.53.08a2.21,2.21,0,0,1,0-4.42h.52a2.17,2.17,0,0,1,0,4.33Zm-8.82,0-.54,0a2.28,2.28,0,0,1,0-4.54l.54.05a2.23,2.23,0,0,1,0,4.44Zm-8.82,0h-.54a2.26,2.26,0,0,1,0-4.5l.53,0a2.24,2.24,0,0,1,0,4.47Zm-8.83-.56-.53.26a2.4,2.4,0,0,1,0-4.76l.54.27a2.12,2.12,0,0,1,0,4.23Zm-8.82,0-.54.22a2.38,2.38,0,0,1,0-4.72l.53.24a2.13,2.13,0,0,1,0,4.26Zm-8.83,0-.53.19a2.36,2.36,0,0,1,0-4.69l.54.2a2.15,2.15,0,0,1,0,4.3Zm-8.82,0-.53.15a2.34,2.34,0,0,1,0-4.65l.53.17a2.17,2.17,0,0,1,0,4.33Zm-8.82,0-.54.12a2.32,2.32,0,0,1,0-4.62l.54.13a2.19,2.19,0,0,1,0,4.37Zm-8.83,0-.53.08a2.3,2.3,0,0,1,0-4.58l.54.1a2.2,2.2,0,0,1,0,4.4Zm-8.82,0-.54.05a2.29,2.29,0,0,1,0-4.55l.53.06a2.23,2.23,0,0,1,0,4.44Zm-8.83,0h-.53a2.26,2.26,0,0,1,0-4.51l.54,0a2.24,2.24,0,0,1,0,4.47Zm-8.82-.56-.54.26a2.4,2.4,0,0,1,0-4.76l.53.27a2.12,2.12,0,0,1,0,4.23Zm-8.83,0-.53.22a2.38,2.38,0,0,1,0-4.72l.54.24a2.13,2.13,0,0,1,0,4.26Z"/><path class="cls-2" d="M649.23,46.08l-.53.1a2.21,2.21,0,0,1,0-4.41h.52a2.15,2.15,0,0,1,0,4.3Zm-8.82,0-.54.06a2.29,2.29,0,0,1,0-4.56l.54.08a2.21,2.21,0,0,1,0,4.42Zm-8.82,0-.54,0a2.27,2.27,0,0,1,0-4.53l.53,0a2.24,2.24,0,0,1,0,4.46Zm-8.83,0h-.53a2.25,2.25,0,0,1,0-4.49h.54a2.25,2.25,0,0,1,0,4.49Zm-8.82-.56-.54.24a2.39,2.39,0,0,1,0-4.74l.53.25a2.13,2.13,0,0,1,0,4.25Zm-8.83,0-.53.2a2.37,2.37,0,0,1,0-4.7l.54.22a2.14,2.14,0,0,1,0,4.28Zm-8.82,0-.54.17a2.35,2.35,0,0,1,0-4.67l.53.18a2.16,2.16,0,0,1,0,4.32Zm-8.83,0-.53.13a2.33,2.33,0,0,1,0-4.63l.54.15a2.18,2.18,0,0,1,0,4.35Zm-8.82,0-.54.1a2.31,2.31,0,0,1,0-4.6l.54.11a2.2,2.2,0,0,1,0,4.39Zm-8.82,0-.54.06a2.29,2.29,0,0,1,0-4.56l.53.08a2.22,2.22,0,0,1,0,4.42Zm-8.83,0-.53,0a2.24,2.24,0,0,1,0-4.46H561a2.21,2.21,0,0,1,0,4.42Zm-8.82,0h-.54a2.25,2.25,0,0,1,0-4.49h.53a2.25,2.25,0,0,1,0,4.49ZM543.34,45l-.53.24a2.39,2.39,0,0,1,0-4.74l.54.25a2.13,2.13,0,0,1,0,4.25Zm-8.82,0-.54.2a2.37,2.37,0,0,1,0-4.7l.54.22a2.14,2.14,0,0,1,0,4.28Zm-8.82,0-.54.17a2.35,2.35,0,0,1,0-4.67l.53.18a2.16,2.16,0,0,1,0,4.32Zm-8.83,0-.53.13a2.33,2.33,0,0,1,0-4.63l.54.14a2.18,2.18,0,0,1,0,4.36Zm-8.82,0-.54.1a2.31,2.31,0,0,1,0-4.6l.53.11a2.2,2.2,0,0,1,0,4.39Zm-8.83,0-.53.06a2.29,2.29,0,0,1,0-4.56l.54.08a2.21,2.21,0,0,1,0,4.42Zm-8.82,0-.54,0a2.27,2.27,0,0,1,0-4.53l.53,0a2.24,2.24,0,0,1,0,4.46Zm-8.83,0H481A2.16,2.16,0,0,1,479,42.69a2.14,2.14,0,0,1,2.09-2.22h.52a2.25,2.25,0,0,1,0,4.49Zm-8.82-.57-.54.24a2.39,2.39,0,0,1,0-4.74l.54.26a2.12,2.12,0,0,1,0,4.24Z"/><path class="cls-2" d="M649.18,54l-.53.12a2.32,2.32,0,0,1,0-4.62l.53.14a2.18,2.18,0,0,1,0,4.36Zm-8.82,0-.54.09a2.31,2.31,0,0,1,0-4.59l.53.1a2.2,2.2,0,0,1,0,4.4Zm-8.83,0L631,54a2.29,2.29,0,0,1,0-4.55l.54.07a2.22,2.22,0,0,1,0,4.43Zm-8.82,0-.54,0a2.27,2.27,0,0,1,0-4.52l.53,0a2.24,2.24,0,0,1,0,4.47Zm-8.83,0-.53,0a2.25,2.25,0,0,1,0-4.48h.54a2.26,2.26,0,0,1,0,4.5Zm-8.82-.56-.53.23a2.08,2.08,0,0,1-2.07-2.15,2.13,2.13,0,0,1,2.09-2.17l.52,0a2,2,0,1,1,0,4Zm-8.82,0-.54.19a2.36,2.36,0,0,1,0-4.69l.54.21a2.15,2.15,0,0,1,0,4.29Zm-8.83,0-.53.16a2.35,2.35,0,0,1,0-4.66l.53.17a2.17,2.17,0,0,1,0,4.33Zm-8.82,0-.54.12a2.32,2.32,0,0,1,0-4.62l.53.14a2.18,2.18,0,0,1,0,4.36Zm-8.83,0-.53.09a2.31,2.31,0,0,1,0-4.59l.54.1a2.2,2.2,0,0,1,0,4.4Zm-8.82,0-.54,0a2.29,2.29,0,0,1,0-4.55L561,49a2.22,2.22,0,0,1,0,4.43Zm-8.83,0-.53,0a2.27,2.27,0,0,1,0-4.52l.54,0a2.24,2.24,0,0,1,0,4.47Zm-8.82,0-.53,0a2.25,2.25,0,0,1,0-4.48h.53a2.26,2.26,0,0,1,0,4.5Zm-8.82-.56-.54.22a2.38,2.38,0,0,1,0-4.72l.53.24a2.13,2.13,0,0,1,0,4.26Zm-8.83,0-.53.19a2.36,2.36,0,0,1,0-4.69l.54.2a2.15,2.15,0,0,1,0,4.3Zm-8.82,0-.54.16a2.35,2.35,0,0,1,0-4.66l.53.17a2.17,2.17,0,0,1,0,4.33Zm-8.83,0-.53.12a2.32,2.32,0,0,1,0-4.62l.54.14a2.18,2.18,0,0,1,0,4.36Zm-8.82,0-.53.09a2.21,2.21,0,0,1,0-4.42h.52a2.16,2.16,0,0,1,0,4.32Zm-8.83,0-.53.05a2.29,2.29,0,0,1,0-4.55l.53.07a2.22,2.22,0,0,1,0,4.43Zm-8.82,0-.53,0a2.15,2.15,0,0,1-2.06-2.25A2.13,2.13,0,0,1,481,48.38h.51a2.23,2.23,0,0,1,0,4.45Zm-8.82,0-.54,0a2.25,2.25,0,0,1,0-4.48h.53a2.26,2.26,0,0,1,0,4.5Z"/><path class="cls-2" d="M649.13,61.83l-.54.14a2.19,2.19,0,0,1,0-4.38l.52,0a2.11,2.11,0,0,1,0,4.22Zm-8.83,0-.53.1a2.31,2.31,0,0,1,0-4.6l.54.12a2.19,2.19,0,0,1,0,4.38Zm-8.82,0-.54.07a2.3,2.3,0,0,1,0-4.57l.53.08a2.22,2.22,0,0,1,0,4.42Zm-8.83,0-.53,0a2.27,2.27,0,0,1,0-4.53l.54.05a2.23,2.23,0,0,1,0,4.45Zm-8.82,0h-.54a2.26,2.26,0,0,1,0-4.5h.54a2.25,2.25,0,0,1,0,4.49Zm-8.82,0-.54,0a2.24,2.24,0,0,1,0-4.46l.53,0a2.27,2.27,0,0,1,0,4.52Zm-8.83-.57-.53.21a2.37,2.37,0,0,1,0-4.7l.54.22a2.14,2.14,0,0,1,0,4.27Zm-8.82,0-.54.18a2.35,2.35,0,0,1,0-4.67l.53.18a2.16,2.16,0,0,1,0,4.31Zm-8.83,0-.53.14a2.33,2.33,0,0,1,0-4.63l.54.15a2.17,2.17,0,0,1,0,4.34Zm-8.82,0-.54.11a2.31,2.31,0,0,1,0-4.6l.53.12a2.19,2.19,0,0,1,0,4.37Zm-8.83,0-.53.08a2.22,2.22,0,0,1,0-4.43h.52a2.17,2.17,0,0,1,0,4.34Zm-8.82,0-.54,0a2.27,2.27,0,0,1,0-4.53l.54,0a2.23,2.23,0,0,1,0,4.44Zm-8.82,0h-.54a2.26,2.26,0,0,1,0-4.5h.53a2.25,2.25,0,0,1,0,4.48Zm-8.83,0-.53,0a2.24,2.24,0,0,1,0-4.46l.54,0a2.26,2.26,0,0,1,0,4.51Zm-8.82-.56-.54.21a2.37,2.37,0,0,1,0-4.71l.53.23a2.14,2.14,0,0,1,0,4.27Zm-8.83,0-.53.18a2.36,2.36,0,0,1,0-4.68l.54.19a2.16,2.16,0,0,1,0,4.31Zm-8.82,0-.54.14a2.34,2.34,0,0,1,0-4.64l.54.16a2.17,2.17,0,0,1,0,4.34Zm-8.82,0-.54.11a2.2,2.2,0,0,1,0-4.4l.52,0a2.14,2.14,0,0,1,0,4.27Zm-8.83,0-.53.07a2.3,2.3,0,0,1,0-4.57l.54.09a2.21,2.21,0,0,1,0,4.41Zm-8.82,0-.54,0a2.28,2.28,0,0,1,0-4.54l.53,0a2.23,2.23,0,0,1,0,4.45Zm-8.83,0h-.53a2.26,2.26,0,0,1,0-4.5l.54,0a2.25,2.25,0,0,1,0,4.48Z"/><path class="cls-2" d="M649.07,69.7l-.53.16a2.35,2.35,0,0,1,0-4.66l.54.17a2.17,2.17,0,0,1,0,4.33Zm-8.82,0-.54.13a2.33,2.33,0,0,1,0-4.63l.53.14a2.18,2.18,0,0,1,0,4.36Zm-8.83,0-.53.09a2.31,2.31,0,0,1,0-4.59l.54.11a2.2,2.2,0,0,1,0,4.39Zm-8.82,0-.53.06a2.29,2.29,0,0,1,0-4.56l.53.07a2.22,2.22,0,0,1,0,4.43Zm-8.82,0-.54,0a2.27,2.27,0,0,1,0-4.52l.53,0a2.24,2.24,0,0,1,0,4.46Zm-8.83,0h-.53a2.17,2.17,0,0,1-2.06-2.27,2.15,2.15,0,0,1,2.09-2.23H605a2.26,2.26,0,0,1,0,4.5Zm-8.82,0-.54,0a2.23,2.23,0,0,1,0-4.45l.53,0a2.27,2.27,0,0,1,0,4.53Zm-8.83-.56-.53.19a2.36,2.36,0,0,1,0-4.69l.54.21a2.15,2.15,0,0,1,0,4.29Zm-8.82,0-.54.16a2.35,2.35,0,0,1,0-4.66l.54.17a2.17,2.17,0,0,1,0,4.33Zm-8.82,0-.54.12a2.32,2.32,0,0,1,0-4.62l.53.14a2.18,2.18,0,0,1,0,4.36Zm-8.83,0-.53.09a2.31,2.31,0,0,1,0-4.59l.53.1a2.2,2.2,0,0,1,0,4.4Zm-8.82,0-.54,0a2.29,2.29,0,0,1,0-4.55l.53.07a2.22,2.22,0,0,1,0,4.43Zm-8.83,0-.53,0a2.27,2.27,0,0,1,0-4.52l.54,0a2.24,2.24,0,0,1,0,4.47Zm-8.82,0-.54,0a2.25,2.25,0,0,1,0-4.48h.53a2.26,2.26,0,0,1,0,4.5Zm-8.83,0-.53,0a2.23,2.23,0,0,1,0-4.45l.54,0a2.28,2.28,0,0,1,0,4.54Zm-8.82-.57-.53.2a2.36,2.36,0,0,1,0-4.69l.53.21a2.14,2.14,0,0,1,0,4.28Zm-8.82,0-.54.17a2.35,2.35,0,0,1,0-4.66l.53.17a2.16,2.16,0,0,1,0,4.32Zm-8.83,0-.53.13a2.32,2.32,0,0,1,0-4.62l.54.14a2.18,2.18,0,0,1,0,4.35Zm-8.82,0-.54.1a2.31,2.31,0,0,1,0-4.59l.53.1a2.2,2.2,0,0,1,0,4.39Zm-8.83,0-.53.06a2.29,2.29,0,0,1,0-4.55l.54.07a2.21,2.21,0,0,1,0,4.42Zm-8.82,0-.54,0a2.27,2.27,0,0,1,0-4.52l.54,0a2.24,2.24,0,0,1,0,4.46Z"/><path class="cls-2" d="M649,77.57l-.54.18a2.36,2.36,0,0,1,0-4.68l.53.2a2.15,2.15,0,0,1,0,4.3Zm-8.83,0-.53.15a2.34,2.34,0,0,1,0-4.65l.54.16a2.17,2.17,0,0,1,0,4.34Zm-8.82,0-.54.11a2.32,2.32,0,0,1,0-4.61l.54.13a2.19,2.19,0,0,1,0,4.37Zm-8.82,0-.54.08a2.3,2.3,0,0,1,0-4.58l.53.09a2.21,2.21,0,0,1,0,4.41Zm-8.83,0-.53,0a2.28,2.28,0,0,1,0-4.54l.54.06a2.23,2.23,0,0,1,0,4.44Zm-8.82,0h-.54a2.26,2.26,0,0,1,0-4.51l.53,0a2.25,2.25,0,0,1,0,4.48Zm-8.83,0-.53,0a2.25,2.25,0,0,1,0-4.48h.54a2.26,2.26,0,0,1,0,4.51Zm-8.82,0-.53-.06a2.23,2.23,0,0,1,0-4.44l.53,0a2.28,2.28,0,0,1,0,4.55ZM578.43,77l-.54.18a2.36,2.36,0,0,1,0-4.68l.53.2a2.15,2.15,0,0,1,0,4.3Zm-8.83,0-.53.15a2.34,2.34,0,0,1,0-4.65l.54.16a2.17,2.17,0,0,1,0,4.34Zm-8.82,0-.54.11a2.32,2.32,0,0,1,0-4.61l.53.13a2.19,2.19,0,0,1,0,4.37ZM552,77l-.53.08a2.3,2.3,0,0,1,0-4.58l.54.09A2.21,2.21,0,0,1,552,77Zm-8.82,0-.53,0a2.28,2.28,0,0,1,0-4.54l.53.06a2.23,2.23,0,0,1,0,4.44Zm-8.83,0h-.53a2.26,2.26,0,0,1,0-4.51l.54,0a2.25,2.25,0,0,1,0,4.48Zm-8.82,0L525,77a2.25,2.25,0,0,1,0-4.48h.53a2.26,2.26,0,0,1,0,4.51Zm-8.82,0-.54-.06a2.23,2.23,0,0,1,0-4.44l.53-.05a2.29,2.29,0,0,1,0,4.55Zm-8.83-.56-.53.18a2.36,2.36,0,0,1,0-4.68l.54.2a2.15,2.15,0,0,1,0,4.3Zm-8.82,0-.54.15a2.34,2.34,0,0,1,0-4.65l.53.16a2.17,2.17,0,0,1,0,4.34Zm-8.83,0-.53.11a2.32,2.32,0,0,1,0-4.61l.54.13a2.19,2.19,0,0,1,0,4.37Zm-8.82,0-.53.08a2.3,2.3,0,0,1,0-4.58l.53.09a2.21,2.21,0,0,1,0,4.41Zm-8.82,0-.54,0A2.28,2.28,0,0,1,472,72l.53.06a2.23,2.23,0,0,1,0,4.44Z"/><path class="cls-2" d="M649,86l-.53-.08a2.22,2.22,0,0,1,0-4.42l.54-.06A2.18,2.18,0,0,1,651,83.74,2.21,2.21,0,0,1,649,86Zm-8.82-.56-.53.16a2.35,2.35,0,0,1,0-4.66l.54.18a2.16,2.16,0,0,1,0,4.32Zm-8.82,0-.54.13a2.33,2.33,0,0,1,0-4.63l.53.14a2.18,2.18,0,0,1,0,4.36Zm-8.83,0-.53.1a2.31,2.31,0,0,1,0-4.6l.54.11a2.2,2.2,0,0,1,0,4.39Zm-8.82,0-.54.06a2.29,2.29,0,0,1,0-4.56l.53.07a2.22,2.22,0,0,1,0,4.43Zm-8.83,0-.53,0a2.27,2.27,0,0,1,0-4.53l.54,0a2.24,2.24,0,0,1,0,4.46Zm-8.82,0h-.53a2.25,2.25,0,0,1,0-4.49H596a2.26,2.26,0,0,1,0,4.5Zm-8.82,0-.54,0a2.23,2.23,0,0,1,0-4.45l.53,0a2.27,2.27,0,0,1,0,4.53Zm-8.83,0-.53-.08a2.22,2.22,0,0,1,0-4.42l.54-.07a2.3,2.3,0,0,1,0,4.57Zm-8.82-.57-.54.17a2.18,2.18,0,0,1,0-4.35l.52,0a2.08,2.08,0,0,1,0,4.15Zm-8.83,0-.53.14a2.34,2.34,0,0,1,0-4.64l.54.15a2.18,2.18,0,0,1,0,4.35Zm-8.82,0-.53.1a2.2,2.2,0,0,1,0-4.4l.52,0a2.14,2.14,0,0,1,0,4.28Zm-8.82,0-.54.07a2.22,2.22,0,0,1,0-4.43h.52a2.18,2.18,0,0,1,0,4.35Zm-8.83,0-.53,0a2.23,2.23,0,0,1,0-4.45h.51a2.21,2.21,0,0,1,0,4.41Zm-8.82,0h-.54a2.26,2.26,0,0,1,0-4.5h.53a2.25,2.25,0,0,1,0,4.49Zm-8.83,0-.53,0a2.24,2.24,0,0,1,0-4.46l.54,0a2.27,2.27,0,0,1,0,4.52Zm-8.82,0-.53-.07a2.22,2.22,0,0,1,0-4.43l.53-.06a2.29,2.29,0,0,1,0,4.56ZM499,84.32l-.53.17a2.35,2.35,0,0,1,0-4.67L499,80a2.16,2.16,0,0,1,0,4.31Zm-8.82,0-.53.14a2.12,2.12,0,0,1-2.07-2.19,2.14,2.14,0,0,1,2.1-2.19l.51,0a2.11,2.11,0,0,1,0,4.22Zm-8.82,0-.54.1a2.31,2.31,0,0,1,0-4.6l.53.12a2.19,2.19,0,0,1,0,4.38Zm-8.83,0-.53.07a2.3,2.3,0,0,1,0-4.57l.54.08a2.21,2.21,0,0,1,0,4.42Z"/><path class="cls-2" d="M648.91,93.88l-.53,0a2.23,2.23,0,0,1,0-4.45l.53,0a2.28,2.28,0,0,1,0,4.54Zm-8.82,0-.54-.09a2.21,2.21,0,0,1,0-4.41l.53-.07a2.3,2.3,0,0,1,0,4.57Zm-8.83-.56-.53.15a2.34,2.34,0,0,1,0-4.65l.54.17a2.17,2.17,0,0,1,0,4.33Zm-8.82,0-.54.12a2.32,2.32,0,0,1,0-4.62l.53.13a2.19,2.19,0,0,1,0,4.37Zm-8.83,0-.53.08a2.3,2.3,0,0,1,0-4.58l.54.1a2.2,2.2,0,0,1,0,4.4Zm-8.82,0-.53.05a2.28,2.28,0,0,1,0-4.55l.53.06a2.23,2.23,0,0,1,0,4.44Zm-8.82,0h-.54a2.26,2.26,0,0,1,0-4.51l.53,0a2.24,2.24,0,0,1,0,4.47Zm-8.83,0-.53,0a2.25,2.25,0,0,1,0-4.48h.54a2.26,2.26,0,0,1,0,4.51Zm-8.82,0-.54-.06a2.23,2.23,0,0,1,0-4.44l.53,0a2.28,2.28,0,0,1,0,4.54Zm-8.83,0-.53-.09a2.21,2.21,0,0,1,0-4.41l.54-.08a2.3,2.3,0,0,1,0,4.58Zm-8.82-.56-.53.15a2.34,2.34,0,0,1,0-4.65l.53.17a2.17,2.17,0,0,1,0,4.33Zm-8.82,0-.54.12a2.32,2.32,0,0,1,0-4.62l.53.13a2.19,2.19,0,0,1,0,4.37Zm-8.83,0-.53.08a2.3,2.3,0,0,1,0-4.58l.53.1a2.2,2.2,0,0,1,0,4.4Zm-8.82,0-.54,0a2.29,2.29,0,0,1,0-4.55l.53.06a2.23,2.23,0,0,1,0,4.44Zm-8.83,0h-.53a2.26,2.26,0,0,1,0-4.51l.54,0a2.24,2.24,0,0,1,0,4.47Zm-8.82,0-.53,0a2.25,2.25,0,0,1,0-4.48h.53a2.26,2.26,0,0,1,0,4.51Zm-8.83,0-.53-.06a2.23,2.23,0,0,1,0-4.44l.54,0a2.28,2.28,0,0,1,0,4.54Zm-8.82,0-.53-.09a2.21,2.21,0,0,1,0-4.41l.53-.08a2.3,2.3,0,0,1,0,4.58Zm-8.82-.57-.54.16a2.34,2.34,0,0,1,0-4.65l.53.17a2.16,2.16,0,0,1,0,4.32Zm-8.83,0-.53.13a2.2,2.2,0,0,1,0-4.39l.52,0a2.12,2.12,0,0,1,0,4.24Zm-8.82,0-.54.09a2.3,2.3,0,0,1,0-4.58l.53.1a2.2,2.2,0,0,1,0,4.39Z"/><path class="cls-2" d="M648.86,101.76l-.54,0a2.24,2.24,0,0,1,0-4.46l.53,0a2.27,2.27,0,0,1,0,4.53Zm-8.83,0-.53-.08a2.22,2.22,0,0,1,0-4.42l.54-.06a2.29,2.29,0,0,1,0,4.56Zm-8.82,0-.54-.11a2.2,2.2,0,0,1,0-4.39l.53-.09a2.31,2.31,0,0,1,0,4.59Zm-8.83-.57-.53.14a2.34,2.34,0,0,1,0-4.64l.54.16a2.17,2.17,0,0,1,0,4.34Zm-8.82,0-.53.11a2.2,2.2,0,0,1,0-4.4l.52,0a2.14,2.14,0,0,1,0,4.27Zm-8.82,0-.54.07a2.3,2.3,0,0,1,0-4.57l.53.09a2.21,2.21,0,0,1,0,4.41Zm-8.83,0-.53,0a2.28,2.28,0,0,1,0-4.54l.54,0a2.23,2.23,0,0,1,0,4.45Zm-8.82,0h-.54a2.26,2.26,0,0,1,0-4.5l.53,0a2.25,2.25,0,0,1,0,4.48Zm-8.83,0-.53,0a2.24,2.24,0,0,1,0-4.47l.54,0a2.27,2.27,0,0,1,0,4.52Zm-8.82,0-.54-.07a2.27,2.27,0,0,1,0-4.53h.52a2.31,2.31,0,0,1,0,4.6Zm-8.82,0-.54-.1a2.2,2.2,0,0,1,0-4.4l.53-.09a2.31,2.31,0,0,1,0,4.59Zm-8.83-.56-.53.14a2.34,2.34,0,0,1,0-4.64l.54.16a2.17,2.17,0,0,1,0,4.34Zm-8.82,0-.54.11a2.32,2.32,0,0,1,0-4.61l.53.12a2.19,2.19,0,0,1,0,4.38Zm-8.83,0-.53.07a2.3,2.3,0,0,1,0-4.57l.54.09a2.21,2.21,0,0,1,0,4.41Zm-8.82,0-.53,0a2.28,2.28,0,0,1,0-4.54l.53.05a2.23,2.23,0,0,1,0,4.45Zm-8.82,0H516a2.15,2.15,0,0,1-2.06-2.25A2.17,2.17,0,0,1,516,96.16h.52a2.24,2.24,0,0,1,0,4.47Zm-8.83,0-.54,0a2.24,2.24,0,0,1,0-4.47l.54,0a2.27,2.27,0,0,1,0,4.52Zm-8.82,0-.54-.07a2.27,2.27,0,0,1,0-4.53h.52a2.31,2.31,0,0,1,0,4.6Zm-8.83,0-.53-.1a2.2,2.2,0,0,1,0-4.4L490,96a2.31,2.31,0,0,1,0,4.59Zm-8.82-.56-.54.14A2.1,2.1,0,0,1,478.6,98a2.13,2.13,0,0,1,2.09-2.19l.52,0a2.11,2.11,0,0,1,0,4.21Zm-8.83,0-.53.11a2.32,2.32,0,0,1,0-4.61l.54.12a2.19,2.19,0,0,1,0,4.38Z"/><path class="cls-2" d="M648.8,109.63l-.53,0a2.25,2.25,0,0,1,0-4.48h.54a2.26,2.26,0,0,1,0,4.5Zm-8.82,0-.54,0a2.23,2.23,0,0,1,0-4.45l.54,0a2.28,2.28,0,0,1,0,4.54Zm-8.82,0-.54-.09a2.21,2.21,0,0,1,0-4.41l.53-.07a2.3,2.3,0,0,1,0,4.57Zm-8.83,0-.53-.12a2.19,2.19,0,0,1,0-4.38l.53-.11a2.32,2.32,0,0,1,0,4.61Zm-8.82-.56-.54.12a2.32,2.32,0,0,1,0-4.62l.53.14a2.18,2.18,0,0,1,0,4.36Zm-8.83,0-.53.09a2.31,2.31,0,0,1,0-4.59l.54.1a2.2,2.2,0,0,1,0,4.4Zm-8.82,0-.54.05a2.29,2.29,0,0,1,0-4.55l.53.07a2.22,2.22,0,0,1,0,4.43Zm-8.83,0-.53,0a2.27,2.27,0,0,1,0-4.52l.54,0a2.24,2.24,0,0,1,0,4.47Zm-8.82,0-.54,0a2.25,2.25,0,0,1,0-4.48h.54a2.26,2.26,0,0,1,0,4.5Zm-8.82,0-.54,0a2.23,2.23,0,0,1,0-4.45l.53,0a2.28,2.28,0,0,1,0,4.54Zm-8.83,0L560,109a2.21,2.21,0,0,1,0-4.41l.54-.07a2.3,2.3,0,0,1,0,4.57Zm-8.82,0-.54-.12a2.23,2.23,0,0,1-2.06-2.32,2.18,2.18,0,0,1,2.09-2.25h.52a2.37,2.37,0,0,1,0,4.7Zm-8.83-.57-.53.13a2.33,2.33,0,0,1,0-4.63l.54.15a2.18,2.18,0,0,1,0,4.35Zm-8.82,0-.54.1a2.31,2.31,0,0,1,0-4.6l.54.11a2.14,2.14,0,0,1,2.06,2.22A2.12,2.12,0,0,1,534.09,108.5Zm-8.82,0-.54.06a2.29,2.29,0,0,1,0-4.56l.53.08a2.22,2.22,0,0,1,0,4.42Zm-8.83,0-.53,0a2.24,2.24,0,0,1,0-4.46h.52a2.22,2.22,0,0,1,0,4.43Zm-8.82,0h-.54a2.25,2.25,0,0,1,0-4.49h.53a2.25,2.25,0,0,1,0,4.49Zm-8.83,0-.53,0a2.27,2.27,0,0,1,0-4.52h.52a2.29,2.29,0,0,1,0,4.56Zm-8.82,0-.54-.08a2.21,2.21,0,0,1,0-4.42l.53-.06a2.29,2.29,0,0,1,0,4.56Zm-8.83,0-.53-.11a2.3,2.3,0,0,1,0-4.57h.52a2.36,2.36,0,0,1,0,4.69Zm-8.82-.56-.54.13a2.33,2.33,0,0,1,0-4.63l.54.15a2.18,2.18,0,0,1,0,4.35Z"/><path class="cls-6" d="M152.05,458.13c-19.3-4.51-43.31-6.33-62.61-10.84,13.91,27.15,22.78,58.34,36.69,85.49,2.2,30.45,14.73,62.37,19.15,93.14H171c5.87-36.17,7.6-82,3.41-103.24C167.47,501.61,159,479.2,152.05,458.13Z"/><polygon class="cls-6" points="117 301.59 141.06 251.65 172.23 299.37 234.57 295.04 201.13 451.95 84.94 375.03 127.89 324.55 117 301.59"/><path class="cls-6" d="M73,206.55c22.3-10.22,50.63,3.86,63.26,31.43s7.36,55.94-21,67.54-38.45-10-56.14-38.31S50.71,216.77,73,206.55Z"/><path class="cls-6" d="M134.68,228.4c6.82-3.12,11.18,3,14.3,9.82s-2.14,13.43-6.19,16.08c-6.81,3.13-11.67-1.11-14.79-7.92A13.56,13.56,0,0,1,134.68,228.4Z"/><path class="cls-7" d="M257.57,555.38l-72,7.4c-7.73,19.74-15.45,41.22-23.18,63.14H350.11c6.67-24.95,9.09-55.51,1.84-95.39l-104.3,38.3,7.9-2.9Q256.56,560.65,257.57,555.38Z"/><path class="cls-8" d="M151.54,461.45,136.4,427.87,83.2,374.4C74.69,402,80.32,437.72,87,460.29,109.83,470.1,133.38,469.14,151.54,461.45Z"/><path class="cls-8" d="M83.2,374.4,119.55,332c20.79,19.81,66.55-10.1,63.52-35.07l51.71-3.74,1,.21c-.14,4.43,119.82,174.27,119.82,244-27.19,35.78-112.6,58.35-175.69,29.28C185.26,469.85,111.07,416.51,83.2,374.4Z"/><path class="cls-6" d="M297.79,362l-17.5-61.59c46.54-9.76,103.06,5.74,107.27,9.54,24.84,22.39-53.23,131.58-52.41,132.41,7.86,7.95,23.44,27.18,22.44,34.05-1.44,9.8-3.17,13.62-9.07,24.56v0c-7.34-22.77-19.69-49.15-33.6-75.32,2-14.82,10.92-58.38,12.16-66.32Z"/><path class="cls-8" d="M234.78,293.18l43.37,73.37,31.62-.83c13.9-11.76,11.88-61.38,5.05-71.69Z"/><path class="cls-9" d="M358.88,429c15.41,4,23.44,21.85,25.25,36.29,1.78,14.22-1.43,31.14-14,39.7a3.05,3.05,0,1,1-3.43-5,22.7,22.7,0,0,0,3.86-3.33c7.28-7.9,8.82-20.3,7.54-30.56-1.47-11.74-8-27.86-20.71-31.14a3.05,3.05,0,1,1,1.52-5.91Z"/><path class="cls-9" d="M367.13,410.88c21.79,5.61,33.09,31.18,35.64,51.55,2.53,20.11-1.93,44.23-19.77,56.35a3.05,3.05,0,1,1-3.43-5,33.85,33.85,0,0,0,5.84-5.05c10.87-11.78,13.23-30.16,11.31-45.49-2.22-17.68-12-41.47-31.11-46.4a3.05,3.05,0,1,1,1.52-5.91Z"/><ellipse class="cls-3" cx="329.01" cy="472.2" rx="37.86" ry="35.17"/><path class="cls-6" d="M78.9,288.71c0,2.84-4.56,3.65-7.54,4.23-5.76,1.12-7.43-1.93-7.43-4.77s1.28-6.39.94-16.82C64.67,265.48,78.9,285.87,78.9,288.71Z"/><polygon class="cls-9" points="250.22 602.73 244.46 625.92 253.02 625.92 250.22 602.73"/><polygon class="cls-9" points="119.72 418.94 147.76 462.97 151.54 461.45 119.72 418.94"/><polygon class="cls-9" points="253.47 322.52 281.11 366.47 284.91 366.37 253.47 322.52"/><path class="cls-9" d="M128,246.38c-.09,3.34-2.08-.85-3.26-2.51-5.15-7.24-18.93-4.52-26.89-2.41-21.85,5.78-33.42,5.35-42.11,21.07-1.09,2-21.49-13.66-21.49-38,0-15.18,11.12-32.31,22.82-40.21,7-4.75,24.09-11.46,33.05-13.1,10.24-1.87,36.95-2.1,58.09,19.64,19,19.52,15.23,58.23,3.33,76.8l-8.75-13.4c5-2.65,3.53-8.5,2.13-11.41C138.18,228.82,128.64,222.94,128,246.38Z"/><rect class="cls-4" x="165.1" y="116.78" width="74.74" height="51.36" rx="6.25"/><path class="cls-4" d="M239.84,123v11.66l-33.46,33.46h-35a6.25,6.25,0,0,1-6.25-6.25V150.25l33.46-33.47h35A6.26,6.26,0,0,1,239.84,123Z"/><path class="cls-3" d="M201.34,128.06a10.92,10.92,0,0,0-15.45,15.44l16.58,16.57V129.19Z"/><path class="cls-3" d="M203.6,128.06A10.92,10.92,0,0,1,219,143.5l-16.57,16.57V129.19Z"/><path class="cls-10" d="M187.91,120.39V109.93a4.09,4.09,0,0,1,4.09-4.08h20.94a4.08,4.08,0,0,1,4.08,4.08v10.46"/><path class="cls-11" d="M545.27,237.65c-.1,3.73-7,6.58-15.53,6.36s-15.28-3.41-15.19-7.15,7.05-6.58,15.53-6.36S545.36,233.92,545.27,237.65Z"/><path class="cls-12" d="M524.36,231.41a11,11,0,0,1-2.06,2.33,53.22,53.22,0,0,1-5.5,3.11,1.7,1.7,0,0,0-.26,2.65c.71.42,3,.24,4.52-.1s3.37-2.13,4.23-2.26,4.07-.27,4.91-1.35.19-2.94.24-4.32S524.36,231.41,524.36,231.41Z"/><path class="cls-13" d="M521.62,182.61c-2.57,7.16-1.6,29.12-1,30.77,2.88,8.28,3,16,3.37,17.85s4.93,1.6,5.77-.92a30.56,30.56,0,0,0-1.47-19c0-1.91,4.1-15.51,4.1-15.51l-.28-9.88S522.17,181.41,521.62,182.61Z"/><path class="cls-4" d="M537.07,232.7a14.31,14.31,0,0,1-.52,1.93c-.24.59-1.52,3.91-2.1,5.15s.58,2.59,1.92,2.8a3.94,3.94,0,0,0,3.87-1.5c1.12-1.39,1.31-5.9,1.31-5.9a11.71,11.71,0,0,0-.12-2.78C541.18,231.07,537.07,232.7,537.07,232.7Z"/><path class="cls-13" d="M521.57,183c3.63,7.46,8.57,8.79,8.57,8.79.66,5.85.26,11.8,4.07,21.29,2,4.95.93,12.84,2.53,19.4.49,2,3.61,1.79,4.75.58s3.14-13.42-.17-24c-.57-1.84,3.13-21.1.24-25.87C539.67,180.88,521.75,182.35,521.57,183Z"/><path class="cls-2" d="M516.6,164.65c-1,2.29-1.66,4.67-2.23,5.63-1.76,3.69-3.92,13-4.88,16.05-.08.72,2.53,1.26,2.76.43s4.87-9,6.38-14.52c.68-1.51,1.15-2.17,1.39-3a33.1,33.1,0,0,0-.25-5.19S517.33,164.1,516.6,164.65Z"/><path class="cls-13" d="M523.63,152c-3.47-.77-4.74,1.9-5.28,3.51s-.83,5.2-1.81,7.91,5.16,4.2,6.19,1.41,2.41-6.44,2.9-7.94S527.09,152.74,523.63,152Z"/><polygon class="cls-2" points="530.92 153.12 531.28 153.6 532.36 155.38 531.97 157.68 530.92 159.96 528.59 160.78 524.82 160.48 522.86 158.02 525.62 152.75 528.99 151.83 530.92 153.12"/><path class="cls-1" d="M531.28,153.6s.85,2.85-.56,4.4a4.67,4.67,0,0,1-5.59,1.2c-3.93-2.09-1.72-6.75-1.72-6.75s-.94-1.67-1.84-1.22c-1.1,4.39-4.63,12.39-4.71,15.58s3,4.12,3.85,4.66c.92,6.76.58,11.14,0,13.61s10.54,6.43,15.47,4.83c4.77-1.56,6.22-5.24,5.63-6.63-1.77-4.17-4.45-4.41-4.45-6.13a10.28,10.28,0,0,1,.9-4.33s1-11.44.81-12.31A89.25,89.25,0,0,0,531.28,153.6Z"/><path class="cls-1" d="M520.71,171.47s6.61,5.9,11.81,1.43C528.31,179.17,520.71,171.47,520.71,171.47Z"/><path class="cls-2" d="M532.86,172.75c-.37,2.77-.29,7.88-.5,8.55-1.14,5.67-.32,10.08-.75,15.84-.14.5,2.38.09,2.67-.38.7-3.81,2.87-8.86,3.12-15.4.12-.85.92-6.17.91-7.05s-2.23-2.52-2.23-2.52S533.08,171.7,532.86,172.75Z"/><path class="cls-13" d="M536.75,160c-3.54.25-3.76,3-3.82,4.65s-.4,5.31-.57,8.19,6.85,3.27,7,.31.62-7.46.65-9S540.3,159.73,536.75,160Z"/><path class="cls-2" d="M528,152.66a9.83,9.83,0,0,0-6.06-2.89c-3.62-.21-5.36,2.46-5.18,2.72.06,1.65,1.79,2.5,1.77,2.74a4.89,4.89,0,0,0,.86,1.58,3.88,3.88,0,0,0,.26,1.52c.12.1.46,0,.82,0a15.87,15.87,0,0,0,1.08,1.32,2.16,2.16,0,0,0,2.26.38C530.22,156.49,528,152.66,528,152.66Z"/><path class="cls-4" d="M517,153c1.35,1.64,4.37,1.88,5.52,1.88-1.31-1.06.42-1.84.92-2.12,2.08,2.17,4.17,1.59,4.74,1s2.79-.64,2.79-.64a16.52,16.52,0,0,0,.25-5.86,7.22,7.22,0,0,0-7-5.93C520.71,139.29,512.21,147.18,517,153Z"/><path class="cls-2" d="M526.6,204.33c0,.28,1,.46,2.59.22a5,5,0,0,0,2.72-1.58l-1.07.13s-.26-.79-1.65-.55S526.6,203.59,526.6,204.33Z"/><path class="cls-11" d="M523.15,282.37,419.72,222.64l36.16-20.88,103.43,59.73Z"/><polygon class="cls-13" points="525.09 281.25 523.14 282.37 521.82 248.54 520.82 247.09 522.76 245.97 525.09 247.31 525.09 281.25"/><polygon class="cls-4" points="523.14 282.37 520.82 281.02 520.82 247.09 523.14 248.43 523.14 282.37"/><polygon class="cls-13" points="423.98 224.51 422.04 225.63 420.71 191.81 419.71 190.35 421.66 189.23 423.98 190.57 423.98 224.51"/><polygon class="cls-4" points="422.04 225.63 419.71 224.29 419.71 190.35 422.04 191.69 422.04 225.63"/><polygon class="cls-13" points="559.31 261.49 557.37 262.61 556.04 230.26 555.04 228.8 556.99 227.68 559.31 229.02 559.31 261.49"/><polygon class="cls-4" points="557.37 262.61 555.04 261.27 555.04 228.8 557.37 230.14 557.37 262.61"/><path class="cls-4" d="M523.15,250.77,419.72,191v-2.33l2.21.56,33.95-19.6L557.24,228.2Z"/><polygon class="cls-13" points="546.47 229.08 559.31 227.55 559.31 229.89 523.14 250.77 523.14 248.43 546.47 229.08"/><path class="cls-1" d="M523.15,248.43,419.72,188.71l36.16-20.88,103.43,59.72Z"/><polygon class="cls-13" points="523.14 247.01 422.17 188.71 422.17 187.23 551.99 226.18 556.85 226.08 556.85 227.55 523.14 247.01"/><polygon class="cls-13" points="523.14 245.54 422.17 187.23 455.88 167.77 556.85 226.08 523.14 245.54"/><polygon class="cls-11" points="525.75 212.6 498.02 228.61 490.98 224.55 518.71 208.54 525.75 212.6"/><path class="cls-1" d="M522.83,210.16c1.76-2.4,1.64-5.06-1.88-6.58-1.81-.78-3.37-1.27-4.21-.61l-25.05,14.26,5.52,9.3S522.34,210.84,522.83,210.16Z"/><path class="cls-2" d="M483.76,183.2s4.38,1.47,5.95,2.15c4.93.83,4.36,4.46,4.36,4.46l-.47,1.4-11.87-3.77-1-4Z"/><path class="cls-4" d="M470.53,180.2c2.52-2.58,6.39,1.87,13.23,3-2.37,0-3.1,3.07-3.1,3.07l-9.45-1.84S469.52,181.23,470.53,180.2Z"/><path class="cls-4" d="M493.07,189.69a95,95,0,0,1,20.4,4.43c8.25,2.33,13.7,1.15,16.44,1.8,2.88.16,2.63,6.13.8,7.28s-7,1.9-14.09.62c-4.53-.81-13.17.85-13.17.85l-14.72-4.17v-8.43S491.62,189.12,493.07,189.69Z"/><path class="cls-2" d="M509.49,186.33c-.37,1.21-2,3-3.28,4.88-.53.8-1,4.69-.4,4.93s1.34,0,2.29-.59.73-4,2.37-4.34c.79-.16-.74,2.54,0,2.79s1.68-1.6,1.88-2.5-.27-4-.1-4.74C512.29,185.57,509.82,185.23,509.49,186.33Z"/><path class="cls-4" d="M477.2,206.55a13.13,13.13,0,0,0,7.45,4.63c4.74.93,20.34.63,21.34,1.59,5.4,10.55,13.25,15,16,15.29s4.25-2.29,3.84-4.74-12.67-15.12-15.13-18S493.07,198,493.07,198s1.72-4.82,0-8.27c-.63-.68-9.82-3.42-9.82-3.42L472.62,200.5Z"/><path class="cls-2" d="M451.84,182.13a6.32,6.32,0,0,1,2.73,4.67l2,.51,5.49-1.78,2.18-2.36-1.91-1.06a4.64,4.64,0,0,1-.79,0,2,2,0,0,1,.68-1.63l-3.62-3.66-7.3,1.42-1.69,2.32S451.55,181.94,451.84,182.13Z"/><path class="cls-1" d="M453.69,189.69a5.78,5.78,0,0,0,.88-2.89c3.09-2,5.45-2.17,7.23-3.45,1.25-.9.54-1.24.54-1.24s7.52-2.71,10.88-1.73,4.23,3.09,5,3.35c4.49-1,14.88,6,14.88,6S481.7,192.07,477.2,200c-1.46,2.58,0,6.58,0,6.58a13.35,13.35,0,0,0-6.29-4.58,109.12,109.12,0,0,0-12-2Z"/><path class="cls-2" d="M453.79,168.57a11.45,11.45,0,0,1,5.49,2.3c.42.3.46,1.75.46,1.75s2,.06,2.22.44-.21,1.45-.21,1.45,2,2.64,2.5,3.48-.41,1.43-.92,1.84c-3.31,2.62-9.75.24-9.75.24s-.95,1.17-2.86.18a23.93,23.93,0,0,1-3.44-2.42l1.22-6.67A6.92,6.92,0,0,1,453.79,168.57Z"/><path class="cls-4" d="M453.79,168.57c0,.43-5,1.44-5,3.93,0,.63,2.67-.46,3.56.49.25.27.25,1.93,1.35,3.22.47.55-1.19,1.19-1.19,1.19-.18.2-.9-1.77-2.34.16-.69.93,1.13,1.92,1.44,2.94.4,1.29.67,2.59-1.41,1.6s-5.34-5.42-3.43-9.35C449.56,167,453.73,167.9,453.79,168.57Z"/><path class="cls-14" d="M455.61,202.75s1.47,2.41,4.62,0,1.84-4.29,1.84-4.29l-3.55-2.34-4.38,3.11Z"/><path class="cls-2" d="M490,185.74a7.45,7.45,0,0,0-2.4.32,17.4,17.4,0,0,0-2.45.64c-.66.37-1.35,1.27-1.34,3.28a1.8,1.8,0,0,0,1.53,1.87c1.4.33,3.47.58,4.92-1.62a2.49,2.49,0,0,0,1.82-1.94C492.21,187.33,492,186.26,490,185.74Z"/><path class="cls-2" d="M475,193.13a39.21,39.21,0,0,1,4.48-3.2c1.21-.55,3.62-.1,4.22.82s.33,3.57-.36,4.11a1.53,1.53,0,0,1-1.57,0s-1.29,1.61-4.56,1.85a4.15,4.15,0,0,1-2.21-.41l-.65-1.72Z"/><path class="cls-2" d="M453.69,199.11s1.8,2.69,3.48,5.23c1.06,1.61,1.82,3.45,2.86,3.52,7.56.49,12-7.36,17.17-11.12-1.57-.82-2.21-3.61-2.21-3.61-4.08,3.12-7.19,3.85-12.71,7.25A18.29,18.29,0,0,0,460,197C459.43,197.34,453.69,199.11,453.69,199.11Z"/><path class="cls-4" d="M452.67,189.74c-4.8,3.8-.49,8.26-.49,8.26s2.05,2.66,3.43,4.75c-1-2.58,3.85-6.06,6.46-4.29a18.68,18.68,0,0,0-3.43-4.59S456.19,187,452.67,189.74Z"/><path class="cls-4" d="M529.91,226.59c4-.85,5.46-2.32,6.35-2.57s1.17.8,1.14,1.51a5.94,5.94,0,0,1-1.42,2.88c-.76.83-2.66,2.73-3,3.34s-.06,2.36-.59,3.28-3,1.17-3.49.89-2.27-3.44-2.27-3.44l-1.14-2.91,1.41-3.25S529,226.55,529.91,226.59Z"/><path class="cls-1" d="M525.86,223.32a7.54,7.54,0,0,0,4,3.27c-3.76,2.45-3.31,5.89-3.31,5.89a20.06,20.06,0,0,0-4.58-4.42C521,227.82,522,223.68,525.86,223.32Z"/><path class="cls-4" d="M534.41,195.71c.68-3.43-.62-9,0-9.65s3.81-.16,4.7.64a4.92,4.92,0,0,1,1.91,3.86c0,.71.35,4.34.47,5.15.37,2.41,1.12,3.56.9,5.34a2.58,2.58,0,0,1-2.21,2.33c-1.39.4-4.2-.4-4.2-.4l-3.62-2v-3A13,13,0,0,0,534.41,195.71Z"/><path class="cls-1" d="M530.81,196.21a9.94,9.94,0,0,0,3.6-.5,9.76,9.76,0,0,0,1.67,7.41,21.74,21.74,0,0,0-5.24,0C528.83,203.48,528.47,196.09,530.81,196.21Z"/><circle class="cls-4" cx="495.11" cy="221.49" r="5.46"/><path class="cls-11" d="M542.61,392.37c-4.91,2-2.41,8.67,5.6,14.84s18.49,9.54,23.4,7.52,2.41-8.67-5.59-14.84S547.53,390.35,542.61,392.37Z"/><path class="cls-1" d="M548.54,393.71c-2.39,1.46-6.11,3.55-8,3.82-1.16.16-.79,1.62-.46,2.32s4,.82,6,.64,2.53-1.24,4-1.29c2.32-.09,4.84.52,6.33-.65s.27-4.84.27-4.84S549,392.94,548.54,393.71Z"/><path class="cls-4" d="M558.35,358s-1.46,10.68-1.17,13.33A160.63,160.63,0,0,1,558,393c-.07,1.27-6.11,4.26-10,.68,1.63-12.82-3.6-36.4-2.29-47.92.9-2.19,12.6,1.92,12.6,1.92Z"/><path class="cls-15" d="M526,363.48a8.86,8.86,0,0,1-.54,3.94,15.12,15.12,0,0,0-1.39,2.67c-.17.53-4.87.09-4.85,0a6.42,6.42,0,0,1,.16-2c.33-.78,2.37-4.09,2.37-4.09S526,363.08,526,363.48Z"/><path class="cls-15" d="M552,392.18s-1.92,1.53-3.37.42-.57-2.5-1.57-3.6c-2.42-2.68-5-2.33-7-4.15-1-1.23,1.66-2.86,1.66-2.86l6.47,1.7,4,6.83Z"/><path class="cls-11" d="M503.53,437.08c10.69,6.17,28,6.17,38.69,0s10.69-16.17,0-22.34-28-6.17-38.69,0S492.84,430.91,503.53,437.08Z"/><path class="cls-3" d="M492.67,406.35a30.21,30.21,0,1,0,30.2-30.21A30.2,30.2,0,0,0,492.67,406.35Z"/><path class="cls-15" d="M532.81,371.32s9.26,2.79,10.59,5.14.53,3.08.53,3.08l-11.59-1.42Z"/><path class="cls-4" d="M535.19,374.83a4.8,4.8,0,0,0-4.11-4.14c-13.27-2.73-16-.33-16-.33l2.61,3Z"/><path class="cls-15" d="M494.56,386.8a2.05,2.05,0,0,1,.32-.85c3.45-3.43,5.25-3.09,9.75-6.84a50.72,50.72,0,0,1-1.39,5.3l-4.6,4.42Z"/><path class="cls-15" d="M503.82,405.69a9.07,9.07,0,0,0-1.11,4.75l.56,3.92-.91,2.3-2.17.89-3.58,1.8-5.13-.92L489,416.62l-.22-2s-.62-7.32,3.8-9.87a8.83,8.83,0,0,1,2.93-.4s1.55-2.58,1.45-4.07c-.14-.46-.63-2-.63-2l.46-1.78h2.79l4.29,2.88,1.62,3-.34,3A7,7,0,0,0,503.82,405.69Z"/><path class="cls-1" d="M496.47,405.74a5.84,5.84,0,0,1,4.34,5.08A9.11,9.11,0,0,0,496.47,405.74Z"/><path class="cls-4" d="M522.62,401.39s2.48.43,1.67,3.68c-1,4.18-3.13,3.33-3.13,3.33l-1.88-1.1-.6-2.21.67-2.88,1.55-.82Z"/><path class="cls-15" d="M522,401.53a50.05,50.05,0,0,1,5.53,1.5c2.2-.81,8.41-2.36,11.42-3.59l.73-.32c.77-.42.07-1.49.84-2.62.38-.56.57-.78,1-.55s.06.84.07,1.45a.38.38,0,0,0,.57.32c.39-.22.88-.39,1.51-.75,2.58-1.5,5.61.18,2.44,3.41a10.1,10.1,0,0,1-2.41,1.39,3.22,3.22,0,0,1-.61.24,5.46,5.46,0,0,0-1,.33c-2.39,1.26-11.91,6.53-13.71,6.47a65.58,65.58,0,0,1-7.5-1.3l-2.59-1.22.83-4.62Z"/><path class="cls-4" d="M496.11,398.66c-5.48-4.21-2.09-8.28-2-11.24,0-.37,1.38-1.91,4.31-.72.84.34,1.67,2.68,1.67,2.68S496.94,399.21,496.11,398.66Z"/><path class="cls-15" d="M560.06,383.36s.29-1.17-.77-1.44a8.17,8.17,0,0,0-4.61.92,25.57,25.57,0,0,1-3,2.35L554,388.7l6.11-3.92Z"/><path class="cls-15" d="M542.49,376.14c1.47.61,2.94.69,3.88,1.08,1.81.73,6.52,9.35,7.85,9.88.57.24,5.58-4.65,6.63-4.18,2.66,1.2,1.37,6.1.27,7.09a26.16,26.16,0,0,1-4.25,2.67c-.7.53-1.8,2.17-3.55,2.13s-1.79-2.66-2.79-4.05-6.57-3.09-6.9-6.48c-.56-.46-3.55,0-3.55,0S541,375.54,542.49,376.14Z"/><path class="cls-4" d="M526.87,386.26s10.89-1.68,13.21-1.08,5.38-8.83.86-10.09c-6.59-1.84-10.6-1.28-10.6-1.28s-5.59-5.35-15.5-3.41C514.46,370.91,526.87,386.26,526.87,386.26Z"/><path class="cls-1" d="M522.62,401.39c-3.83,1.69-1.46,7-1.46,7s-8.79-2.45-11.5-2.54-3.94.23-5.84-.17c.82-1.79-2.26-5.47-4.87-7.08s-2,1.68-2,1.68-2.29-2.7-.72-8.83c2.13-8.33,15.7-19,17.91-20.76s11.82,3.93,14.32,8.18-.43,7.73-2.21,8.22c-9.45,2.65-11.22,12-11.22,12Z"/><polygon class="cls-4" points="514.99 399.12 510.61 398.31 515.46 397.5 514.99 399.12"/><path class="cls-4" d="M502.71,410.44c2.48,4,.17,4.44,1.2,9.71-1.2-.52-1.19-2.26-1.82-2.43.14,2.84-1.27,2.88-2.13,7.85-.56-1.46-.73-3.09-1.3-3.22-.41,1.17-2.55,3.38-2.65,5.94-1.28-1.8-1.66-6.11-2.52-6.41-.51,1.06-1.4,1.1-1.53,1.66a13.12,13.12,0,0,1-2.75-5.27s-.1-1.14-2.2.6c0-2.39,1-4,1.72-4.24.3-.11.9.58,1.06,1.15,2.64-.62,6.2,3.57,7.81.06.45-1,2.19-1.33,2.19-1.33s.57,1.46,1.73.87.66-3.65.66-3.65S502.38,410.24,502.71,410.44Z"/><path class="cls-15" d="M534.61,338.44s-1.41,6.06-1.5,7.34c.35,5.71-5.58,13.76-7.07,17.7-.25.1-1.65.93-3.64-.8,2.72-7.3,2.44-15,4.69-20,.18-2.7.51-6.57.51-6.57Z"/><path class="cls-4" d="M534.1,318c-7.42-1.1-7.19,10.94-7.19,10.94s-.34,4.5-.55,7.65c1.71,1.92,6.61,2.91,8.85,2.26.64-2.39,1.33-8.14,1.33-8.14S541.11,319,534.1,318Z"/><path class="cls-1" d="M564.21,404.1a24.14,24.14,0,0,1-2.83,6.32c-.41.67-.53,2.44-.09,2.88s5.58,2.3,7.88-1.2c1.88-2.85,1-8.55,1-8.55Z"/><path class="cls-4" d="M545.75,345.76c5.4,6.61,9.85,8.43,9.85,8.43,1.1,6,1.93,15.76,5,26.28C562.2,386,563,396.89,563.11,403c.06,3.19,7.17,2.47,7.3-.32.18-3.78,1.59-15.4-1-26.56-.48-2,2.36-26.25-.77-31.42C566.55,342.18,545.94,345.05,545.75,345.76Z"/><polygon class="cls-15" points="535.07 322.17 536.83 320.34 541.61 321.53 545.59 324.39 545.75 328.87 544.43 332.78 542.47 335.27 538.64 335.27 536.1 333.25 533.91 327.85 535.07 322.17"/><path class="cls-1" d="M535.19,322.68a8,8,0,0,1,5.35,0c2.39,1.11,3.86,4.07,3.63,7.17s-4,4.73-5,4.25S535.9,330,535.9,330l-.71,3.05a48.35,48.35,0,0,0,10.13,7.74,36.72,36.72,0,0,0,0,5s9.76,6.48,16.06,6.41,8.64-2.25,8.81-4.51c.69-9-6.22-14.79-7.77-17.21-5.35-8.34-12.32-9.2-12.32-9.2s-5.59-5.38-16.46-3.72c-2.39.37-4.32,3.72-4.32,3.72l2.76,2.3Z"/><path class="cls-4" d="M552.75,343.65s-7.4-3.17-7.43-2.83C547.62,342.9,552.75,343.65,552.75,343.65Z"/><path class="cls-15" d="M526,335.55l2.6.94s.72,1.39,1.38,1.55,1.41-1.22,1.41-1.22,3.86.39,4.36-.41,2.36-3.64,2.32-4.41a3.31,3.31,0,0,0-.53-1.49,3,3,0,0,0,0-1.54,21.52,21.52,0,0,0-1.06-2.79H530l-4,2.12Z"/><path class="cls-3" d="M537.62,329s-1.59-.93-2.21.22a5.81,5.81,0,0,0-.4,2.92s-1.32-.53-2,.39c-1.68,2.31-4.87,2-4.87,2s-2.65,2.48-4.82,0c-1.56-1.78-4.38-11.11,2.35-13.81,3.14-.4,8.1-2.43,12.7,4.38C539.27,326.39,537.62,329,537.62,329Z"/><path class="cls-15" d="M547.8,347.06c-.39,2.36-.82,6.51-.82,6.51s-6,18.54-6.57,19.2-3.23.8-3.89,1.42-2,2.53-1.78,3.13,2.15-1,2.48-.92-.57,3.34-.57,3.34-2.52,1.88-2.52,2.94c0,.6,4.84,1.13,7.26-2.52.57-.87,2.12-4,2.78-5.53,1.88-4.27,8.14-11.28,9-18.54a59.56,59.56,0,0,1,2.45-6.15l-2.18-2.61S548.11,346.31,547.8,347.06Z"/><path class="cls-4" d="M556.94,328.3c-6.3-1.71-7.75,11.68-7.75,11.68a75.19,75.19,0,0,0-1.78,7.47c1.53,2.07,6.32,3.51,8.6,3.06.87-2.33,2.07-8,2.07-8S563.77,330.16,556.94,328.3Z"/><path class="cls-15" d="M526,363.48a5.08,5.08,0,0,1-1.92,3.85s0,2.93-.67,3-1-2.13-1.85-3.86c-.66-1.38.8-3.82.8-3.82l1.72-.5S526,363.15,526,363.48Z"/></svg>