<svg xmlns="http://www.w3.org/2000/svg" viewBox="0 0 338 153"><defs><style>.cls-1{fill:none;stroke:#384b51;stroke-miterlimit:10;stroke-width:3px;}.cls-2{fill:#010101;opacity:0.3;}.cls-3{fill:#14a9a0;}.cls-4,.cls-9{fill:#384b51;}.cls-5{fill:#5b7781;}.cls-6{fill:#d2ebf3;}.cls-7{fill:#95c6d1;}.cls-8{fill:#939599;}.cls-9{font-size:10.53px;font-family:DFLiHei-Md-HK-BF, DFPLiHei-Md;}.cls-10{letter-spacing:0.04em;}.cls-11{letter-spacing:-0.01em;}.cls-12{letter-spacing:0em;}.cls-13{letter-spacing:0.01em;}</style></defs><g id="Layer_1" data-name="Layer 1"><rect class="cls-1" x="1" y="1.59" width="335.5" height="150.01"/></g><g id="Layer_2" data-name="Layer 2"><path class="cls-2" d="M283.25,98.27c-.09,3.27-6.17,5.76-13.6,5.57s-13.37-3-13.29-6.26S262.53,91.82,270,92,283.33,95,283.25,98.27Z"/><path class="cls-3" d="M265,92.8a9.75,9.75,0,0,1-1.8,2,45.56,45.56,0,0,1-4.82,2.72,1.49,1.49,0,0,0-.23,2.32c.62.36,2.65.21,4-.09s2.95-1.86,3.7-2,3.56-.23,4.29-1.18.17-2.58.21-3.78S265,92.8,265,92.8Z"/><path class="cls-4" d="M262.55,50.1c-2.25,6.26-1.41,25.49-.91,26.93,2.53,7.24,2.64,14,3,15.62s4.31,1.4,5-.81a26.53,26.53,0,0,0-1.29-16.64c0-1.67,3.6-13.58,3.6-13.58L271.7,53S263,49.05,262.55,50.1Z"/><path class="cls-5" d="M276.07,93.94a13.92,13.92,0,0,1-.45,1.69c-.21.52-1.34,3.42-1.84,4.5s.5,2.27,1.68,2.45a3.41,3.41,0,0,0,3.38-1.31c1-1.21,1.15-5.16,1.15-5.16a10.38,10.38,0,0,0-.11-2.44C279.67,92.52,276.07,93.94,276.07,93.94Z"/><path class="cls-4" d="M262.5,50.44c3.18,6.53,7.51,7.7,7.51,7.7.57,5.11.22,10.32,3.56,18.62,1.74,4.34.81,11.24,2.21,17,.43,1.74,3.16,1.57,4.16.52s2.75-11.76-.15-21c-.5-1.6,2.74-18.46.21-22.64C278.34,48.58,262.66,49.87,262.5,50.44Z"/><path class="cls-6" d="M258.15,34.38c-.84,2-1.45,4.09-1.94,4.93-1.54,3.23-3.44,11.41-4.28,14-.07.62,2.21,1.1,2.41.37s4.27-7.89,5.59-12.7a26,26,0,0,0,1.21-2.62,28.12,28.12,0,0,0-.21-4.54A7.3,7.3,0,0,0,258.15,34.38Z"/><path class="cls-4" d="M264.31,23.29c-3-.68-4.15,1.66-4.62,3.06s-.73,4.55-1.59,6.93,4.51,3.67,5.42,1.23,2.11-5.64,2.53-6.95S267.34,24,264.31,23.29Z"/><polygon class="cls-6" points="270.69 24.29 271 24.71 271.95 26.27 271.6 28.29 270.69 30.28 268.65 31 265.35 30.73 263.63 28.58 266.05 23.97 269 23.16 270.69 24.29"/><path class="cls-7" d="M271,24.71s.75,2.49-.49,3.85a4.08,4.08,0,0,1-4.89,1.05c-3.44-1.82-1.51-5.91-1.51-5.91s-.82-1.46-1.61-1.07c-1,3.85-4.05,10.85-4.12,13.64s2.61,3.61,3.37,4.08c.81,5.91.51,9.75,0,11.91s9.22,5.63,13.54,4.23,5.44-4.59,4.92-5.8c-1.55-3.65-3.89-3.87-3.89-5.37a9,9,0,0,1,.79-3.79s.88-10,.7-10.77A78.36,78.36,0,0,0,271,24.71Z"/><path class="cls-7" d="M261.75,40.35s5.79,5.17,10.33,1.25C268.4,47.09,261.75,40.35,261.75,40.35Z"/><path class="cls-6" d="M272.38,41.47c-.32,2.42-.25,6.89-.43,7.48-1,5-.29,8.83-.66,13.87-.13.43,2.08.07,2.34-.34.61-3.33,2.51-7.75,2.73-13.47.11-.75.8-5.4.79-6.17s-1.95-2.21-1.95-2.21S272.58,40.55,272.38,41.47Z"/><path class="cls-4" d="M275.79,30.29c-3.1.22-3.29,2.59-3.35,4.07S272.1,39,272,41.53s6,2.86,6.17.27.54-6.53.57-7.9S278.89,30.07,275.79,30.29Z"/><path class="cls-6" d="M268.16,23.88a8.62,8.62,0,0,0-5.31-2.52c-3.16-.19-4.69,2.15-4.53,2.38.05,1.45,1.57,2.18,1.55,2.4a4.43,4.43,0,0,0,.75,1.38,3.45,3.45,0,0,0,.23,1.33c.1.09.4,0,.71,0,.41.53.78,1,.95,1.15a1.87,1.87,0,0,0,2,.33C270.07,27.24,268.16,23.88,268.16,23.88Z"/><path class="cls-5" d="M258.46,24.17c1.18,1.43,3.83,1.65,4.83,1.65-1.15-.93.37-1.61.8-1.86,1.83,1.89,3.66,1.39,4.16.89s2.44-.56,2.44-.56a14.57,14.57,0,0,0,.22-5.13A6.34,6.34,0,0,0,264.79,14C261.75,12.18,254.31,19.09,258.46,24.17Z"/><path class="cls-6" d="M266.91,69.11c0,.24.85.4,2.26.19a4.41,4.41,0,0,0,2.39-1.38l-.94.12s-.23-.7-1.45-.49S266.9,68.46,266.91,69.11Z"/><path class="cls-2" d="M263.88,137.4,173.36,85.13,205,66.86l90.52,52.27Z"/><polygon class="cls-4" points="177.09 85.33 175.39 86.31 174.23 58 173.36 56.72 175.06 55.74 177.09 56.91 177.09 85.33"/><polygon class="cls-5" points="175.39 86.31 173.36 85.14 173.36 56.72 175.39 57.89 175.39 86.31"/><path class="cls-5" d="M263.88,109.75,173.36,57.48v-2l1.94.5L205,38.78,293.72,90Z"/><polygon class="cls-4" points="284.3 90.77 295.53 89.43 295.53 91.47 263.88 109.75 263.88 107.7 284.3 90.77"/><path class="cls-7" d="M263.88,107.7,173.36,55.43,205,37.16l90.52,52.27Z"/><polygon class="cls-4" points="263.88 106.46 175.51 55.43 175.51 54.15 289.12 88.23 293.38 88.14 293.38 89.43 263.88 106.46"/><polygon class="cls-4" points="263.88 105.17 175.51 54.15 205.01 37.11 293.38 88.14 263.88 105.17"/><polygon class="cls-2" points="266.17 76.35 241.89 90.36 235.73 86.81 260 72.79 266.17 76.35"/><path class="cls-7" d="M263.61,74.21c1.54-2.1,1.44-4.43-1.65-5.75-1.58-.69-2.95-1.12-3.68-.54L236.36,80.4l4.83,8.14S263.18,74.81,263.61,74.21Z"/><path class="cls-6" d="M229.41,50.62s3.84,1.29,5.21,1.88c4.32.72,3.82,3.9,3.82,3.9L238,57.62l-10.39-3.3-.89-3.51Z"/><path class="cls-5" d="M217.84,48c2.2-2.26,5.58,1.63,11.57,2.63-2.07,0-2.71,2.68-2.71,2.68l-8.27-1.61S217,48.89,217.84,48Z"/><path class="cls-5" d="M237.56,56.29a83,83,0,0,1,17.86,3.88c7.22,2,12,1,14.38,1.58,2.53.14,2.3,5.36.7,6.37s-6.12,1.66-12.33.54c-4-.71-11.52.75-11.52.75l-12.88-3.65V58.37S236.29,55.8,237.56,56.29Z"/><path class="cls-6" d="M251.93,53.36c-.32,1-1.77,2.59-2.87,4.26-.46.7-.84,4.11-.35,4.32s1.18,0,2-.51.65-3.53,2.08-3.81c.69-.13-.65,2.23,0,2.45s1.47-1.41,1.64-2.19-.23-3.53-.09-4.15C254.38,52.69,252.22,52.39,251.93,53.36Z"/><path class="cls-5" d="M223.67,71.05a11.5,11.5,0,0,0,6.52,4c4.15.82,17.8.55,18.68,1.39,4.72,9.23,11.59,13.1,14,13.38s3.72-2,3.36-4.15S255.17,72.49,253,70s-15.46-6.44-15.46-6.44,1.5-4.23,0-7.25c-.55-.59-8.59-3-8.59-3l-9.3,12.46Z"/><path class="cls-6" d="M201.48,49.68a5.55,5.55,0,0,1,2.38,4.08l1.77.45,4.8-1.55,1.91-2.07-1.67-.93a4.7,4.7,0,0,1-.69,0,1.74,1.74,0,0,1,.59-1.42L207.4,45,201,46.27l-1.47,2S201.23,49.52,201.48,49.68Z"/><path class="cls-7" d="M203.1,56.29a5.13,5.13,0,0,0,.76-2.53c2.71-1.75,4.78-1.89,6.34-3,1.09-.79.47-1.09.47-1.09s6.58-2.37,9.52-1.51,3.7,2.7,4.34,2.93c3.94-.86,13,5.21,13,5.21s-9.95,2.08-13.89,9c-1.28,2.26,0,5.76,0,5.76a11.73,11.73,0,0,0-5.51-4,94.49,94.49,0,0,0-10.47-1.75Z"/><path class="cls-6" d="M203.19,37.82a9.89,9.89,0,0,1,4.8,2c.37.26.4,1.53.4,1.53s1.73,0,1.94.38-.18,1.27-.18,1.27,1.78,2.31,2.19,3-.36,1.26-.81,1.61c-2.9,2.3-8.53.22-8.53.22s-.83,1-2.5.15a20.26,20.26,0,0,1-3-2.11l1.06-5.84A6.08,6.08,0,0,1,203.19,37.82Z"/><path class="cls-5" d="M203.19,37.82c0,.37-4.41,1.25-4.38,3.43,0,.55,2.33-.4,3.12.43.22.24.21,1.69,1.18,2.82.4.48-1.05,1-1.05,1-.16.18-.78-1.55-2,.14-.61.82,1,1.68,1.26,2.58.35,1.12.58,2.26-1.23,1.39s-4.68-4.74-3-8.18C199.48,36.42,203.13,37.22,203.19,37.82Z"/><path class="cls-8" d="M204.78,67.73s1.29,2.11,4,0S210.43,64,210.43,64l-3.11-2-3.83,2.72Z"/><path class="cls-6" d="M234.83,52.84a6.77,6.77,0,0,0-2.1.28,14.91,14.91,0,0,0-2.14.56c-.58.32-1.18,1.11-1.18,2.87a1.59,1.59,0,0,0,1.34,1.64c1.23.28,3,.51,4.3-1.42a2.19,2.19,0,0,0,1.6-1.7C236.8,54.23,236.58,53.3,234.83,52.84Z"/><path class="cls-6" d="M221.74,59.3a34.49,34.49,0,0,1,3.92-2.8c1.06-.48,3.16-.08,3.69.72s.29,3.13-.32,3.6a1.31,1.31,0,0,1-1.37,0,5.66,5.66,0,0,1-4,1.62,3.62,3.62,0,0,1-1.93-.35l-.57-1.51Z"/><path class="cls-6" d="M203.1,64.54s1.57,2.35,3,4.58c.93,1.4,1.59,3,2.5,3.08,6.62.43,10.53-6.44,15-9.74-1.38-.71-1.93-3.16-1.93-3.16-3.58,2.73-6.3,3.38-11.13,6.35a16,16,0,0,0-2-3C208.12,63,203.1,64.54,203.1,64.54Z"/><path class="cls-5" d="M202.2,56.34c-4.2,3.32-.43,7.23-.43,7.23s1.8,2.33,3,4.16c-.86-2.26,3.36-5.3,5.65-3.76a16.15,16.15,0,0,0-3-4S205.28,53.91,202.2,56.34Z"/><path class="cls-5" d="M269.8,88.59c3.47-.74,4.78-2,5.56-2.25s1,.7,1,1.32a5.06,5.06,0,0,1-1.23,2.52,39.54,39.54,0,0,0-2.66,2.93c-.32.53,0,2.06-.51,2.87s-2.6,1-3.06.78a17.65,17.65,0,0,1-2-3l-1-2.54,1.24-2.85S269,88.55,269.8,88.59Z"/><path class="cls-7" d="M266.26,85.72a6.62,6.62,0,0,0,3.54,2.87,5.63,5.63,0,0,0-2.89,5.15,17.75,17.75,0,0,0-4-3.87C262,89.66,262.86,86.05,266.26,85.72Z"/><path class="cls-5" d="M273.74,61.57c.6-3-.55-7.9,0-8.45s3.34-.14,4.11.56a4.32,4.32,0,0,1,1.67,3.38c0,.62.31,3.8.42,4.51.32,2.1,1,3.11.79,4.67a2.28,2.28,0,0,1-1.94,2,9.35,9.35,0,0,1-3.68-.35L272,66.19V63.61A12.09,12.09,0,0,0,273.74,61.57Z"/><path class="cls-7" d="M270.59,62a8.81,8.81,0,0,0,3.15-.43,8.55,8.55,0,0,0,1.46,6.48,18.74,18.74,0,0,0-4.58,0C268.86,68.37,268.54,61.9,270.59,62Z"/><circle class="cls-5" cx="239.35" cy="84.13" r="4.78"/><path class="cls-7" d="M13.06,54.69q1.68-4,7.91-8.43a60.28,60.28,0,0,0,7-5.55A8.21,8.21,0,0,0,30.42,35a6.3,6.3,0,0,0-1.4-4.2,4.92,4.92,0,0,0-4-1.68q-3.57,0-4.86,2.67a13,13,0,0,0-.88,4.89H11.66a19.28,19.28,0,0,1,1.84-8.22q3.13-6,11.14-6Q31,22.49,34.7,26a12.11,12.11,0,0,1,3.75,9.28,12.56,12.56,0,0,1-2.65,7.86,26.05,26.05,0,0,1-5.7,5.08L27,50.43c-2,1.4-3.31,2.4-4,3a8.48,8.48,0,0,0-1.83,2.17H38.5v6.89H11.22A18.63,18.63,0,0,1,13.06,54.69Z"/><path class="cls-7" d="M66.92,27.77Q70,33.13,70,43T66.92,58.18q-3.06,5.34-10.67,5.33T45.58,58.18Q42.51,52.86,42.51,43t3.07-15.22q3.06-5.37,10.67-5.36T66.92,27.77ZM51.63,53.5c.75,2.42,2.29,3.64,4.62,3.64s3.85-1.22,4.57-3.64A38.61,38.61,0,0,0,61.91,43q0-7.2-1.09-10.66a4.42,4.42,0,0,0-4.57-3.46,4.5,4.5,0,0,0-4.62,3.46Q50.51,35.8,50.51,43A37.62,37.62,0,0,0,51.63,53.5Z"/><path class="cls-7" d="M76,35.05V29.72a34.33,34.33,0,0,0,5.18-.5A7.3,7.3,0,0,0,85,27.13a6.92,6.92,0,0,0,1.53-2.85,6.67,6.67,0,0,0,.3-1.6h6.54V62.52h-8V35.05Z"/><path class="cls-7" d="M104.17,35.05V29.72a34.48,34.48,0,0,0,5.18-.5,7.24,7.24,0,0,0,3.83-2.09,6.82,6.82,0,0,0,1.54-2.85,6.67,6.67,0,0,0,.3-1.6h6.54V62.52h-8V35.05Z"/><text class="cls-9" transform="translate(10.17 86.6)"><tspan class="cls-10">成立於佐敦彌敦道238<tspan class="cls-11" x="105.61" y="0">號</tspan></tspan><tspan class="cls-12" x="0" y="12.64">（現址）</tspan><tspan class="cls-13" x="41.99" y="12.64">為廣泛市民提</tspan><tspan x="105.61" y="12.64">供</tspan><tspan x="0" y="25.28">物理治療。</tspan></text></g></svg>