<svg xmlns="http://www.w3.org/2000/svg" viewBox="0 0 338 153"><defs><style>.cls-1{fill:none;stroke:#384b51;stroke-miterlimit:10;stroke-width:3px;}.cls-2{font-size:10.53px;font-family:DFLiHei-Md-HK-BF, DFPLiHei-Md;}.cls-2,.cls-6{fill:#384b51;}.cls-3{fill:#95c6d1;}.cls-4,.cls-7{fill:#010101;}.cls-4{opacity:0.3;}.cls-5{fill:#d2ebf3;}.cls-8{fill:#121215;}.cls-9{fill:#5b7781;}.cls-10{fill:#0b5a51;}.cls-11{fill:#939599;}</style></defs><g id="Layer_1" data-name="Layer 1"><rect class="cls-1" x="1" y="1.59" width="335.5" height="150.01"/></g><g id="Layer_2" data-name="Layer 2"><text class="cls-2" transform="translate(14.07 90.58)">與莊柏醫療於地區展開合作，<tspan x="0" y="12.64">為屯門黃金海岸區一帶居民</tspan><tspan x="0" y="25.28">提供便利的治療。</tspan></text><path class="cls-3" d="M15.86,50.82c1.08-2.58,3.65-5.32,7.68-8.2a56.66,56.66,0,0,0,6.81-5.39,7.94,7.94,0,0,0,2.38-5.55,6.21,6.21,0,0,0-1.36-4.09A4.82,4.82,0,0,0,27.47,26c-2.31,0-3.89.87-4.73,2.59a12.92,12.92,0,0,0-.85,4.76H14.5a18.62,18.62,0,0,1,1.79-8q3-5.79,10.82-5.79c4.1,0,7.35,1.14,9.78,3.4a11.78,11.78,0,0,1,3.63,9A12.15,12.15,0,0,1,38,39.58a25.92,25.92,0,0,1-5.53,4.94l-3.05,2.16C27.46,48,26.16,49,25.45,49.61a8.75,8.75,0,0,0-1.77,2.11H40.57v6.7H14.07A18.15,18.15,0,0,1,15.86,50.82Z"/><path class="cls-3" d="M68.19,24.66q3,5.2,3,14.78t-3,14.77q-3,5.17-10.37,5.17T47.45,54.21q-3-5.19-3-14.77t3-14.78q3-5.2,10.37-5.21T68.19,24.66Zm-14.86,25q1.1,3.54,4.49,3.54t4.44-3.54a37.41,37.41,0,0,0,1.06-10.21q0-7-1.06-10.35a4.31,4.31,0,0,0-4.44-3.37,4.38,4.38,0,0,0-4.49,3.37q-1.09,3.36-1.09,10.35A36.43,36.43,0,0,0,53.33,49.65Z"/><path class="cls-3" d="M76.66,50.82q1.64-3.87,7.69-8.2a56.66,56.66,0,0,0,6.81-5.39,8,8,0,0,0,2.37-5.55,6.16,6.16,0,0,0-1.36-4.09A4.79,4.79,0,0,0,88.28,26c-2.32,0-3.89.87-4.73,2.59a12.92,12.92,0,0,0-.85,4.76H75.3a18.76,18.76,0,0,1,1.79-8q3-5.79,10.83-5.79,6.14,0,9.77,3.4a11.75,11.75,0,0,1,3.64,9,12.21,12.21,0,0,1-2.57,7.64,25.92,25.92,0,0,1-5.53,4.94l-3,2.16q-2.87,2-3.92,2.93a8.75,8.75,0,0,0-1.77,2.11h16.89v6.7H74.88A18.15,18.15,0,0,1,76.66,50.82Z"/><path class="cls-3" d="M129,24.66q3,5.2,3,14.78t-3,14.77q-3,5.17-10.37,5.17t-10.37-5.17q-3-5.19-3-14.77t3-14.78q3-5.2,10.37-5.21T129,24.66Zm-14.86,25q1.1,3.54,4.49,3.54t4.44-3.54a37.88,37.88,0,0,0,1.05-10.21,37.45,37.45,0,0,0-1.05-10.35,4.31,4.31,0,0,0-4.44-3.37,4.38,4.38,0,0,0-4.49,3.37q-1.1,3.36-1.09,10.35A36.43,36.43,0,0,0,114.14,49.65Z"/><path class="cls-4" d="M298.13,113.61c-5.86-3.38-14.52-4.15-21.68-2.33a108.37,108.37,0,0,0-12.32-8.46A48.94,48.94,0,0,0,277.4,97c12.9-8.17,17.09-19.82,9.34-26s-24.48-4.62-37.38,3.54c-7,4.42-11.42,9.87-12.78,14.92-8.85-3.31-16.32-5-20.09-4.31C209.39,86.5,218.13,96,236,106.29a166.86,166.86,0,0,0,29.06,13.34c-1.06,3.5.74,7.23,5.42,9.93,7.63,4.4,20,4.41,27.62,0S305.76,118,298.13,113.61Z"/><path class="cls-5" d="M283.6,80.81a2.35,2.35,0,0,0-.34,2.76c.25.6,4.38,1.22,5.39.46a4.54,4.54,0,0,0,1.7-3.22,74.25,74.25,0,0,0-2.44-9.19c-.46-1.17-1.86-1.34-3-1.08s-2.55,2.55-2.55,2.55Z"/><polygon class="cls-5" points="284.12 79.76 287.8 80.64 283.87 80.64 284.12 79.76"/><path class="cls-6" d="M256.07,53.63s-7.75,12-9.32,17.39,4.13,5.89,8.05,5.18c5-.91,11.47-7.76,11.47-7.76l1-9.39Z"/><path class="cls-7" d="M265.7,62.91s-8.68,9.31-7.86,9.81S265.7,62.91,265.7,62.91Z"/><path class="cls-6" d="M256.07,53.63c2.25,5.51,8.49,8.86,8.49,8.86s-3.71,25.62-2.3,28.67,5.48,4.38,8.91,1.86c2.91-2.13,10.91-8.25,13.15-12.92,1.91-4,.14-6.71-2.38-7.09s-7.86,7.09-7.86,7.09,3.68-11.59,4.95-16.72a17.79,17.79,0,0,0-1.32-11.71S256.46,52.51,256.07,53.63Z"/><path class="cls-8" d="M274.08,80.1s-4.2,8.17-3.56,8.38S274.08,80.1,274.08,80.1Z"/><path class="cls-6" d="M263.13,108.12a21.19,21.19,0,1,0,21.19-21.18A21.19,21.19,0,0,0,263.13,108.12Z"/><path class="cls-9" d="M248,89.34a86,86,0,0,1,4.23,8.6,3.18,3.18,0,0,1-3.56,3.85c-1.92-.53-6.42-3.46-6.42-3.46l-8.44-12.86s9.26-2.36,9.43-2.36A45.32,45.32,0,0,1,248,89.34Z"/><path class="cls-5" d="M222,92.75s-2.81-1.21-4.28-1.72-2,.21-3.44.21-1.84-.94-.31-2.14,5.58-2.26,5.58-2.26,1.8-2.79,3.3-2.09,2.24,4,2.24,4l0,2.13Z"/><path class="cls-9" d="M217.16,71s-1.63,4.17.25,7.86c2,4,7.29,9.43,7.29,9.43A4.67,4.67,0,0,0,222,92.75c13.34,7.16,16.6,12.65,19.4,13.13a4.16,4.16,0,0,0,4.7-4c-.06-1.82-9.49-17.42-9.49-17.42l-8-12.68Z"/><path class="cls-10" d="M265,76.49s2.18,1.22.75,4.13-3.35,1.53-3.35,1.53l-1.43-2,.38-2.62,2-1.32Z"/><path class="cls-5" d="M263.25,75.8s3.49,2.32,3.86,2.76c3.27.32,11.4,5.41,14.24,6.42.65.23,3,.07,4.09.35s3.19,2.61,2.89,3c-1.69,2.25-3.73-.15-5.68-.5-1.51.23,1.58,2.58.34,2.74-.69.09-3.17-1.86-3.94-3.18-4.12-1.48-9.77-1.15-14.86-4.74A27.83,27.83,0,0,1,260,80.92l-3.41-3.34,1.89-1.32Z"/><path class="cls-9" d="M249.85,70.92c-1.89,3.12,2.49,6.93,3.44,7.26,2.56.88,6.42,2.81,9.14,4-1.11-1.62-.07-5.47,2.6-5.66a37.17,37.17,0,0,1-6.84-4.7C254.88,68.69,251.67,67.91,249.85,70.92Z"/><path class="cls-5" d="M254,78.94l.42.94,1.09,9.48-2.09,3.35a5.91,5.91,0,0,1-3.5-2.95c-1-1.76.09-1.62.09-1.62L245.41,84,246,78l4.2-2.67,2.34.19Z"/><path class="cls-3" d="M239.71,86.86s-3.88.71-5.58.08-5.15-6.74-9.56-8.75c-1-.38-11.74-3.89-6.53-9.37,3.58-3.78,9.18-6.38,11.87-5.13s3.4,2.43,9.57,3.93c5.27,1.3,10.85.81,11.84,1.57,3.33,2.58,2.68,9.75,2.68,9.75s-2.32-2.2-4.53-.88-2.13,5.16-2.13,5.16L247,85.73Z"/><path class="cls-6" d="M254.26,79.3c1.32.09,8,1,9.43,3.06,2.7,3.94,1.24,9.34,1,9.76-1.58,3.45-7.12,4.07-7.12,4.07s.62-1,.21-1.13c-1.93,1-5.66-2.56-5.66-2.56a1,1,0,0,0,1.09-.12c-1.8-1.37-1.93-5-1.93-5a2.23,2.23,0,0,0-.81-1.43c-1.07-.69-.63-3-.22-4A5.49,5.49,0,0,1,254.26,79.3Z"/><path class="cls-10" d="M248.13,90.25s1.93.57,2.9-2-.74-3.82-.74-3.82l-2.95-.84-1.93,4.57Z"/><path class="cls-5" d="M250.29,84.41s3.84,1.38,4.22,1.83c3.26.31,11.82,5.21,14.66,6.22.64.23,3.38-1.13,4.42-.85s3.58,1.79,3.49,3-4.12,2.73-6.42,1.13c-.37-.34-2.73,1-4-.6-4.12-1.48-9.75-2.29-14.71-4.88l-4.22-1-3.39-3.87L246.21,84Z"/><path class="cls-9" d="M236.4,81.14c-1.89,3.12.83,4.73,2.44,5.38s6.56,2.57,9.29,3.73c-1.11-1.63-.51-5.65,2.16-5.84-2.79-1.21-6.38-3.74-7.88-4.31S238.22,78.12,236.4,81.14Z"/><path class="cls-8" d="M224.7,88.31s6.41,8.74,13.46,12C231.88,96,224.7,88.31,224.7,88.31Z"/><path class="cls-5" d="M243.69,37.69s-3,4.43-4.92,6.65S233.84,58.42,232,61.62c-.34.28-3.69,1-4.58,2.21s-1.8,5.83-.41,6.33,4-4.69,4.82-4.07-1.14,3.19-.42,3.65,2.72-2,3.41-2.93-.22-3,.47-4.15c1.78-3.11,8.19-9.73,9.65-15.35.56-.59,4.19-4.22,5.07-5.91a7.34,7.34,0,0,0,.66-3.71l-4.84-2.53Z"/><path class="cls-9" d="M256.24,26.56c4.57,4.15-1.52,9.44-1.52,9.44s-2.35,3.6-4,5.58c-3.28.78-7.11-2.29-7.35-5.06,1.28-2,4.35-5.83,4.35-5.83S252.18,22.88,256.24,26.56Z"/><polygon class="cls-5" points="257.71 26.56 262.3 28.83 264.06 32.48 263.38 37 259.6 39.5 255.13 39.5 252.18 38.23 251.05 33.61 253.18 30.34 257.71 26.56"/><path class="cls-3" d="M257,28.1a3.9,3.9,0,0,1,4.13,1.27,5.74,5.74,0,0,1,.35,4.8s-1.25,4.84-6.22,3.52c-3.58-.95-3.07-4.88-3.07-4.88l-3.78.24s.47,7.5,3.28,10.75,5.67,4.79,5.79,6.2-.79,2-1.46,3.23,8.54,6.12,17.35,4.94c4.64-.62,5.24-5.86,4.9-7.21-.71-2.89-4.21-8.61-4.21-8.61s-.43-8.27-1.51-9.26c-4-3.68-7.89-3.85-9-4.64s-2.94-2.89-6.6-2.89C255.89,25.56,256.07,28.24,257,28.1Z"/><path class="cls-11" d="M264.56,48.22s-.81,2.62,3.82,3.68,4.77-1.22,4.77-1.22l.2-3.72-6.29-1.72Z"/><path class="cls-5" d="M265.24,46.88s-1.64,8.61-1.55,10.81c-5,3.39-12.39,10.88-13.37,11s-5.66.38-6.25.63S239.19,74,241,75.55c3.42,3,6.35-.76,6.35-.76s4.73-1.6,5.09-3.05c.24-.47,13.27-4.14,16.33-10.12L273,50.33l.34-3.77L271,43.35l-4.4.63Z"/><path class="cls-9" d="M273.43,33.35c5.66,2.47,1.7,10.76,1.7,10.76s-1.07,4.16-2,6.57c-.35-2-7.39-3.56-8.59-2.46.59-2.27,2.27-6.91,2.27-6.91S268.4,31.16,273.43,33.35Z"/><path class="cls-5" d="M258.73,30.24a4.16,4.16,0,0,0-.54-3.59s-.67,0-1.91-1.67c-.69-.91-1.58-2.18-1.58-2.18L249.25,24l-3.93,2.89v3.66s.82,4.83,4.5,6.12a7.85,7.85,0,0,0,2.36,1.54c.31.58.74,1.28,1,1.27s.53-.29.78-.56a11.69,11.69,0,0,0,1.45.41,2.76,2.76,0,0,0,2.71-1.59C258.67,36.33,259.55,32.56,258.73,30.24Z"/><path class="cls-6" d="M258.19,26.65c-2,.09.18,4-.86,4.73-.44.31-2.5.61-3.17-.92-.55-1.23-.11-3.49-1.88-3.35s-.56,5.07-3.74,5.66c-2.52.47-2.68-3.24-3-3.21-.08,0,0,1-.21,1-.65-1.2-1.39-8.63,6-9.29C256.52,20.82,258,26.15,258.19,26.65Z"/></g></svg>