<svg xmlns="http://www.w3.org/2000/svg" viewBox="0 0 338 153"><defs><style>.cls-1,.cls-13{fill:none;stroke:#384b51;}.cls-1{stroke-miterlimit:10;stroke-width:3px;}.cls-2{fill:#384b51;}.cls-3{fill:#95c6d1;}.cls-4{fill:#010101;opacity:0.3;}.cls-5{fill:#d2ebf3;}.cls-6{fill:#5b7781;}.cls-7{fill:#a7a9ab;}.cls-8{fill:#f0c7b5;}.cls-9{fill:#184766;}.cls-10{fill:#3677ac;}.cls-11{fill:#939599;}.cls-12{fill:#53545a;}.cls-13{stroke-linecap:round;stroke-linejoin:round;}</style></defs><g id="Layer_1" data-name="Layer 1"><rect class="cls-1" x="1" y="1.59" width="335.5" height="150.01"/></g><g id="Layer_2" data-name="Layer 2"><path class="cls-2" d="M16.37,84.24v-2.8h.91v2.8h.94V81H16.37V77.73h.92v.71h1.86v.82H17.29v.88h1.85v4.1h2l0-1.16H19.65v-.84h1.5L21.2,81H19.65v-.82H21.2l0-1.09H19.64v-.87h2.51l-.14,6h.61v.9h-9.7v-.9h.76l-.19-5.7a7.18,7.18,0,0,0,2.17-.7l.46.86a8.86,8.86,0,0,1-1.7.62l0,.86h1.43V81H14.47l0,1.24h1.33v.84h-1.3l0,1.16Zm.45,1.69a10.07,10.07,0,0,1-3.18,1.48L13,86.54a9.93,9.93,0,0,0,3-1.27Zm5,1.48A32.12,32.12,0,0,0,18.77,86l.67-.76,1.49.62c.49.2,1,.43,1.58.7Z"/><path class="cls-2" d="M31.37,84.89a.77.77,0,0,1-.11.19c.71.34,1.18.58,1.42.73l-.46.61a6.65,6.65,0,0,0-1.36-.82,4.55,4.55,0,0,1-1.18.81l-.53-.55a2.68,2.68,0,0,0,1.32-1H28.74v1.54h4.32v.77H23.55v-.77h4.26V84.89H26.35a.32.32,0,0,0-.08.09.42.42,0,0,1-.07.11c.65.31,1.1.54,1.34.69l-.49.64a3.83,3.83,0,0,0-1.25-.82,3.17,3.17,0,0,1-1.17.81l-.53-.62a2.3,2.3,0,0,0,1.33-.9H23.87v-.73h8.86v.73ZM32,79.83H28.73v2h-.94v-2H24.65v1.7h-1V79.12h4.1v-.41H24.13V78h8.2v.76h-3.6v.41H33v2.32H32Zm-8,2.3h2.54v1.68H24Zm1.82.55h-1.1v.58h1.1Zm1.54-.91h-2.3V81.2h2.3Zm0-1.55v.57H25.11v-.57ZM27,82.13h2.59v1.68H27Zm1.87.55H27.7v.58h1.15Zm2.62-2.46v.57H29.18v-.57Zm.06,1.55H29.18V81.2h2.35Zm-1.48.36h2.62v1.68H30.05Zm1.9.55H30.77v.58H32Z"/><path class="cls-2" d="M38,82.44A5.3,5.3,0,0,1,37,85.68a5.59,5.59,0,0,1-2.32,1.74L34,86.56a4.4,4.4,0,0,0,3-4.12H34.21v-1h4.13V77.73h1.07v3.75h4.08v1h-3v3.4a.32.32,0,0,0,.37.36h1.27a.45.45,0,0,0,.49-.45c0-.29.07-.74.09-1.33l.95.31a6,6,0,0,1-.26,1.86c-.14.38-.53.57-1.16.57H40.64c-.77,0-1.15-.4-1.15-1.2V82.44Zm-1.82-1.38a13.78,13.78,0,0,0-1.15-2.34l.95-.38a9.71,9.71,0,0,1,1.25,2.29Zm6.44-2.41A8.41,8.41,0,0,1,41.39,81l-1-.52a9.27,9.27,0,0,0,1.25-2.19Z"/><path class="cls-2" d="M46,79c0-.1-.09-.26-.16-.48a4.13,4.13,0,0,0-.28-.62l.95-.12a2.86,2.86,0,0,1,.27.64c.09.26.15.45.2.58h1.31v.89H44.53V79ZM44.83,80.5H48v.84H44.83Zm0,1.55H48v.83H44.83Zm0,1.65H48v3.62h-.92v-.48H45.78v.58h-.92Zm2.19.81H45.78V86h1.27Zm4.56-6.75a11.31,11.31,0,0,0,2.6,2.8l-.55.85A12.7,12.7,0,0,1,51.2,78.6a12.43,12.43,0,0,1-2.65,2.92l-.51-1a9.7,9.7,0,0,0,2.7-2.81Zm1.72,4.34a7.58,7.58,0,0,1-4.2,3.14l-.65-.79a7.78,7.78,0,0,0,2.33-1.09,6,6,0,0,0,1.78-1.81Zm.87,1.83a6,6,0,0,1-2.07,2.15,8.57,8.57,0,0,1-2.94,1.33l-.7-.83a9.16,9.16,0,0,0,3.09-1.28,5,5,0,0,0,1.88-1.92Zm-1.93-3.36a6.21,6.21,0,0,1-3.05,2.48l-.64-.78a6.31,6.31,0,0,0,1.63-.9A4.67,4.67,0,0,0,51.54,80Z"/><path class="cls-2" d="M56.82,83.8A10.12,10.12,0,0,1,56,87.37l-.91-.62a12.43,12.43,0,0,0,.81-5V78.52a13.67,13.67,0,0,0,3.5-.58l.44.88a18.19,18.19,0,0,1-3,.53v1h2.64V83.8Zm0-.92h1.68v-1.6H56.83Zm6.93,4.54h-1V82.06H61.22v.28a8.25,8.25,0,0,1-1.29,5l-.86-.67a4.72,4.72,0,0,0,.86-1.55,12.32,12.32,0,0,0,.32-3.43V78.5a16.42,16.42,0,0,0,3.92-.67l.43.88a22.75,22.75,0,0,1-3.38.64v1.77h3.53v.94h-1Z"/><path class="cls-2" d="M67.67,81.72V81a9.19,9.19,0,0,1-1.57.72l-.5-1a8.52,8.52,0,0,0,4.31-2.88H71a9.14,9.14,0,0,0,4.33,2.84l-.55,1A11.46,11.46,0,0,1,73.33,81v.74Zm-.82,1.22h7.21v4.48H73v-.6H67.89v.6h-1Zm6.18.89H67.89v2.1H73Zm0-3.06a10.44,10.44,0,0,1-2.56-2.09A10.56,10.56,0,0,1,68,80.77Z"/><path class="cls-2" d="M76.12,81.81A12.48,12.48,0,0,0,77.44,80a12.89,12.89,0,0,0,1.21-2.28l.91.46q-.57,1.22-1,1.92v7.31h-1V81.65a8.1,8.1,0,0,1-1,1.31Zm9.7-2.59v1H82.2v1.45h3.11v.93H82.2v1.61h3.3v.94H82.2v2.32h-1V80.17H81a10.63,10.63,0,0,1-1.63,2.29l-.72-.78A9.47,9.47,0,0,0,81,77.74l1,.27a7.91,7.91,0,0,1-.48,1.21Z"/><path class="cls-2" d="M89.5,86,89,86l-.23-1a7.36,7.36,0,0,0,.88.06.66.66,0,0,0,.73-.63,13.78,13.78,0,0,0,.1-2v-.09H88.59a11.47,11.47,0,0,1-1.07,5.1l-.86-.82a5.89,5.89,0,0,0,.66-1.76,16.56,16.56,0,0,0,.26-3.58v-2h4.58V77.74h1v1.52H96v1H93.21a13.43,13.43,0,0,0,.52,3.38A9.6,9.6,0,0,0,95,80.84l.83.46a12,12,0,0,1-1.74,3.48,2.62,2.62,0,0,0,.34.82c.23.41.39.62.5.62s.45-.55.69-1.64l.67.9c-.36,1.25-.81,1.88-1.34,1.88a1.35,1.35,0,0,1-.95-.53,3.64,3.64,0,0,1-.74-1.23,9.92,9.92,0,0,1-2.43,1.73l-.64-.88a7.47,7.47,0,0,0,2.68-1.89,14.37,14.37,0,0,1-.75-4.33H88.58v1.1h2.76c0,.3,0,.63,0,1A8.35,8.35,0,0,1,91,85.44C90.8,85.81,90.29,86,89.5,86Zm5.1-6.72c-.19-.19-.51-.5-1-.92l.69-.6a9.76,9.76,0,0,1,1,.83Z"/><path class="cls-2" d="M106.89,86.08v1h-9.7v-1Zm-9.52-5.33v-1h9.34v1Zm2.73,5a20.5,20.5,0,0,0-1.24-4.3l1-.29a20.12,20.12,0,0,1,1.35,4.3Zm2-6a12.88,12.88,0,0,0-1.75-1.47l.74-.57a10,10,0,0,1,1.76,1.34Zm3.14,1.61a22.15,22.15,0,0,1-1.35,4.36l-1.08-.35a18.83,18.83,0,0,0,1.42-4.28Z"/><path class="cls-2" d="M111.51,84.12a19.41,19.41,0,0,0,4.88-1.28l.57.87A26.16,26.16,0,0,1,111.51,85v.79a.38.38,0,0,0,.43.44h3.47a.48.48,0,0,0,.5-.42,9.6,9.6,0,0,0,.19-1.16l1,.3a6,6,0,0,1-.37,1.65c-.15.35-.53.52-1.15.52h-3.7a1.08,1.08,0,0,1-1.33-1.27V84a20.88,20.88,0,0,1-2.21.92l-.48-.92A22.59,22.59,0,0,0,112.47,82H107.9v-.9h3.59V79.88h-2.92V79h2.92V77.72h1V79H115v.87H112.5v1.17h1.26a12.15,12.15,0,0,0,2.57-2.66l.76.51a11.9,11.9,0,0,1-2,2.15h2.29V82h-3.35a15.86,15.86,0,0,1-2.56,1.6Z"/><path class="cls-2" d="M123.62,77.74v1.18a9.21,9.21,0,0,0,1.07,3.73A9.39,9.39,0,0,0,128,86.46l-.73,1c-.13,0-.57-.38-1.34-1.15a9.87,9.87,0,0,1-1.77-2.32,12.23,12.23,0,0,1-.94-2.33,8.75,8.75,0,0,1-4.2,5.81l-.71-1a7.61,7.61,0,0,0,3-3,8.63,8.63,0,0,0,1.15-4.38V77.74Z"/><path class="cls-2" d="M14,96a6.07,6.07,0,0,1-.75.77l-.32-1A9.78,9.78,0,0,0,15,93.11l.71.55A8.68,8.68,0,0,1,15,94.82v5.24H14Zm-1-3.37a8.42,8.42,0,0,0,2-2.13l.79.48a9.17,9.17,0,0,1-2.23,2.46Zm2.3,6.53a9.13,9.13,0,0,0,2.8-.5,6.76,6.76,0,0,1-1.17-1.06,10.77,10.77,0,0,1-1.09.58l-.57-.67a5.22,5.22,0,0,0,2.32-1.43H16.31v-3.2l-.5.45-.63-.73a7.48,7.48,0,0,0,2.11-2.22l.92.26a3,3,0,0,1-.39.55h4.81V92h-5.4a4.34,4.34,0,0,1-.55.52H22v3.55h-3.3a4.39,4.39,0,0,1-.52.53h3.51v.68A4.93,4.93,0,0,1,20,98.69a10.42,10.42,0,0,0,2.65.47l-.38.89A11.11,11.11,0,0,1,19,99.22a13.16,13.16,0,0,1-3.35.84Zm2-5.23H21v-.6H17.25Zm0,1.36H21v-.66H17.25Zm.59,2.12a3.64,3.64,0,0,0,1.18.88,3.64,3.64,0,0,0,1.36-.88Z"/><path class="cls-2" d="M24.31,99.92l-.86-.77a6.6,6.6,0,0,0,.62-1.78,22.41,22.41,0,0,0,.24-4.07V91.09h4a2.16,2.16,0,0,0-.35-.63l1.07-.08a3.72,3.72,0,0,1,.37.71h3.72v.82H29.45v.61h2.82v1.3h.87v.79h-.87V96H29.58a10,10,0,0,0,1.05,1.3,6,6,0,0,0,1.36-1l.8.58a8.1,8.1,0,0,1-1.52,1.09A8.42,8.42,0,0,0,33.09,99l-.49.88a4.13,4.13,0,0,1-1.31-.79,6.7,6.7,0,0,1-1.83-2v1.66A1.08,1.08,0,0,1,28.24,100h-.91L27.15,99l1,0a.29.29,0,0,0,.33-.33V96H26v-.75h2.52v-.65h-3.2v.1A11,11,0,0,1,24.31,99.92Zm.61-1.12a12.46,12.46,0,0,0,2.88-1.31l.26.78a14.59,14.59,0,0,1-2.77,1.36Zm.37-5h3.2v-.54H26v-.76h2.52V91.9h-3.2Zm1.43,3.91a6,6,0,0,0-1.06-1.12l.75-.45a10.11,10.11,0,0,1,1.12,1Zm4.62-3.91v-.54H29.46v.54Zm0,1.44V94.6H29.46v.65Z"/><path class="cls-2" d="M43.21,92.1v4.67H39.37v3.29H38.29V96.77H34.5V92.1h3.79V90.37h1.08V92.1ZM38.29,93H35.53v2.77h2.76Zm3.9,0H39.37v2.77h2.82Z"/><path class="cls-2" d="M46.68,93.57a20.78,20.78,0,0,1-1.16,5.3l-1-.61a18.1,18.1,0,0,0,1.1-4.92Zm1.81-.6v5.61a.33.33,0,0,0,.37.36h1.67a.48.48,0,0,0,.4-.15,5.48,5.48,0,0,0,.1-1.53v-.77l1,.32v.27c0,1.46-.15,2.3-.46,2.52a1.74,1.74,0,0,1-1,.32h-2c-.74,0-1.12-.32-1.14-.94V93Zm.22-2.56A21.24,21.24,0,0,1,51.12,93l-.91.81A16.58,16.58,0,0,0,47.92,91Zm4.42,8a18.57,18.57,0,0,0-1.47-4.8l1-.31A30.13,30.13,0,0,1,54.22,98Z"/><path class="cls-2" d="M60.68,95.26a2.47,2.47,0,0,1-1.32,2l-.42-.56a1.59,1.59,0,0,0,1-.95h-.81v-1.6h1.55Z"/><path class="cls-2" d="M75.13,95.52a13.19,13.19,0,0,1-.4,3.7c-.22.55-.81.82-1.79.82h-.43l-.32-1a7.63,7.63,0,0,0,.84,0h.12c.47,0,.74-.28.83-.84a14.41,14.41,0,0,0,.17-1.9H67.84a10.73,10.73,0,0,1-1.47,1.68l-.77-.71a8.28,8.28,0,0,0,1.73-1.94,9.05,9.05,0,0,0,1.26-2.65H66v-.89h1.25a10.29,10.29,0,0,0-.51-1.1l.87-.22a9,9,0,0,1,.55,1.32h.66a9.74,9.74,0,0,0,.24-1.45l1,.06a9.9,9.9,0,0,1-.24,1.39H74l-.28,1.83h.9l-.27,1.83Zm-6.48,1.75a9.5,9.5,0,0,1-.9,2.6l-.94-.48a8.47,8.47,0,0,0,1-2.35Zm4.72-1.75.14-1H68.9a5,5,0,0,1-.52,1Zm-4.15,4.24c0-.87,0-1.71-.13-2.51l.88-.08a18,18,0,0,1,.24,2.53Zm3.52-6.07.16-.94H69.56a9.51,9.51,0,0,1-.3.94ZM71,99.23a10.11,10.11,0,0,0-.41-2.11l.84-.17A8.22,8.22,0,0,1,72,99Zm1.66-.6c-.25-.79-.45-1.35-.59-1.69l.74-.24a12.75,12.75,0,0,1,.66,1.64Z"/><path class="cls-2" d="M76.12,94.91a15.54,15.54,0,0,0,2-4.54l.9.41a14.24,14.24,0,0,1-.63,1.79v7.49h-1V94.51A8.28,8.28,0,0,1,76.69,96Zm5.65-1.44h-2.7v-.93h6.6v.93H82.79v2h2.49v.93H82.79v2.37h3v.94H78.91v-.94h2.86V96.37H79.39v-.93h2.38Zm.6-.93A20.91,20.91,0,0,0,80.6,91l.68-.67a11.25,11.25,0,0,1,1.84,1.42Z"/><path class="cls-2" d="M90.1,91.43A21.24,21.24,0,0,1,89.42,94a6,6,0,0,1,.83,2.38c0,.95-.5,1.43-1.49,1.43l-.33,0-.26-1a4,4,0,0,0,.59,0c.37,0,.56-.17.56-.5A5.74,5.74,0,0,0,88.46,94c.19-.56.42-1.35.66-2.37H88v8.4h-1V90.75h3ZM93.46,96h-.73s0,.13,0,.23a3.63,3.63,0,0,1-2.62,3.81l-.63-.86a2.81,2.81,0,0,0,2.28-3V96H90.39v-.92h6V96h-2v2.65a.32.32,0,0,0,.36.36H95c.22,0,.36-.05.41-.14a4.79,4.79,0,0,0,.08-1.31v-.22l.85.21v.31c0,1-.1,1.59-.29,1.76a1.56,1.56,0,0,1-1,.26h-.38a1.34,1.34,0,0,1-.93-.26,1.3,1.3,0,0,1-.26-1Zm2-1.87H91.18v-.52h-.8v-2.3h2.41a6.42,6.42,0,0,0-.44-.85l1-.12a4.57,4.57,0,0,1,.41,1h2.47v2.31h-.79Zm-.16-1.91H91.35v1h3.93Z"/><path class="cls-2" d="M101,96.76a19.41,19.41,0,0,0,4.88-1.28l.57.87A26.16,26.16,0,0,1,101,97.61v.79a.38.38,0,0,0,.43.44h3.46a.5.5,0,0,0,.51-.42,8.19,8.19,0,0,0,.18-1.16l1,.3a6,6,0,0,1-.37,1.65c-.15.35-.54.52-1.15.52h-3.71A1.07,1.07,0,0,1,100,98.46V96.67a20.21,20.21,0,0,1-2.22.92l-.48-.92a22.36,22.36,0,0,0,4.66-2.08H97.36v-.9H101V92.52H98v-.87H101V90.36h1v1.29h2.53v.87H102v1.17h1.27A12.15,12.15,0,0,0,105.8,91l.76.51a11.9,11.9,0,0,1-2,2.15h2.29v.9h-3.35a16.3,16.3,0,0,1-2.56,1.6Z"/><path class="cls-2" d="M113.08,90.38v1.18a9.37,9.37,0,0,0,1.07,3.73,9.54,9.54,0,0,0,3.27,3.81l-.73,1a5.22,5.22,0,0,1-1.33-1.15,9.36,9.36,0,0,1-1.77-2.32,11.61,11.61,0,0,1-.94-2.33,8.77,8.77,0,0,1-4.21,5.81l-.71-1a7.57,7.57,0,0,0,3-3,8.63,8.63,0,0,0,1.15-4.38V90.38Z"/><path class="cls-2" d="M119.68,96.19a11.37,11.37,0,0,1-1.26.46l-.14-1c.66-.2,1.12-.35,1.4-.46V93.3h-1.27v-.92h1.27v-2h.94v2h1v.92h-1v1.57a7.25,7.25,0,0,0,1-.51l0,1a6.06,6.06,0,0,1-1,.5v3a1.42,1.42,0,0,1-.23,1,1.39,1.39,0,0,1-1,.24h-.79l-.24-.93.93,0a.3.3,0,0,0,.34-.33Zm8.13,3.56H127a8.55,8.55,0,0,1-3.32-.37,2.52,2.52,0,0,1-1-1.06,5.79,5.79,0,0,1-1.2,1.62l-.73-.66a4.89,4.89,0,0,0,1.62-2.94l.9.15c-.08.37-.15.67-.22.91a2,2,0,0,0,.33.55,2.05,2.05,0,0,0,.81.71V96H121.7v-.87h6.16V96h-2.67v.91h2.29v.84h-2.29v1.11h1.5q.66,0,1.29-.06ZM122,94.52V90.73h5.27v3.79Zm4.27-3H123v.69h3.29ZM123,93.74h3.29V93H123Z"/><path class="cls-2" d="M12.92,107.15A10.17,10.17,0,0,0,15,103l.84.33c-.09.27-.2.61-.33,1l-.33.93v7.4h-1V107a9.11,9.11,0,0,1-.87,1.27Zm5.55,2.67a9.74,9.74,0,0,1-2.28,2.7l-.79-.71a9.26,9.26,0,0,0,2.24-2.53Zm-1.23-1.73v-2.2h-1.6v-1h1.6V103h1v1.91h1.65V103h1v1.91h1.49v1H20.87v2.2h1.75v1h-7.1v-1Zm2.64,0v-2.2H18.23v2.2Zm2,4.48c-.89-1.1-1.68-2-2.36-2.76l.8-.5a27.57,27.57,0,0,1,2.33,2.47Z"/><path class="cls-2" d="M32.68,104.74v4.67H28.83v3.29H27.75v-3.29H24v-4.67h3.78V103h1.08v1.73Zm-4.93,1H25v2.76h2.75Zm3.9,0H28.83v2.76h2.82Z"/><path class="cls-2" d="M43.46,104.43V107h-1v-1.71H35.23V107h-1v-2.61h2a2.6,2.6,0,0,0-.25-.32l-.44-.54,1-.43a9.34,9.34,0,0,1,.9,1.29h.91V103h1v1.42h.94a4,4,0,0,0,.94-1.28l1,.39a3.4,3.4,0,0,1-.71.89Zm-.55,6.38a1.62,1.62,0,0,1-.21,1,1,1,0,0,1-.77.26H40.81l-.23-1,1,0q.36,0,.36-.33V110H39.34v2.71h-1V110H36v2.13H35v-3h3.37v-.67H35.87v-2.51h6v2.51H39.34v.67h3.58Zm-2-4.06H36.8v.87h4.07Z"/><path class="cls-2" d="M45.6,108.63a6.07,6.07,0,0,1-.75.77l-.32-1a9.78,9.78,0,0,0,2.06-2.61l.71.55a9.66,9.66,0,0,1-.73,1.17v5.23h-1Zm-1-3.37a8.42,8.42,0,0,0,2-2.13l.79.48a9.17,9.17,0,0,1-2.23,2.46Zm2.3,6.53a9.07,9.07,0,0,0,2.8-.5,6.76,6.76,0,0,1-1.17-1.06,9.76,9.76,0,0,1-1.09.58l-.56-.67a5.24,5.24,0,0,0,2.31-1.43H47.92v-3.2l-.51.45-.63-.73A7.35,7.35,0,0,0,48.89,103l.92.26a3,3,0,0,1-.39.55h4.81v.82h-5.4a5.11,5.11,0,0,1-.54.52h5.29v3.55h-3.3a3.75,3.75,0,0,1-.52.53h3.51v.68a4.93,4.93,0,0,1-1.7,1.41,10.51,10.51,0,0,0,2.65.47l-.38.89a11.11,11.11,0,0,1-3.21-.83,13,13,0,0,1-3.35.84Zm2-5.23h3.79V106H48.85Zm0,1.36h3.79v-.66H48.85Zm.59,2.12a3.64,3.64,0,0,0,1.18.88A3.64,3.64,0,0,0,52,110Z"/><path class="cls-2" d="M55.91,112.56l-.86-.77a6.6,6.6,0,0,0,.62-1.78,22.41,22.41,0,0,0,.24-4.07v-2.21h4a2.3,2.3,0,0,0-.35-.63l1.07-.08a3.72,3.72,0,0,1,.37.71h3.72v.82H61.05v.61h2.82v1.3h.87v.79h-.87v1.4H61.19a9.27,9.27,0,0,0,1,1.3,6,6,0,0,0,1.36-1l.8.57a7.79,7.79,0,0,1-1.52,1.09,7.68,7.68,0,0,0,1.82,1.08l-.49.88a4.13,4.13,0,0,1-1.31-.79,6.7,6.7,0,0,1-1.83-2v1.66a1.08,1.08,0,0,1-1.22,1.22h-.91l-.18-.91,1,0a.29.29,0,0,0,.33-.33v-2.74H57.57v-.75H60.1v-.65H56.9v.1A11,11,0,0,1,55.91,112.56Zm.62-1.12a12.41,12.41,0,0,0,2.88-1.31l.25.78a14.79,14.79,0,0,1-2.76,1.36Zm.37-5h3.2v-.54H57.57v-.76H60.1v-.61H56.9Zm1.43,3.91a6.29,6.29,0,0,0-1.06-1.12l.74-.45a10.11,10.11,0,0,1,1.12,1Zm4.61-3.91v-.54H61.06v.54Zm0,1.44v-.65H61.06v.65Z"/><path class="cls-2" d="M67.42,108c-.69-.49-1.3-.89-1.83-1.19l.62-.82A16.17,16.17,0,0,1,68.05,107Zm.89,1.37a14.48,14.48,0,0,1-1.86,3.31l-.8-.86a14.08,14.08,0,0,0,1.83-3.15Zm-.4-4.17a20,20,0,0,0-1.84-1.22l.61-.84.93.5a9.83,9.83,0,0,1,1,.59Zm3.9-1.81a20.6,20.6,0,0,1-1.61,3.05,22.09,22.09,0,0,0,3.21-.32,12.4,12.4,0,0,0-1-1.56l.83-.45a28.18,28.18,0,0,1,2.07,3.17l-.92.62-.23-.47a2.15,2.15,0,0,0-.25-.45,44.26,44.26,0,0,1-5.49.53l-.2-1.07h.92A19.17,19.17,0,0,0,70.76,103Zm-3,5h5.87v4.38h-1v-.55H69.76v.55h-1Zm4.86.9H69.76v2h3.87Z"/><path class="cls-2" d="M82.34,104.57c-.09.22-.18.43-.27.61h3.5v.74H83a4.87,4.87,0,0,0,.86.81,2.83,2.83,0,0,0,.57-.72l.71.39a6.49,6.49,0,0,1-.62.74,8.63,8.63,0,0,0,1.27.48l-.35.83a7,7,0,0,1-.67-.31v2.1H82.6v1.45c0,.62-.33.93-1,.93h-.91l-.22-.85.88,0c.22,0,.33-.09.33-.26v-1.3H79.38v-2l-.25.15a2.7,2.7,0,0,0-.32.19l-.37-.89a5.84,5.84,0,0,0,1-.45,5.08,5.08,0,0,0-.73-.82l.7-.37.66.72a4.75,4.75,0,0,0,.69-.85H78.84v-.74h2.27l.16-.32.12-.29H78.46v3.08a7.82,7.82,0,0,1-1.49,5l-.68-.8a6.22,6.22,0,0,0,1.22-3.33,8,8,0,0,1-1.08.69l-.3-.88a6,6,0,0,0,1.42-.76v-3.81h3.59a2.87,2.87,0,0,0-.36-.66l1-.09a5.16,5.16,0,0,1,.38.75h3.47v.81Zm-5.6,2.1a9.44,9.44,0,0,0-.6-1.93l.69-.27a8,8,0,0,1,.69,1.89Zm1.38,4.86a6.14,6.14,0,0,0,2-1.13l.62.59a8.62,8.62,0,0,1-2,1.28Zm2.16-3.2h3.66v-.57H80.28Zm0,1.25h3.66V109H80.28Zm1.81-3.66h-.37a4.41,4.41,0,0,1-.8,1.15h2.24A4.35,4.35,0,0,1,82.09,105.92Zm3.17,6.42c-.38-.29-.73-.54-1-.73l-1-.62.55-.62c.63.35,1.3.76,2,1.21Z"/><path class="cls-2" d="M91.47,109.5a1.54,1.54,0,0,1-1.62-1.59,1.61,1.61,0,0,1,.45-1.16,1.71,1.71,0,0,1,2.33,0,1.62,1.62,0,0,1,.43,1.16,1.6,1.6,0,0,1-.44,1.16A1.47,1.47,0,0,1,91.47,109.5Zm0-.72a.77.77,0,0,0,.87-.88c0-.61-.29-.92-.87-.92a.9.9,0,1,0,0,1.8Z"/><path class="cls-3" d="M14.27,52.71q1.61-3.81,7.57-8.07a54.86,54.86,0,0,0,6.7-5.31,7.84,7.84,0,0,0,2.34-5.47,6,6,0,0,0-1.34-4,4.71,4.71,0,0,0-3.84-1.6c-2.27,0-3.83.85-4.65,2.55a12.76,12.76,0,0,0-.84,4.68H12.93a18.34,18.34,0,0,1,1.76-7.86q3-5.71,10.66-5.71,6,0,9.63,3.35a11.63,11.63,0,0,1,3.58,8.88A12,12,0,0,1,36,41.64a25.13,25.13,0,0,1-5.45,4.87l-3,2.13c-1.87,1.33-3.16,2.29-3.85,2.89A8.48,8.48,0,0,0,22,53.6H38.61v6.6H12.51A18,18,0,0,1,14.27,52.71Z"/><path class="cls-3" d="M65.8,27q2.94,5.13,2.94,14.56T65.8,56.05q-2.92,5.1-10.21,5.1t-10.21-5.1Q42.46,51,42.45,41.51T45.38,27q2.92-5.13,10.21-5.13T65.8,27ZM51.18,51.57c.71,2.32,2.19,3.48,4.41,3.48s3.69-1.16,4.38-3.48a37.37,37.37,0,0,0,1-10.06,36.88,36.88,0,0,0-1-10.2A4.24,4.24,0,0,0,55.59,28a4.29,4.29,0,0,0-4.41,3.31q-1.08,3.32-1.08,10.2A35.92,35.92,0,0,0,51.18,51.57Z"/><path class="cls-3" d="M74.44,33.92v-5.1a33.33,33.33,0,0,0,5-.48,7,7,0,0,0,3.68-2,6.58,6.58,0,0,0,1.46-2.73,5.92,5.92,0,0,0,.29-1.52h6.26V60.2H83.4V33.92Z"/><path class="cls-3" d="M103.52,43.83a9.13,9.13,0,0,1,4.24-3.92,8.91,8.91,0,0,1-3.6-4,11,11,0,0,1-.83-4,9.36,9.36,0,0,1,3.13-7.09q3.14-2.92,8.86-2.93t8.85,2.93a9.36,9.36,0,0,1,3.13,7.09,11,11,0,0,1-.83,4,7.7,7.7,0,0,1-3.58,3.72,10.56,10.56,0,0,1,4.25,4.18,11.86,11.86,0,0,1,1.42,5.8A10.88,10.88,0,0,1,125,57.82q-3.57,3.38-10,3.38t-9.68-3.38a11.27,11.27,0,0,1-3.29-8.19A11.67,11.67,0,0,1,103.52,43.83Zm7.79,9.67a6,6,0,0,0,8.07,0,6.14,6.14,0,0,0,1.46-4.36,6.05,6.05,0,0,0-1.49-4.43,6,6,0,0,0-8,0,6,6,0,0,0-1.48,4.43A6.1,6.1,0,0,0,111.31,53.5Zm.47-17.35a4.72,4.72,0,0,0,3.55,1.31,4.63,4.63,0,0,0,3.54-1.31,4.71,4.71,0,0,0,1.26-3.39,4.82,4.82,0,0,0-1.26-3.54A4.72,4.72,0,0,0,115.33,28a4.42,4.42,0,0,0-4.83,4.81A4.68,4.68,0,0,0,111.78,36.15Z"/><path class="cls-4" d="M288.56,103.16c-3,1.7-10.57.07-17-3.64s-9.25-8.12-6.3-9.82,10.57-.08,17,3.64S291.51,101.45,288.56,103.16Z"/><polygon class="cls-5" points="283.64 26.29 283.92 27.82 284.54 30.66 283.64 32.99 280.03 35.05 276.3 35.05 274.34 32.74 274.53 28.99 278.21 26.84 283.64 26.29"/><path class="cls-5" d="M272.26,88.85s-5.07,2-6.37,2.38-1.15,2.23-.79,2.84,2.27.48,3.88.27,2.72-1.12,3.93-1.36,3.3.24,4.12-.36.1-4.36.1-4.36l-1.76-.49H273Z"/><path class="cls-6" d="M271.07,55.34a93.53,93.53,0,0,0,.3,16.89c.61,6.92.39,14.8.67,16.21s4.52,1.56,5.14-.3,1.75-6.66.79-14.23a70,70,0,0,1,2.6-11.23c.64-1.33-.21-7.31-.21-7.31S271.47,54.45,271.07,55.34Z"/><path class="cls-5" d="M282.76,96a41.39,41.39,0,0,1-1.7,5.53c-.28.32-.45,1.7.15,2,3.87,1.71,5.22-1.46,5.43-2.19a16.72,16.72,0,0,0,.49-4.35,1.84,1.84,0,0,0-.35-1.17l-1.43-1.21S282.75,95.46,282.76,96Z"/><path class="cls-6" d="M271.07,55.34a12.65,12.65,0,0,0,7.3,6.76c.75,4.1.33,9.85,2.42,17.05,1.1,3.79.42,11.43,1.61,16.29.36,1.47,3.68,1.1,4.53.2s1.8-10.89,0-18.52c-.33-1.38,2.19-18.21,0-21.75C285.58,53.64,271.2,54.86,271.07,55.34Z"/><path class="cls-7" d="M265.68,29.23s-1.84.49-1.11,3.37a2.67,2.67,0,0,0,3.45,2L269.67,33l-1.34-4.38Z"/><path class="cls-8" d="M246.7,35.12s-3.56-.5-4.11-.5-2.65.64-2.81,2.23a2.06,2.06,0,0,0,1.79,2.4,1.69,1.69,0,0,0,1.14-.7,14.38,14.38,0,0,0,3.42-.14,3.32,3.32,0,0,0,.86-.53l.95-.8-.27-1.49Z"/><path class="cls-5" d="M266.4,29.42c-2.13.62-7.06,3-7.39,3.11-3.18.32-10.49,2.59-12.31,2.59a7.48,7.48,0,0,1,.29,2.76c3.07.21,10.65.48,13.06-.8a62.56,62.56,0,0,0,8.32-3.29l2.12-.85-1.13-4.14A13.36,13.36,0,0,0,266.4,29.42Z"/><path class="cls-6" d="M276.5,28.25c-2.07,2.65-2.45,5.22-3.94,5.12s-2.78.7-4.54,1.28c.87-1.24.69-5-2.34-5.42,1.54-.7,3.39-1.7,3.39-1.7S274.84,23.9,276.5,28.25Z"/><path class="cls-3" d="M276.51,29.46s-1.05,2.82,1,4c1.56.88,4.47-.75,5.36-1.93a8.47,8.47,0,0,0,1-3.7c2.24,2.73,5.42,4.63,6.74,6.25.31.84-3.73,6.85-3.5,13.32.12,3.55.12,6.41.36,7.85.53,3.23-1.77,3.86-5.22,3.86-6.1,0-10.19-1.74-11.4-4,0,0,.48-12.14.59-19.27,0-5.87,5.59-9.6,5.59-9.6s.77.77,1,1A5.51,5.51,0,0,0,276.51,29.46Z"/><path class="cls-5" d="M282.6,55.78l-2.89.23c-.63,0-2.66,1.31-2.59,1.71s2.68-.61,2.74-.13-.37,1-1,1.28-2.87.61-2.91,1.51c-.07,1.65,4.3,1.42,5.24,1s1.62-1.74,2.87-2.62c.22-.38.85-1.19.85-1.19l-1-1.76Z"/><path class="cls-5" d="M287,44.31a25.49,25.49,0,0,0,1.63,4.11c-1.49.69-3.48,5.66-6,7.36l1.48,2.95s5.73-4.31,6.87-5.52c1.93-2.06,2-3.92,1.87-4.88-.21-1.19-.44-6.32-.44-6.32A15.67,15.67,0,0,1,287,44.31Z"/><path class="cls-6" d="M288.15,33.65c4.4-.79,4.3,4.82,4.3,4.82s.18,2.85.42,4.69-5.75,3.31-6.3,1.1a20.77,20.77,0,0,1-.5-3.44S283.57,34.47,288.15,33.65Z"/><path class="cls-5" d="M275.4,20.11a5.89,5.89,0,0,0-.65,4c-.42,1.44.43,5.3.63,5.82s1.47,1.38,2.26.94,3.17-1.2,4.32-2.56a3.24,3.24,0,0,0,.71-1.75s1.22.39,1.81-1.74c.32-.76.6-1.71.6-1.71l-.66-2.64-4-1.83-3.13.23Z"/><path class="cls-2" d="M283.41,23.68c-.89-.05-1.14,1.58-1.32,1.95-.28-1.35-1.22.15-1.85-1.45-4.06.09-4.38-3.15-5.28-3.94s-.45-2.2,2-3.76c2.07-1.3,3.41-.26,3.41-.26a5.54,5.54,0,0,1,5,4c.81,3.14-1.55,5.89-1.55,5.89S284.83,23.76,283.41,23.68Z"/><polygon class="cls-6" points="298.49 111.95 259.53 134.45 253.54 131 253.54 130.15 255.58 130.09 298.49 111.11 298.49 111.95"/><polygon class="cls-3" points="298.49 111.11 259.53 133.6 253.54 130.15 292.51 107.65 298.49 111.11"/><polygon class="cls-6" points="232.44 73.82 193.48 96.32 187.49 92.86 187.49 92.02 189.54 91.96 232.44 72.97 232.44 73.82"/><polygon class="cls-3" points="232.44 72.97 193.48 95.47 187.49 92.02 226.46 69.52 232.44 72.97"/><polygon class="cls-9" points="227.57 73.13 226.92 73.51 225.93 36.49 225.2 35.42 225.85 35.04 227.57 36.03 227.57 73.13"/><polygon class="cls-2" points="226.92 73.51 225.2 72.52 225.2 35.42 226.92 36.41 226.92 73.51"/><path class="cls-3" d="M226.59,33.39l1.77,1-1.43,2.49-1.78-1a.7.7,0,0,1-.29-.65,2.23,2.23,0,0,1,1-1.76A.71.71,0,0,1,226.59,33.39Z"/><path class="cls-10" d="M227.65,34.48a2.26,2.26,0,0,0-1,1.76c0,.65.46.91,1,.59a2.25,2.25,0,0,0,1-1.76C228.66,34.42,228.21,34.16,227.65,34.48Z"/><polygon class="cls-6" points="293.84 111.39 293.18 111.77 292.2 74.75 291.46 73.67 292.12 73.3 293.84 74.29 293.84 111.39"/><polygon class="cls-2" points="293.18 111.77 291.46 110.78 291.46 73.67 293.18 74.67 293.18 111.77"/><polygon class="cls-9" points="263.09 96.45 257.42 99.72 251.44 96.27 251.44 95.42 253.48 95.36 263.09 95.6 263.09 96.45"/><polygon class="cls-10" points="263.09 95.6 257.42 98.87 251.44 95.42 257.11 92.15 263.09 95.6"/><path class="cls-2" d="M255.76,95.41l0-29h3.13l0,29a.8.8,0,0,1-.46.64,2.46,2.46,0,0,1-2.21,0A.8.8,0,0,1,255.76,95.41Z"/><path class="cls-10" d="M256.24,67a2.46,2.46,0,0,0,2.21,0,.68.68,0,0,0,0-1.28,2.46,2.46,0,0,0-2.21,0A.68.68,0,0,0,256.24,67Z"/><path class="cls-6" d="M256.08,66.33l0-13.57h2.47V66.33a.62.62,0,0,1-.37.51,1.93,1.93,0,0,1-1.75,0A.63.63,0,0,1,256.08,66.33Z"/><path class="cls-11" d="M256.46,53.26a1.93,1.93,0,0,0,1.75,0,.53.53,0,0,0,0-1,1.93,1.93,0,0,0-1.75,0A.53.53,0,0,0,256.46,53.26Z"/><path class="cls-2" d="M228.36,34.41l64.36,37.18-1.43,2.48L226.93,36.89a.72.72,0,0,1-.3-.65,2.26,2.26,0,0,1,1-1.76A.72.72,0,0,1,228.36,34.41Z"/><path class="cls-11" d="M292,71.67a2.22,2.22,0,0,0-1,1.75c0,.64.45.9,1,.58a2.23,2.23,0,0,0,1-1.75C293,71.6,292.57,71.34,292,71.67Z"/><path class="cls-5" d="M292.72,71.59l1.78,1-1.44,2.48-1.77-1a.73.73,0,0,1-.3-.66,2.24,2.24,0,0,1,1-1.75A.7.7,0,0,1,292.72,71.59Z"/><path class="cls-6" d="M293.78,72.69a2.23,2.23,0,0,0-1,1.76c0,.64.45.91,1,.58a2.24,2.24,0,0,0,1-1.75C294.8,72.63,294.34,72.37,293.78,72.69Z"/><path class="cls-4" d="M235.83,109.87l-14.39-8.31,14.39-8.3,14.39,8.31Z"/><polygon class="cls-3" points="235.83 109.24 222.53 101.56 222.53 97.73 249.13 97.73 235.83 109.24"/><polygon class="cls-3" points="235.83 109.24 235.83 105.41 249.13 97.73 249.13 101.56 235.83 109.24"/><polygon class="cls-12" points="235.83 105.41 222.53 97.73 235.83 90.05 249.13 97.73 235.83 105.41"/><polygon class="cls-6" points="235.83 105.41 222.53 97.73 222.53 95.93 249.13 95.93 235.83 105.41"/><polygon class="cls-6" points="235.83 105.41 235.83 103.6 249.13 95.93 249.13 97.73 235.83 105.41"/><polygon class="cls-2" points="235.83 103.6 222.53 95.93 235.83 88.25 249.13 95.93 235.83 103.6"/><path class="cls-4" d="M272.54,116.58c-5.8,3.35-15.22,3.35-21,0s-5.81-8.79,0-12.15,15.23-3.35,21,0S278.36,113.22,272.54,116.58Z"/><path class="cls-2" d="M277.28,99.83a15.74,15.74,0,1,1-15.73-15.74A15.74,15.74,0,0,1,277.28,99.83Z"/><path class="cls-2" d="M254.69,93a2,2,0,1,1-.43-3.06A2.22,2.22,0,0,1,254.69,93Z"/><path class="cls-5" d="M255.28,48.51a26.3,26.3,0,0,1,3-.06c.71.09,2.56,1.24,2.19,1.68s-2.18-.42-2.45-.28-.69.32-.73.57,1.71,1.36,1.55,1.83-1.83-.51-2.94-.67a5.45,5.45,0,0,1-2.33-1.32Z"/><path class="cls-2" d="M251.67,48.2a15.58,15.58,0,0,0,1.81,2c.78.7,2.52-.87,2.07-1.36a13,13,0,0,1-1.36-2.5C253.75,45.47,251.12,47.47,251.67,48.2Z"/><path class="cls-6" d="M245.77,30.92a2.21,2.21,0,0,1,3.1,1.73c2,8.44,5.76,12.82,5.76,14.27,0,1.06-1.75,2.63-3,1.69s-6.12-8.43-6.12-8.43l-1.84-6.13Z"/><path class="cls-5" d="M261.33,85.73a27,27,0,0,0,4.15,4.83c.5.43,1,.81.78,1.7a1.67,1.67,0,0,1-2.12,1.23c-1.81-.25-3.84-3.24-4.38-3.68s-1.28-.17-2.46-1.12-.06-3.33-.06-3.33S261.15,85.24,261.33,85.73Z"/><path class="cls-3" d="M257.43,82.27a9.51,9.51,0,0,1-.33,2.9c-.42,1.39,4.38,2.18,4.58.29a14,14,0,0,1-.16-3.63C261.65,81.12,257.43,82.27,257.43,82.27Z"/><path class="cls-6" d="M242.23,62s12.11,6.35,14.8,9.08c-.82,7.72-.36,10.69.24,11.48s2.61,1.87,4,1,2.43-12.67,1.71-14.86-9.7-13-14.45-15c-1.7-.87-5.57.86-5.57.86Z"/><path class="cls-5" d="M236.33,91.75a24.47,24.47,0,0,0,4.9,5.59c.58.45.23,1.39.23,1.39a4.22,4.22,0,0,1-4.31.4c-1.68-.86-2.84-2.66-4.13-3.73s-.08-4-.08-4Z"/><path class="cls-3" d="M233,88.38a13.39,13.39,0,0,1-.37,3.12c-.37,1.21,3.82,1.9,4,.25a11.89,11.89,0,0,1-.13-3.16C236.59,88,233,88.38,233,88.38Z"/><path class="cls-6" d="M233.15,58.43c-.5,7.36.25,15.18,0,16.85-1.14,7.4-1,13.12-.08,14a2.34,2.34,0,0,0,3.35,0c2.9-2.5,5.4-26.15,6.38-26.95a17.39,17.39,0,0,0,5.76-8.6l-11.39.49A48.47,48.47,0,0,0,233.15,58.43Z"/><polygon class="cls-5" points="244.41 32.02 244.79 34.33 243.77 36.69 241.02 35.96 238.45 34.48 237.63 32.15 238.93 29.6 241.99 29.27 244.41 32.02"/><path class="cls-3" d="M233.65,55.63s-.82,2.35-.5,2.8C244.41,61.57,247.86,55,247.86,55Z"/><path class="cls-3" d="M233.56,36.5l1.68-3.31a3.3,3.3,0,0,1,3.13-.59c1.73.64,1.82,2.41,5,2.68,1-1,.37-3.9.37-3.9l2-.46a15.17,15.17,0,0,1,3,10.58c-1.05,8.44.31,11-.21,12.22-.3.7-1.42,4-7.92,4.31-6.22.32-6.81-1.46-7.08-2.76s1.09-3.5,1.13-5.82a13.87,13.87,0,0,0-.59-4.23Z"/><path class="cls-2" d="M247.72,22.52c.71,2.59-.91,3.67-.91,3.67l-1.33-1,.52-3.59A18.83,18.83,0,0,1,247.72,22.52Z"/><path class="cls-5" d="M246.52,22a19.79,19.79,0,0,1,.27,4.09,17.59,17.59,0,0,1-.36,5.72,2.5,2.5,0,0,1-2.5.92c-1.77-.22-4.06-1.49-4.18-3.37a2.71,2.71,0,0,0-.67-1.64l5.79-7.35Z"/><path class="cls-2" d="M245.45,23.84s-1.46-.54-1.63.59c-.84,5.36-4.07,5.61-4.34,5.79a6.12,6.12,0,0,0,0,5.22s-2.92.18-3.2-1.48a27.08,27.08,0,0,1-2.72,2.54,52.65,52.65,0,0,0,.93-8.1c-.44-9.83,4.52-9,4.52-9a3.6,3.6,0,0,1,3.92-.86,9.57,9.57,0,0,1,4.79,3.95A2.07,2.07,0,0,0,245.45,23.84Z"/><polygon class="cls-6" points="194.88 92.07 194.22 92.45 193.23 55.43 192.5 54.35 193.16 53.98 194.88 54.97 194.88 92.07"/><polygon class="cls-2" points="194.22 92.45 192.5 91.46 192.5 54.35 194.22 55.35 194.22 92.45"/><path class="cls-3" d="M193.82,52.31l1.77,1-1.43,2.49-1.78-1a.7.7,0,0,1-.29-.65,2.23,2.23,0,0,1,1-1.76A.71.71,0,0,1,193.82,52.31Z"/><path class="cls-10" d="M194.88,53.4a2.26,2.26,0,0,0-1,1.76c0,.65.46.91,1,.59a2.25,2.25,0,0,0,1-1.76C195.89,53.34,195.44,53.08,194.88,53.4Z"/><polygon class="cls-6" points="261.14 130.33 260.48 130.71 259.5 93.69 258.76 92.61 259.42 92.23 261.14 93.23 261.14 130.33"/><polygon class="cls-2" points="260.48 130.71 258.76 129.72 258.76 92.61 260.48 93.61 260.48 130.71"/><polygon class="cls-6" points="230.38 115.33 224.71 118.61 218.72 115.15 218.72 114.31 220.77 114.25 230.38 114.49 230.38 115.33"/><polygon class="cls-3" points="230.38 114.49 224.71 117.76 218.72 114.31 224.4 111.03 230.38 114.49"/><path class="cls-2" d="M223.06,114.3v-29h3.13l0,29a.75.75,0,0,1-.46.63,2.4,2.4,0,0,1-2.21,0A.76.76,0,0,1,223.06,114.3Z"/><path class="cls-10" d="M223.53,85.89a2.4,2.4,0,0,0,2.21,0,.67.67,0,0,0,0-1.27,2.46,2.46,0,0,0-2.21,0A.67.67,0,0,0,223.53,85.89Z"/><path class="cls-6" d="M223.37,85.22l0-13.58h2.47V85.22a.61.61,0,0,1-.36.5,1.93,1.93,0,0,1-1.75,0A.61.61,0,0,1,223.37,85.22Z"/><path class="cls-11" d="M223.75,72.15a1.93,1.93,0,0,0,1.75,0,.53.53,0,0,0,0-1,1.93,1.93,0,0,0-1.75,0A.53.53,0,0,0,223.75,72.15Z"/><path class="cls-2" d="M195.59,53.33,260,90.51,258.52,93,194.16,55.81a.73.73,0,0,1-.3-.66,2.26,2.26,0,0,1,1-1.75A.72.72,0,0,1,195.59,53.33Z"/><path class="cls-11" d="M259.24,90.58a2.25,2.25,0,0,0-1,1.76c0,.64.45.9,1,.58a2.22,2.22,0,0,0,1-1.75C260.25,90.52,259.8,90.26,259.24,90.58Z"/><path class="cls-5" d="M260,90.51l1.78,1L260.29,94l-1.77-1a.73.73,0,0,1-.3-.66,2.28,2.28,0,0,1,1-1.76A.72.72,0,0,1,260,90.51Z"/><path class="cls-6" d="M261,91.61a2.23,2.23,0,0,0-1,1.76c0,.64.45.9,1,.58a2.24,2.24,0,0,0,1-1.76C262,91.55,261.57,91.28,261,91.61Z"/><path class="cls-5" d="M225.45,64.63a24.63,24.63,0,0,0-3,2.26c-.43.56-.84,3.39-.5,3.62a2,2,0,0,0,1.61-.09c1.08-.45,1.61-2.78,2.32-2.74.29,0-1,2.33-.39,2.47s1.63-1.27,1.79-2a22.89,22.89,0,0,0,.18-3c-.13-.4-.78-.56-.78-.56Z"/><path class="cls-2" d="M225.63,61.85c-.18.89-.28,1.87-.51,2.8-.12.47,2.39,1,2.46.38a10.19,10.19,0,0,1,.68-2.61C228.65,61.49,225.81,61,225.63,61.85Z"/><path class="cls-6" d="M235.3,36.42c-3.27-1-4,4-4,4S225,60,225.37,61.33s1.76,1.54,3.09,1,8.11-20.82,8.11-20.82S238.57,37.35,235.3,36.42Z"/><polygon class="cls-6" points="312.95 101.31 313.01 103.07 313.26 102.91 313.2 101.15 312.95 101.31"/><polygon class="cls-5" points="312.69 101.16 312.74 102.92 313 103.07 312.95 101.31 312.69 101.16"/><polygon class="cls-5" points="312.69 101.49 314.64 102.59 314.63 102.26 312.69 101.17 312.69 101.49"/><polygon class="cls-3" points="312.69 101.17 314.63 102.26 314.88 102.1 312.96 100.99 312.69 101.17"/><polygon class="cls-6" points="319.27 101.31 319.21 103.07 318.96 102.91 319.02 101.15 319.27 101.31"/><polygon class="cls-5" points="319.53 101.16 319.48 102.92 319.21 103.07 319.27 101.31 319.53 101.16"/><polygon class="cls-5" points="319.53 101.49 317.58 102.59 317.59 102.26 319.53 101.17 319.53 101.49"/><polygon class="cls-3" points="319.53 101.17 317.59 102.26 317.34 102.1 319.25 100.99 319.53 101.17"/><polygon class="cls-6" points="316.11 104.71 313.06 103.27 313.06 102.86 316.11 104.2 316.11 104.71"/><polygon class="cls-3" points="316.11 104.2 313.06 102.86 316.06 101.51 319.15 102.86 316.11 104.2"/><polygon class="cls-6" points="316.11 104.71 319.15 103.27 319.15 102.86 316.11 104.2 316.11 104.71"/><polygon class="cls-5" points="314.88 103.99 312.93 105.09 312.94 104.75 314.88 103.66 314.88 103.99"/><polygon class="cls-3" points="314.88 103.66 312.94 104.75 312.69 104.59 314.6 103.49 314.88 103.66"/><polygon class="cls-6" points="312.94 104.75 312.89 106.52 312.63 106.36 312.69 104.59 312.94 104.75"/><polygon class="cls-5" points="313.2 104.61 313.15 106.36 312.89 106.52 312.94 104.75 313.2 104.61"/><polygon class="cls-5" points="317.46 103.93 319.41 105.03 319.4 104.69 317.46 103.6 317.46 103.93"/><polygon class="cls-3" points="317.46 103.6 319.4 104.69 319.65 104.53 317.74 103.43 317.46 103.6"/><polygon class="cls-6" points="319.4 104.69 319.45 106.46 319.71 106.3 319.65 104.53 319.4 104.69"/><polygon class="cls-5" points="319.14 104.55 319.19 106.31 319.45 106.46 319.4 104.69 319.14 104.55"/><path class="cls-13" d="M305.62,68.57a5.21,5.21,0,0,1,10.42,0v34.16"/></g></svg>