<svg xmlns="http://www.w3.org/2000/svg" viewBox="0 0 338 153"><defs><style>.cls-1{fill:none;stroke:#384b51;stroke-miterlimit:10;stroke-width:3px;}.cls-2{fill:#384b51;}.cls-3{fill:#5b7781;}.cls-4{fill:#010101;opacity:0.3;}.cls-5{fill:#14a9a0;}.cls-6{fill:#d2ebf3;}.cls-7{fill:#95c6d1;}.cls-8{fill:#d1d2d4;}.cls-9{fill:#939599;}</style></defs><g id="Layer_1" data-name="Layer 1"><rect class="cls-1" x="1" y="1.59" width="335.5" height="150.01"/></g><g id="Layer_2" data-name="Layer 2"><polygon class="cls-2" points="177.12 84.09 175.42 85.07 174.26 56.76 173.39 55.49 175.09 54.51 177.12 55.68 177.12 84.09"/><polygon class="cls-3" points="175.42 85.07 173.39 83.9 173.39 55.49 175.42 56.66 175.42 85.07"/><path class="cls-4" d="M283.25,97c-.08,3.26-6.16,5.76-13.58,5.57s-13.38-3-13.29-6.26,6.16-5.76,13.58-5.57S283.34,93.76,283.25,97Z"/><path class="cls-5" d="M265,91.56a9.75,9.75,0,0,1-1.8,2,45.45,45.45,0,0,1-4.81,2.72,1.48,1.48,0,0,0-.24,2.32c.62.36,2.65.2,4-.09s2.95-1.87,3.7-2,3.56-.23,4.29-1.18.18-2.58.21-3.78S265,91.56,265,91.56Z"/><path class="cls-2" d="M262.56,48.87c-2.25,6.26-1.4,25.48-.9,26.92,2.52,7.25,2.63,13.95,2.95,15.62s4.31,1.4,5-.81A26.58,26.58,0,0,0,268.37,74c0-1.67,3.59-13.57,3.59-13.57l-.25-8.64S263,47.82,262.56,48.87Z"/><path class="cls-3" d="M276.08,92.7a13.92,13.92,0,0,1-.45,1.69c-.21.52-1.33,3.42-1.84,4.5s.51,2.27,1.68,2.45a3.41,3.41,0,0,0,3.38-1.31c1-1.22,1.15-5.16,1.15-5.16a10.38,10.38,0,0,0-.11-2.44C279.68,91.28,276.08,92.7,276.08,92.7Z"/><path class="cls-2" d="M262.51,49.21c3.18,6.52,7.51,7.69,7.51,7.69.57,5.12.22,10.32,3.56,18.63,1.74,4.33.81,11.23,2.21,17,.43,1.74,3.16,1.57,4.16.52s2.75-11.75-.15-21c-.5-1.6,2.74-18.46.21-22.63C278.35,47.35,262.67,48.64,262.51,49.21Z"/><path class="cls-6" d="M258.17,33.15c-.84,2-1.46,4.09-1.95,4.93-1.54,3.23-3.43,11.41-4.28,14-.06.63,2.22,1.1,2.42.38s4.26-7.89,5.58-12.71a28.13,28.13,0,0,0,1.22-2.61,29.14,29.14,0,0,0-.22-4.54A7.23,7.23,0,0,0,258.17,33.15Z"/><path class="cls-2" d="M264.32,22.06c-3-.68-4.15,1.66-4.62,3.07s-.73,4.54-1.59,6.92,4.52,3.67,5.42,1.23,2.11-5.64,2.54-6.94S267.35,22.73,264.32,22.06Z"/><polygon class="cls-6" points="270.7 23.06 271.01 23.48 271.96 25.04 271.61 27.06 270.7 29.05 268.66 29.77 265.36 29.5 263.64 27.35 266.06 22.74 269.01 21.93 270.7 23.06"/><path class="cls-7" d="M271,23.48s.75,2.49-.49,3.85a4.08,4.08,0,0,1-4.89,1.05c-3.43-1.82-1.5-5.9-1.5-5.9s-.83-1.47-1.62-1.08c-1,3.85-4,10.85-4.12,13.64s2.61,3.61,3.38,4.08c.8,5.91.5,9.75,0,11.91s9.22,5.63,13.54,4.22,5.44-4.58,4.92-5.79c-1.55-3.65-3.89-3.87-3.89-5.37a9,9,0,0,1,.79-3.79s.88-10,.7-10.77A78.36,78.36,0,0,0,271,23.48Z"/><path class="cls-7" d="M261.77,39.12s5.78,5.17,10.33,1.25C268.41,45.86,261.77,39.12,261.77,39.12Z"/><path class="cls-6" d="M272.39,40.24c-.32,2.42-.25,6.89-.43,7.48-1,5-.28,8.82-.66,13.86-.12.44,2.08.08,2.34-.33.61-3.33,2.51-7.75,2.73-13.48.11-.74.8-5.39.79-6.16s-2-2.21-2-2.21S272.59,39.32,272.39,40.24Z"/><path class="cls-2" d="M275.8,29.06c-3.1.22-3.29,2.59-3.35,4.07s-.34,4.65-.49,7.17,6,2.86,6.17.27.54-6.53.57-7.9S278.9,28.84,275.8,29.06Z"/><path class="cls-6" d="M268.17,22.66a8.61,8.61,0,0,0-5.31-2.53c-3.16-.19-4.68,2.15-4.53,2.38.05,1.45,1.57,2.18,1.56,2.4a4.11,4.11,0,0,0,.74,1.38,3.23,3.23,0,0,0,.24,1.33c.09.09.4,0,.71,0a14.11,14.11,0,0,0,.94,1.15,1.87,1.87,0,0,0,2,.33C270.08,26,268.17,22.66,268.17,22.66Z"/><path class="cls-3" d="M258.47,22.94c1.18,1.43,3.83,1.65,4.83,1.65-1.14-.93.38-1.61.81-1.86,1.82,1.89,3.65,1.39,4.15.89s2.44-.56,2.44-.56a14.57,14.57,0,0,0,.22-5.13,6.34,6.34,0,0,0-6.11-5.19C261.77,11,254.32,17.86,258.47,22.94Z"/><path class="cls-6" d="M266.92,67.87c0,.25.85.41,2.26.19a4.36,4.36,0,0,0,2.39-1.37l-.94.11s-.23-.7-1.45-.48S266.92,67.22,266.92,67.87Z"/><path class="cls-4" d="M263.89,136.16,173.39,83.9,205,65.63l90.51,52.26Z"/><polygon class="cls-2" points="265.59 135.18 263.89 136.16 262.73 106.56 261.86 105.28 263.56 104.31 265.59 105.48 265.59 135.18"/><polygon class="cls-3" points="263.89 136.16 261.86 134.98 261.86 105.28 263.89 106.46 263.89 136.16"/><polygon class="cls-2" points="295.54 117.89 293.84 118.87 292.68 90.56 291.81 89.29 293.51 88.31 295.54 89.48 295.54 117.89"/><polygon class="cls-8" points="293.84 118.87 291.81 117.69 291.81 89.29 293.84 90.46 293.84 118.87"/><path class="cls-3" d="M263.89,108.51l-90.5-52.27v-2l1.93.5L205,37.55l88.7,51.21Z"/><polygon class="cls-2" points="284.31 89.53 295.54 88.19 295.54 90.23 263.89 108.51 263.89 106.46 284.31 89.53"/><path class="cls-7" d="M263.89,106.46,173.39,54.2,205,35.93l90.51,52.26Z"/><polygon class="cls-2" points="263.89 105.22 175.53 54.2 175.53 52.91 289.13 86.99 293.39 86.9 293.39 88.19 263.89 105.22"/><polygon class="cls-2" points="263.89 103.93 175.53 52.91 205.03 35.88 293.39 86.9 263.89 103.93"/><polygon class="cls-4" points="266.18 75.11 241.91 89.12 235.75 85.57 260.01 71.56 266.18 75.11"/><path class="cls-7" d="M263.62,73c1.54-2.1,1.44-4.43-1.64-5.76-1.59-.68-3-1.11-3.69-.54L236.37,79.16l4.83,8.14S263.19,73.57,263.62,73Z"/><path class="cls-6" d="M229.43,49.38s3.83,1.29,5.2,1.88c4.32.73,3.82,3.91,3.82,3.91L238,56.39l-10.38-3.3-.89-3.52Z"/><path class="cls-3" d="M217.86,46.76c2.2-2.26,5.58,1.63,11.57,2.62-2.07,0-2.71,2.69-2.71,2.69l-8.27-1.61S217,47.66,217.86,46.76Z"/><path class="cls-3" d="M237.58,55.06a82.88,82.88,0,0,1,17.85,3.88c7.22,2,12,1,14.38,1.57,2.53.15,2.3,5.36.7,6.37s-6.12,1.67-12.32.55c-4-.72-11.53.74-11.53.74l-12.88-3.65V57.14S236.31,54.56,237.58,55.06Z"/><path class="cls-6" d="M251.94,52.12c-.32,1.06-1.77,2.6-2.87,4.27-.46.7-.83,4.1-.35,4.32s1.18,0,2-.52.64-3.52,2.07-3.8c.69-.14-.64,2.23,0,2.44s1.47-1.4,1.65-2.18-.24-3.53-.09-4.15C254.39,51.46,252.24,51.16,251.94,52.12Z"/><path class="cls-3" d="M223.69,69.82a11.51,11.51,0,0,0,6.52,4.05c4.15.81,17.8.55,18.67,1.39,4.73,9.23,11.6,13.09,14,13.38s3.72-2,3.36-4.15S255.18,71.26,253,68.75s-15.45-6.45-15.45-6.45,1.5-4.22,0-7.24c-.56-.59-8.59-3-8.59-3l-9.3,12.45Z"/><path class="cls-6" d="M201.5,48.45a5.52,5.52,0,0,1,2.39,4.08l1.76.45,4.8-1.56,1.91-2.06-1.67-.93a4.7,4.7,0,0,1-.69,0,1.77,1.77,0,0,1,.59-1.43l-3.17-3.2L201,45l-1.47,2Z"/><path class="cls-7" d="M203.12,55.06a5.08,5.08,0,0,0,.77-2.53c2.7-1.75,4.77-1.89,6.33-3,1.09-.79.47-1.08.47-1.08s6.58-2.37,9.51-1.51,3.71,2.7,4.35,2.93c3.94-.86,13,5.21,13,5.21s-10,2.08-13.89,9c-1.28,2.25,0,5.76,0,5.76a11.73,11.73,0,0,0-5.51-4,94.49,94.49,0,0,0-10.47-1.75Z"/><path class="cls-6" d="M203.21,36.58a10,10,0,0,1,4.8,2c.37.25.41,1.53.41,1.53s1.72,0,1.93.38-.18,1.27-.18,1.27,1.78,2.31,2.19,3-.36,1.26-.81,1.61c-2.89,2.29-8.53.22-8.53.22s-.83,1-2.5.15a20.81,20.81,0,0,1-3-2.12l1.06-5.83A6.11,6.11,0,0,1,203.21,36.58Z"/><path class="cls-3" d="M203.21,36.58c0,.38-4.41,1.26-4.38,3.44,0,.55,2.34-.4,3.12.43.22.23.21,1.69,1.18,2.82.41.47-1,1-1,1-.16.17-.79-1.55-2.05.14-.61.81,1,1.67,1.26,2.57.35,1.13.58,2.27-1.23,1.4s-4.68-4.74-3-8.19C199.51,35.19,203.15,36,203.21,36.58Z"/><path class="cls-9" d="M204.8,66.49s1.29,2.11,4,0,1.61-3.76,1.61-3.76l-3.11-2-3.83,2.72Z"/><path class="cls-6" d="M234.85,51.61a6.2,6.2,0,0,0-2.1.28,15.9,15.9,0,0,0-2.14.55c-.58.33-1.19,1.11-1.18,2.88A1.56,1.56,0,0,0,230.77,57a3.62,3.62,0,0,0,4.3-1.41,2.19,2.19,0,0,0,1.59-1.7C236.82,53,236.6,52.06,234.85,51.61Z"/><path class="cls-6" d="M221.76,58.07a33.26,33.26,0,0,1,3.92-2.8c1-.48,3.16-.09,3.69.72s.29,3.12-.32,3.59a1.32,1.32,0,0,1-1.37,0,5.66,5.66,0,0,1-4,1.62,3.67,3.67,0,0,1-1.93-.36l-.57-1.5Z"/><path class="cls-6" d="M203.12,63.3l3,4.58c.93,1.41,1.59,3,2.51,3.08,6.61.43,10.52-6.44,15-9.73-1.38-.72-1.93-3.16-1.93-3.16-3.58,2.73-6.3,3.37-11.13,6.34a16,16,0,0,0-2-3C208.14,61.76,203.12,63.3,203.12,63.3Z"/><path class="cls-3" d="M202.22,55.11c-4.2,3.32-.42,7.23-.42,7.23s1.79,2.32,3,4.15c-.86-2.26,3.36-5.3,5.65-3.76a16.39,16.39,0,0,0-3-4S205.3,52.68,202.22,55.11Z"/><path class="cls-3" d="M269.81,87.35c3.47-.74,4.78-2,5.56-2.25s1,.7,1,1.32a5,5,0,0,1-1.23,2.52,39.54,39.54,0,0,0-2.66,2.93c-.32.53-.05,2.06-.51,2.87s-2.6,1-3.06.78a17.65,17.65,0,0,1-2-3l-1-2.54,1.24-2.84S269,87.31,269.81,87.35Z"/><path class="cls-7" d="M266.27,84.49a6.59,6.59,0,0,0,3.54,2.86,5.64,5.64,0,0,0-2.89,5.15,17.59,17.59,0,0,0-4-3.86C262,88.42,262.87,84.81,266.27,84.49Z"/><path class="cls-3" d="M273.75,60.33c.6-3-.54-7.89,0-8.44s3.34-.14,4.11.55a4.32,4.32,0,0,1,1.67,3.39c0,.61.31,3.8.42,4.5.32,2.11,1,3.12.79,4.67a2.27,2.27,0,0,1-1.94,2,9.41,9.41,0,0,1-3.68-.34L272,65V62.37A11.24,11.24,0,0,0,273.75,60.33Z"/><path class="cls-7" d="M270.61,60.77a8.68,8.68,0,0,0,3.14-.44,8.55,8.55,0,0,0,1.46,6.48,19.3,19.3,0,0,0-4.58,0C268.87,67.13,268.55,60.66,270.61,60.77Z"/><circle class="cls-3" cx="239.36" cy="82.89" r="4.78"/><path class="cls-7" d="M13.11,53.46q1.68-4,7.91-8.43a59.38,59.38,0,0,0,7-5.55,8.21,8.21,0,0,0,2.44-5.72,6.3,6.3,0,0,0-1.4-4.2,4.92,4.92,0,0,0-4-1.68q-3.57,0-4.86,2.67a13,13,0,0,0-.88,4.89H11.71a19.28,19.28,0,0,1,1.84-8.22q3.14-6,11.14-6,6.33,0,10.06,3.51A12.06,12.06,0,0,1,38.49,34a12.52,12.52,0,0,1-2.64,7.85A26.05,26.05,0,0,1,30.15,47L27,49.2q-3,2.09-4,3a8.84,8.84,0,0,0-1.83,2.17H38.55v6.9H11.27A18.71,18.71,0,0,1,13.11,53.46Z"/><path class="cls-7" d="M67,26.54Q70,31.9,70,41.76T67,57q-3.06,5.32-10.67,5.33c-5.08,0-8.63-1.78-10.68-5.33s-3.06-8.62-3.06-15.19,1-11.65,3.06-15.22,5.6-5.36,10.68-5.36S64.93,23,67,26.54ZM51.68,52.26q1.13,3.65,4.62,3.64c2.32,0,3.85-1.21,4.57-3.64A39,39,0,0,0,62,41.76q0-7.2-1.08-10.66a4.43,4.43,0,0,0-4.57-3.46,4.5,4.5,0,0,0-4.62,3.46q-1.12,3.46-1.13,10.66A37.48,37.48,0,0,0,51.68,52.26Z"/><path class="cls-7" d="M76,33.82V28.49a34.33,34.33,0,0,0,5.18-.5A7.29,7.29,0,0,0,85,25.91a6.91,6.91,0,0,0,1.53-2.86,6.7,6.7,0,0,0,.3-1.59h6.54V61.29h-8V33.82Z"/><path class="cls-7" d="M104.21,33.82V28.49a34.15,34.15,0,0,0,5.17-.5,7.29,7.29,0,0,0,3.84-2.08,6.8,6.8,0,0,0,1.53-2.86,6.34,6.34,0,0,0,.31-1.59h6.53V61.29h-8V33.82Z"/><path class="cls-2" d="M13.48,85.58a4.61,4.61,0,0,1-.54,0l-.23-1a7.36,7.36,0,0,0,.88.06.67.67,0,0,0,.73-.64,13.78,13.78,0,0,0,.1-2V81.9H12.57A11.41,11.41,0,0,1,11.5,87l-.86-.82a5.89,5.89,0,0,0,.66-1.76,16.56,16.56,0,0,0,.26-3.58v-2h4.58V77.35h1v1.53H20v1H17.19a13.51,13.51,0,0,0,.52,3.39A9.55,9.55,0,0,0,19,80.45l.83.46a12.5,12.5,0,0,1-1.74,3.48,2.62,2.62,0,0,0,.34.82c.23.41.39.62.5.62s.45-.54.68-1.64l.67.9C20,86.34,19.5,87,19,87a1.33,1.33,0,0,1-.95-.52,3.79,3.79,0,0,1-.74-1.24,10,10,0,0,1-2.43,1.73l-.65-.87a7.33,7.33,0,0,0,2.69-1.9,14.31,14.31,0,0,1-.75-4.33H12.56v1.1h2.75c0,.3,0,.63,0,1A8.32,8.32,0,0,1,15,85.05C14.78,85.42,14.27,85.6,13.48,85.58Zm5.1-6.71-1-.93.69-.6a8.53,8.53,0,0,1,1,.84Z"/><path class="cls-2" d="M31.26,85.7v1h-9.7v-1Zm-9.52-5.33v-1h9.34v1Zm2.73,5a19.75,19.75,0,0,0-1.25-4.3l1-.3a20.31,20.31,0,0,1,1.35,4.3Zm2-6a13.51,13.51,0,0,0-1.74-1.47l.74-.57a10.54,10.54,0,0,1,1.76,1.34ZM29.62,81a21.9,21.9,0,0,1-1.36,4.36L27.18,85a18.67,18.67,0,0,0,1.42-4.28Z"/><path class="cls-2" d="M33.59,77.94l.63-.59c.39.25.88.59,1.47,1.05l-.49.48h1.71v.94H34.66v.66c0,.19,0,.39,0,.62h1.89a25,25,0,0,1-.29,5.13c-.18.39-.59.58-1.24.58a4.63,4.63,0,0,1-.54,0l-.24-.91a5.75,5.75,0,0,0,.77.06.37.37,0,0,0,.39-.29,6.87,6.87,0,0,0,.13-1.32c0-.7,0-1.47,0-2.32h-1a10.2,10.2,0,0,1-1.35,5l-.75-.9a10.55,10.55,0,0,0,1.18-5.35v-.92h-1v-.94h2.14A9.15,9.15,0,0,0,33.59,77.94Zm5.62,1a8,8,0,0,1-2.15,2.64l-.59-.84a7.1,7.1,0,0,0,2.32-3.11h.84a6.9,6.9,0,0,0,2.54,3.09l-.49,1A10.58,10.58,0,0,1,39.21,78.92ZM40.7,87c-1.15-.83-2.28-1.57-3.37-2.22L38,84c1.13.63,2.27,1.35,3.42,2.15Zm-.38-3.34a17.57,17.57,0,0,0-2.49-1.81l.63-.72A21.54,21.54,0,0,1,41,82.88Z"/><path class="cls-2" d="M43.4,81.51a11.34,11.34,0,0,0,2-4.16l1,.29a20.26,20.26,0,0,1-.7,1.91V87h-1v-5.6a10.61,10.61,0,0,1-.73,1.14Zm3.18,2.95-.68-.87a11.84,11.84,0,0,0,2.39-3.79H46.35v-.89h2.28a12.38,12.38,0,0,0,.42-1.53l1,.16c-.06.29-.18.74-.36,1.37H53.1v.89H49.34a16,16,0,0,1-1,2.08h4.53v.89H50.58v3H53.1v.89H46.54v-.89h3.05v-3H47.81A16.23,16.23,0,0,1,46.58,84.46Z"/><path class="cls-2" d="M54.33,79V78.2H56.6a4.22,4.22,0,0,0-.42-.67l1-.19a7.25,7.25,0,0,1,.48.86h2V79Zm5.47,4.91v.85a17.19,17.19,0,0,1-2.19.34v.74c0,.73-.31,1.09-.94,1.09h-1l-.22-.89,1,.05q.3,0,.3-.33v-.57c-.39,0-1.1.08-2.13.14l-.2-.94,1.26,0c.39,0,.75,0,1.07-.05v-.57a4.38,4.38,0,0,0,1.21-.71H54.65v-.84H59.2v.71a8.66,8.66,0,0,1-1.59,1.19v.14Q58.87,84.1,59.8,83.94Zm-4.95-4.46h4.21v2.3H54.85Zm3.33.8H55.74V81h2.44ZM61,77.35l.94.28c-.06.24-.12.47-.19.69s-.11.37-.18.57H64v.85h-.6a9.84,9.84,0,0,1-1,4.61,4.49,4.49,0,0,0,.5.71A7.74,7.74,0,0,0,64,86.22l-.69.81a9.5,9.5,0,0,1-1.52-1.88A6.32,6.32,0,0,1,60.1,87l-.72-.82a5.84,5.84,0,0,0,1.83-1.88,8.44,8.44,0,0,1-1-2.75,2.83,2.83,0,0,1-.4.65l-.65-.93A10,10,0,0,0,61,77.35Zm.29,2.39c-.1.23-.2.45-.32.67s.09.48.26,1.2a8.83,8.83,0,0,0,.6,1.84,10,10,0,0,0,.72-3.72Z"/><path class="cls-2" d="M67.71,79.91v1H66.65l-.13,1.58h1.19c0,1.22,0,2.16-.08,2.8a2.71,2.71,0,0,1-.31,1.33c-.17.21-.59.32-1.25.32h-.38l-.2-1a6.38,6.38,0,0,0,.73,0c.33,0,.51-.24.53-.71s0-1.13,0-1.93H65.57l.31-3.31h1V78.52h-1.3v-.88h2.18v2.2a3.5,3.5,0,0,0,1.53-1.3H68.17v-.88h6.6v.88H73.23A6,6,0,0,0,75,79.69l-.34.74-.11-.06-.12-.06v5.37a1.52,1.52,0,0,1-.2.95,1,1,0,0,1-.79.25h-.57l-.23-.8.62,0c.25,0,.37-.11.37-.34V80.43H71.74v6.49h-.82V80.43H69.1V87h-.81V80.5l-.21.15Zm2.44,5.45c-.2.28-.39.53-.58.77l-.43-.53a2.62,2.62,0,0,0,.63-.79,7.28,7.28,0,0,0-.61-.71l.4-.4.26.28a1.33,1.33,0,0,1,.23.27c.06-.14.16-.41.3-.82l.55.34c-.11.22-.18.4-.24.54a2.4,2.4,0,0,1-.24.42,1.55,1.55,0,0,1,.2.27l.26.39-.42.54C70.36,85.74,70.26,85.55,70.15,85.36Zm0-2.8-.54.74-.43-.53a3.14,3.14,0,0,0,.56-.74,5.89,5.89,0,0,0-.54-.64l.41-.41s.12.12.21.21l.23.25a5.57,5.57,0,0,0,.25-.71l.54.3q-.15.43-.36.9c0,.08.19.3.42.64l-.42.55A2.84,2.84,0,0,0,70.12,82.56ZM70,78.94a2.81,2.81,0,0,1-.68.71h1.64V78.54H69.37Zm3.2-.4H71.74v1.11h1.67a5.88,5.88,0,0,1-.78-.7Zm-.4,4c-.19.26-.36.5-.54.72l-.43-.52a2.22,2.22,0,0,0,.6-.73,4.8,4.8,0,0,0-.56-.64l.39-.41a4.93,4.93,0,0,1,.45.46,3.36,3.36,0,0,0,.24-.72l.56.33a6.57,6.57,0,0,1-.4.88,2.55,2.55,0,0,1,.39.62L73,83A4.37,4.37,0,0,0,72.76,82.54Zm0,2.66c-.1.17-.28.41-.53.74l-.43-.52a4,4,0,0,0,.59-.73,4.07,4.07,0,0,0-.56-.64l.4-.43.21.21.24.25a2.92,2.92,0,0,0,.13-.34c.06-.15.11-.29.17-.42l.55.32-.24.5a2.45,2.45,0,0,1-.21.44,2.67,2.67,0,0,1,.4.61l-.44.52A5.15,5.15,0,0,0,72.76,85.2Z"/><path class="cls-2" d="M76.17,79V78.2h2.28a5.11,5.11,0,0,0-.42-.67l1-.19a6.13,6.13,0,0,1,.49.86h2V79Zm5.48,4.91v.85a17.19,17.19,0,0,1-2.19.34v.74c0,.73-.32,1.09-.94,1.09h-1l-.23-.89,1,.05q.3,0,.3-.33v-.57c-.39,0-1.1.08-2.13.14l-.21-.94,1.27,0c.39,0,.75,0,1.07-.05v-.57a4.2,4.2,0,0,0,1.2-.71H76.49v-.84h4.56v.71a8.66,8.66,0,0,1-1.59,1.19v.14Q80.72,84.1,81.65,83.94Zm-5-4.46h4.21v2.3H76.7Zm3.33.8H77.58V81H80Zm2.77-2.93.93.28a7,7,0,0,1-.18.69c-.06.18-.12.37-.19.57h2.51v.85h-.59a10,10,0,0,1-1,4.61,4,4,0,0,0,.49.71,8.26,8.26,0,0,0,1.13,1.16l-.69.81a9.87,9.87,0,0,1-1.52-1.88A6.05,6.05,0,0,1,81.94,87l-.72-.82a6,6,0,0,0,1.84-1.88,8.44,8.44,0,0,1-1-2.75,3.34,3.34,0,0,1-.4.65L81,81.3A10,10,0,0,0,82.8,77.35Zm.29,2.39c-.1.23-.21.45-.32.67a11.68,11.68,0,0,0,.25,1.2,9.43,9.43,0,0,0,.61,1.84,10,10,0,0,0,.72-3.72Z"/><path class="cls-2" d="M87.35,82.54a12.45,12.45,0,0,0,1.41-2H87.18v-.87h2.67v.73a12.07,12.07,0,0,1-1.27,2h1.25V83a7.35,7.35,0,0,1-.42,1.49c0,.06.16.24.48.53a2.73,2.73,0,0,0,1.27.59,15,15,0,0,0,2.68.16c1.09,0,2.06,0,2.94-.08l-.17,1h-1.8a20.46,20.46,0,0,1-4.27-.27A2.76,2.76,0,0,1,89,85.35a5.62,5.62,0,0,1-1.31,1.59l-.63-.77a4.72,4.72,0,0,0,1.75-2.92H87.33Zm1.51-3.11a12.3,12.3,0,0,0-1.5-1.4l.59-.58a9.35,9.35,0,0,1,1.52,1.28Zm1.69,5.63V79.94h1.92a1.8,1.8,0,0,0,.25-.63H90v-.86h1.62a6.41,6.41,0,0,0-.6-.85l.85-.25c.14.18.28.36.42.56s.27.38.38.54H93.9a5.16,5.16,0,0,0,.76-1.1l.9.28a4.12,4.12,0,0,1-.56.82h1.8v.86H93.72c0,.08-.06.18-.1.3a1.26,1.26,0,0,1-.16.33h2.7v5.12Zm.93-3.7h3.74v-.59H91.48Zm0,1.39h3.74v-.66H91.48Zm0,1.49h3.74v-.76H91.48Z"/><path class="cls-2" d="M102.92,86h-5a4.19,4.19,0,0,1,1.67-2.63,17.65,17.65,0,0,0,1.76-1.7,1.73,1.73,0,0,0,.46-1.14,1.15,1.15,0,0,0-.4-.92,1.31,1.31,0,0,0-.87-.3c-.84,0-1.29.46-1.33,1.39l-1.12-.14a2.2,2.2,0,0,1,1.06-1.8,2.77,2.77,0,0,1,1.36-.34,2.36,2.36,0,0,1,2,.78,2,2,0,0,1,.48,1.32,2.68,2.68,0,0,1-.61,1.62,11.83,11.83,0,0,1-1.39,1.38A8,8,0,0,0,99.51,85h3.41Z"/><path class="cls-2" d="M109.07,83.75a2.17,2.17,0,0,1-.74,1.69,2.66,2.66,0,0,1-1.82.66,2.41,2.41,0,0,1-1.68-.61A2.31,2.31,0,0,1,104.1,84l1.09-.12c.15.87.6,1.31,1.35,1.31a1.24,1.24,0,0,0,1-.46,1.47,1.47,0,0,0,.37-1,1.43,1.43,0,0,0-.37-1,1.2,1.2,0,0,0-.91-.4,2.85,2.85,0,0,0-.65.1l.12-.91a1.54,1.54,0,0,0,1-.23,1,1,0,0,0,.51-.93,1,1,0,0,0-.35-.8,1.13,1.13,0,0,0-.77-.27c-.68,0-1.08.4-1.2,1.19l-1.06-.17a2.12,2.12,0,0,1,2.28-1.92,2.31,2.31,0,0,1,1.62.59,1.81,1.81,0,0,1,.61,1.35,1.66,1.66,0,0,1-1.09,1.53v.08a1.73,1.73,0,0,1,1.22.86A2,2,0,0,1,109.07,83.75Z"/><path class="cls-2" d="M115.14,83.83a2.15,2.15,0,0,1-.68,1.62,2.52,2.52,0,0,1-1.78.65,2.57,2.57,0,0,1-1.8-.64,2,2,0,0,1-.7-1.63,2.08,2.08,0,0,1,.28-1.09,1.8,1.8,0,0,1,1.09-.81v-.08a1.51,1.51,0,0,1-1.13-1.53A1.75,1.75,0,0,1,111,79a2.57,2.57,0,0,1,3.31,0,1.76,1.76,0,0,1,.57,1.34,1.61,1.61,0,0,1-1.2,1.55A1.93,1.93,0,0,1,115.14,83.83Zm-1.12,0a1.46,1.46,0,0,0-.4-1.06,1.32,1.32,0,0,0-1-.4,1.24,1.24,0,0,0-1.05.49,1.49,1.49,0,0,0-.31,1,1.45,1.45,0,0,0,.35,1,1.3,1.3,0,0,0,1,.44,1.29,1.29,0,0,0,.95-.38A1.34,1.34,0,0,0,114,83.8Zm-.24-3.41a1,1,0,0,0-.33-.8,1.07,1.07,0,0,0-.8-.31,1.14,1.14,0,0,0-.83.31,1.15,1.15,0,0,0,0,1.61,1.23,1.23,0,0,0,.81.28,1.13,1.13,0,0,0,.77-.27A1,1,0,0,0,113.78,80.39Z"/><path class="cls-2" d="M118.15,82.13l-.26,1h1.85v.09a15.68,15.68,0,0,1-.11,2.12,2,2,0,0,1-.45,1.15,2.56,2.56,0,0,1-1.57.31h-.3l-.29-1c.32,0,.61,0,.88,0,.43,0,.68-.17.74-.5a9.47,9.47,0,0,0,.15-1.37h-2.05l.52-1.91h-1v-.88h3.92v.88Zm-1.46-4.47H120v3h-3.27Zm2.36.78h-1.46v1.42h1.46Zm4.24,1.74V81l1.27-.08,0,.79-1.3.07a.37.37,0,0,0,0,.11.38.38,0,0,0,.44.43h1.72v.78h-1.93q-1.08,0-1.08-1.14a.49.49,0,0,1,0-.13l-1,.06a11.67,11.67,0,0,1-1,5.1l-.79-.56q.89-1.55.88-5.73V79.37h1.86v-2h.91v.6h2v.8h-2v.63h2.53a5.5,5.5,0,0,1-.35,1.93l-.86-.19a3.58,3.58,0,0,0,.28-.93Zm-.4,3.32a5.51,5.51,0,0,1-1,3.53l-.84-.52a4.55,4.55,0,0,0,1-3.1Zm-1.47-3.32v.9l1,0v-.86Zm2.92,3.32v2.24q0,.33.27.33h.21q.27,0,.27-.84c0-.26,0-.5,0-.72l.85.26v.07a4.76,4.76,0,0,1-.17,1.64.64.64,0,0,1-.63.38h-.76a.8.8,0,0,1-.9-.91V83.48Z"/><path class="cls-2" d="M18.52,90.18a.11.11,0,0,1,0,0l-.1.15c-.18.27-.44.68-.77,1.24a5,5,0,0,0-.31.68A6.87,6.87,0,0,0,17,93.79a8.78,8.78,0,0,0-.06,1.49,7.46,7.46,0,0,0,.42,2.42,7,7,0,0,0,1.08,1.67l.13.17-1.25,0,0,0,0,0a5.8,5.8,0,0,1-.58-.73,6.53,6.53,0,0,1-1.12-3.46,6.39,6.39,0,0,1,.36-2.54,11.74,11.74,0,0,1,1.28-2.38l.11-.16,0,0h0Z"/><path class="cls-2" d="M23.35,96.7a12.8,12.8,0,0,0,1.19-.7v1a30.85,30.85,0,0,1-3.15,1.62l-.24-1,.71-.3a5,5,0,0,0,.57-.28V94.53H21.27v-1h1.16v-2H21.18v-1h3.39v1H23.35v2h1.09v1H23.35ZM26,96.26H25V90.39h5.3v5.87H28.91v2.12q0,.21.27.21h.4c.2,0,.31-.14.33-.43S30,97.5,30,97l.87.24a4.06,4.06,0,0,1-.29,1.89,1,1,0,0,1-.75.24h-.86c-.65,0-1-.29-1-.89V96.25h-1a3.74,3.74,0,0,1-2.6,3.42l-.66-.77a3.46,3.46,0,0,0,1.62-1A2.51,2.51,0,0,0,26,96.26Zm3.39-5H25.86v.82h3.51Zm-3.51,2.48h3.51v-.83H25.86Zm0,1.7h3.51v-.86H25.86Z"/><path class="cls-2" d="M34,96.77a9.34,9.34,0,0,0,1.35-.68v1a27.42,27.42,0,0,1-3.52,1.54l-.18-1a9.18,9.18,0,0,0,1.43-.52V93.85H31.74V93h1.33V90H34v3h1.35v.89H34Zm2,1.58V91.4h1v6.95h1.26V90h1v3.23h2v.9h-2v4.24h2v.91H34.46v-.91Z"/><path class="cls-2" d="M46.62,92.78a6.91,6.91,0,0,1-.37,5.33,8.69,8.69,0,0,1-.73,1.12l-.24.27,0,0,0,0,0,0v0H44c.11-.12.23-.28.38-.47l.3-.4a6,6,0,0,0,.53-1,7.18,7.18,0,0,0,.43-2.42,7.89,7.89,0,0,0-.44-3c-.09-.23-.2-.46-.31-.68l-.4-.7a5.41,5.41,0,0,1-.35-.53.92.92,0,0,1-.12-.16.05.05,0,0,1,0,0h1.23v0l0,0s0,.06.11.17A12.5,12.5,0,0,1,46.62,92.78Z"/><path class="cls-2" d="M62.16,95.14a13.15,13.15,0,0,1-.4,3.69c-.22.55-.81.82-1.79.82h-.43l-.32-1a7.58,7.58,0,0,0,.84,0h.12c.46,0,.74-.29.83-.85a14.41,14.41,0,0,0,.17-1.9H54.87a11.34,11.34,0,0,1-1.47,1.69L52.63,97A8.56,8.56,0,0,0,54.36,95a9.05,9.05,0,0,0,1.26-2.65H53v-.89h1.25a10.29,10.29,0,0,0-.51-1.1l.87-.21a8.52,8.52,0,0,1,.55,1.31h.66A9.53,9.53,0,0,0,56.08,90l1,.07a10,10,0,0,1-.24,1.38H61l-.28,1.84h.9l-.27,1.83Zm-6.48,1.74a9.5,9.5,0,0,1-.9,2.6L53.84,99a8.47,8.47,0,0,0,1-2.35Zm4.71-1.74.15-1H55.93a5.52,5.52,0,0,1-.52,1Zm-4.14,4.23a22.66,22.66,0,0,0-.13-2.51l.88-.08a18.19,18.19,0,0,1,.24,2.53Zm3.52-6.06.16-1H56.59a9.56,9.56,0,0,1-.3,1Zm-1.72,5.53a10.11,10.11,0,0,0-.41-2.11l.84-.16A8,8,0,0,1,59,98.63Zm1.66-.6c-.25-.79-.45-1.35-.59-1.68l.74-.25A12.75,12.75,0,0,1,60.52,98Z"/><path class="cls-2" d="M64.94,91.44v1.78a15.06,15.06,0,0,1-1,6.37l-.71-.78a15.47,15.47,0,0,0,.8-5.76V90.67h3.85c0-.07-.14-.25-.29-.56l1-.12a7.54,7.54,0,0,1,.37.68h4v.77H71.29V92h1.26v.71H71.29v1.09H66.81V92.67H65.44V92h1.37v-.52Zm2.86,6.78.56.64a10.75,10.75,0,0,1-3,.81l-.43-.81A8.17,8.17,0,0,0,67.8,98.22Zm2.15,0H65.71v-3h2.88v-.4H65.12v-.7H73v.7H69.46v.4h2.93v3H70c1.29.33,2.22.56,2.77.68l-.48.76L71,99.27c-.52-.14-1-.29-1.47-.44Zm-1.36-1.79V95.9h-2v.53Zm0,1.1V97h-2v.55Zm-.85-6.09V92h2.63v-.52Zm2.63,1.23H67.74v.49h2.63Zm1.15,3.76V95.9H69.46v.53Zm0,1.1V97H69.46v.55Z"/><path class="cls-2" d="M76.2,96.26a14,14,0,0,1-1.63,3.28l-.76-.88a16,16,0,0,0,1.6-3Zm-.55-1.38a9.29,9.29,0,0,0-1.73-1.12l.62-.77a9.91,9.91,0,0,1,1.75,1Zm.41-2.7A10.18,10.18,0,0,0,74.35,91l.62-.78a11.06,11.06,0,0,1,1.72,1Zm7.46,6.14-.12,1H81.05a7.59,7.59,0,0,1-.79,0H80.1a2.44,2.44,0,0,1-2.33-2.14,4.93,4.93,0,0,1-.3,1,7.88,7.88,0,0,1-.67,1.49L76,99a7.43,7.43,0,0,0,1.28-3.28h1a4,4,0,0,0,.27,1A9.38,9.38,0,0,0,81.73,94H76.67v-.94h3c-.16-.89-.29-1.34-.38-1.34-1,.08-1.62.13-2,.13h0l-.44-.95a19,19,0,0,0,5.68-.76l.71.84a26.36,26.36,0,0,1-2.93.65,5.3,5.3,0,0,1,.39,1.43h2.25v1a10.5,10.5,0,0,1-4,3.64c0,.13.19.29.55.46a3.91,3.91,0,0,0,1.54.25h.32Z"/><path class="cls-2" d="M89.74,92.22v1.36h3.75v3.79a1.32,1.32,0,0,1-.25.95,1.34,1.34,0,0,1-.94.25H91.14l-.23-1,1.26,0a.3.3,0,0,0,.34-.34V94.52H89.74v5.14h-1V94.52H86.07v4.1h-1V93.57h3.68V92.21H84.42v-.95h4.43a9.67,9.67,0,0,0-.56-1.06l.94-.23a8.27,8.27,0,0,1,.56,1.29h4.33v.95Z"/><path class="cls-2" d="M100.64,93.55a9.61,9.61,0,0,0,.17,1.23h3.84v.93h-3.58a6.05,6.05,0,0,0,1,1.92c.45.58.82.87,1.1.87s.31-.17.39-.5a9.63,9.63,0,0,0,.22-1.16l.94.53c-.23,1.5-.68,2.25-1.33,2.25a2.63,2.63,0,0,1-1.95-1.15A6.9,6.9,0,0,1,100,95.73H97v2.54c1.37-.33,2.39-.6,3-.81v1a30.68,30.68,0,0,1-4.65,1.26L95,98.63a5.54,5.54,0,0,0,.94-.16v-8h8.1v3.1Zm2.43-2.19H97v1.29h6.09ZM97,93.55v1.23h2.86a8.24,8.24,0,0,1-.2-1.23Z"/><path class="cls-2" d="M107,95.8a10.31,10.31,0,0,1-1.25.46l-.14-1c.65-.2,1.12-.35,1.39-.46V92.91h-1.26V92H107V90H108v2H109v.92H108v1.57a7.25,7.25,0,0,0,1-.51l0,1a5.38,5.38,0,0,1-1,.5v3a1,1,0,0,1-1.18,1.2H106l-.24-.93.93,0a.29.29,0,0,0,.33-.33Zm8.14,3.56h-.8a8.55,8.55,0,0,1-3.32-.37,2.52,2.52,0,0,1-1-1.06,5.79,5.79,0,0,1-1.2,1.62l-.74-.66A4.85,4.85,0,0,0,109.77,96l.89.15a9.13,9.13,0,0,1-.21.91,1.83,1.83,0,0,0,.33.55,2.05,2.05,0,0,0,.81.71V95.6h-2.52v-.86h6.16v.86h-2.67v.91h2.29v.84h-2.29v1.11h1.5c.44,0,.87,0,1.28-.06Zm-5.79-5.23V90.34h5.27v3.79Zm4.27-3h-3.29v.69h3.29Zm-3.29,2.24h3.29v-.8h-3.29Z"/><path class="cls-2" d="M116.23,94.12a10.1,10.1,0,0,0,2-4.14l.85.33c-.09.27-.2.61-.33,1l-.33.94v7.39h-1V93.93a10.47,10.47,0,0,1-.87,1.27Zm5.55,2.67a10.09,10.09,0,0,1-2.28,2.7l-.79-.71A9.6,9.6,0,0,0,121,96.25Zm-1.23-1.73v-2.2h-1.61v-1h1.61V90h1V91.9h1.66V90h1V91.9h1.49v1h-1.49v2.2h1.75v1h-7.1v-1Zm2.64,0v-2.2h-1.66v2.2Zm2,4.48c-.89-1.1-1.67-2-2.35-2.76l.79-.5a30.65,30.65,0,0,1,2.34,2.47Z"/><path class="cls-2" d="M11.57,107.32l-.91-.32a11.44,11.44,0,0,0,.54-3.56l.85.1c0,.25,0,.46,0,.61a4.67,4.67,0,0,1,0,.57h.67v-2.1h1v2.1h.9v.94h-.9v1.74a8.76,8.76,0,0,0,1-.45l.17,1q-.55.28-1.14.54v3.86h-1v-3.5a8.41,8.41,0,0,1-.82.35l-.79.31-.39-1a18.53,18.53,0,0,0,2-.72v-2.09h-.77A14.48,14.48,0,0,1,11.57,107.32Zm7.22-2.43a9.19,9.19,0,0,1-1,4.3,8,8,0,0,1-2.25,2.72l-.75-.81a6.94,6.94,0,0,0,2.2-2.54,7.52,7.52,0,0,0,.92-3.65v0h-.44a7.13,7.13,0,0,1-2.38,4.77l-.76-.81a5.4,5.4,0,0,0,2.24-4h-.45a5.3,5.3,0,0,1-1,1.77l-.79-.64a5.89,5.89,0,0,0,1.31-3.39l1,.09a9.1,9.1,0,0,1-.29,1.31h3.74v.63c0,2,0,3.59-.1,4.84a4.83,4.83,0,0,1-.43,2.28c-.22.27-.72.41-1.51.41l-.69,0L17.12,111a8.46,8.46,0,0,0,1.12.09.8.8,0,0,0,.58-.17,3.53,3.53,0,0,0,.25-1.39c.08-1,.12-2.24.12-3.58,0-.46,0-.83,0-1.12Z"/><path class="cls-2" d="M23.45,109.63l1.15-.51v1a30.78,30.78,0,0,1-3.28,1.33l-.15-1a9.69,9.69,0,0,0,1.31-.42v-2.73H21.29v-.87h1.19v-2.27h-1.3v-.91h3.36v.91H23.45v2.27h1v.87h-1ZM24.2,112v-.89h3V110H25v-.88h2.19V108H24.94V103h5.48V108H28.14v1.07h2.34V110H28.14v1.13h2.73V112Zm3-7v-1.28h-1.3v1.28Zm0,2.16v-1.37h-1.3v1.37Zm2.31-2.16v-1.28H28.14v1.28Zm0,2.16v-1.37H28.14v1.37Z"/><path class="cls-2" d="M33.53,107.57c-.69-.49-1.3-.89-1.83-1.19l.62-.82a16.17,16.17,0,0,1,1.84,1.06Zm.9,1.37a14.83,14.83,0,0,1-1.87,3.31l-.8-.86a14.08,14.08,0,0,0,1.83-3.15ZM34,104.77a20,20,0,0,0-1.84-1.22l.61-.84.94.5c.24.14.56.33.94.59Zm3.9-1.81A20.6,20.6,0,0,1,36.31,106a22.09,22.09,0,0,0,3.21-.32,12.4,12.4,0,0,0-1-1.56l.83-.45a28.18,28.18,0,0,1,2.07,3.17l-.92.62-.23-.47a2.15,2.15,0,0,0-.25-.45,44.26,44.26,0,0,1-5.49.53l-.2-1.07h.92a18.82,18.82,0,0,0,1.64-3.36Zm-3,5h5.87v4.38h-1v-.55H35.88v.55h-1Zm4.86.9H35.88v2h3.86Z"/><path class="cls-2" d="M48.44,104.19c-.09.21-.17.42-.26.6h3.49v.74H49.14a5.28,5.28,0,0,0,.86.82,3.07,3.07,0,0,0,.57-.72l.71.38a6.49,6.49,0,0,1-.62.74,8.63,8.63,0,0,0,1.27.48l-.35.83a6,6,0,0,1-.67-.31v2.1h-2.2v1.45q0,.93-1,.93h-.9l-.22-.86.88,0c.22,0,.33-.09.33-.26v-1.3H45.49v-2l-.26.15a2.48,2.48,0,0,0-.31.19l-.37-.89a4.85,4.85,0,0,0,1-.45,4.62,4.62,0,0,0-.72-.82l.7-.37.66.72a4.75,4.75,0,0,0,.69-.85H45v-.74h2.27l.15-.32.13-.28H44.57v3.07a7.82,7.82,0,0,1-1.49,5l-.68-.8a6.22,6.22,0,0,0,1.22-3.33,8,8,0,0,1-1.08.69l-.3-.88a6,6,0,0,0,1.42-.76v-3.81h3.59a4.9,4.9,0,0,0-.36-.66l1-.09a5.16,5.16,0,0,1,.38.75h3.47v.82Zm-5.59,2.09a9.64,9.64,0,0,0-.6-1.93l.69-.27a7.89,7.89,0,0,1,.69,1.9Zm1.38,4.86a6.14,6.14,0,0,0,2-1.13l.62.59a8.83,8.83,0,0,1-2,1.28Zm2.16-3.2h3.66v-.57H46.39Zm0,1.25h3.66v-.61H46.39Zm1.81-3.66h-.37a4.21,4.21,0,0,1-.81,1.15h2.25A4.2,4.2,0,0,1,48.2,105.53ZM51.37,112c-.38-.29-.73-.54-1-.73l-1-.62.54-.62c.64.35,1.31.76,2,1.21Z"/><path class="cls-2" d="M57.58,109.11A1.53,1.53,0,0,1,56,107.52a1.64,1.64,0,0,1,.44-1.16,1.57,1.57,0,0,1,1.18-.47,1.51,1.51,0,0,1,1.16.46,1.58,1.58,0,0,1,.43,1.15,1.64,1.64,0,0,1-.44,1.16A1.48,1.48,0,0,1,57.58,109.11Zm0-.72a.77.77,0,0,0,.87-.88c0-.61-.29-.92-.87-.92a.9.9,0,1,0,0,1.8Z"/></g></svg>