<svg xmlns="http://www.w3.org/2000/svg" viewBox="0 0 338 153"><defs><style>.cls-1{fill:none;stroke:#384b51;stroke-miterlimit:10;stroke-width:3px;}.cls-2{fill:#384b51;}.cls-3{fill:#95c6d1;}.cls-4,.cls-6{fill:#010101;}.cls-4{opacity:0.3;}.cls-5{fill:#d2ebf3;}.cls-7{fill:#121215;}.cls-8{fill:#5b7781;}.cls-9{fill:#0b5a51;}.cls-10{fill:#939599;}</style></defs><g id="Layer_1" data-name="Layer 1"><rect class="cls-1" x="1" y="1.59" width="335.5" height="150.01"/></g><g id="Layer_2" data-name="Layer 2"><path class="cls-2" d="M17.93,89.08v-2.8h.91v2.8h.94V85.79H17.93V82.56h.92v.71h1.86v.83H18.85V85H20.7v4.11h2l0-1.17H21.21v-.84h1.5l.05-1.23H21.21V85h1.55l0-1.09H21.2v-.86h2.51l-.14,6h.61V90h-9.7v-.89h.76l-.19-5.7a7.37,7.37,0,0,0,2.17-.7l.46.85a8.14,8.14,0,0,1-1.7.63L16,85h1.43v.83H16l0,1.23H17.4v.84H16.11l0,1.17Zm.45,1.68a9.65,9.65,0,0,1-3.18,1.48l-.62-.87a9.58,9.58,0,0,0,3-1.27Zm5,1.48a32.09,32.09,0,0,0-3.07-1.41l.67-.77,1.49.62c.49.2,1,.43,1.58.7Z"/><path class="cls-2" d="M29.13,92.25h-1V89.72H27a3.21,3.21,0,0,1-1.2,2.51L25,91.48a1.94,1.94,0,0,0,1-1.76h-.95v-.89h3v-.9H25.63V85.75h.94v1.3h1.58v-1.5h1ZM27.5,85.16v-.64H25.09v-.88H27.5V82.56h1v1.08h1.14v.88H28.49v.64Zm2.05,2.3h2.07V85.62h1v1.84h2v.91h-2v2.5H34.5v.88H29.75v-.88h1.87v-2.5H29.55Zm1.68-2.14v-.8h-1.1v-.88h1.1V82.56h1v1.09h2.44v.88H32.22v.8Z"/><path class="cls-2" d="M38.11,85.86a18.54,18.54,0,0,1,1.39,1.49l-.52.93c-.24-.4-.53-.84-.87-1.31v5.28h-1V87.51a8,8,0,0,1-1.11,2.06l-.49-1a6.63,6.63,0,0,0,1.52-3.11H35.83v-.89h1.33v-2h1v2h1.12v.89H38.11Zm6.74-1.71v8.1h-1V91.4H40.64v.85h-1v-8.1h1.83a7.79,7.79,0,0,0,.35-1.54l1,.12a7.54,7.54,0,0,1-.36,1.42Zm-1,1H40.64v2.07h3.22Zm-3.22,5.33h3.22V88.15H40.64Z"/><path class="cls-2" d="M55,88.38v3.87h-.9V92H47.75v.24h-.92V88.38H49.5V88H46.09v-.72h9.7V88H52.18v.42ZM48.1,83.43h-.91V86.3h3.75v.62H46.39v-4.1H51.1v.61H48.73l-.22.35h2.18v.48H49.61l0,.37H51v.52H49.51a8.63,8.63,0,0,1,1.3.53l-.3.59a4.14,4.14,0,0,0-1.34-.67,2.32,2.32,0,0,1-1.46.7l-.29-.63a2.43,2.43,0,0,0,1.35-.52H47.38v-.52h1.49l0-.37h-.69l-.26.28-.53-.37A2.27,2.27,0,0,0,48.1,83.43Zm6,6.55h-2a.69.69,0,0,1-.78-.78V89H50.19a1.69,1.69,0,0,1-1.51,1.29l-.58-.64A1.46,1.46,0,0,0,49.35,89h-1.6V90.3h6.39ZM47.75,91.4h6.39v-.49H47.75Zm3.58-3V88h-1v.42Zm3.26-4.92a.24.24,0,0,0,.27.27h.78v.56H54.46c-.48,0-.72-.22-.72-.67v-.08H52.41a1.48,1.48,0,0,1-.95,1l-.52-.51a1.21,1.21,0,0,0,.82-1.17v-.07h2.83Zm-2.72,1.75h-.63v-.62h4v.46a2.84,2.84,0,0,1-1,1,6.34,6.34,0,0,0,1.36.23l-.26.74a7.48,7.48,0,0,1-2-.47,6.23,6.23,0,0,1-2.1.37L51,86.25h.13a5.67,5.67,0,0,0,1.28-.12,5.7,5.7,0,0,1-1-.65Zm.23,0a4.85,4.85,0,0,0,1.29.63,2.24,2.24,0,0,0,.85-.63Zm2,3.8h-2v.17c0,.16.09.24.28.24h1.68Z"/><path class="cls-2" d="M62.83,84.13c-.09.22-.18.42-.27.61h3.5v.74H63.53a4.78,4.78,0,0,0,.85.81,2.82,2.82,0,0,0,.58-.72l.71.38a6.61,6.61,0,0,1-.63.74,6.92,6.92,0,0,0,1.28.48L66,88l-.67-.31v2.1H63.1v1.45c0,.61-.33.92-1,.92H61.2L61,91.32l.87,0c.22,0,.33-.09.33-.26V89.8H59.88v-2a1.74,1.74,0,0,1-.26.15l-.32.19-.37-.89a4.65,4.65,0,0,0,1-.45,6.17,6.17,0,0,0-.72-.82l.7-.37.66.72a5.35,5.35,0,0,0,.69-.84h-2v-.74H61.6c0-.09.1-.2.16-.32s.09-.23.12-.29H59V87.2a7.82,7.82,0,0,1-1.49,5l-.68-.8A6.11,6.11,0,0,0,58,88.08a8,8,0,0,1-1.08.69l-.29-.89a5.82,5.82,0,0,0,1.42-.76v-3.8h3.59a3.91,3.91,0,0,0-.36-.66l1-.1a4.11,4.11,0,0,1,.38.76h3.47v.81Zm-5.6,2.1a10.29,10.29,0,0,0-.59-1.94l.69-.26A7.28,7.28,0,0,1,58,85.92Zm1.38,4.85a6.18,6.18,0,0,0,2-1.13l.61.6a8.52,8.52,0,0,1-2,1.27Zm2.16-3.2h3.66v-.56H60.77Zm0,1.26h3.66v-.62H60.77Zm1.81-3.66h-.37a4.12,4.12,0,0,1-.8,1.15h2.24A4.7,4.7,0,0,1,62.58,85.48Zm3.17,6.41c-.38-.29-.72-.53-1-.73l-1-.61.55-.63c.63.36,1.3.76,2,1.21Z"/><path class="cls-2" d="M68.26,83.16l.63-.58a16.63,16.63,0,0,1,1.47,1l-.49.48h1.71V85H69.33v.66c0,.19,0,.39,0,.62h1.89a24.55,24.55,0,0,1-.3,5.13c-.17.39-.59.58-1.23.58a4.93,4.93,0,0,1-.55,0l-.23-.91a5.75,5.75,0,0,0,.77.06.37.37,0,0,0,.39-.28,6.58,6.58,0,0,0,.12-1.33c0-.7,0-1.47,0-2.32h-1a10.2,10.2,0,0,1-1.35,5l-.75-.9A10.55,10.55,0,0,0,68.35,86v-.92h-1v-.94h2.14A8.6,8.6,0,0,0,68.26,83.16Zm5.62,1a8.14,8.14,0,0,1-2.15,2.64l-.59-.84a7.1,7.1,0,0,0,2.32-3.11h.84a6.9,6.9,0,0,0,2.54,3.09l-.49,1A10.58,10.58,0,0,1,73.88,84.14Zm1.49,8.11C74.22,91.42,73.09,90.68,72,90l.64-.8c1.13.63,2.27,1.35,3.42,2.15ZM75,88.91A17.57,17.57,0,0,0,72.5,87.1l.63-.72a21.54,21.54,0,0,1,2.52,1.72Z"/><path class="cls-2" d="M79.87,89.69c.42-.2.78-.38,1.07-.54v1a18.42,18.42,0,0,1-3.12,1.38l-.13-1c.26-.09.5-.16.72-.22l.54-.21V86.22H77.79v-.9H79V82.56h.92v2.76h.95v.9h-.95Zm5.75-.54h-.27l-.29-1c.29,0,.51,0,.65,0s.42-.15.42-.44,0-1.19.06-2.24L84.7,86v4h-.93V86.39l-1.28.49V90.6a.4.4,0,0,0,.45.45h2.87c.27,0,.44-.11.48-.34a10.66,10.66,0,0,0,.11-1.11l1,.34a5.27,5.27,0,0,1-.31,1.53c-.13.35-.51.53-1.14.53h-3a1.68,1.68,0,0,1-1.14-.27,1.66,1.66,0,0,1-.26-1.08V87.24l-.81.29-.07-.9.88-.33V83.61h1V86l1.28-.48v-2.9h.93v2.55l2.43-.92A36.56,36.56,0,0,1,87,88.55a.79.79,0,0,1-.4.47A2.12,2.12,0,0,1,85.62,89.15Z"/><path class="cls-2" d="M97.92,91.67H89.47v.58h-1V82.79h9.16v.95H89.47v7h8.45Zm-7.81-4.3h3.34v2.76H90.11Zm2.46.84H91v1.07h1.58Zm-1.52-4H96.2v2.54H91.05Zm4.19.84H92v.86h3.23Zm-1.08,2.3h3.3v2.76h-3.3Zm2.42.84H95v1.07h1.54Z"/><path class="cls-2" d="M106.51,85.42v.85h1.61v.81h-1.61V88h1.94v.86H105a4.33,4.33,0,0,0,.78,1.11,5.61,5.61,0,0,0,1.35-1.11l.68.65a9.6,9.6,0,0,1-1.31,1,5.85,5.85,0,0,0,2,.82l-.37.9a6.44,6.44,0,0,1-2.41-1.18A4.86,4.86,0,0,1,104,88.86h-1.15V91a10.76,10.76,0,0,0,1.85-.44v1a26.25,26.25,0,0,1-3.83.6l-.13-.94c.35,0,.74-.05,1.17-.1v-2.3h-1.41a13.57,13.57,0,0,1-1,3.26l-.81-.88a12.84,12.84,0,0,0,1-5.7V82.82h8.32v2.63Zm-5.79,0V86q0,.73,0,1c0,.29,0,.6,0,.93h1.8v-.91H101v-.81h1.49v-.85Zm0-.87h6.42V83.7h-6.42Zm2.66.87v.85h2.18v-.85ZM105.56,88v-.91h-2.18V88Z"/><path class="cls-2" d="M113.72,86.43h-3.18v5.82h-1V82.9h4.15Zm-.94-2.74h-2.24v.62h2.24Zm-2.24,2h2.24V85h-2.24Zm5.08,3.24h1.5v.83h-1.5V92h-.88V89.71h-1.22a2.54,2.54,0,0,1-1.67,2.35l-.72-.67c1-.42,1.46-1,1.46-1.68h-1.51v-.83h1.59V87.82H111.4V87h5.4v.81h-1.18Zm-.88-1.06h-1.19v1.06h1.19Zm2.61,3.4q.36,0,.36-.33V86.43h-3.22V82.9h4.19v8a1.57,1.57,0,0,1-.21,1,.93.93,0,0,1-.77.26h-1.15l-.24-.94Zm-1.94-6.91h2.3v-.62h-2.3Zm2.3.65h-2.3v.68h2.3Z"/><path class="cls-2" d="M121.9,86.56v-.78a7.86,7.86,0,0,1-1.57.72l-.5-1a8.69,8.69,0,0,0,4.31-2.88h1.06a9.22,9.22,0,0,0,4.33,2.84l-.55,1a13.33,13.33,0,0,1-1.42-.66v.74Zm-.82,1.21h7.21v4.48h-1v-.59h-5.14v.59h-1Zm6.18.89h-5.14v2.1h5.14Zm0-3a10.24,10.24,0,0,1-2.56-2.1,10.37,10.37,0,0,1-2.46,2.1Z"/><path class="cls-2" d="M130.35,86.65a13.11,13.11,0,0,0,1.32-1.79,13.62,13.62,0,0,0,1.21-2.28l.91.46a21,21,0,0,1-1,1.91v7.32h-1V86.48a7.64,7.64,0,0,1-1,1.31Zm9.7-2.59V85h-3.62v1.45h3.11v.94h-3.11V89h3.3v.94h-3.3v2.32h-1V85h-.18a10.69,10.69,0,0,1-1.63,2.3l-.72-.79a9.43,9.43,0,0,0,2.32-3.93l.95.26a8,8,0,0,1-.48,1.22Z"/><path class="cls-2" d="M146.51,87.45a2.49,2.49,0,0,1-1.31,2l-.43-.57a1.55,1.55,0,0,0,1-1H145v-1.6h1.55Z"/><path class="cls-2" d="M24,100.36a13.56,13.56,0,0,1-.4,3.69c-.22.55-.82.82-1.79.82H21.4l-.32-1a7.63,7.63,0,0,0,.84,0H22c.47,0,.75-.29.83-.84A14.57,14.57,0,0,0,23,101.2H16.73a11.34,11.34,0,0,1-1.47,1.69l-.77-.71a8.47,8.47,0,0,0,1.73-1.94,9.1,9.1,0,0,0,1.26-2.66h-2.6V96.7h1.26a11.4,11.4,0,0,0-.52-1.1l.88-.22A9.66,9.66,0,0,1,17,96.7h.66A11.48,11.48,0,0,0,18,95.25l.94.06a11.8,11.8,0,0,1-.23,1.39h4.18l-.27,1.83h.89l-.27,1.83Zm-6.48,1.75a9.91,9.91,0,0,1-.91,2.59l-.93-.47a8.84,8.84,0,0,0,1-2.36Zm4.71-1.75.14-1H17.79a5.52,5.52,0,0,1-.52,1Zm-4.15,4.24a22.53,22.53,0,0,0-.13-2.51l.88-.09a18.19,18.19,0,0,1,.24,2.53Zm3.52-6.07.16-1H18.45a6.13,6.13,0,0,1-.3,1Zm-1.72,5.53A9.6,9.6,0,0,0,19.5,102l.84-.16a7.72,7.72,0,0,1,.51,2.07Zm1.66-.59c-.25-.79-.44-1.36-.59-1.69l.74-.25a10.51,10.51,0,0,1,.66,1.65Z"/><path class="cls-2" d="M29.29,100.74V97.27H25v-1h4.28V95.2h1v1.1h4.4v1h-4.4v3.47h2.58v-2.5h1v3.42H30.31v1.81q0,.3.36.3h2.42a.49.49,0,0,0,.48-.22,5,5,0,0,0,.19-1.49l.94.31a3.14,3.14,0,0,1-.46,1.91,1.22,1.22,0,0,1-.89.4H30.62a1.63,1.63,0,0,1-1.07-.26,1.36,1.36,0,0,1-.27-1v-1.77H25.86V98.25h1v2.49Z"/><path class="cls-2" d="M40,100H36.89v4.89h-1V95.54h4Zm-1-3.64h-2.1v.94H39Zm-2.1,2.81H39V98.07h-2.1Zm6.68,4.61c.24,0,.36-.11.36-.34V100H40.77V95.54H44.9v8a1.59,1.59,0,0,1-.2.94.94.94,0,0,1-.79.26H42.44l-.25-1Zm-1.84-6.48h2.2v-.94h-2.2Zm2.2.76h-2.2v1.11h2.2Z"/><path class="cls-2" d="M55.78,98.45v.81H51.39v.53H54.9v3.39H47V99.79h3.44v-.53H46.09v-.81ZM50.05,104a13.65,13.65,0,0,1-3.33.89l-.54-.91a11.7,11.7,0,0,0,3.14-.7Zm-1.6-6V96.63H46.38v-.84h2.07V95.2h1v.59h3V95.2h1v.59H55.6v.84H53.34V98Zm2,3.11v-.54H47.93v.54Zm0,1.33v-.6H47.93v.6Zm2-5.79h-3v.58h3Zm1.55,4.46v-.54H51.39v.54Zm0,1.33v-.6H51.39v.6Zm1.29,2.46c-.72-.21-1.81-.46-3.27-.74l.44-.82q1.89.32,3.24.66Z"/><path class="cls-2" d="M59,103.65a10.18,10.18,0,0,0-.79-1.87l1-.36a16.17,16.17,0,0,1,.89,2.23H61V101H57.15V100H61V98.85H58.64v-.48c-.52.29-1,.53-1.47.74l-.55-.94a9.71,9.71,0,0,0,4.32-3h.91a15.07,15.07,0,0,0,4.49,2.92l-.61.91a11,11,0,0,1-1.38-.72v.54H62V100h3.81V101H62v2.7h.92a20.48,20.48,0,0,0,.93-2.29l1,.39a20.12,20.12,0,0,1-.8,1.9h2v.92H56.92v-.92Zm2.47-7.49a10.64,10.64,0,0,1-2.09,1.77h4.38A14.91,14.91,0,0,1,61.45,96.16Z"/><path class="cls-2" d="M69.43,101.4A20.58,20.58,0,0,1,68,104.9l-.81-.78a12.53,12.53,0,0,0,1.34-3.28ZM69,99.92c-.61-.44-1.2-.83-1.77-1.18l.58-.79a15.08,15.08,0,0,1,1.78,1Zm.28-2.66a14.22,14.22,0,0,0-1.72-1.14l.59-.8.92.5a9.69,9.69,0,0,1,.82.52Zm7.35-.17H71.28a6.84,6.84,0,0,1-1.34,1.47l-.64-.68a5.12,5.12,0,0,0,1.91-2.68l.89.21a4.14,4.14,0,0,1-.33.79h4.88Zm.06,5.57v.82h-.77a1.5,1.5,0,0,1-.54,1.07,3.15,3.15,0,0,1-1.73.32h-.51l-.28-.93a6.44,6.44,0,0,0,.81,0c.86,0,1.29-.17,1.29-.5h-4.9c.18-.75.34-1.56.47-2.44h-1v-.82h1.13a19.49,19.49,0,0,0,.12-2.44h5.52c0,.73,0,1.54-.08,2.43h.66V101h-.7c0,.28-.05.56-.06.85s0,.53-.06.77Zm-1.55-.8c0-.25,0-.52,0-.82H71.5c-.1.72-.18,1.26-.25,1.61h3.83C75.11,102.41,75.14,102.15,75.16,101.86Zm.09-1.65c0-.3,0-.59,0-.88s0-.54,0-.74H71.69c0,.26,0,.53-.07.82a7,7,0,0,1-.07.8Zm-1.76,2.41a8.29,8.29,0,0,0-1.12-1.07l.59-.46a11.93,11.93,0,0,1,1.11,1Zm.08-2.47a9.48,9.48,0,0,0-1.14-1l.58-.45a9,9,0,0,1,1.15.93Z"/><path class="cls-2" d="M87.38,99.17H79.47v.77a10.33,10.33,0,0,1-.92,5l-.86-.61a9,9,0,0,0,.8-4.24V98.27h8.89Zm-8.64-3.62h1v1.13h2.6V95.2h1v1.48h2.6V95.55h1v2H78.74ZM84,104.9H83v-2H79.77v-.89H83V101H80.17v-.9h6.54v.9H84v1.06h3.39V103H84Z"/><path class="cls-2" d="M97.92,104.31H89.47v.59h-1V95.43h9.16v.95H89.47v7h8.45ZM90.11,100h3.34v2.76H90.11Zm2.46.84H91v1.07h1.58Zm-1.52-4H96.2v2.54H91.05Zm4.19.84H92v.86h3.23ZM94.16,100h3.3v2.76h-3.3Zm2.42.84H95v1.07h1.54Z"/><path class="cls-2" d="M108.1,100.15h-9V99h9Z"/><path class="cls-2" d="M117.36,95.2v.87H119v.82h-1.65v.58q0,.42.36.42h1v.78h-1q-1.29,0-1.29-1.11v-.67h-.81v1.74h-3V96.89h-.82V97a2,2,0,0,1-1.46,2l-.64-.76c.72-.29,1.08-.7,1.08-1.25v-.07H109.3v-.82h1.48V95.2h1v.87h.8V95.2h1v.87h1V95.2h1v.87h.81V95.2Zm.27,5.78v2.13a1.51,1.51,0,0,1-.21.94,1,1,0,0,1-.78.26h-1.08l-.21-.89.94,0c.25,0,.37-.11.37-.33v-1.32h-2v3.06h-1v-3.06h-2v2.38h-1V101h3v-1H110.5v1.49h-1V99.11h9.3v2.4h-1V100h-3.18v1Zm-4.08-4.09v1h1v-1Z"/><path class="cls-2" d="M121.75,100.3a11.27,11.27,0,0,1-1.15,4.45l-.78-.83a12.16,12.16,0,0,0,1-5.75V95.55h8.3v2.79h-3.24v1h3.61v.93h-3.61v1.1h3v3.5h-.95v-.46h-4.72v.46h-.93v-3.5H125v-1.1Zm0-2.86h6.43v-1h-6.43Zm0,.9v1H125v-1Zm6.16,4h-4.72v1.23h4.72Z"/><path class="cls-2" d="M136,98.77a9.36,9.36,0,0,0,.17,1.23H140v.93H136.4a5.66,5.66,0,0,0,1,1.92c.45.58.82.87,1.1.87s.31-.17.39-.5a9.83,9.83,0,0,0,.22-1.15l.94.52c-.23,1.5-.68,2.25-1.34,2.25a2.63,2.63,0,0,1-1.94-1.15,6.93,6.93,0,0,1-1.39-2.73H132.3v2.54c1.37-.33,2.39-.6,3-.82v1a31.87,31.87,0,0,1-4.65,1.27l-.35-1.06a5.48,5.48,0,0,0,.94-.17v-8h8.1v3.1Zm2.43-2.19h-6.09v1.29h6.09Zm-6.09,2.19V100h2.86a6.93,6.93,0,0,1-.2-1.23Z"/><path class="cls-2" d="M15.9,113.67a11.49,11.49,0,0,1-1.25.45l-.15-1c.66-.19,1.13-.35,1.4-.46v-1.93H14.64v-.93H15.9v-2h1v2h1v.93h-1v1.56a7.07,7.07,0,0,0,1-.5l0,1a6,6,0,0,1-1,.51v3a1.39,1.39,0,0,1-.24,1,1.44,1.44,0,0,1-.95.23h-.79l-.23-.92.92,0c.23,0,.34-.11.34-.33ZM24,117.23h-.81a8.8,8.8,0,0,1-3.32-.37,2.71,2.71,0,0,1-1-1.06,5.69,5.69,0,0,1-1.2,1.61l-.73-.66a4.85,4.85,0,0,0,1.63-2.94l.89.16c-.07.37-.15.67-.21.9a1.79,1.79,0,0,0,.32.56,2.24,2.24,0,0,0,.82.71v-2.69H17.93v-.86h6.16v.86H21.41v.92h2.3v.83h-2.3v1.11h1.51c.43,0,.86,0,1.28-.06ZM18.25,112v-3.78h5.26V112Zm4.27-3h-3.3v.69h3.3Zm-3.3,2.23h3.3v-.79h-3.3Z"/><path class="cls-2" d="M25,112a10,10,0,0,0,2-4.13l.84.32c-.08.27-.19.61-.32,1l-.33.94v7.4h-.95V111.8a11.37,11.37,0,0,1-.87,1.26Zm5.56,2.68a10.2,10.2,0,0,1-2.28,2.69l-.8-.71a9.47,9.47,0,0,0,2.25-2.53Zm-1.24-1.73v-2.2h-1.6v-1h1.6v-1.91h1v1.91H32v-1.91h1v1.91h1.49v1H33v2.2h1.74v.95H27.62v-.95Zm2.65,0v-2.2H30.32v2.2Zm2,4.47c-.89-1.1-1.67-2-2.35-2.75l.79-.51a29,29,0,0,1,2.33,2.47Z"/><path class="cls-2" d="M35.57,112.1a10.5,10.5,0,0,0,1.9-4.26l.92.23a19.49,19.49,0,0,1-.75,2.39v7.08h-.92v-5.4a8.09,8.09,0,0,1-.73,1.12Zm3,1.87V109.8H41.2v-.69H38.47v-.89h6.61v.89h-3v.69h2.7V114H42.09a3.33,3.33,0,0,1-.42,1.73,8.18,8.18,0,0,0,3.58.77l-.26,1a8.33,8.33,0,0,1-3.87-1,4.05,4.05,0,0,1-2.63,1l-.47-.83a3.85,3.85,0,0,0,2.33-.74c-.38-.31-.82-.72-1.32-1.22l.68-.5a9,9,0,0,0,1.19,1,2.69,2.69,0,0,0,.3-1.28Zm2.67-2.52v-.84H39.44v.84Zm0,1.7v-.93H39.44v.93Zm2.69-1.7v-.84H42.1v.84Zm0,1.7v-.93H42.1v.93Z"/><path class="cls-2" d="M48.4,109.47a13,13,0,0,1-1.75.18l-.25-1a15,15,0,0,0,4.27-.65l.41.88a9.72,9.72,0,0,1-1.73.43v1.49h1.9v.94h-1.9V112a18.84,18.84,0,0,1,2,2l-.59.85a20.64,20.64,0,0,0-1.42-1.69v4.45h-1v-4.27a9.06,9.06,0,0,1-1.87,2.55l-.44-1a8.21,8.21,0,0,0,2.14-3.05h-2v-.94H48.4Zm3.5,5.75v-6.66h1v6.66Zm2.46-7.37h1v8.32a1.29,1.29,0,0,1-.25,1,1.32,1.32,0,0,1-.94.25H52.61l-.23-1.06,1.63,0c.24,0,.35-.11.35-.33Z"/><path class="cls-2" d="M59.17,109.72h1.5v7.53h-.94v-.7H57.88v.83h-.94v-7.66H58a5.86,5.86,0,0,0,.66-1.71l1,.29A3.49,3.49,0,0,1,59.17,109.72Zm.56.86H57.88v2h1.85Zm0,2.9H57.88v2.19h1.85Zm3.19-4h3.22q0,5.1-.17,6.15a2.45,2.45,0,0,1-.51,1.42,2.77,2.77,0,0,1-1.8.37H63.1l-.33-1a10.44,10.44,0,0,0,1.16.08c.45,0,.73-.12.86-.35a4.87,4.87,0,0,0,.26-1.64c0-.86.07-2,.07-3.31v-.74H62.66A9.68,9.68,0,0,1,61.48,113l-.81-.79a8.48,8.48,0,0,0,1.48-4.33l1,.13A9.13,9.13,0,0,1,62.92,109.51Zm.47,5.42a15.19,15.19,0,0,0-1.31-2.62l.87-.46a16.07,16.07,0,0,1,1.44,2.58Z"/><path class="cls-2" d="M69,112.79c-.69-.49-1.3-.89-1.83-1.19l.62-.81a15.32,15.32,0,0,1,1.84,1.06Zm.9,1.37A14.6,14.6,0,0,1,68,117.47l-.8-.86A14.08,14.08,0,0,0,69,113.46ZM69.47,110a20.27,20.27,0,0,0-1.84-1.23l.61-.83.94.49c.24.14.56.34.94.6Zm3.9-1.81a20.37,20.37,0,0,1-1.61,3,19.49,19.49,0,0,0,3.21-.32,10.67,10.67,0,0,0-1-1.55l.83-.45a28,28,0,0,1,2.07,3.16l-.92.62-.23-.46a2.15,2.15,0,0,0-.25-.45,44.71,44.71,0,0,1-5.49.52l-.2-1.07h.92a19,19,0,0,0,1.64-3.35Zm-3,5H76.2v4.39h-1V117H71.33v.56h-1Zm4.86.91H71.33v2h3.86Z"/><path class="cls-2" d="M83.9,109.41c-.09.22-.18.42-.27.61h3.5v.74H84.6a4.78,4.78,0,0,0,.85.81,3,3,0,0,0,.58-.72l.71.38a5.81,5.81,0,0,1-.63.74,7.12,7.12,0,0,0,1.27.48l-.35.84c-.24-.11-.47-.21-.66-.31v2.1H84.16v1.45c0,.62-.33.92-1,.92h-.91l-.22-.85.88,0c.22,0,.33-.09.33-.26v-1.29H80.94v-2l-.25.16a2.82,2.82,0,0,0-.32.18l-.37-.88a5.21,5.21,0,0,0,1-.46,6.17,6.17,0,0,0-.72-.82l.7-.37.65.72a4.41,4.41,0,0,0,.69-.84H80.4V110h2.27a3.16,3.16,0,0,1,.16-.32c0-.13.09-.23.12-.29H80v3.08a7.79,7.79,0,0,1-1.49,5l-.68-.8a6.16,6.16,0,0,0,1.22-3.32,8,8,0,0,1-1.08.69l-.3-.89a5.45,5.45,0,0,0,1.42-.76v-3.8H82.7a2.87,2.87,0,0,0-.36-.66l1-.09a4.29,4.29,0,0,1,.38.75H87.2v.81Zm-5.6,2.1a9.76,9.76,0,0,0-.6-1.94l.69-.26a7.65,7.65,0,0,1,.69,1.89Zm1.38,4.85a6.14,6.14,0,0,0,2-1.13l.62.6a8.72,8.72,0,0,1-2,1.27Zm2.16-3.2H85.5v-.56H81.84Zm0,1.26H85.5v-.62H81.84Zm1.81-3.66h-.37a4.34,4.34,0,0,1-.8,1.15h2.24A4.51,4.51,0,0,1,83.65,110.76Zm3.17,6.42a10.76,10.76,0,0,0-1-.73l-1-.62.55-.63c.63.36,1.3.76,2,1.21Z"/><path class="cls-2" d="M93,114.34a1.54,1.54,0,0,1-1.61-1.6,1.62,1.62,0,0,1,.44-1.16,1.72,1.72,0,0,1,2.33,0,1.6,1.6,0,0,1,.44,1.15,1.58,1.58,0,0,1-.45,1.16A1.51,1.51,0,0,1,93,114.34Zm0-.72a.9.9,0,1,0-.9-.91A.8.8,0,0,0,93,113.62Z"/><path class="cls-3" d="M15.86,50.82c1.08-2.58,3.65-5.32,7.68-8.2a56.66,56.66,0,0,0,6.81-5.39,7.94,7.94,0,0,0,2.38-5.55,6.21,6.21,0,0,0-1.36-4.09A4.82,4.82,0,0,0,27.47,26c-2.31,0-3.89.87-4.73,2.59a12.92,12.92,0,0,0-.85,4.76H14.5a18.62,18.62,0,0,1,1.79-8q3-5.79,10.82-5.79c4.1,0,7.35,1.14,9.78,3.4a11.78,11.78,0,0,1,3.63,9A12.15,12.15,0,0,1,38,39.58a25.92,25.92,0,0,1-5.53,4.94l-3.05,2.16C27.46,48,26.16,49,25.45,49.61a8.75,8.75,0,0,0-1.77,2.11H40.57v6.7H14.07A18.15,18.15,0,0,1,15.86,50.82Z"/><path class="cls-3" d="M68.19,24.66q3,5.2,3,14.78t-3,14.77q-3,5.17-10.37,5.17T47.45,54.21q-3-5.19-3-14.77t3-14.78q3-5.2,10.37-5.21T68.19,24.66Zm-14.86,25q1.1,3.54,4.49,3.54t4.44-3.54a37.41,37.41,0,0,0,1.06-10.21q0-7-1.06-10.35a4.31,4.31,0,0,0-4.44-3.37,4.38,4.38,0,0,0-4.49,3.37q-1.09,3.36-1.09,10.35A36.43,36.43,0,0,0,53.33,49.65Z"/><path class="cls-3" d="M76.66,50.82q1.64-3.87,7.69-8.2a56.66,56.66,0,0,0,6.81-5.39,8,8,0,0,0,2.37-5.55,6.16,6.16,0,0,0-1.36-4.09A4.79,4.79,0,0,0,88.28,26c-2.32,0-3.89.87-4.73,2.59a12.92,12.92,0,0,0-.85,4.76H75.3a18.76,18.76,0,0,1,1.79-8q3-5.79,10.83-5.79,6.14,0,9.77,3.4a11.75,11.75,0,0,1,3.64,9,12.21,12.21,0,0,1-2.57,7.64,25.92,25.92,0,0,1-5.53,4.94l-3,2.16q-2.87,2-3.92,2.93a8.75,8.75,0,0,0-1.77,2.11h16.89v6.7H74.88A18.15,18.15,0,0,1,76.66,50.82Z"/><path class="cls-3" d="M129,24.66q3,5.2,3,14.78t-3,14.77q-3,5.17-10.37,5.17t-10.37-5.17q-3-5.19-3-14.77t3-14.78q3-5.2,10.37-5.21T129,24.66Zm-14.86,25q1.1,3.54,4.49,3.54t4.44-3.54a37.88,37.88,0,0,0,1.05-10.21,37.45,37.45,0,0,0-1.05-10.35,4.31,4.31,0,0,0-4.44-3.37,4.38,4.38,0,0,0-4.49,3.37q-1.1,3.36-1.09,10.35A36.43,36.43,0,0,0,114.14,49.65Z"/><path class="cls-4" d="M298.13,113.61c-5.86-3.38-14.52-4.15-21.68-2.33a108.37,108.37,0,0,0-12.32-8.46A48.94,48.94,0,0,0,277.4,97c12.9-8.17,17.09-19.82,9.34-26s-24.48-4.62-37.38,3.54c-7,4.42-11.42,9.87-12.78,14.92-8.85-3.31-16.32-5-20.09-4.31C209.39,86.5,218.13,96,236,106.29a166.86,166.86,0,0,0,29.06,13.34c-1.06,3.5.74,7.23,5.42,9.93,7.63,4.4,20,4.41,27.62,0S305.76,118,298.13,113.61Z"/><path class="cls-5" d="M283.6,80.81a2.35,2.35,0,0,0-.34,2.76c.25.6,4.38,1.22,5.39.46a4.54,4.54,0,0,0,1.7-3.22,74.25,74.25,0,0,0-2.44-9.19c-.46-1.17-1.86-1.34-3-1.08s-2.55,2.55-2.55,2.55Z"/><polygon class="cls-5" points="284.12 79.76 287.8 80.64 283.87 80.64 284.12 79.76"/><path class="cls-2" d="M256.07,53.63s-7.75,12-9.32,17.39,4.13,5.89,8.05,5.18c5-.91,11.47-7.76,11.47-7.76l1-9.39Z"/><path class="cls-6" d="M265.7,62.91s-8.68,9.31-7.86,9.81S265.7,62.91,265.7,62.91Z"/><path class="cls-2" d="M256.07,53.63c2.25,5.51,8.49,8.86,8.49,8.86s-3.71,25.62-2.3,28.67,5.48,4.38,8.91,1.86c2.91-2.13,10.91-8.25,13.15-12.92,1.91-4,.14-6.71-2.38-7.09s-7.86,7.09-7.86,7.09,3.68-11.59,4.95-16.72a17.79,17.79,0,0,0-1.32-11.71S256.46,52.51,256.07,53.63Z"/><path class="cls-7" d="M274.08,80.1s-4.2,8.17-3.56,8.38S274.08,80.1,274.08,80.1Z"/><path class="cls-2" d="M263.13,108.12a21.19,21.19,0,1,0,21.19-21.18A21.19,21.19,0,0,0,263.13,108.12Z"/><path class="cls-8" d="M248,89.34a86,86,0,0,1,4.23,8.6,3.18,3.18,0,0,1-3.56,3.85c-1.92-.53-6.42-3.46-6.42-3.46l-8.44-12.86s9.26-2.36,9.43-2.36A45.32,45.32,0,0,1,248,89.34Z"/><path class="cls-5" d="M222,92.75s-2.81-1.21-4.28-1.72-2,.21-3.44.21-1.84-.94-.31-2.14,5.58-2.26,5.58-2.26,1.8-2.79,3.3-2.09,2.24,4,2.24,4l0,2.13Z"/><path class="cls-8" d="M217.16,71s-1.63,4.17.25,7.86c2,4,7.29,9.43,7.29,9.43A4.67,4.67,0,0,0,222,92.75c13.34,7.16,16.6,12.65,19.4,13.13a4.16,4.16,0,0,0,4.7-4c-.06-1.82-9.49-17.42-9.49-17.42l-8-12.68Z"/><path class="cls-9" d="M265,76.49s2.18,1.22.75,4.13-3.35,1.53-3.35,1.53l-1.43-2,.38-2.62,2-1.32Z"/><path class="cls-5" d="M263.25,75.8s3.49,2.32,3.86,2.76c3.27.32,11.4,5.41,14.24,6.42.65.23,3,.07,4.09.35s3.19,2.61,2.89,3c-1.69,2.25-3.73-.15-5.68-.5-1.51.23,1.58,2.58.34,2.74-.69.09-3.17-1.86-3.94-3.18-4.12-1.48-9.77-1.15-14.86-4.74A27.83,27.83,0,0,1,260,80.92l-3.41-3.34,1.89-1.32Z"/><path class="cls-8" d="M249.85,70.92c-1.89,3.12,2.49,6.93,3.44,7.26,2.56.88,6.42,2.81,9.14,4-1.11-1.62-.07-5.47,2.6-5.66a37.17,37.17,0,0,1-6.84-4.7C254.88,68.69,251.67,67.91,249.85,70.92Z"/><path class="cls-5" d="M254,78.94l.42.94,1.09,9.48-2.09,3.35a5.91,5.91,0,0,1-3.5-2.95c-1-1.76.09-1.62.09-1.62L245.41,84,246,78l4.2-2.67,2.34.19Z"/><path class="cls-3" d="M239.71,86.86s-3.88.71-5.58.08-5.15-6.74-9.56-8.75c-1-.38-11.74-3.89-6.53-9.37,3.58-3.78,9.18-6.38,11.87-5.13s3.4,2.43,9.57,3.93c5.27,1.3,10.85.81,11.84,1.57,3.33,2.58,2.68,9.75,2.68,9.75s-2.32-2.2-4.53-.88-2.13,5.16-2.13,5.16L247,85.73Z"/><path class="cls-2" d="M254.26,79.3c1.32.09,8,1,9.43,3.06,2.7,3.94,1.24,9.34,1,9.76-1.58,3.45-7.12,4.07-7.12,4.07s.62-1,.21-1.13c-1.93,1-5.66-2.56-5.66-2.56a1,1,0,0,0,1.09-.12c-1.8-1.37-1.93-5-1.93-5a2.23,2.23,0,0,0-.81-1.43c-1.07-.69-.63-3-.22-4A5.49,5.49,0,0,1,254.26,79.3Z"/><path class="cls-9" d="M248.13,90.25s1.93.57,2.9-2-.74-3.82-.74-3.82l-2.95-.84-1.93,4.57Z"/><path class="cls-5" d="M250.29,84.41s3.84,1.38,4.22,1.83c3.26.31,11.82,5.21,14.66,6.22.64.23,3.38-1.13,4.42-.85s3.58,1.79,3.49,3-4.12,2.73-6.42,1.13c-.37-.34-2.73,1-4-.6-4.12-1.48-9.75-2.29-14.71-4.88l-4.22-1-3.39-3.87L246.21,84Z"/><path class="cls-8" d="M236.4,81.14c-1.89,3.12.83,4.73,2.44,5.38s6.56,2.57,9.29,3.73c-1.11-1.63-.51-5.65,2.16-5.84-2.79-1.21-6.38-3.74-7.88-4.31S238.22,78.12,236.4,81.14Z"/><path class="cls-7" d="M224.7,88.31s6.41,8.74,13.46,12C231.88,96,224.7,88.31,224.7,88.31Z"/><path class="cls-5" d="M243.69,37.69s-3,4.43-4.92,6.65S233.84,58.42,232,61.62c-.34.28-3.69,1-4.58,2.21s-1.8,5.83-.41,6.33,4-4.69,4.82-4.07-1.14,3.19-.42,3.65,2.72-2,3.41-2.93-.22-3,.47-4.15c1.78-3.11,8.19-9.73,9.65-15.35.56-.59,4.19-4.22,5.07-5.91a7.34,7.34,0,0,0,.66-3.71l-4.84-2.53Z"/><path class="cls-8" d="M256.24,26.56c4.57,4.15-1.52,9.44-1.52,9.44s-2.35,3.6-4,5.58c-3.28.78-7.11-2.29-7.35-5.06,1.28-2,4.35-5.83,4.35-5.83S252.18,22.88,256.24,26.56Z"/><polygon class="cls-5" points="257.71 26.56 262.3 28.83 264.06 32.48 263.38 37 259.6 39.5 255.13 39.5 252.18 38.23 251.05 33.61 253.18 30.34 257.71 26.56"/><path class="cls-3" d="M257,28.1a3.9,3.9,0,0,1,4.13,1.27,5.74,5.74,0,0,1,.35,4.8s-1.25,4.84-6.22,3.52c-3.58-.95-3.07-4.88-3.07-4.88l-3.78.24s.47,7.5,3.28,10.75,5.67,4.79,5.79,6.2-.79,2-1.46,3.23,8.54,6.12,17.35,4.94c4.64-.62,5.24-5.86,4.9-7.21-.71-2.89-4.21-8.61-4.21-8.61s-.43-8.27-1.51-9.26c-4-3.68-7.89-3.85-9-4.64s-2.94-2.89-6.6-2.89C255.89,25.56,256.07,28.24,257,28.1Z"/><path class="cls-10" d="M264.56,48.22s-.81,2.62,3.82,3.68,4.77-1.22,4.77-1.22l.2-3.72-6.29-1.72Z"/><path class="cls-5" d="M265.24,46.88s-1.64,8.61-1.55,10.81c-5,3.39-12.39,10.88-13.37,11s-5.66.38-6.25.63S239.19,74,241,75.55c3.42,3,6.35-.76,6.35-.76s4.73-1.6,5.09-3.05c.24-.47,13.27-4.14,16.33-10.12L273,50.33l.34-3.77L271,43.35l-4.4.63Z"/><path class="cls-8" d="M273.43,33.35c5.66,2.47,1.7,10.76,1.7,10.76s-1.07,4.16-2,6.57c-.35-2-7.39-3.56-8.59-2.46.59-2.27,2.27-6.91,2.27-6.91S268.4,31.16,273.43,33.35Z"/><path class="cls-5" d="M258.73,30.24a4.16,4.16,0,0,0-.54-3.59s-.67,0-1.91-1.67c-.69-.91-1.58-2.18-1.58-2.18L249.25,24l-3.93,2.89v3.66s.82,4.83,4.5,6.12a7.85,7.85,0,0,0,2.36,1.54c.31.58.74,1.28,1,1.27s.53-.29.78-.56a11.69,11.69,0,0,0,1.45.41,2.76,2.76,0,0,0,2.71-1.59C258.67,36.33,259.55,32.56,258.73,30.24Z"/><path class="cls-2" d="M258.19,26.65c-2,.09.18,4-.86,4.73-.44.31-2.5.61-3.17-.92-.55-1.23-.11-3.49-1.88-3.35s-.56,5.07-3.74,5.66c-2.52.47-2.68-3.24-3-3.21-.08,0,0,1-.21,1-.65-1.2-1.39-8.63,6-9.29C256.52,20.82,258,26.15,258.19,26.65Z"/></g></svg>