<svg xmlns="http://www.w3.org/2000/svg" viewBox="0 0 338 315"><defs><style>.cls-1{fill:none;stroke:#384b51;stroke-miterlimit:10;stroke-width:3px;}.cls-2{fill:#384b51;}.cls-3{fill:#5b7781;}.cls-4{fill:#d2ebf3;}.cls-5{fill:#95c6d1;}</style></defs><g id="Layer_1" data-name="Layer 1"><rect class="cls-1" x="1.6" y="1.32" width="334.91" height="312.01"/></g><g id="Layer_2" data-name="Layer 2"><path class="cls-2" d="M61.34,25.92c-.15-.43-.38-1.12-.7-2.06a17.65,17.65,0,0,0-1.19-2.63l4-.53a14.31,14.31,0,0,1,1.18,2.72c.35,1.11.63,1.95.84,2.5h5.57V29.7h-16V25.92Zm-5,6.59H69.63V36.1H56.34Zm0,6.62H69.72v3.55H56.34Zm.13,7H69.72V61.6H65.81v-2H60.37V62h-3.9Zm9.34,3.47H60.37V56h5.44ZM85.25,20.83a48.32,48.32,0,0,0,11.1,11.94L94,36.41a54.8,54.8,0,0,1-10.48-12A51.86,51.86,0,0,1,72.22,36.85l-2.19-4a41.39,41.39,0,0,0,11.54-12Zm7.33,18.52a32.19,32.19,0,0,1-17.9,13.38l-2.77-3.38a32,32,0,0,0,9.92-4.65A24.74,24.74,0,0,0,89.42,37Zm3.73,7.81q-2.59,5-8.82,9.17A36.87,36.87,0,0,1,74.94,62l-3-3.55A39.14,39.14,0,0,0,85.12,53q6-3.91,8-8.21ZM88.06,32.81a26.43,26.43,0,0,1-13,10.58l-2.72-3.34a26.63,26.63,0,0,0,6.93-3.82,19.5,19.5,0,0,0,5.66-5.7Z"/><path class="cls-2" d="M107.5,46.59a43.61,43.61,0,0,1-3.64,15.22L100,59.18q3.44-7.59,3.43-21.41V24.08q10-.7,15-2.5l1.84,3.77a75.86,75.86,0,0,1-12.68,2.24v4.35h11.23V46.59Zm0-3.91h7.15V35.84h-7.15ZM137.07,62H132.9V39.17h-6.67v1.19q0,14.31-5.48,21.5L117.06,59a20,20,0,0,0,3.69-6.63q1.35-3.94,1.36-14.61V24a72.13,72.13,0,0,0,16.71-2.85l1.85,3.73a93.3,93.3,0,0,1-14.44,2.72v7.59h15.1v4h-4.26Z"/><path class="cls-2" d="M49.28,213.58c-6.94,1.95,16.15,2.56,20.45,3.55-1.08-6.1,10.46-18.4-1.16-18.18l-21.81,7.79h0C49.68,207.65,50.42,211,49.28,213.58Z"/><path class="cls-2" d="M53.29,293.3C49,293,49.7,295,52.75,296.67,60.72,295.19,58.73,285.67,53.29,293.3Z"/><path class="cls-2" d="M98.94,277.43c8.17-6.69-10.82-9.27,0,0Z"/><path class="cls-2" d="M120.41,264.78c4.84-4.74,1-9.86-2.59-2.21,4.69,3.36.72,10.2-1.34,10.56l-.06.5C122.08,269.33,130,268.7,120.41,264.78Z"/><path class="cls-2" d="M115.64,272.72a.75.75,0,0,0,.84.41l.07-.6Z"/><path class="cls-2" d="M121,239.7c4.44.28,3.76,6,7.53,7.21C135.38,239.32,118.78,233,121,239.7Z"/><path class="cls-2" d="M190.06,266.9c-4.53-6.42-25.32,8.2-13.71-3.53,3.52-5.35-9.7-3.56-6.71-11.86-.44-7.72-10.21.92-6.35,5.59-9,8.87,11.62-2.84,6.44,9.53,2.08,6.53-8.44,19.3,4.14,15.63,2.36-2.67,2.69.87,4.59,1.36-3.8-9.4.61-6.75,5.77-2.79C176.81,273.69,182.28,268,190.06,266.9Z"/><path class="cls-2" d="M236.32,282.13c13.83,2.6.63-12.4,0,0Z"/><path class="cls-2" d="M242,296.52c5.72-4.49,14.15-5.65,6.15-13.58C237.68,285.86,240.3,289.84,242,296.52Z"/><path class="cls-2" d="M261.36,246.52c2.72.87,3.44-5.21,2.17-6.65C260.45,230.69,250.47,251.28,261.36,246.52Z"/><path class="cls-2" d="M281.39,192.86l-1.65-2.38C269,183,280.58,205.77,281.39,192.86Z"/><path class="cls-2" d="M260.41,174.81c-.53-.16,4.1,7.32,3.1,3.54C265.34,172,259.1,164,260.41,174.81Z"/><path class="cls-2" d="M269.9,185.37c8.83,6.58,13.41-6.47,5.28-9.87,1.52-2-.35-8.72-2.58-7.8-.12-.28-.24-.11-.33.2a4.41,4.41,0,0,0-1.23,1.79c3.77-8.57-8.28,4.27-1.25,7.26C268.68,177.92,266.05,183.85,269.9,185.37Z"/><path class="cls-2" d="M274.83,87.67c3.47-6.14-7-10.67-5-.67C264.92,92,273.56,88.39,274.83,87.67Z"/><path class="cls-2" d="M297.09,110.73c4.38,12.23,4.22-16.6-1.62-4.7l.88,1.91Z"/><path class="cls-2" d="M135.31,190.79c-6.81-13.67-15,9.82-22.87,5.07-11.86,6.6-20.31,19.08-35.13,19-8.81.5-9.29,17.78-15.11,3.25-11.81-4.92-16.86,6.92-20.48,12.09-8.62-2-10.15,8.36-8.61,10.84-4.71-1.48-8.26,6.31-8.61,11.61-13.43-3.29-.69,15.31-2.58,19.6,1.87,1.93,5.89-5.7,11.29-3.72,5.67-5.76,14.86-16.61,19.85-3.83,3.48,1.52,16,3.08,13.08-3.59-9.42,2.36-3.69-7.52,2.69-5.26,7.56-5.32,17.5-5.31,25.41-8.32-1.25,5.88-.49,13,.5,11.79,2.44,6.3,18.12,1.64,19.23-5.86-6.39-1.55-19.48-7.27-5.78-12,8.18-3.6-15.15-10.5-1.23-12.18,10.66,10.65,10.66-5.74,7.87-12.34,8.24-2.28-5.32-.89-1-5.82-5.64-5.43,9.91-6.66,13.63-2.44,10.72-1,3.22-11.79,7.88-17.89Z"/><path class="cls-2" d="M166.77,191.87l0,0c-.18-2.6-1.58-6-2.65-9h0l-.07-.16-.12-.34-.19-1.59a3,3,0,0,1-.31,0,9.67,9.67,0,0,1-.52-3.68l-.54-.32-.11-.06-.55-.27-.11,0-.55-.23h0l-.59-.2-.13,0a5.66,5.66,0,0,0-.59-.15l-.1,0-.57-.1-.08,0-.61-.07-.13,0-.62,0h-.76l-.61,0h-.13l-.61.06h-.06l-.57.08-.1,0a5.41,5.41,0,0,0-.58.12l-.12,0a5.47,5.47,0,0,0-.58.15h0l-.55.17-.1,0-.53.2-.1,0-.51.23h0c-.17.08-.33.17-.49.26l-.1.06-.45.27-.08.06-.4.29,0,0-.39.32-.07.07-.35.35-.33.22-.1.3-.21.31a.35.35,0,0,1,0,.08,3.84,3.84,0,0,0-.21.4l0,.05c-.06.13-.11.27-.16.4a.64.64,0,0,0,0,.07,3,3,0,0,0-.11.43s0,.06,0,.09,0,.3,0,.45v0a3.23,3.23,0,0,0,0,.44s0,.06,0,.09a4,4,0,0,0,.06.47l0,.09a4.6,4.6,0,0,0,.13.5h0a5.49,5.49,0,0,0,.21.51s0,0,0,.06l0,0a4.64,4.64,0,0,0,.23.44l0,0,0,0,.06.51.31.05.25.32,0,.06c.13.16.27.31.41.46l.11.12.38.37.12.11c.17.15.34.31.53.46l.11.09.49.39.18.13.36.25,1.32,2.91c.62,4.16-1.22,9.18,6.92,5.92C164.32,197.67,167.18,196.46,166.77,191.87Z"/><path class="cls-2" d="M244.78,266h0l-.81-.6-.69-.77h0c-3.3-6.38-4.27-15.54-4.22-22.18,7.47-4.08,1-11.73-4.57-13.74-1.82-5.77-11.91-11.86-20-11.74a1,1,0,0,0,0-.17l-1,.21a11.49,11.49,0,0,0-3.23.7l-.72.15-.73.56a8.16,8.16,0,0,0-1.46,1.11l-1.66,1.26-6.48,1.76-1.42.08h-1.41l-.47,0h-.15l-.47,0h-.06l-.5.05-.13,0-.4.07-.09,0-1.48.08L191,220.92l-.6-.3a6.25,6.25,0,0,0-.6-.4l-.14-.09c-.19-.11-.37-.22-.57-.32l-.25-.12-.51-.23-.28-.11-.54-.19-.27-.09-.06,0-.61-.3-.73,0-.29,0-.26,0-.63-.08-.33,0-.59,0-.34,0h-1l-.77,0h-.17q-.45,0-.9.09h-.09c-.29,0-.57.08-.86.12l-.12,0c-.3.06-.59.11-.88.18l-.18,0c-.29.06-.58.13-.86.21l-.13,0-.85.25-.06,0c-.29.09-.57.19-.85.3l-.16.06-.81.33-.14.07-.81.38h0c-.26.13-.51.27-.76.42l-.13.07c-.24.15-.48.29-.71.45l-.13.09a8.12,8.12,0,0,0-.67.48l-.07.05c-.21.16-.41.33-.6.5l-.09.07-.56.54-.11.12a5.37,5.37,0,0,0-.5.57l-.07.08c-.16.2-.3.39-.44.59l0,.06c-.14.21-.26.42-.38.63l-.07.13c-.11.21-.21.43-.3.65a1.17,1.17,0,0,1-.05.11,6.51,6.51,0,0,0-.23.71h0c4.38,7.8,8.65,15.35,16.74,17-3.23.95,5.08,10.86,6.17,3.72l-.86-2.12a21,21,0,0,0-2.86-1.28,21,21,0,0,0,4.71-.3c1.66,4,5.25,14.9,7.25,4.19,3.66-9,9.5,3,12.45,4.22a16.78,16.78,0,0,0-.42,3.44c0,3.15,1.17,4.58,1.18,7.64,0,.27,0,.55,0,.84h0a22.53,22.53,0,0,1,3.78-3.06l.31-.17a3.81,3.81,0,0,1,.78-.31,1.42,1.42,0,0,1,.43-.07,1,1,0,0,1,.36,0,.81.81,0,0,1,.3.13,1.35,1.35,0,0,1,.34.37,3.73,3.73,0,0,1,.16.35,5.29,5.29,0,0,1,.24,1.46c0,.29,0,.59,0,.91,0,.85-.06,1.81-.1,2.79,0,.37,0,.74,0,1.11s0,.74,0,1.1,0,.73,0,1.08c0,.12,0,.23,0,.35a5.33,5.33,0,0,0,1.32,3.55c3-.15,3.83-1.7,3.76-3.75-.09-2.85-1.89-6.66-1.93-9,0-.13,0-.25,0-.37h0c-1.39-1.12-1.92-2.07-1.9-2.9.08-3,7.47-4.59,7.59-7.63,0-1-.69-2.14-2.69-3.55a3.57,3.57,0,0,1-.54-1.71c.22-2.19,7.39,2.59,7.48,6.12a2.2,2.2,0,0,1-.61,1.63h0C232.16,260,235,269.54,244.78,266Z"/><path class="cls-2" d="M317.36,140.49h0c5.64-13.33-8.41-6-15.12-9.89-1.65-3,2-14.74-3.8-9.39-5,4.32-3.34,13.32-3.33,19.84-8.37,2.7.29-9.77-6.26-8.82-3.85,11.76-6.38-1.07-2.15-6-6.5-8.43,9.4-10.79.17-17.68,3.32,8.52-12,14-5.66,2.91-5.89.7-3.15-7.55-8.87-.43-6.43,2.21-2.7,13.25-10.57,9.87-.95,3.8-9.92,3.89-5.73,8.57,4.46,7.14,2.25,10.62-3.63,15.46,2.08,7.86-7.59-4.32-2.19-6.72-3-6.88-14.22-1.47-17.43-5.27-2.63,5-10.9,8.66-10.09,15.87q-1.27-.7-2.58-1.32c-2.37-5,1-11.89-7.94-14-6-3.17-12.37-5.11-15.92-9.75,8.87,3.17,13.87-6.52,21.64-3.3-1.63,6.49,8.12,4.35.33-.51-6.32-9.37,6.88-10,13.66-5.19a9.16,9.16,0,0,0,3.68,5c6.31,10.26,12.93-12.72,23-9.7,9.9-5,17.56-12.06,25.51-20-5.49-1.89-17.81,11.67-22.89,1.08-2.34,3.62-5.48-6.14-11,.09-.79-8,4.94-2.12,7.11-10.19-5.7,3.52-.13-5.84-7.31-.79-9.52,4,.79-9-4.56-4.55,1.35-4.45-4.59-3.47-2.91-8.85-2.95,3.57-9.78-3.41-9.93,7.07-8.63,8.86-22.52,7.22-11.09-4.09,12.87-3.9-9.37-11.12-14.92-7.31-8.54-3.07-20.52-6.47-22,6.83-12.38-1.13-19,11.85-30.63,4.16C144.6,75,155.43,87,144,84.92c-9.16-2.7-7.17,13.54-17.64,8-13,2,1.89,25-8.67,13.35-7.4,2.58-19,7.17-15.4,14.52-7.7-9.83,20.16-16.27,2.64-20.3-6.87,7-9.68,18.45-19.76,22.34-9.88,1.61-8.6,19.74-20.05,18.49-5.23-2.86-19.71,11-6.43,11.56A27.39,27.39,0,0,1,60,170.34c4.44,3,9.75,10.09,10.53,3.9,6.2,6.93,9.59-8.21,17.74-4.05C83.86,165,94.54,143,89.68,159.63c-6.37,9.72,14.91,7,12.17,14.86,3.92,3,10.46-.83,12.68.21l.62,1-.1,2.08c-.06.24-.13.49-.22.76a11.65,11.65,0,0,0,4.21,1h0a15,15,0,0,0,4.84-.63l.5-.07.76-.33c3.07-1.07,6.05-2.7,9-3.81l3.68-1a12.22,12.22,0,0,1,1.7-.16l2.31.23a8.54,8.54,0,0,1,1.52.46,59.52,59.52,0,0,1,7.44-1.64l.93-.13.24,0c2.11-.29,4.23-.48,6.25-.59h.07l.79,0,3,.2a24.5,24.5,0,0,0,1.78,2.23l.41,1.22.07,0c.76,2,1.57,4,2.43,6l0,.1h0a58,58,0,0,0,4.58,9.16c.24.4.49.78.73,1.15l.08.15.06.06a18.93,18.93,0,0,0,2.56,3.13,2.79,2.79,0,0,1,.57.05l.32.31-3.9,3.79,0,.1a2.26,2.26,0,0,0-.71,1.24c0,.82,1.21,1.35,5.09,1.21,4.43,1.72,6,.63,6.07-1.49A10.66,10.66,0,0,0,181,196c4.15-.12,5.91,2,6.7,4.76l.47,5.19.29,1.8a11.4,11.4,0,0,0,.56,3.49l0,.14.05,0c.61,1.23,1.82,1.51,4.35,0l.86.23c0,.22,0,.43,0,.64a6.64,6.64,0,0,0,.11,1.06v.2l.06.07a2.75,2.75,0,0,0,1.36,1.78l.14.73.34-.53c3.83,1.24,11.76-4.1,11.78-9.11a4.45,4.45,0,0,0-.68-2.4h0l.77-1.62a2.5,2.5,0,0,1,.88-.7l1.22-.21c3.82.29,9.3,7.94,9.17,7.17a53.58,53.58,0,0,0-2.8-5.08c10.5-1.2,12.39,21.27,20.75,14.2,3-1.23,3.34-4.17,3.31-6.47,0-.82-.06-1.56,0-2.11,0-1.43.49-1.59,3.3,1.42,3.2-3,3.87-2.61,3.88-.94,0,1.2-.34,3.07-.33,4.81,0,2,.52,3.91,2.61,4.37a8.41,8.41,0,0,0-2.09,6c.08,6.06,5,12,9.51,4.36,4.06,2.23,10.28,5.33,10.06,3.55a5.11,5.11,0,0,0-1.28-2.08,16.29,16.29,0,0,0,.4-3.16c0-3.16-1.52-3.9-4.37.28a1.4,1.4,0,0,0,0-.29c-.09-2-2.68-5.85-2.67-7.78,0-1.06.79-1.56,3.21-.88,5.71,1.78,7.85-1.45,7.78-5-.08-4.84-4.3-10.25-9.1-4.09a17.12,17.12,0,0,0,.19-2.44c0-7-5.67-6.17-10.72-8.5-4.47-6.19.5-21.4-11-17.4,2.36-4.18,7.67-17.12,9.53-5.22-1,.71-1.39,1.16-1.39,1.47,0,1,4.22.64,4.1,3.65a4.09,4.09,0,0,1-.13.86h0a4.9,4.9,0,0,0,1-2.74c.1-3.11-2.94-6-2.94-9.65a6.85,6.85,0,0,1,.6-2.78c.62-4.21,4.47-16,10.61-6.87,5.41-.08,7.66,4.77,12.17-2.49,2.67-2.22,3.37-2.34,3.35-1.44,0,1.09-1.12,3.65-1.08,5.82,0,1.81.82,3.34,3.64,3.53,3.53.36,5.13,2.44,5.2,5a8.81,8.81,0,0,1-1.87,5.34h0c7.09,1.63,3,13.37,10.4,4.67.59,4.71,4.28,14.54,4.27,6.29,0-.55,0-1.19-.05-1.9,0-.18,0-.35,0-.5-.12-4.53,3.65-.31,3.77-3.34a4.78,4.78,0,0,0,0-.73c10.82,3.92,1.66-14.83,9.49-11.71,1,5.32,3.31,4.91,3.27,2.5a7,7,0,0,0-1.85-4.16c1.62-.64,2.24-1.62,2.2-2.76-.13-4.05-8.7-10-10.87-8.66a1.9,1.9,0,0,1-.18-.93c.07-4.52,8.78-18.48,14.13-9.61,2.88,2.58,4.11,1.85,4.11.29C321.45,143.55,319.88,140.74,317.36,140.49Z"/><rect class="cls-2" x="90.95" y="147.55" width="0.82" height="0.34"/><rect class="cls-3" x="198.19" y="158.94" width="13.67" height="17.95"/><rect class="cls-3" x="211.86" y="150.44" width="13.67" height="26.44"/><rect class="cls-4" x="202.72" y="159.22" width="5.31" height="9.74" rx="2.54" transform="translate(369.46 -41.29) rotate(90)"/><rect class="cls-4" x="213.63" y="152.79" width="4.47" height="6.15" rx="1.41"/><rect class="cls-4" x="219.29" y="152.79" width="4.47" height="6.15" rx="1.41"/><rect class="cls-4" x="213.63" y="160.59" width="4.47" height="6.15" rx="1.41"/><rect class="cls-4" x="219.29" y="160.59" width="4.47" height="6.15" rx="1.41"/><rect class="cls-4" x="215.87" y="168.41" width="5.65" height="8.48"/><rect class="cls-2" x="220.19" y="173.45" width="0.82" height="0.34"/><rect class="cls-3" x="55.2" y="143.89" width="13.67" height="17.95"/><rect class="cls-3" x="68.87" y="135.4" width="13.67" height="26.44"/><rect class="cls-4" x="59.73" y="144.17" width="5.31" height="9.74" rx="2.54" transform="translate(211.42 86.65) rotate(90)"/><rect class="cls-4" x="70.64" y="137.75" width="4.47" height="6.15" rx="1.41"/><rect class="cls-4" x="76.3" y="137.75" width="4.47" height="6.15" rx="1.41"/><rect class="cls-4" x="70.64" y="145.54" width="4.47" height="6.15" rx="1.41"/><rect class="cls-4" x="76.3" y="145.54" width="4.47" height="6.15" rx="1.41"/><rect class="cls-4" x="72.88" y="153.36" width="5.65" height="8.48"/><rect class="cls-2" x="77.2" y="158.4" width="0.82" height="0.34"/><rect class="cls-2" x="217.57" y="241.97" width="0.82" height="0.34"/><path class="cls-5" d="M20.37,54.33Q22,50.42,28.15,46a57.61,57.61,0,0,0,6.9-5.46A8.08,8.08,0,0,0,37.45,35a6.23,6.23,0,0,0-1.38-4.14,4.84,4.84,0,0,0-3.94-1.65c-2.35,0-3.94.88-4.79,2.62a13.21,13.21,0,0,0-.86,4.82H19a19,19,0,0,1,1.81-8.09q3.09-5.86,11-5.86,6.22,0,9.91,3.44a11.93,11.93,0,0,1,3.68,9.13A12.35,12.35,0,0,1,42.75,43a26.18,26.18,0,0,1-5.61,5l-3.09,2.19q-2.89,2.05-4,3a8.79,8.79,0,0,0-1.8,2.14H45.4V62H18.56A18.28,18.28,0,0,1,20.37,54.33Z"/></g></svg>