<svg id="Layer_1" data-name="Layer 1" xmlns="http://www.w3.org/2000/svg" viewBox="0 0 595.28 595.28"><defs><style>.cls-1{fill:none;stroke:#5b7781;stroke-linecap:round;stroke-linejoin:round;stroke-width:10px;}.cls-2{fill:#5b7781;}</style></defs><circle class="cls-1" cx="291.48" cy="297.64" r="129.34"/><path class="cls-2" d="M225.87,359.32c-11-3.13-49.24-19.07-59.49-23.81l3.33-7.23c9.89,4.57,47.73,20.36,58.34,23.37Z"/><path class="cls-2" d="M286.41,367.73c-5,0-10.13-.17-15.13-.5l.54-8a218.72,218.72,0,0,0,29.19,0l.53,8C296.54,367.56,291.45,367.73,286.41,367.73Z"/><path class="cls-2" d="M347,359.34l-2.18-7.66c10.55-3,64.43-26.76,74.38-31.36l3.35,7.23C412.17,332.32,357.89,356.23,347,359.34Z"/><path class="cls-2" d="M286.41,407.56a219.05,219.05,0,0,1-92.59-20.28l3.34-7.23a211.19,211.19,0,0,0,89.25,19.54Z"/><path class="cls-2" d="M250.58,379.68a27.88,27.88,0,1,1,27.87-27.87A27.91,27.91,0,0,1,250.58,379.68Zm0-47.78a19.91,19.91,0,1,0,19.91,19.91A19.94,19.94,0,0,0,250.58,331.9Z"/><path class="cls-2" d="M322.25,379.68a27.88,27.88,0,1,1,27.88-27.87A27.9,27.9,0,0,1,322.25,379.68Zm0-47.78a19.91,19.91,0,1,0,19.91,19.91A19.94,19.94,0,0,0,322.25,331.9Z"/><path class="cls-2" d="M290.22,290.41a17,17,0,0,1-10.62-30.3l.1.12c1.4-1.32,3.73-3.19,7.48-6.19L328.1,221.3l5.32,6.65-48.49,38.79a8.5,8.5,0,0,0,5.29,15.16,8.35,8.35,0,0,0,4.93-1.58l22.19-15.75a29.67,29.67,0,0,1,11.4-4.92l29.62-5.92a21.12,21.12,0,0,0,10.86-5.81l9.79-9.79,6,6-9.78,9.79A29.7,29.7,0,0,1,360,262.07L330.41,268a21,21,0,0,0-8.14,3.52l-22.18,15.74A16.89,16.89,0,0,1,290.22,290.41Z"/><path class="cls-2" d="M273.18,294.66l-.88,0c-9-.47-16.1-8.26-16.1-17.71v-41a16.91,16.91,0,0,1,4.63-11.66l33.63-35.7a14.83,14.83,0,0,1,10.64-4.48c5.34,0,13.83,1.21,22,2.38,6.47.92,13.16,1.87,16.24,1.87,8.63,0,12.31-1.4,20.09-3.78l2.49,8.13a69.87,69.87,0,0,1-22.58,4.16c-3.69,0-10.06-.91-17.44-2-7.55-1.08-16.11-2.29-20.84-2.29a6.3,6.3,0,0,0-4.53,1.89L267,230.1a8.49,8.49,0,0,0-2.32,5.83v41c0,4.85,3.61,9,8.05,9.21a8.41,8.41,0,0,0,7.64-3.92l7.16,4.59A17.1,17.1,0,0,1,273.18,294.66Z"/><polygon class="cls-2" points="290.22 260.46 281.71 260.46 281.71 240.9 301.01 224.25 321.1 229 319.14 237.28 303.28 233.52 290.22 244.79 290.22 260.46"/><line class="cls-2" x1="187.08" y1="315.54" x2="190.65" y2="307.81"/><path class="cls-2" d="M237,325.49a7.94,7.94,0,0,1-6.82-12l2.28-3.81a4,4,0,0,0-3.41-6l1-4a7.94,7.94,0,0,1,6.82,12l-2.28,3.81a4,4,0,0,0,3.41,6Z"/><path class="cls-2" d="M267,325.49a8,8,0,0,1-6.82-12l2.29-3.81a4,4,0,0,0,.56-2,4,4,0,0,0-4-4l1-4a7.94,7.94,0,0,1,6.81,12l-2.28,3.81a4,4,0,0,0,3.41,6Z"/><path class="cls-2" d="M251.52,310.54a8,8,0,0,1-6.82-12l2.29-3.81a4,4,0,0,0,.56-2,4,4,0,0,0-4-4l1-4a7.94,7.94,0,0,1,6.81,12l-2.28,3.82a3.9,3.9,0,0,0-.56,2,4,4,0,0,0,4,4Z"/><path class="cls-2" d="M307.49,323.92a7.94,7.94,0,0,1-6.81-12l2.28-3.81a4,4,0,0,0-3.41-6l1-4a8,8,0,0,1,6.82,12l-2.29,3.81a4.06,4.06,0,0,0-.56,2,4,4,0,0,0,4,4Z"/><path class="cls-2" d="M324.45,315.53a7.94,7.94,0,0,1-6.81-12l2.28-3.82a3.9,3.9,0,0,0,.56-2,4,4,0,0,0-4-4l1-4a8,8,0,0,1,6.82,12l-2.28,3.81a4,4,0,0,0,3.4,6Z"/><path class="cls-2" d="M342.29,326a8,8,0,0,1-6.82-12l2.29-3.82a4,4,0,0,0-3.41-6l1-4a8,8,0,0,1,7.94,8,7.88,7.88,0,0,1-1.13,4.07L339.88,316a3.9,3.9,0,0,0-.56,2,4,4,0,0,0,4,4Z"/></svg>