<svg id="Layer_1" data-name="Layer 1" xmlns="http://www.w3.org/2000/svg" viewBox="0 0 595.28 595.28"><defs><style>.cls-1,.cls-2{fill:none;stroke:#5b7781;stroke-width:10px;}.cls-1{stroke-linecap:round;stroke-linejoin:round;}.cls-2{stroke-miterlimit:10;}</style></defs><circle class="cls-1" cx="291.48" cy="297.64" r="129.34"/><path class="cls-2" d="M274.67,316.19H225.35a17.93,17.93,0,0,0-17.93,17.93V396.9"/><polyline class="cls-2" points="225.35 338.61 229.83 347.57 229.83 411.37"/><path class="cls-2" d="M274.67,244.44V197.36a11.21,11.21,0,0,1,22.42,0V338.61"/><path class="cls-2" d="M368.84,396.9V383.67a273,273,0,0,1,1.36-27.28q3.12-31.22,3.12-62.62"/><path class="cls-2" d="M346.42,298.25l-17.94,44.84H283.64a9,9,0,1,0,0,17.94h46.87a24,24,0,0,0,22.08-14.66l19.37-46a17.68,17.68,0,0,0-16.3-24.54H328.28a26.89,26.89,0,0,1-24.72-16.3l-6.47-15.09"/><line class="cls-2" x1="297.09" y1="356.54" x2="297.09" y2="426.98"/><line class="cls-2" x1="368.84" y1="378.96" x2="297.09" y2="378.96"/><circle class="cls-2" cx="249.97" cy="278.02" r="19.62"/><circle class="cls-2" cx="336.26" cy="238.77" r="19.62"/></svg>