<svg id="Layer_1" data-name="Layer 1" xmlns="http://www.w3.org/2000/svg" viewBox="0 0 595.28 595.28"><defs><style>.cls-1,.cls-4,.cls-5{fill:none;}.cls-1,.cls-2,.cls-3,.cls-4,.cls-5{stroke:#5b7781;}.cls-1,.cls-4{stroke-linecap:round;stroke-linejoin:round;}.cls-1,.cls-5{stroke-width:10px;}.cls-2,.cls-3{fill:#5b7781;}.cls-2,.cls-3,.cls-5{stroke-miterlimit:10;}.cls-2{stroke-width:5px;}.cls-3{stroke-width:3px;}.cls-4{stroke-width:7px;}</style></defs><circle class="cls-1" cx="291.48" cy="297.64" r="129.34"/><path class="cls-2" d="M314.07,305.56a13.65,13.65,0,0,1-2.8-7.87v-.06l-.21-62.86a19.84,19.84,0,0,0-17.13-17.62v-1.49c0-13.19-10.32-24.36-23.5-24.75a24.27,24.27,0,0,0-25,24.23v8.2c0,10.33-8,19.14-18.33,19.53a19.1,19.1,0,0,1-19.81-19.06v-24.1a2.66,2.66,0,0,0-2.08-2.64c-1.65-.31-3.09,6.32-3.09,7.91v18.31c0,13.2,10.32,24.36,23.51,24.75a24.27,24.27,0,0,0,25-24.23v-8.2c0-10.32,8-19.13,18.33-19.53a19.1,19.1,0,0,1,19.81,19.06v2a19.83,19.83,0,0,0-17.06,17.07h-.22l0,57.15v6.08a14.65,14.65,0,0,1-8.26,13.24,15.54,15.54,0,0,0-9.07,13.82v7.59c0,10.44,28.5,11.25,37.24,11.25s37.24-.81,37.24-11.25v-7.59a15.56,15.56,0,0,0-9.07-13.82h0a12.55,12.55,0,0,1-4.42-3.77Zm-8-14.19v6.08c0,7.66,3.74,15.95,11.15,17.89,7,1.83,5.76,14.61,6.06,18.1-1,1.9-10,5.32-28.64,5.73-21.7.41-34.09-3.38-35.26-5.75.31-3.49-1.29-15.64,6.05-18.08s11.16-10.23,11.16-17.89v-6.08l.26-57.15a14.7,14.7,0,0,1,29,.16Z"/><path class="cls-3" d="M321.73,323.92l-7.26,2c-8.29,1.43-37.08,1.51-45.42.23l-10.89-2.22v-4.36l11,2.23c8.34,1.28,37.13,1.19,45.43-.25l7.14-2Z"/><path class="cls-4" d="M312.6,400.51a26.44,26.44,0,0,1-42.24-.89"/><path class="cls-4" d="M304.6,387.87a16.43,16.43,0,0,1-26.24-.55"/><path class="cls-4" d="M297.18,376a7.14,7.14,0,0,1-11.4-.24"/><path class="cls-5" d="M169,339.2s55,23.4,122.52,23.4,117.9-11.7,117.9-11.7"/></svg>