<svg id="Layer_1" data-name="Layer 1" xmlns="http://www.w3.org/2000/svg" xmlns:xlink="http://www.w3.org/1999/xlink" viewBox="0 0 595.28 595.28"><defs><style>.cls-1,.cls-2,.cls-5{fill:none;}.cls-2,.cls-5{stroke:#5b7781;stroke-width:10px;}.cls-2{stroke-linecap:round;stroke-linejoin:round;}.cls-3{clip-path:url(#clip-path);}.cls-4{fill:#5b7781;}.cls-5{stroke-miterlimit:10;}</style><clipPath id="clip-path"><circle class="cls-1" cx="291.48" cy="297.64" r="129.34"/></clipPath></defs><circle class="cls-2" cx="291.48" cy="297.64" r="129.34"/><g class="cls-3"><polygon class="cls-4" points="235.82 415.27 226.23 412.45 250.31 334.74 259.91 337.56 235.82 415.27"/><path class="cls-4" d="M340.71,215.69a40,40,0,0,1-24.47-8.32c-29.86-23-29.78-73.37-29.74-76.75-.72-30.07,22.66-55.41,52.17-56.5a54,54,0,0,1,39.68,15.74,55.73,55.73,0,0,1,16.58,40.75c0,3.34.13,53.74-29.74,76.76A40.06,40.06,0,0,1,340.71,215.69Zm-.15-131.61c-.51,0-1,0-1.52,0C315,85,295.86,105.8,296.5,130.46v.21c0,.48-.41,48.55,25.84,68.78a29.76,29.76,0,0,0,36.74,0c26.25-20.23,25.86-68.3,25.85-68.78v-.2A45.15,45.15,0,0,0,371.32,97,44.09,44.09,0,0,0,340.56,84.08Z"/><path class="cls-4" d="M202.13,386.05l-9.87-1.62L211.32,268A34.21,34.21,0,0,1,237,239.43l56.32-14.1a16.09,16.09,0,0,0,10.16-7.77c4-7.16,6.18-13.33,6.25-17.37l10,.16c-.1,5.81-2.62,13.23-7.49,22.05A26.16,26.16,0,0,1,295.76,235l-56.32,14.1a24.26,24.26,0,0,0-18.22,20.31l0,.12Z"/><path class="cls-4" d="M293.71,356.68c-11.18,0-24.45-.54-34.84-9.26-3.42-2.86-6.29-8.46-8.56-12.68l8.82-.72c1.66,3.09,3.73,3.7,6.16,5.74,8.36,7,20.28,7,30.8,6.92,3,0,5.91-.16,8.8-.45l1,9.95c-3.22.32-6.5.49-9.76.5Z"/><polygon class="cls-4" points="264.52 426.98 254.52 426.98 254.96 340.16 264.96 340.16 264.52 426.98"/><path class="cls-4" d="M478.36,386.05,459.27,269.44A24.28,24.28,0,0,0,441,249.13L384.72,235a26.12,26.12,0,0,1-16.48-12.63c-4.88-8.82-7.4-16.24-7.49-22.05l10-.16c.06,4,2.28,10.21,6.24,17.37a16.11,16.11,0,0,0,10.16,7.77l56.32,14.1A34.21,34.21,0,0,1,469.16,268l19.06,116.42Z"/><rect class="cls-4" x="428.92" y="331.2" width="10" height="57.8" transform="translate(-84.01 137.16) rotate(-16.4)"/><path class="cls-4" d="M386.78,357.68h-2.42c-3.27,0-6.55-.18-9.76-.5l1-9.95c2.9.29,5.86.44,8.8.45,10.53,0,22.45-2.92,30.8-9.92a26,26,0,0,0,6.16-7.74l8.82,4.72a35.88,35.88,0,0,1-8.56,10.68C411.22,354.13,398,357.68,386.78,357.68Z"/><rect class="cls-4" x="415.52" y="340.16" width="10" height="50.81"/></g><rect class="cls-5" x="252.82" y="258.29" width="35.96" height="21.07" rx="6.69"/><rect class="cls-5" x="252.82" y="297.64" width="35.96" height="21.07" rx="6.69"/><path class="cls-2" d="M270.8,268.82s-5.37,18.2-26.08,19.49-69.2-8.95-80.09,34.73"/><path class="cls-2" d="M270.8,308.17s-5.37,18.2-26.08,19.49S185.9,310.28,175,354"/></svg>