<svg id="Layer_1" data-name="Layer 1" xmlns="http://www.w3.org/2000/svg" viewBox="0 0 595.28 595.28"><defs><style>.cls-1{fill:none;stroke:#5b7781;stroke-linecap:round;stroke-linejoin:round;stroke-width:10px;}</style></defs><circle class="cls-1" cx="291.48" cy="297.64" r="129.34"/><path class="cls-1" d="M316.91,421.81c-.94-5.2-.13,1.12-.22-8.36-.18-19.28,8.28-37.86,23.88-49.25,9.06-6.62,13.58-18.06,10.68-28.9-2.44-9.12-9.77-16.81-28.62-14.11-2.73.41-5.5,1-8.23,1.25-4.13.37-7.62-2.77-10.65-5.1a20.77,20.77,0,0,0-11.05-3.89,23.06,23.06,0,0,0-12.61,2.88c-3,1.77-5.95,6.09-9.73,6a37.42,37.42,0,0,1-5.46-.79c-1.31-.22-2-.36-2-.36-18.85-2.7-26.18,5-28.61,14.11-2.91,10.84,1.61,22.28,10.68,28.9,15.6,11.39,24.05,30,23.87,49.25l-.22,8.36"/><line class="cls-1" x1="234.15" y1="256.05" x2="234.15" y2="256.06"/><path class="cls-1" d="M359,322.71A29.68,29.68,0,0,0,347.1,307.4,28.17,28.17,0,0,0,337,303.46a29.64,29.64,0,0,0,4.68-1.94c9.09-4.68,13.58-12.91,15.55-17.38"/><path class="cls-1" d="M268.6,171.71l.22,19.12c.18,19.28-8.28,37.86-23.88,49.24a28.25,28.25,0,0,0-10.79,16c-6.37,26.07,26.13,43.94,46.8,30a22,22,0,0,1,11.33-3.81h1.08a22,22,0,0,1,11.48,3.6,28.31,28.31,0,0,0,3.66,2c16.15,7.27,38-1.12,42.75-18.87a26.12,26.12,0,0,0,.06-13.14,28.34,28.34,0,0,0-10.74-15.77c-15.6-11.38-24.06-30-23.88-49.24l.22-19.12"/><path class="cls-1" d="M284.46,284.14c4.85-3.54,15.21-9.62,27.6-8.25"/><path class="cls-1" d="M227,284.14c2,4.47,6.46,12.7,15.54,17.38a30,30,0,0,0,4.68,1.94,28.31,28.31,0,0,0-10.09,3.94,29.8,29.8,0,0,0-11.86,15.31"/></svg>