<svg id="Layer_1" data-name="Layer 1" xmlns="http://www.w3.org/2000/svg" xmlns:xlink="http://www.w3.org/1999/xlink" viewBox="0 0 595.28 595.28"><defs><style>.cls-1,.cls-2,.cls-5{fill:none;}.cls-2,.cls-5{stroke:#5b7781;}.cls-2{stroke-linecap:round;stroke-linejoin:round;stroke-width:10px;}.cls-3{clip-path:url(#clip-path);}.cls-4{fill:#5b7781;}.cls-5{stroke-miterlimit:10;stroke-width:3px;}</style><clipPath id="clip-path"><circle class="cls-1" cx="291.48" cy="297.64" r="129.34"/></clipPath></defs><circle class="cls-2" cx="291.48" cy="297.64" r="129.34"/><g class="cls-3"><polygon class="cls-4" points="275.82 445.27 266.23 442.45 290.31 364.74 299.91 367.56 275.82 445.27"/><path class="cls-4" d="M380.71,245.69a40,40,0,0,1-24.47-8.32c-29.86-23-29.78-73.37-29.74-76.75-.72-30.07,22.66-55.41,52.17-56.5a54,54,0,0,1,39.68,15.74,55.73,55.73,0,0,1,16.58,40.75c0,3.34.13,53.74-29.74,76.76A40.06,40.06,0,0,1,380.71,245.69Zm-.15-131.61c-.51,0-1,0-1.52,0-24.09.9-43.18,21.69-42.54,46.35v.21c0,.48-.41,48.55,25.84,68.78a29.76,29.76,0,0,0,36.74,0c26.25-20.23,25.86-68.3,25.85-68.78v-.2A45.15,45.15,0,0,0,411.32,127,44.09,44.09,0,0,0,380.56,114.08Z"/><polygon class="cls-4" points="250.48 365.01 257.24 323.73 247.28 322.7 240.43 364.52 250.48 365.01"/><polygon class="cls-4" points="247.89 380.84 242.13 416.05 232.26 414.43 237.91 379.9 247.89 380.84"/><path class="cls-4" d="M261.2,299.56l0-.12a24.26,24.26,0,0,1,18.22-20.31L335.76,265a26.16,26.16,0,0,0,16.49-12.63c4.87-8.82,7.39-16.24,7.49-22.05l-10-.16c-.07,4-2.28,10.21-6.25,17.37a16.09,16.09,0,0,1-10.16,7.77L277,269.43A34.21,34.21,0,0,0,251.32,298Z"/><path class="cls-4" d="M333.71,386.68c-11.18,0-24.45-.54-34.84-9.26-3.42-2.86-6.29-8.46-8.56-12.68l8.82-.72c1.66,3.09,3.73,3.7,6.16,5.74,8.36,7,20.28,7,30.8,6.92,3,0,5.91-.16,8.8-.45l1,9.95c-3.22.32-6.5.49-9.76.5Z"/><polygon class="cls-4" points="304.52 456.98 294.52 456.98 294.96 370.16 304.96 370.16 304.52 456.98"/><path class="cls-4" d="M518.36,416.05,499.27,299.44A24.28,24.28,0,0,0,481,279.13L424.72,265a26.12,26.12,0,0,1-16.48-12.63c-4.88-8.82-7.4-16.24-7.49-22.05l10-.16c.06,4,2.28,10.21,6.24,17.37a16.11,16.11,0,0,0,10.16,7.77l56.32,14.1A34.21,34.21,0,0,1,509.16,298l19.06,116.42Z"/><rect class="cls-4" x="468.92" y="361.2" width="10" height="57.8" transform="translate(-90.86 149.67) rotate(-16.4)"/><path class="cls-4" d="M426.78,387.68h-2.42c-3.27,0-6.55-.18-9.76-.5l1-9.95c2.9.29,5.86.44,8.8.45,10.53,0,22.45-2.92,30.8-9.92a26,26,0,0,0,6.16-7.74l8.82,4.72a35.88,35.88,0,0,1-8.56,10.68C451.22,384.13,438,387.68,426.78,387.68Z"/><rect class="cls-4" x="455.52" y="370.16" width="10" height="50.81"/></g><rect class="cls-4" x="181.01" y="303.37" width="26.36" height="8.76" rx="2.05"/><rect class="cls-4" x="196.83" y="366.21" width="26.36" height="8.76" rx="2.05"/><rect class="cls-4" x="199.17" y="306.17" width="83.87" height="2.58"/><rect class="cls-4" x="199.17" y="369.3" width="69.98" height="2.58"/><circle class="cls-5" cx="283.05" cy="307.53" r="7.9"/><circle class="cls-5" cx="283.05" cy="307.53" r="12.82"/><circle class="cls-5" cx="283.05" cy="307.53" r="17.81"/><circle class="cls-5" cx="269.15" cy="370.59" r="7.9"/><circle class="cls-5" cx="269.15" cy="370.59" r="12.82"/><circle class="cls-5" cx="269.15" cy="370.59" r="17.81"/></svg>