<svg id="Layer_1" data-name="Layer 1" xmlns="http://www.w3.org/2000/svg" viewBox="0 0 595.28 595.28"><defs><style>.cls-1,.cls-2,.cls-3{fill:none;stroke:#5b7781;}.cls-1,.cls-3{stroke-linecap:round;stroke-linejoin:round;}.cls-1{stroke-width:7px;}.cls-2{stroke-miterlimit:10;}.cls-2,.cls-3{stroke-width:10px;}</style></defs><path class="cls-1" d="M312.6,400.51a26.44,26.44,0,0,1-42.24-.89"/><path class="cls-1" d="M304.6,387.87a16.43,16.43,0,0,1-26.24-.55"/><path class="cls-1" d="M297.18,376a7.14,7.14,0,0,1-11.4-.24"/><path class="cls-2" d="M169,339.2s55,23.4,122.52,23.4,117.9-11.7,117.9-11.7"/><circle class="cls-3" cx="291.48" cy="297.64" r="129.34"/><rect class="cls-2" x="262.36" y="195.29" width="54.59" height="134.92" rx="19.1"/><polyline class="cls-2" points="299.82 330.75 299.82 349.81 279.49 349.81 279.49 330.75"/><polygon class="cls-2" points="384.02 210.06 316.95 242.11 316.95 220.12 369.96 194.82 384.02 210.06"/></svg>