<svg id="Layer_1" data-name="Layer 1" xmlns="http://www.w3.org/2000/svg" viewBox="0 0 595.28 595.28"><defs><style>.cls-1{fill:none;stroke:#5b7781;stroke-linecap:round;stroke-linejoin:round;stroke-width:10px;}.cls-2{fill:#5b7781;}</style></defs><circle class="cls-1" cx="291.48" cy="297.64" r="129.34"/><path class="cls-2" d="M225.87,359.32c-11-3.13-49.24-19.07-59.49-23.81l3.33-7.23c9.89,4.57,47.73,20.36,58.34,23.37Z"/><path class="cls-2" d="M286.41,367.73c-5,0-10.13-.17-15.13-.5l.54-8a218.72,218.72,0,0,0,29.19,0l.53,8C296.54,367.56,291.45,367.73,286.41,367.73Z"/><path class="cls-2" d="M347,359.34l-2.18-7.66c10.55-3,64.43-26.76,74.38-31.36l3.35,7.23C412.17,332.32,357.89,356.23,347,359.34Z"/><path class="cls-2" d="M286.41,407.56a219.05,219.05,0,0,1-92.59-20.28l3.34-7.23a211.19,211.19,0,0,0,89.25,19.54Z"/><path class="cls-2" d="M250.58,379.68a27.88,27.88,0,1,1,27.87-27.87A27.91,27.91,0,0,1,250.58,379.68Zm0-47.78a19.91,19.91,0,1,0,19.91,19.91A19.94,19.94,0,0,0,250.58,331.9Z"/><path class="cls-2" d="M322.25,379.68a27.88,27.88,0,1,1,27.88-27.87A27.9,27.9,0,0,1,322.25,379.68Zm0-47.78a19.91,19.91,0,1,0,19.91,19.91A19.94,19.94,0,0,0,322.25,331.9Z"/><path class="cls-2" d="M282.52,303.59a17,17,0,0,1-10.62-30.3l.1.12c1.4-1.32,3.73-3.19,7.48-6.19l40.93-32.74,5.31,6.65-48.48,38.79a8.5,8.5,0,0,0,10.22,13.58l22.19-15.75A29.39,29.39,0,0,1,321,272.84l29.62-5.93a21.15,21.15,0,0,0,10.87-5.81l9.78-9.79,6,6-9.79,9.79a29.7,29.7,0,0,1-15.21,8.14l-29.62,5.92a21,21,0,0,0-8.14,3.52l-22.18,15.74A16.89,16.89,0,0,1,282.52,303.59Z"/><path class="cls-2" d="M265.49,307.84l-.88,0c-9-.47-16.11-8.26-16.11-17.71v-41a17,17,0,0,1,4.63-11.66l33.63-35.7a14.85,14.85,0,0,1,10.65-4.48c5.33,0,13.82,1.21,22,2.38,6.47.92,13.16,1.87,16.24,1.87,8.63,0,30.72-6.18,38.5-8.56l2.49,8.13c-1.19.37-29.32,8.94-41,8.94-3.68,0-10.06-.91-17.44-2-7.55-1.08-16.11-2.29-20.83-2.29a6.36,6.36,0,0,0-4.54,1.89l-33.55,35.61a8.48,8.48,0,0,0-2.31,5.83v41c0,4.85,3.61,9,8,9.21a8.41,8.41,0,0,0,7.64-3.92l7.16,4.59A17.08,17.08,0,0,1,265.49,307.84Z"/><polygon class="cls-2" points="282.52 273.64 274.02 273.64 274.02 254.08 293.31 237.43 313.4 242.19 311.44 250.46 295.58 246.71 282.52 257.97 282.52 273.64"/><line class="cls-2" x1="179.38" y1="328.72" x2="182.95" y2="320.99"/></svg>