<svg id="Layer_1" data-name="Layer 1" xmlns="http://www.w3.org/2000/svg" viewBox="0 0 110 110"><defs><style>.cls-1{fill:#5b7781;}</style></defs><path class="cls-1" d="M55.2,109.8A54.8,54.8,0,1,1,110,55,54.86,54.86,0,0,1,55.2,109.8Zm0-105.52A50.72,50.72,0,1,0,105.92,55,50.78,50.78,0,0,0,55.2,4.28Z"/><path class="cls-1" d="M28.43,80.16c-4.49-1.28-20.08-7.78-24.27-9.71l1.36-3c4,1.86,19.47,8.3,23.8,9.54Z"/><path class="cls-1" d="M53.13,83.59c-2.06,0-4.13-.07-6.17-.2l.22-3.25a87.51,87.51,0,0,0,11.9,0l.22,3.25C57.26,83.52,55.19,83.59,53.13,83.59Z"/><path class="cls-1" d="M77.82,80.17,76.94,77c4.3-1.22,26.28-10.91,30.34-12.79l1.36,3C104.43,69.15,82.29,78.9,77.82,80.17Z"/><path class="cls-1" d="M53.13,99.84a89.36,89.36,0,0,1-37.77-8.27l1.36-2.95a86.19,86.19,0,0,0,36.41,8Z"/><path class="cls-1" d="M38.51,88.47A11.37,11.37,0,1,1,49.88,77.1,11.38,11.38,0,0,1,38.51,88.47Zm0-19.5a8.13,8.13,0,1,0,8.12,8.13A8.13,8.13,0,0,0,38.51,69Z"/><path class="cls-1" d="M67.75,88.47A11.37,11.37,0,1,1,79.12,77.1,11.38,11.38,0,0,1,67.75,88.47Zm0-19.5a8.13,8.13,0,1,0,8.12,8.13A8.13,8.13,0,0,0,67.75,69Z"/><path class="cls-1" d="M54.68,52.05a6.94,6.94,0,0,1-4.33-12.36l0,.05c.57-.54,1.52-1.3,3-2.52l16.7-13.36,2.16,2.71L52.53,42.39a3.47,3.47,0,0,0,4.17,5.55l9-6.43a12,12,0,0,1,4.65-2l12.08-2.42a8.69,8.69,0,0,0,4.43-2.37l4-4,2.46,2.46-4,4a12.07,12.07,0,0,1-6.2,3.32L71.08,42.91a8.56,8.56,0,0,0-3.32,1.43l-9.05,6.42A6.91,6.91,0,0,1,54.68,52.05Z"/><path class="cls-1" d="M47.73,53.79h-.36a7.11,7.11,0,0,1-6.57-7.23V29.83a6.94,6.94,0,0,1,1.89-4.76L56.41,10.51a6.05,6.05,0,0,1,4.34-1.83,76.77,76.77,0,0,1,9,1,66.36,66.36,0,0,0,6.63.77c3.52,0,5-.58,8.19-1.55l1,3.32a28.37,28.37,0,0,1-9.21,1.7,66.75,66.75,0,0,1-7.12-.8,77.61,77.61,0,0,0-8.5-.94,2.59,2.59,0,0,0-1.85.77L45.22,27.45a3.46,3.46,0,0,0-.95,2.38V46.55a3.68,3.68,0,0,0,3.29,3.76,3.42,3.42,0,0,0,3.11-1.6l2.92,1.87A7,7,0,0,1,47.73,53.79Z"/><polygon class="cls-1" points="54.68 39.83 51.21 39.83 51.21 31.85 59.08 25.06 67.28 27 66.48 30.38 60.01 28.85 54.68 33.44 54.68 39.83"/><line class="cls-1" x1="12.61" y1="62.3" x2="14.06" y2="59.15"/><path class="cls-1" d="M33,66.36a3.24,3.24,0,0,1-2.78-4.9l.93-1.56a1.6,1.6,0,0,0,.23-.83,1.63,1.63,0,0,0-1.62-1.62l.41-1.62a3.24,3.24,0,0,1,2.78,4.91L32,62.29a1.63,1.63,0,0,0,1.4,2.45Z"/><path class="cls-1" d="M45.19,66.36a3.24,3.24,0,0,1-2.78-4.9l.93-1.56a1.51,1.51,0,0,0,.23-.83A1.62,1.62,0,0,0,42,57.45l.41-1.62a3.24,3.24,0,0,1,2.78,4.91l-.93,1.55a1.62,1.62,0,0,0,1.39,2.45Z"/><path class="cls-1" d="M38.9,60.26a3.24,3.24,0,0,1-2.78-4.9l.93-1.55a1.62,1.62,0,0,0-1.39-2.45l.4-1.62a3.24,3.24,0,0,1,2.78,4.9l-.93,1.55a1.62,1.62,0,0,0,1.39,2.45Z"/><path class="cls-1" d="M61.73,65.72A3.24,3.24,0,0,1,59,60.82l.93-1.56a1.6,1.6,0,0,0,.23-.83,1.63,1.63,0,0,0-1.62-1.62l.41-1.62a3.24,3.24,0,0,1,2.78,4.91l-.93,1.55a1.62,1.62,0,0,0,1.39,2.45Z"/><path class="cls-1" d="M68.65,62.3a3.25,3.25,0,0,1-3.24-3.24,3.28,3.28,0,0,1,.46-1.67l.93-1.55a1.62,1.62,0,0,0-1.39-2.45l.41-1.62a3.24,3.24,0,0,1,2.78,4.9l-.93,1.56a1.6,1.6,0,0,0-.23.83,1.62,1.62,0,0,0,1.62,1.62Z"/><path class="cls-1" d="M75.92,66.56a3.24,3.24,0,0,1-2.78-4.91l.93-1.55a1.62,1.62,0,0,0-1.39-2.45L73.09,56a3.24,3.24,0,0,1,2.78,4.9l-.93,1.56a1.6,1.6,0,0,0-.23.83,1.63,1.63,0,0,0,1.62,1.62Z"/></svg>