<svg id="Layer_1" data-name="Layer 1" xmlns="http://www.w3.org/2000/svg" viewBox="0 0 110 110"><defs><style>.cls-1{fill:#5b7781;}</style></defs><path class="cls-1" d="M55.2,109.8A54.8,54.8,0,1,1,110,55,54.86,54.86,0,0,1,55.2,109.8Zm0-105.52A50.72,50.72,0,1,0,105.92,55,50.78,50.78,0,0,0,55.2,4.28Z"/><path class="cls-1" d="M28.43,80.16c-4.49-1.28-20.08-7.78-24.27-9.71l1.36-3c4,1.86,19.47,8.3,23.8,9.54Z"/><path class="cls-1" d="M53.13,83.59c-2.06,0-4.13-.07-6.17-.2l.22-3.25a87.51,87.51,0,0,0,11.9,0l.22,3.25C57.26,83.52,55.19,83.59,53.13,83.59Z"/><path class="cls-1" d="M77.82,80.17,76.94,77c4.3-1.22,26.28-10.91,30.34-12.79l1.36,3C104.43,69.15,82.29,78.9,77.82,80.17Z"/><path class="cls-1" d="M53.13,99.84a89.36,89.36,0,0,1-37.77-8.27l1.36-2.95a86.19,86.19,0,0,0,36.41,8Z"/><path class="cls-1" d="M38.51,88.47A11.37,11.37,0,1,1,49.88,77.1,11.38,11.38,0,0,1,38.51,88.47Zm0-19.5a8.13,8.13,0,1,0,8.12,8.13A8.13,8.13,0,0,0,38.51,69Z"/><path class="cls-1" d="M67.75,88.47A11.37,11.37,0,1,1,79.12,77.1,11.38,11.38,0,0,1,67.75,88.47Zm0-19.5a8.13,8.13,0,1,0,8.12,8.13A8.13,8.13,0,0,0,67.75,69Z"/><path class="cls-1" d="M51.54,57.43a6.94,6.94,0,0,1-4.33-12.36l0,0c.57-.54,1.52-1.3,3-2.53L67,29.24,69.17,32,49.39,47.77A3.47,3.47,0,0,0,51.54,54a3.4,3.4,0,0,0,2-.65l9-6.42a12,12,0,0,1,4.65-2l12.08-2.41a8.64,8.64,0,0,0,4.43-2.38l4-4,2.46,2.45-4,4A12.07,12.07,0,0,1,80,45.87L67.94,48.28a8.58,8.58,0,0,0-3.32,1.44l-9.05,6.42A6.91,6.91,0,0,1,51.54,57.43Z"/><path class="cls-1" d="M44.59,59.16h-.36a7.09,7.09,0,0,1-6.57-7.22V35.21a6.94,6.94,0,0,1,1.89-4.76L53.27,15.89a6,6,0,0,1,4.34-1.83,76.77,76.77,0,0,1,9,1c2.64.37,5.37.76,6.63.76,3.52,0,12.53-2.52,15.7-3.49l1,3.32c-.49.15-12,3.64-16.72,3.64a64.45,64.45,0,0,1-7.12-.8,77.24,77.24,0,0,0-8.5-.93,2.6,2.6,0,0,0-1.85.77L42.08,32.83a3.44,3.44,0,0,0-.95,2.38V51.93a3.68,3.68,0,0,0,3.29,3.76,3.42,3.42,0,0,0,3.11-1.6L50.45,56A7,7,0,0,1,44.59,59.16Z"/><polygon class="cls-1" points="51.54 45.21 48.07 45.21 48.07 37.23 55.94 30.44 64.14 32.38 63.34 35.76 56.87 34.22 51.54 38.82 51.54 45.21"/><line class="cls-1" x1="9.47" y1="67.68" x2="10.92" y2="64.53"/></svg>